<?xml version="1.0" encoding="utf-8" standalone="no"?>
<!DOCTYPE svg PUBLIC "-//W3C//DTD SVG 1.1//EN"
  "http://www.w3.org/Graphics/SVG/1.1/DTD/svg11.dtd">
<svg xmlns:xlink="http://www.w3.org/1999/xlink" width="784.322266pt" height="494.331328pt" viewBox="0 0 784.322266 494.331328" xmlns="http://www.w3.org/2000/svg" version="1.1">
 <metadata>
  <rdf:RDF xmlns:dc="http://purl.org/dc/elements/1.1/" xmlns:cc="http://creativecommons.org/ns#" xmlns:rdf="http://www.w3.org/1999/02/22-rdf-syntax-ns#">
   <cc:Work>
    <dc:type rdf:resource="http://purl.org/dc/dcmitype/StillImage"/>
    <dc:date>2022-12-14T14:37:06.311200</dc:date>
    <dc:format>image/svg+xml</dc:format>
    <dc:creator>
     <cc:Agent>
      <dc:title>Matplotlib v3.5.2, https://matplotlib.org/</dc:title>
     </cc:Agent>
    </dc:creator>
   </cc:Work>
  </rdf:RDF>
 </metadata>
 <defs>
  <style type="text/css">*{stroke-linejoin: round; stroke-linecap: butt}</style>
 </defs>
 <g id="figure_1">
  <g id="patch_1">
   <path d="M 0 494.331328 
L 784.322266 494.331328 
L 784.322266 0 
L 0 0 
L 0 494.331328 
z
" style="fill: none"/>
  </g>
  <g id="axes_1">
   <g id="patch_2">
    <path d="M 65.326641 442.08 
L 734.926641 442.08 
L 734.926641 7.2 
L 65.326641 7.2 
z
" style="fill: #ffffff"/>
   </g>
   <g id="matplotlib.axis_1">
    <g id="xtick_1">
     <g id="line2d_1">
      <path d="M 95.712269 442.08 
L 95.712269 7.2 
" clip-path="url(#p971cc12c80)" style="fill: none; stroke: #cccccc; stroke-linecap: round"/>
     </g>
     <g id="text_1">
      <!-- 0 -->
      <g style="fill: #262626" transform="translate(91.124495 463.390391)scale(0.165 -0.165)">
       <defs>
        <path id="ArialMT-30" d="M 266 2259 
Q 266 3072 433 3567 
Q 600 4063 929 4331 
Q 1259 4600 1759 4600 
Q 2128 4600 2406 4451 
Q 2684 4303 2865 4023 
Q 3047 3744 3150 3342 
Q 3253 2941 3253 2259 
Q 3253 1453 3087 958 
Q 2922 463 2592 192 
Q 2263 -78 1759 -78 
Q 1097 -78 719 397 
Q 266 969 266 2259 
z
M 844 2259 
Q 844 1131 1108 757 
Q 1372 384 1759 384 
Q 2147 384 2411 759 
Q 2675 1134 2675 2259 
Q 2675 3391 2411 3762 
Q 2147 4134 1753 4134 
Q 1366 4134 1134 3806 
Q 844 3388 844 2259 
z
" transform="scale(0.015625)"/>
       </defs>
       <use xlink:href="#ArialMT-30"/>
      </g>
     </g>
    </g>
    <g id="xtick_2">
     <g id="line2d_2">
      <path d="M 197.183726 442.08 
L 197.183726 7.2 
" clip-path="url(#p971cc12c80)" style="fill: none; stroke: #cccccc; stroke-linecap: round"/>
     </g>
     <g id="text_2">
      <!-- 2000 -->
      <g style="fill: #262626" transform="translate(178.832632 463.390391)scale(0.165 -0.165)">
       <defs>
        <path id="ArialMT-32" d="M 3222 541 
L 3222 0 
L 194 0 
Q 188 203 259 391 
Q 375 700 629 1000 
Q 884 1300 1366 1694 
Q 2113 2306 2375 2664 
Q 2638 3022 2638 3341 
Q 2638 3675 2398 3904 
Q 2159 4134 1775 4134 
Q 1369 4134 1125 3890 
Q 881 3647 878 3216 
L 300 3275 
Q 359 3922 746 4261 
Q 1134 4600 1788 4600 
Q 2447 4600 2831 4234 
Q 3216 3869 3216 3328 
Q 3216 3053 3103 2787 
Q 2991 2522 2730 2228 
Q 2469 1934 1863 1422 
Q 1356 997 1212 845 
Q 1069 694 975 541 
L 3222 541 
z
" transform="scale(0.015625)"/>
       </defs>
       <use xlink:href="#ArialMT-32"/>
       <use xlink:href="#ArialMT-30" x="55.615234"/>
       <use xlink:href="#ArialMT-30" x="111.230469"/>
       <use xlink:href="#ArialMT-30" x="166.845703"/>
      </g>
     </g>
    </g>
    <g id="xtick_3">
     <g id="line2d_3">
      <path d="M 298.655183 442.08 
L 298.655183 7.2 
" clip-path="url(#p971cc12c80)" style="fill: none; stroke: #cccccc; stroke-linecap: round"/>
     </g>
     <g id="text_3">
      <!-- 4000 -->
      <g style="fill: #262626" transform="translate(280.30409 463.390391)scale(0.165 -0.165)">
       <defs>
        <path id="ArialMT-34" d="M 2069 0 
L 2069 1097 
L 81 1097 
L 81 1613 
L 2172 4581 
L 2631 4581 
L 2631 1613 
L 3250 1613 
L 3250 1097 
L 2631 1097 
L 2631 0 
L 2069 0 
z
M 2069 1613 
L 2069 3678 
L 634 1613 
L 2069 1613 
z
" transform="scale(0.015625)"/>
       </defs>
       <use xlink:href="#ArialMT-34"/>
       <use xlink:href="#ArialMT-30" x="55.615234"/>
       <use xlink:href="#ArialMT-30" x="111.230469"/>
       <use xlink:href="#ArialMT-30" x="166.845703"/>
      </g>
     </g>
    </g>
    <g id="xtick_4">
     <g id="line2d_4">
      <path d="M 400.126641 442.08 
L 400.126641 7.2 
" clip-path="url(#p971cc12c80)" style="fill: none; stroke: #cccccc; stroke-linecap: round"/>
     </g>
     <g id="text_4">
      <!-- 6000 -->
      <g style="fill: #262626" transform="translate(381.775547 463.390391)scale(0.165 -0.165)">
       <defs>
        <path id="ArialMT-36" d="M 3184 3459 
L 2625 3416 
Q 2550 3747 2413 3897 
Q 2184 4138 1850 4138 
Q 1581 4138 1378 3988 
Q 1113 3794 959 3422 
Q 806 3050 800 2363 
Q 1003 2672 1297 2822 
Q 1591 2972 1913 2972 
Q 2475 2972 2870 2558 
Q 3266 2144 3266 1488 
Q 3266 1056 3080 686 
Q 2894 316 2569 119 
Q 2244 -78 1831 -78 
Q 1128 -78 684 439 
Q 241 956 241 2144 
Q 241 3472 731 4075 
Q 1159 4600 1884 4600 
Q 2425 4600 2770 4297 
Q 3116 3994 3184 3459 
z
M 888 1484 
Q 888 1194 1011 928 
Q 1134 663 1356 523 
Q 1578 384 1822 384 
Q 2178 384 2434 671 
Q 2691 959 2691 1453 
Q 2691 1928 2437 2201 
Q 2184 2475 1800 2475 
Q 1419 2475 1153 2201 
Q 888 1928 888 1484 
z
" transform="scale(0.015625)"/>
       </defs>
       <use xlink:href="#ArialMT-36"/>
       <use xlink:href="#ArialMT-30" x="55.615234"/>
       <use xlink:href="#ArialMT-30" x="111.230469"/>
       <use xlink:href="#ArialMT-30" x="166.845703"/>
      </g>
     </g>
    </g>
    <g id="xtick_5">
     <g id="line2d_5">
      <path d="M 501.598098 442.08 
L 501.598098 7.2 
" clip-path="url(#p971cc12c80)" style="fill: none; stroke: #cccccc; stroke-linecap: round"/>
     </g>
     <g id="text_5">
      <!-- 8000 -->
      <g style="fill: #262626" transform="translate(483.247004 463.390391)scale(0.165 -0.165)">
       <defs>
        <path id="ArialMT-38" d="M 1131 2484 
Q 781 2613 612 2850 
Q 444 3088 444 3419 
Q 444 3919 803 4259 
Q 1163 4600 1759 4600 
Q 2359 4600 2725 4251 
Q 3091 3903 3091 3403 
Q 3091 3084 2923 2848 
Q 2756 2613 2416 2484 
Q 2838 2347 3058 2040 
Q 3278 1734 3278 1309 
Q 3278 722 2862 322 
Q 2447 -78 1769 -78 
Q 1091 -78 675 323 
Q 259 725 259 1325 
Q 259 1772 486 2073 
Q 713 2375 1131 2484 
z
M 1019 3438 
Q 1019 3113 1228 2906 
Q 1438 2700 1772 2700 
Q 2097 2700 2305 2904 
Q 2513 3109 2513 3406 
Q 2513 3716 2298 3927 
Q 2084 4138 1766 4138 
Q 1444 4138 1231 3931 
Q 1019 3725 1019 3438 
z
M 838 1322 
Q 838 1081 952 856 
Q 1066 631 1291 507 
Q 1516 384 1775 384 
Q 2178 384 2440 643 
Q 2703 903 2703 1303 
Q 2703 1709 2433 1975 
Q 2163 2241 1756 2241 
Q 1359 2241 1098 1978 
Q 838 1716 838 1322 
z
" transform="scale(0.015625)"/>
       </defs>
       <use xlink:href="#ArialMT-38"/>
       <use xlink:href="#ArialMT-30" x="55.615234"/>
       <use xlink:href="#ArialMT-30" x="111.230469"/>
       <use xlink:href="#ArialMT-30" x="166.845703"/>
      </g>
     </g>
    </g>
    <g id="xtick_6">
     <g id="line2d_6">
      <path d="M 603.069555 442.08 
L 603.069555 7.2 
" clip-path="url(#p971cc12c80)" style="fill: none; stroke: #cccccc; stroke-linecap: round"/>
     </g>
     <g id="text_6">
      <!-- 10000 -->
      <g style="fill: #262626" transform="translate(580.130688 463.390391)scale(0.165 -0.165)">
       <defs>
        <path id="ArialMT-31" d="M 2384 0 
L 1822 0 
L 1822 3584 
Q 1619 3391 1289 3197 
Q 959 3003 697 2906 
L 697 3450 
Q 1169 3672 1522 3987 
Q 1875 4303 2022 4600 
L 2384 4600 
L 2384 0 
z
" transform="scale(0.015625)"/>
       </defs>
       <use xlink:href="#ArialMT-31"/>
       <use xlink:href="#ArialMT-30" x="55.615234"/>
       <use xlink:href="#ArialMT-30" x="111.230469"/>
       <use xlink:href="#ArialMT-30" x="166.845703"/>
       <use xlink:href="#ArialMT-30" x="222.460938"/>
      </g>
     </g>
    </g>
    <g id="xtick_7">
     <g id="line2d_7">
      <path d="M 704.541013 442.08 
L 704.541013 7.2 
" clip-path="url(#p971cc12c80)" style="fill: none; stroke: #cccccc; stroke-linecap: round"/>
     </g>
     <g id="text_7">
      <!-- 12000 -->
      <g style="fill: #262626" transform="translate(681.602146 463.390391)scale(0.165 -0.165)">
       <use xlink:href="#ArialMT-31"/>
       <use xlink:href="#ArialMT-32" x="55.615234"/>
       <use xlink:href="#ArialMT-30" x="111.230469"/>
       <use xlink:href="#ArialMT-30" x="166.845703"/>
       <use xlink:href="#ArialMT-30" x="222.460938"/>
      </g>
     </g>
    </g>
    <g id="text_8">
     <!-- Evaluations -->
     <g style="fill: #262626" transform="translate(353.599453 483.553828)scale(0.18 -0.18)">
      <defs>
       <path id="ArialMT-45" d="M 506 0 
L 506 4581 
L 3819 4581 
L 3819 4041 
L 1113 4041 
L 1113 2638 
L 3647 2638 
L 3647 2100 
L 1113 2100 
L 1113 541 
L 3925 541 
L 3925 0 
L 506 0 
z
" transform="scale(0.015625)"/>
       <path id="ArialMT-76" d="M 1344 0 
L 81 3319 
L 675 3319 
L 1388 1331 
Q 1503 1009 1600 663 
Q 1675 925 1809 1294 
L 2547 3319 
L 3125 3319 
L 1869 0 
L 1344 0 
z
" transform="scale(0.015625)"/>
       <path id="ArialMT-61" d="M 2588 409 
Q 2275 144 1986 34 
Q 1697 -75 1366 -75 
Q 819 -75 525 192 
Q 231 459 231 875 
Q 231 1119 342 1320 
Q 453 1522 633 1644 
Q 813 1766 1038 1828 
Q 1203 1872 1538 1913 
Q 2219 1994 2541 2106 
Q 2544 2222 2544 2253 
Q 2544 2597 2384 2738 
Q 2169 2928 1744 2928 
Q 1347 2928 1158 2789 
Q 969 2650 878 2297 
L 328 2372 
Q 403 2725 575 2942 
Q 747 3159 1072 3276 
Q 1397 3394 1825 3394 
Q 2250 3394 2515 3294 
Q 2781 3194 2906 3042 
Q 3031 2891 3081 2659 
Q 3109 2516 3109 2141 
L 3109 1391 
Q 3109 606 3145 398 
Q 3181 191 3288 0 
L 2700 0 
Q 2613 175 2588 409 
z
M 2541 1666 
Q 2234 1541 1622 1453 
Q 1275 1403 1131 1340 
Q 988 1278 909 1158 
Q 831 1038 831 891 
Q 831 666 1001 516 
Q 1172 366 1500 366 
Q 1825 366 2078 508 
Q 2331 650 2450 897 
Q 2541 1088 2541 1459 
L 2541 1666 
z
" transform="scale(0.015625)"/>
       <path id="ArialMT-6c" d="M 409 0 
L 409 4581 
L 972 4581 
L 972 0 
L 409 0 
z
" transform="scale(0.015625)"/>
       <path id="ArialMT-75" d="M 2597 0 
L 2597 488 
Q 2209 -75 1544 -75 
Q 1250 -75 995 37 
Q 741 150 617 320 
Q 494 491 444 738 
Q 409 903 409 1263 
L 409 3319 
L 972 3319 
L 972 1478 
Q 972 1038 1006 884 
Q 1059 663 1231 536 
Q 1403 409 1656 409 
Q 1909 409 2131 539 
Q 2353 669 2445 892 
Q 2538 1116 2538 1541 
L 2538 3319 
L 3100 3319 
L 3100 0 
L 2597 0 
z
" transform="scale(0.015625)"/>
       <path id="ArialMT-74" d="M 1650 503 
L 1731 6 
Q 1494 -44 1306 -44 
Q 1000 -44 831 53 
Q 663 150 594 308 
Q 525 466 525 972 
L 525 2881 
L 113 2881 
L 113 3319 
L 525 3319 
L 525 4141 
L 1084 4478 
L 1084 3319 
L 1650 3319 
L 1650 2881 
L 1084 2881 
L 1084 941 
Q 1084 700 1114 631 
Q 1144 563 1211 522 
Q 1278 481 1403 481 
Q 1497 481 1650 503 
z
" transform="scale(0.015625)"/>
       <path id="ArialMT-69" d="M 425 3934 
L 425 4581 
L 988 4581 
L 988 3934 
L 425 3934 
z
M 425 0 
L 425 3319 
L 988 3319 
L 988 0 
L 425 0 
z
" transform="scale(0.015625)"/>
       <path id="ArialMT-6f" d="M 213 1659 
Q 213 2581 725 3025 
Q 1153 3394 1769 3394 
Q 2453 3394 2887 2945 
Q 3322 2497 3322 1706 
Q 3322 1066 3130 698 
Q 2938 331 2570 128 
Q 2203 -75 1769 -75 
Q 1072 -75 642 372 
Q 213 819 213 1659 
z
M 791 1659 
Q 791 1022 1069 705 
Q 1347 388 1769 388 
Q 2188 388 2466 706 
Q 2744 1025 2744 1678 
Q 2744 2294 2464 2611 
Q 2184 2928 1769 2928 
Q 1347 2928 1069 2612 
Q 791 2297 791 1659 
z
" transform="scale(0.015625)"/>
       <path id="ArialMT-6e" d="M 422 0 
L 422 3319 
L 928 3319 
L 928 2847 
Q 1294 3394 1984 3394 
Q 2284 3394 2536 3286 
Q 2788 3178 2913 3003 
Q 3038 2828 3088 2588 
Q 3119 2431 3119 2041 
L 3119 0 
L 2556 0 
L 2556 2019 
Q 2556 2363 2490 2533 
Q 2425 2703 2258 2804 
Q 2091 2906 1866 2906 
Q 1506 2906 1245 2678 
Q 984 2450 984 1813 
L 984 0 
L 422 0 
z
" transform="scale(0.015625)"/>
       <path id="ArialMT-73" d="M 197 991 
L 753 1078 
Q 800 744 1014 566 
Q 1228 388 1613 388 
Q 2000 388 2187 545 
Q 2375 703 2375 916 
Q 2375 1106 2209 1216 
Q 2094 1291 1634 1406 
Q 1016 1563 777 1677 
Q 538 1791 414 1992 
Q 291 2194 291 2438 
Q 291 2659 392 2848 
Q 494 3038 669 3163 
Q 800 3259 1026 3326 
Q 1253 3394 1513 3394 
Q 1903 3394 2198 3281 
Q 2494 3169 2634 2976 
Q 2775 2784 2828 2463 
L 2278 2388 
Q 2241 2644 2061 2787 
Q 1881 2931 1553 2931 
Q 1166 2931 1000 2803 
Q 834 2675 834 2503 
Q 834 2394 903 2306 
Q 972 2216 1119 2156 
Q 1203 2125 1616 2013 
Q 2213 1853 2448 1751 
Q 2684 1650 2818 1456 
Q 2953 1263 2953 975 
Q 2953 694 2789 445 
Q 2625 197 2315 61 
Q 2006 -75 1616 -75 
Q 969 -75 630 194 
Q 291 463 197 991 
z
" transform="scale(0.015625)"/>
      </defs>
      <use xlink:href="#ArialMT-45"/>
      <use xlink:href="#ArialMT-76" x="66.699219"/>
      <use xlink:href="#ArialMT-61" x="116.699219"/>
      <use xlink:href="#ArialMT-6c" x="172.314453"/>
      <use xlink:href="#ArialMT-75" x="194.53125"/>
      <use xlink:href="#ArialMT-61" x="250.146484"/>
      <use xlink:href="#ArialMT-74" x="305.761719"/>
      <use xlink:href="#ArialMT-69" x="333.544922"/>
      <use xlink:href="#ArialMT-6f" x="355.761719"/>
      <use xlink:href="#ArialMT-6e" x="411.376953"/>
      <use xlink:href="#ArialMT-73" x="466.992188"/>
     </g>
    </g>
   </g>
   <g id="matplotlib.axis_2">
    <g id="ytick_1">
     <g id="line2d_8">
      <path d="M 65.326641 427.402418 
L 734.926641 427.402418 
" clip-path="url(#p971cc12c80)" style="fill: none; stroke: #cccccc; stroke-linecap: round"/>
     </g>
     <g id="line2d_9">
      <defs>
       <path id="m2ea6ca180c" d="M 0 0 
L -6 0 
" style="stroke: #262626; stroke-width: 1.25"/>
      </defs>
      <g>
       <use xlink:href="#m2ea6ca180c" x="65.326641" y="427.402418" style="fill: #262626; stroke: #262626; stroke-width: 1.25"/>
      </g>
     </g>
     <g id="text_9">
      <!-- 60 -->
      <g style="fill: #262626" transform="translate(37.475547 433.307614)scale(0.165 -0.165)">
       <use xlink:href="#ArialMT-36"/>
       <use xlink:href="#ArialMT-30" x="55.615234"/>
      </g>
     </g>
    </g>
    <g id="ytick_2">
     <g id="line2d_10">
      <path d="M 65.326641 352.761287 
L 734.926641 352.761287 
" clip-path="url(#p971cc12c80)" style="fill: none; stroke: #cccccc; stroke-linecap: round"/>
     </g>
     <g id="line2d_11">
      <g>
       <use xlink:href="#m2ea6ca180c" x="65.326641" y="352.761287" style="fill: #262626; stroke: #262626; stroke-width: 1.25"/>
      </g>
     </g>
     <g id="text_10">
      <!-- 80 -->
      <g style="fill: #262626" transform="translate(37.475547 358.666482)scale(0.165 -0.165)">
       <use xlink:href="#ArialMT-38"/>
       <use xlink:href="#ArialMT-30" x="55.615234"/>
      </g>
     </g>
    </g>
    <g id="ytick_3">
     <g id="line2d_12">
      <path d="M 65.326641 278.120156 
L 734.926641 278.120156 
" clip-path="url(#p971cc12c80)" style="fill: none; stroke: #cccccc; stroke-linecap: round"/>
     </g>
     <g id="line2d_13">
      <g>
       <use xlink:href="#m2ea6ca180c" x="65.326641" y="278.120156" style="fill: #262626; stroke: #262626; stroke-width: 1.25"/>
      </g>
     </g>
     <g id="text_11">
      <!-- 100 -->
      <g style="fill: #262626" transform="translate(28.3 284.025351)scale(0.165 -0.165)">
       <use xlink:href="#ArialMT-31"/>
       <use xlink:href="#ArialMT-30" x="55.615234"/>
       <use xlink:href="#ArialMT-30" x="111.230469"/>
      </g>
     </g>
    </g>
    <g id="ytick_4">
     <g id="line2d_14">
      <path d="M 65.326641 203.479025 
L 734.926641 203.479025 
" clip-path="url(#p971cc12c80)" style="fill: none; stroke: #cccccc; stroke-linecap: round"/>
     </g>
     <g id="line2d_15">
      <g>
       <use xlink:href="#m2ea6ca180c" x="65.326641" y="203.479025" style="fill: #262626; stroke: #262626; stroke-width: 1.25"/>
      </g>
     </g>
     <g id="text_12">
      <!-- 120 -->
      <g style="fill: #262626" transform="translate(28.3 209.38422)scale(0.165 -0.165)">
       <use xlink:href="#ArialMT-31"/>
       <use xlink:href="#ArialMT-32" x="55.615234"/>
       <use xlink:href="#ArialMT-30" x="111.230469"/>
      </g>
     </g>
    </g>
    <g id="ytick_5">
     <g id="line2d_16">
      <path d="M 65.326641 128.837894 
L 734.926641 128.837894 
" clip-path="url(#p971cc12c80)" style="fill: none; stroke: #cccccc; stroke-linecap: round"/>
     </g>
     <g id="line2d_17">
      <g>
       <use xlink:href="#m2ea6ca180c" x="65.326641" y="128.837894" style="fill: #262626; stroke: #262626; stroke-width: 1.25"/>
      </g>
     </g>
     <g id="text_13">
      <!-- 140 -->
      <g style="fill: #262626" transform="translate(28.3 134.743089)scale(0.165 -0.165)">
       <use xlink:href="#ArialMT-31"/>
       <use xlink:href="#ArialMT-34" x="55.615234"/>
       <use xlink:href="#ArialMT-30" x="111.230469"/>
      </g>
     </g>
    </g>
    <g id="ytick_6">
     <g id="line2d_18">
      <path d="M 65.326641 54.196762 
L 734.926641 54.196762 
" clip-path="url(#p971cc12c80)" style="fill: none; stroke: #cccccc; stroke-linecap: round"/>
     </g>
     <g id="line2d_19">
      <g>
       <use xlink:href="#m2ea6ca180c" x="65.326641" y="54.196762" style="fill: #262626; stroke: #262626; stroke-width: 1.25"/>
      </g>
     </g>
     <g id="text_14">
      <!-- 160 -->
      <g style="fill: #262626" transform="translate(28.3 60.101958)scale(0.165 -0.165)">
       <use xlink:href="#ArialMT-31"/>
       <use xlink:href="#ArialMT-36" x="55.615234"/>
       <use xlink:href="#ArialMT-30" x="111.230469"/>
      </g>
     </g>
    </g>
    <g id="text_15">
     <!-- Potential Energy, $E$ -->
     <g style="fill: #262626" transform="translate(20.34 301.41)rotate(-90)scale(0.18 -0.18)">
      <defs>
       <path id="ArialMT-50" d="M 494 0 
L 494 4581 
L 2222 4581 
Q 2678 4581 2919 4538 
Q 3256 4481 3484 4323 
Q 3713 4166 3852 3881 
Q 3991 3597 3991 3256 
Q 3991 2672 3619 2267 
Q 3247 1863 2275 1863 
L 1100 1863 
L 1100 0 
L 494 0 
z
M 1100 2403 
L 2284 2403 
Q 2872 2403 3119 2622 
Q 3366 2841 3366 3238 
Q 3366 3525 3220 3729 
Q 3075 3934 2838 4000 
Q 2684 4041 2272 4041 
L 1100 4041 
L 1100 2403 
z
" transform="scale(0.015625)"/>
       <path id="ArialMT-65" d="M 2694 1069 
L 3275 997 
Q 3138 488 2766 206 
Q 2394 -75 1816 -75 
Q 1088 -75 661 373 
Q 234 822 234 1631 
Q 234 2469 665 2931 
Q 1097 3394 1784 3394 
Q 2450 3394 2872 2941 
Q 3294 2488 3294 1666 
Q 3294 1616 3291 1516 
L 816 1516 
Q 847 969 1125 678 
Q 1403 388 1819 388 
Q 2128 388 2347 550 
Q 2566 713 2694 1069 
z
M 847 1978 
L 2700 1978 
Q 2663 2397 2488 2606 
Q 2219 2931 1791 2931 
Q 1403 2931 1139 2672 
Q 875 2413 847 1978 
z
" transform="scale(0.015625)"/>
       <path id="ArialMT-20" transform="scale(0.015625)"/>
       <path id="ArialMT-72" d="M 416 0 
L 416 3319 
L 922 3319 
L 922 2816 
Q 1116 3169 1280 3281 
Q 1444 3394 1641 3394 
Q 1925 3394 2219 3213 
L 2025 2691 
Q 1819 2813 1613 2813 
Q 1428 2813 1281 2702 
Q 1134 2591 1072 2394 
Q 978 2094 978 1738 
L 978 0 
L 416 0 
z
" transform="scale(0.015625)"/>
       <path id="ArialMT-67" d="M 319 -275 
L 866 -356 
Q 900 -609 1056 -725 
Q 1266 -881 1628 -881 
Q 2019 -881 2231 -725 
Q 2444 -569 2519 -288 
Q 2563 -116 2559 434 
Q 2191 0 1641 0 
Q 956 0 581 494 
Q 206 988 206 1678 
Q 206 2153 378 2554 
Q 550 2956 876 3175 
Q 1203 3394 1644 3394 
Q 2231 3394 2613 2919 
L 2613 3319 
L 3131 3319 
L 3131 450 
Q 3131 -325 2973 -648 
Q 2816 -972 2473 -1159 
Q 2131 -1347 1631 -1347 
Q 1038 -1347 672 -1080 
Q 306 -813 319 -275 
z
M 784 1719 
Q 784 1066 1043 766 
Q 1303 466 1694 466 
Q 2081 466 2343 764 
Q 2606 1063 2606 1700 
Q 2606 2309 2336 2618 
Q 2066 2928 1684 2928 
Q 1309 2928 1046 2623 
Q 784 2319 784 1719 
z
" transform="scale(0.015625)"/>
       <path id="ArialMT-79" d="M 397 -1278 
L 334 -750 
Q 519 -800 656 -800 
Q 844 -800 956 -737 
Q 1069 -675 1141 -563 
Q 1194 -478 1313 -144 
Q 1328 -97 1363 -6 
L 103 3319 
L 709 3319 
L 1400 1397 
Q 1534 1031 1641 628 
Q 1738 1016 1872 1384 
L 2581 3319 
L 3144 3319 
L 1881 -56 
Q 1678 -603 1566 -809 
Q 1416 -1088 1222 -1217 
Q 1028 -1347 759 -1347 
Q 597 -1347 397 -1278 
z
" transform="scale(0.015625)"/>
       <path id="ArialMT-2c" d="M 569 0 
L 569 641 
L 1209 641 
L 1209 0 
Q 1209 -353 1084 -570 
Q 959 -788 688 -906 
L 531 -666 
Q 709 -588 793 -436 
Q 878 -284 888 0 
L 569 0 
z
" transform="scale(0.015625)"/>
       <path id="DejaVuSans-Oblique-45" d="M 1081 4666 
L 4031 4666 
L 3928 4134 
L 1606 4134 
L 1338 2753 
L 3566 2753 
L 3463 2222 
L 1234 2222 
L 909 531 
L 3284 531 
L 3181 0 
L 172 0 
L 1081 4666 
z
" transform="scale(0.015625)"/>
      </defs>
      <use xlink:href="#ArialMT-50" transform="translate(0 0.09375)"/>
      <use xlink:href="#ArialMT-6f" transform="translate(66.699219 0.09375)"/>
      <use xlink:href="#ArialMT-74" transform="translate(122.314453 0.09375)"/>
      <use xlink:href="#ArialMT-65" transform="translate(150.097656 0.09375)"/>
      <use xlink:href="#ArialMT-6e" transform="translate(205.712891 0.09375)"/>
      <use xlink:href="#ArialMT-74" transform="translate(261.328125 0.09375)"/>
      <use xlink:href="#ArialMT-69" transform="translate(289.111328 0.09375)"/>
      <use xlink:href="#ArialMT-61" transform="translate(311.328125 0.09375)"/>
      <use xlink:href="#ArialMT-6c" transform="translate(366.943359 0.09375)"/>
      <use xlink:href="#ArialMT-20" transform="translate(389.160156 0.09375)"/>
      <use xlink:href="#ArialMT-45" transform="translate(416.943359 0.09375)"/>
      <use xlink:href="#ArialMT-6e" transform="translate(483.642578 0.09375)"/>
      <use xlink:href="#ArialMT-65" transform="translate(539.257812 0.09375)"/>
      <use xlink:href="#ArialMT-72" transform="translate(594.873047 0.09375)"/>
      <use xlink:href="#ArialMT-67" transform="translate(628.173828 0.09375)"/>
      <use xlink:href="#ArialMT-79" transform="translate(683.789062 0.09375)"/>
      <use xlink:href="#ArialMT-2c" transform="translate(733.789062 0.09375)"/>
      <use xlink:href="#ArialMT-20" transform="translate(761.572266 0.09375)"/>
      <use xlink:href="#DejaVuSans-Oblique-45" transform="translate(789.355469 0.09375)"/>
     </g>
    </g>
   </g>
   <g id="PolyCollection_1"/>
   <g id="PolyCollection_2"/>
   <g id="PolyCollection_3"/>
   <g id="PolyCollection_4"/>
   <g id="PolyCollection_5">
    <defs>
     <path id="m4fc5bfa85e" d="M 98.756412 -269.321759 
L 98.756412 -256.720251 
L 104.819332 -240.954327 
L 110.907619 -250.853046 
L 116.995907 -212.605432 
L 123.084194 -204.220561 
L 129.172482 -219.715092 
L 135.260769 -206.958211 
L 141.349056 -167.032685 
L 147.437344 -149.233346 
L 153.525631 -153.452442 
L 159.613919 -128.527063 
L 165.702206 -97.35201 
L 171.790494 -98.372999 
L 177.878781 -95.024165 
L 442.719285 -76.640632 
L 442.719285 -76.714289 
L 442.719285 -76.714289 
L 177.878781 -95.50139 
L 171.790494 -98.568826 
L 165.702206 -98.296847 
L 159.613919 -132.136801 
L 153.525631 -155.499174 
L 147.437344 -152.204247 
L 141.349056 -171.434377 
L 135.260769 -211.026416 
L 129.172482 -230.650808 
L 123.084194 -210.462814 
L 116.995907 -219.193063 
L 110.907619 -258.812278 
L 104.819332 -248.60486 
L 98.756412 -269.321759 
z
" style="stroke: #6495ed; stroke-opacity: 0.5"/>
    </defs>
    <g clip-path="url(#p971cc12c80)">
     <use xlink:href="#m4fc5bfa85e" x="0" y="494.331328" style="fill: #6495ed; fill-opacity: 0.5; stroke: #6495ed; stroke-opacity: 0.5"/>
    </g>
   </g>
   <g id="PolyCollection_6">
    <defs>
     <path id="m13808db37c" d="M 98.756412 -244.118744 
L 98.756412 -256.720251 
L 104.819332 -240.954327 
L 110.907619 -250.853046 
L 116.995907 -212.605432 
L 123.084194 -204.220561 
L 129.172482 -219.715092 
L 135.260769 -206.958211 
L 141.349056 -167.032685 
L 147.437344 -149.233346 
L 153.525631 -153.452442 
L 159.613919 -128.527063 
L 165.702206 -97.35201 
L 171.790494 -98.372999 
L 177.878781 -95.024165 
L 442.719285 -76.640632 
L 442.719285 -76.566976 
L 442.719285 -76.566976 
L 177.878781 -94.54694 
L 171.790494 -98.177171 
L 165.702206 -96.407174 
L 159.613919 -124.917324 
L 153.525631 -151.40571 
L 147.437344 -146.262445 
L 141.349056 -162.630993 
L 135.260769 -202.890005 
L 129.172482 -208.779375 
L 123.084194 -197.978308 
L 116.995907 -206.017801 
L 110.907619 -242.893815 
L 104.819332 -233.303793 
L 98.756412 -244.118744 
z
" style="stroke: #6495ed; stroke-opacity: 0.5"/>
    </defs>
    <g clip-path="url(#p971cc12c80)">
     <use xlink:href="#m13808db37c" x="0" y="494.331328" style="fill: #6495ed; fill-opacity: 0.5; stroke: #6495ed; stroke-opacity: 0.5"/>
    </g>
   </g>
   <g id="PathCollection_1">
    <defs>
     <path id="mf366d463e9" d="M 0 2.236068 
C 0.593012 2.236068 1.161816 2.000462 1.581139 1.581139 
C 2.000462 1.161816 2.236068 0.593012 2.236068 0 
C 2.236068 -0.593012 2.000462 -1.161816 1.581139 -1.581139 
C 1.161816 -2.000462 0.593012 -2.236068 0 -2.236068 
C -0.593012 -2.236068 -1.161816 -2.000462 -1.581139 -1.581139 
C -2.000462 -1.161816 -2.236068 -0.593012 -2.236068 0 
C -2.236068 0.593012 -2.000462 1.161816 -1.581139 1.581139 
C -1.161816 2.000462 -0.593012 2.236068 0 2.236068 
z
" style="stroke: #000000"/>
    </defs>
    <g clip-path="url(#p971cc12c80)">
     <use xlink:href="#mf366d463e9" x="98.756412" y="237.611077" style="stroke: #000000"/>
     <use xlink:href="#mf366d463e9" x="104.819332" y="253.377002" style="stroke: #000000"/>
     <use xlink:href="#mf366d463e9" x="110.907619" y="243.478282" style="stroke: #000000"/>
     <use xlink:href="#mf366d463e9" x="116.995907" y="281.725896" style="stroke: #000000"/>
     <use xlink:href="#mf366d463e9" x="123.084194" y="290.110767" style="stroke: #000000"/>
     <use xlink:href="#mf366d463e9" x="129.172482" y="274.616236" style="stroke: #000000"/>
     <use xlink:href="#mf366d463e9" x="135.260769" y="287.373118" style="stroke: #000000"/>
     <use xlink:href="#mf366d463e9" x="141.349056" y="327.298643" style="stroke: #000000"/>
     <use xlink:href="#mf366d463e9" x="147.437344" y="345.097982" style="stroke: #000000"/>
     <use xlink:href="#mf366d463e9" x="153.525631" y="340.878886" style="stroke: #000000"/>
     <use xlink:href="#mf366d463e9" x="159.613919" y="365.804265" style="stroke: #000000"/>
     <use xlink:href="#mf366d463e9" x="165.702206" y="396.979318" style="stroke: #000000"/>
     <use xlink:href="#mf366d463e9" x="171.790494" y="395.95833" style="stroke: #000000"/>
     <use xlink:href="#mf366d463e9" x="177.878781" y="399.307163" style="stroke: #000000"/>
     <use xlink:href="#mf366d463e9" x="442.719285" y="417.690696" style="stroke: #000000"/>
    </g>
   </g>
   <g id="line2d_20">
    <path d="M 442.719285 417.690696 
L 177.878781 399.307163 
L 171.790494 395.95833 
L 165.702206 396.979318 
L 159.613919 365.804265 
L 153.525631 340.878886 
L 147.437344 345.097982 
L 141.349056 327.298643 
L 135.260769 287.373118 
L 129.172482 274.616236 
L 123.084194 290.110767 
L 116.995907 281.725896 
L 110.907619 243.478282 
L 104.819332 253.377002 
L 98.756412 237.611077 
" clip-path="url(#p971cc12c80)" style="fill: none; stroke: #0000ff; stroke-width: 1.5; stroke-linecap: round"/>
   </g>
   <g id="line2d_21">
    <path d="M 95.763004 209.388265 
L 95.965947 178.02386 
L 96.118154 216.923228 
L 96.422569 289.742543 
L 96.52404 274.108599 
L 96.574776 277.13715 
L 96.676247 277.13715 
L 96.87919 308.819473 
L 96.929926 308.819473 
L 97.082133 285.995418 
L 97.23434 304.691394 
L 97.285076 304.691394 
L 97.437283 264.696808 
L 97.538755 264.696808 
L 97.690962 240.393783 
L 97.843169 248.18103 
L 97.995376 190.172226 
L 98.046112 214.459316 
L 98.096848 195.27583 
L 98.350526 106.369268 
L 98.451998 106.369268 
L 98.604205 129.34329 
L 98.756412 151.393157 
L 98.807148 184.099433 
L 98.908619 137.485232 
L 99.010091 212.399614 
L 99.26377 26.967273 
L 99.314505 44.67074 
L 99.466712 120.697942 
L 99.61892 229.822781 
L 99.720391 293.499634 
L 99.771127 286.187949 
L 99.821863 270.877638 
L 99.872598 290.805496 
L 99.923334 284.785234 
L 100.075541 270.526142 
L 100.126277 270.526142 
L 100.278484 266.736969 
L 100.430691 303.351036 
L 100.481427 303.351036 
L 100.633634 292.959035 
L 100.785841 321.426948 
L 100.887313 286.171528 
L 100.938049 300.400299 
L 100.988784 300.400299 
L 101.191727 294.98402 
L 101.39467 232.996515 
L 101.546877 299.439215 
L 101.648349 299.439215 
L 101.699085 300.20616 
L 102.10497 263.997828 
L 102.206442 263.997828 
L 102.358649 258.185567 
L 102.510856 258.185567 
L 102.663063 231.977624 
L 102.713799 231.592024 
L 102.866006 218.141162 
L 103.018213 233.375869 
L 103.119685 233.375869 
L 103.221156 195.604899 
L 103.271892 222.919182 
L 103.322628 217.153824 
L 103.474835 198.100242 
L 103.576306 198.100242 
L 103.728514 156.422688 
L 103.779249 162.081933 
L 103.880721 217.210672 
L 103.931457 216.772635 
L 103.982192 216.772635 
L 104.032928 188.705121 
L 104.337342 331.28217 
L 104.48955 286.769774 
L 104.743228 251.444317 
L 104.895435 295.892328 
L 105.047643 252.457082 
L 105.098378 240.507116 
L 105.149114 243.959036 
L 105.19985 255.663323 
L 105.352057 311.710771 
L 105.504264 311.710771 
L 105.555 321.128639 
L 105.707207 308.70574 
L 105.757943 308.901017 
L 105.808679 296.710819 
L 105.859414 309.216343 
L 106.366772 249.982758 
L 106.468243 249.982758 
L 106.62045 254.011684 
L 106.772657 270.676861 
L 106.924865 277.947804 
L 106.9756 277.108618 
L 107.077072 288.484067 
L 107.280015 265.645161 
L 107.381486 286.430409 
L 107.584429 202.187898 
L 107.736636 202.187898 
L 107.888843 108.910703 
L 107.990315 108.87952 
L 108.091786 123.643746 
L 108.142522 99.565898 
L 108.193258 112.685112 
L 108.294729 212.610821 
L 108.345465 188.259887 
L 108.396201 209.849838 
L 108.446936 209.849838 
L 108.599144 173.717976 
L 108.903558 268.695689 
L 108.954294 265.265536 
L 109.005029 270.201045 
L 109.055765 241.79639 
L 109.106501 281.889333 
L 109.157237 239.327159 
L 109.36018 239.327159 
L 109.410915 229.318781 
L 109.563122 255.819445 
L 109.71533 214.544624 
L 109.766065 281.980134 
L 109.816801 232.066585 
L 109.867537 232.066585 
L 110.222687 190.962614 
L 110.324158 223.068057 
L 110.374894 202.993151 
L 110.527101 257.782384 
L 110.577837 238.189773 
L 110.679308 288.835907 
L 110.730044 269.584281 
L 110.78078 289.763451 
L 110.831516 289.763451 
L 110.882251 309.87381 
L 111.034459 277.366947 
L 111.085194 277.366947 
L 111.237402 268.198787 
L 111.440344 268.198787 
L 111.592552 267.068627 
L 111.643287 267.068627 
L 111.896966 224.189456 
L 111.947702 229.821949 
L 111.998437 295.259538 
L 112.049173 279.243232 
L 112.252116 238.318626 
L 112.302852 241.099795 
L 112.353588 241.126233 
L 112.404323 267.984387 
L 112.505795 263.975417 
L 112.607266 253.395079 
L 112.810209 283.76512 
L 112.962416 283.76512 
L 113.013152 264.90215 
L 113.063888 286.864099 
L 113.114623 286.864099 
L 113.266831 251.913085 
L 113.520509 251.913085 
L 113.571245 267.378469 
L 113.621981 251.500767 
L 113.723452 256.142212 
L 113.875659 319.798843 
L 113.977131 298.125968 
L 114.129338 306.781875 
L 114.180074 306.781875 
L 114.332281 326.642259 
L 114.383017 324.163359 
L 114.484488 315.887403 
L 114.636695 356.468053 
L 114.687431 350.655147 
L 114.839638 350.655147 
L 114.991845 347.310239 
L 115.144053 285.313965 
L 115.194788 285.313965 
L 115.346996 247.467915 
L 115.499203 266.098969 
L 115.65141 250.917086 
L 115.752881 250.917086 
L 115.803617 242.844141 
L 115.905089 289.311627 
L 115.955824 277.017338 
L 116.108031 237.226157 
L 116.158767 236.749621 
L 116.310974 289.616573 
L 116.412446 234.080096 
L 116.513917 242.757797 
L 116.564653 242.757797 
L 116.71686 232.5329 
L 116.869067 226.40468 
L 116.970539 226.40468 
L 117.021275 258.587423 
L 117.07201 250.885482 
L 117.122746 250.885482 
L 117.325689 291.537646 
L 117.376425 286.257176 
L 117.528632 279.234525 
L 117.579368 279.234525 
L 117.630103 295.145893 
L 117.680839 276.298019 
L 117.833046 281.066989 
L 117.985253 289.558806 
L 118.238932 211.87173 
L 118.289668 228.397644 
L 118.391139 228.001435 
L 118.441875 228.001435 
L 118.594082 238.108013 
L 118.797025 305.779601 
L 118.898497 298.147095 
L 119.101439 279.031581 
L 119.253647 319.65265 
L 119.355118 315.438604 
L 119.405854 292.261937 
L 119.45659 301.919967 
L 119.608797 321.61645 
L 119.913211 321.61645 
L 120.116154 334.309992 
L 120.16689 334.309992 
L 120.217625 353.411842 
L 120.268361 346.227269 
L 120.369833 346.227269 
L 120.52204 300.858274 
L 120.572776 309.952378 
L 120.674247 267.57146 
L 120.724983 281.550278 
L 120.87719 287.350117 
L 120.927926 287.350117 
L 121.080133 290.947923 
L 121.130869 290.947923 
L 121.23234 310.347596 
L 121.283076 348.530951 
L 121.333812 321.251788 
L 121.435283 309.845337 
L 121.58749 313.755093 
L 121.739697 243.360422 
L 121.790433 261.004794 
L 121.993376 215.100213 
L 122.044112 215.100213 
L 122.196319 247.284368 
L 122.247055 247.284368 
L 122.29779 251.3028 
L 122.449998 302.71295 
L 122.500733 302.71295 
L 122.551469 310.115892 
L 122.65294 282.565074 
L 122.855883 317.32885 
L 122.957355 317.32885 
L 123.058826 298.326204 
L 123.211033 310.592849 
L 123.261769 294.737983 
L 123.312505 311.241641 
L 123.363241 311.241641 
L 123.413976 328.911027 
L 123.464712 302.229269 
L 123.515448 310.338861 
L 123.616919 310.338861 
L 123.718391 319.405222 
L 123.870598 294.736034 
L 123.972069 294.736034 
L 124.073541 265.418125 
L 124.175012 267.642007 
L 124.377955 305.891674 
L 124.530162 305.891674 
L 124.580898 294.756337 
L 124.733105 312.512706 
L 124.834577 300.733482 
L 124.936048 304.036817 
L 125.088255 300.707097 
L 125.138991 306.981459 
L 125.189727 281.186264 
L 125.240463 303.436549 
L 125.341934 303.436549 
L 125.443406 335.109076 
L 125.595613 257.891628 
L 125.646348 257.891628 
L 125.798556 209.437702 
L 125.950763 218.528764 
L 126.052234 176.9016 
L 126.10297 274.647666 
L 126.204441 270.815811 
L 126.255177 268.917877 
L 126.356649 284.174013 
L 126.45812 277.555349 
L 126.508856 295.547276 
L 126.661063 262.431442 
L 126.711799 262.431442 
L 127.117685 98.47499 
L 127.269892 194.620692 
L 127.726513 194.620692 
L 127.777249 155.242386 
L 127.827985 186.376556 
L 127.929456 180.704959 
L 127.980192 210.584928 
L 128.081663 209.675075 
L 128.183135 212.909255 
L 128.386078 289.272496 
L 128.436814 257.794913 
L 128.589021 235.665188 
L 128.791964 285.966071 
L 128.842699 289.927382 
L 129.147114 348.025343 
L 129.400792 294.792442 
L 129.502264 310.354477 
L 129.654471 306.031999 
L 129.90815 306.031999 
L 130.009621 277.346519 
L 130.060357 282.226563 
L 130.111093 282.226563 
L 130.212564 274.604055 
L 130.314035 320.226118 
L 130.364771 314.333984 
L 130.466243 314.333984 
L 130.516978 323.801983 
L 130.567714 321.884232 
L 130.872129 296.984874 
L 130.922864 296.984874 
L 131.075071 328.670524 
L 131.125807 328.670524 
L 131.227279 334.491082 
L 131.278014 329.098638 
L 131.480957 357.959901 
L 131.886843 357.959901 
L 132.089786 306.371741 
L 132.140522 306.371741 
L 132.191257 309.635898 
L 132.343465 291.39427 
L 132.444936 299.726279 
L 132.597143 282.966875 
L 132.74935 287.886438 
L 132.901558 264.073094 
L 133.003029 264.073094 
L 133.104501 260.278439 
L 133.155236 235.165745 
L 133.205972 247.410708 
L 133.358179 247.410708 
L 133.561122 287.96593 
L 133.713329 287.96593 
L 133.764065 290.969961 
L 133.814801 289.769806 
L 134.068479 289.769806 
L 134.169951 304.575488 
L 134.322158 273.687607 
L 134.372894 273.687607 
L 134.525101 294.593967 
L 134.829515 294.593967 
L 134.981723 261.212524 
L 135.032458 267.214318 
L 135.184665 274.868907 
L 135.286137 274.868907 
L 135.336873 284.869456 
L 135.387608 277.2982 
L 135.438344 277.937837 
L 135.48908 247.44494 
L 135.539816 273.752185 
L 135.692023 273.752185 
L 135.742758 269.077979 
L 135.894966 297.923552 
L 135.996437 297.923552 
L 136.19938 247.969684 
L 136.351587 283.686185 
L 136.503794 283.686185 
L 136.706737 297.125679 
L 136.858944 294.951422 
L 136.960416 294.951422 
L 137.112623 275.675057 
L 137.214095 266.537101 
L 137.417038 298.121625 
L 137.467773 298.121625 
L 137.569245 300.682815 
L 137.721452 298.282537 
L 137.924395 347.431945 
L 137.975131 347.431945 
L 138.025866 330.370507 
L 138.076602 343.161278 
L 138.127338 343.161278 
L 138.279545 356.128712 
L 138.786902 356.128712 
L 138.939109 355.79109 
L 139.192788 355.79109 
L 139.243524 351.220202 
L 139.395731 362.694763 
L 139.497202 362.694763 
L 139.64941 348.589844 
L 139.750881 348.589844 
L 139.801617 341.567009 
L 139.953824 350.766548 
L 140.156767 350.766548 
L 140.207503 349.443189 
L 140.35971 352.136759 
L 140.410446 352.18752 
L 140.562653 332.374623 
L 140.613388 332.374623 
L 140.664124 333.271957 
L 140.71486 314.410381 
L 140.765596 328.952346 
L 140.968539 328.952346 
L 141.120746 322.880885 
L 141.374424 322.880885 
L 141.42516 313.121032 
L 141.526632 333.588055 
L 141.678839 291.533014 
L 141.831046 291.533014 
L 141.983253 293.124662 
L 142.13546 280.707133 
L 142.186196 311.207801 
L 142.236932 299.522151 
L 142.338403 299.522151 
L 142.49061 304.435544 
L 142.592082 304.435544 
L 142.693553 327.833191 
L 142.744289 324.228049 
L 142.896496 308.153225 
L 142.947232 308.153225 
L 142.997968 325.450219 
L 143.048703 319.227448 
L 143.150175 319.227448 
L 143.302382 303.193222 
L 143.353118 303.193222 
L 143.403853 307.222639 
L 143.556061 294.605825 
L 143.961947 294.605825 
L 144.114154 338.206083 
L 144.164889 343.373745 
L 144.215625 340.595034 
L 144.317097 340.595034 
L 144.469304 353.31515 
L 144.570775 353.31515 
L 144.672247 366.28658 
L 144.722982 364.270889 
L 144.773718 364.270889 
L 144.925925 365.085474 
L 144.976661 349.405144 
L 145.027397 365.88424 
L 145.078133 365.88424 
L 145.23034 363.724148 
L 145.281075 363.724148 
L 145.331811 345.874833 
L 145.484018 374.483253 
L 145.636226 351.107588 
L 145.686961 351.107588 
L 145.839168 331.656999 
L 145.991376 326.320487 
L 146.194319 353.113582 
L 146.447997 353.113582 
L 146.65094 337.2485 
L 146.701676 337.2485 
L 146.904619 322.521916 
L 146.955355 321.077619 
L 147.00609 322.6217 
L 147.158297 328.675642 
L 147.462712 328.675642 
L 147.513448 327.679581 
L 147.665655 336.57467 
L 147.71639 336.57467 
L 147.868598 351.712607 
L 148.173012 351.712607 
L 148.325219 336.028639 
L 148.426691 338.571911 
L 148.578898 300.155049 
L 148.629634 300.155049 
L 148.883312 344.968474 
L 148.934048 344.740425 
L 149.035519 344.740425 
L 149.136991 363.776907 
L 149.289198 355.300418 
L 149.390669 355.300418 
L 149.542877 365.555467 
L 149.74582 365.555467 
L 149.898027 344.801848 
L 150.10097 344.801848 
L 150.253177 352.596868 
L 150.405384 350.005233 
L 150.557591 350.005233 
L 150.709798 343.305536 
L 150.912741 343.305536 
L 150.963477 350.945425 
L 151.014213 347.91852 
L 151.16642 347.91852 
L 151.470834 335.157823 
L 151.572306 335.157823 
L 151.724513 339.937466 
L 151.978192 339.937466 
L 152.130399 341.392112 
L 152.23187 341.392112 
L 152.282606 341.082454 
L 152.485549 319.482117 
L 152.536285 322.178364 
L 152.688492 310.048146 
L 152.739228 310.048146 
L 152.891435 308.778134 
L 153.043642 308.778134 
L 153.195849 339.673404 
L 153.500264 339.673404 
L 153.652471 342.38918 
L 153.855414 342.38918 
L 154.007621 357.361751 
L 154.058357 357.361751 
L 154.210564 347.11055 
L 154.413507 347.11055 
L 154.565714 346.110686 
L 154.768657 346.110686 
L 154.920864 340.397126 
L 155.022335 340.397126 
L 155.174543 345.285751 
L 155.529693 345.285751 
L 155.6819 358.495489 
L 155.884843 344.118125 
L 156.239993 344.118125 
L 156.341464 362.771873 
L 156.595143 330.240701 
L 156.74735 338.693777 
L 156.848822 338.693777 
L 157.001029 342.077968 
L 157.051765 342.077968 
L 157.203972 354.838606 
L 157.254707 354.61021 
L 157.305443 351.765989 
L 157.356179 354.83187 
L 157.609858 354.83187 
L 157.762065 361.540278 
L 157.8128 361.540278 
L 157.965008 363.211107 
L 158.421629 363.211107 
L 158.573836 347.310827 
L 158.726044 347.310827 
L 158.827515 335.713489 
L 158.878251 335.940583 
L 158.979722 335.940583 
L 159.131929 330.901673 
L 159.334872 330.901673 
L 159.487079 344.219557 
L 159.639287 344.219557 
L 159.791494 372.165363 
L 159.943701 372.165363 
L 160.146644 382.43833 
L 160.298851 382.43833 
L 160.451058 388.051896 
L 160.55253 388.051896 
L 160.704737 391.375041 
L 161.009151 391.375041 
L 161.161359 389.143344 
L 161.770187 389.143344 
L 161.922394 381.97983 
L 162.074602 378.294449 
L 162.531223 378.294449 
L 162.68343 385.775583 
L 162.835638 385.775583 
L 162.987845 384.9561 
L 163.444466 384.9561 
L 163.698145 393.788408 
L 164.053295 393.788408 
L 164.205502 400.75948 
L 165.270953 400.75948 
L 165.42316 399.665019 
L 168.112153 399.665019 
L 168.264361 397.282071 
L 169.583489 397.282071 
L 169.735697 398.623247 
L 169.786432 398.623247 
L 169.93864 395.479527 
L 172.982783 395.479527 
L 173.134991 394.702146 
L 174.048234 394.702146 
L 174.149705 397.893293 
L 174.200441 397.459192 
L 176.026927 397.459192 
L 176.179134 397.296452 
L 178.310035 397.296452 
L 178.462242 397.941417 
L 178.563713 397.941417 
L 178.715921 400.297116 
L 178.918864 400.297116 
L 179.071071 400.545911 
L 179.527692 400.545911 
L 179.6799 402.888178 
L 180.136521 402.888178 
L 180.288728 404.43351 
L 184.601265 404.43351 
L 184.753472 406.754578 
L 184.956415 406.754578 
L 185.108622 407.577069 
L 191.247646 407.577069 
L 191.399853 407.2908 
L 192.465303 407.2908 
L 192.61751 407.787571 
L 193.074132 407.787571 
L 193.226339 407.418218 
L 195.864597 407.37101 
L 196.016804 408.724615 
L 202.663185 408.724615 
L 202.815392 409.611849 
L 217.021396 409.682677 
L 217.173603 411.254816 
L 220.471425 411.254816 
L 220.623633 411.546528 
L 224.327341 411.546528 
L 224.479548 411.183132 
L 224.783962 411.183132 
L 224.936169 411.563552 
L 225.950884 411.563552 
L 226.103091 411.144874 
L 226.559713 411.144874 
L 226.71192 411.434705 
L 252.688613 411.450504 
L 252.84082 412.822123 
L 256.037171 412.822123 
L 256.189378 413.500302 
L 267.249767 413.500302 
L 267.401974 414.015191 
L 274.961598 414.015191 
L 275.113805 415.468617 
L 278.918985 415.468617 
L 279.071192 415.706843 
L 285.616101 415.706843 
L 285.768308 415.875079 
L 286.58008 415.875079 
L 286.732287 418.237277 
L 288.964659 418.237277 
L 289.116866 418.449173 
L 289.218338 418.449173 
L 289.370545 418.33287 
L 306.316278 418.403429 
L 306.468485 417.646056 
L 310.57808 417.646056 
L 310.730287 417.06975 
L 311.186908 417.06975 
L 311.339115 418.196681 
L 321.73994 418.286038 
L 321.892147 417.08861 
L 326.813513 417.08861 
L 326.96572 417.286055 
L 334.931229 417.286055 
L 335.083436 416.740828 
L 342.237174 416.766714 
L 342.389381 417.066346 
L 344.672489 417.066346 
L 344.824696 416.190221 
L 348.325462 416.190221 
L 348.477669 416.955061 
L 363.749123 417.063815 
L 363.90133 418.778855 
L 379.375728 418.875363 
L 379.527935 418.127355 
L 380.694857 418.127355 
L 380.847064 416.947527 
L 387.89933 416.976095 
L 388.051537 417.600347 
L 390.334645 417.600347 
L 390.486852 417.868047 
L 395.256011 417.868047 
L 395.408218 417.272889 
L 421.99374 417.272889 
L 422.145947 417.072677 
L 431.785735 417.072677 
L 431.937943 418.369031 
L 436.60563 418.369031 
L 436.757837 418.632629 
L 449.999862 418.548385 
L 450.152069 417.672091 
L 450.608691 417.672091 
L 450.760898 417.199925 
L 451.217519 417.199925 
L 451.369727 417.958751 
L 451.826348 417.958751 
L 451.978555 418.391627 
L 465.220581 418.39161 
L 465.372788 417.314397 
L 467.047067 417.314397 
L 467.199274 417.545572 
L 469.02576 417.545572 
L 469.177967 416.95691 
L 469.583853 416.95691 
L 469.73606 418.543309 
L 470.09121 418.543309 
L 470.243418 418.7279 
L 470.395625 418.7279 
L 470.547832 418.608417 
L 478.361134 418.608417 
L 478.513341 418.262585 
L 488.964902 418.262585 
L 489.117109 418.643983 
L 499.31499 418.577283 
L 499.467197 418.264085 
L 501.141476 418.264085 
L 501.293684 418.832585 
L 521.841654 418.832585 
L 521.993861 418.477671 
L 543.15066 418.507379 
L 543.302867 418.602902 
L 543.962431 418.602902 
L 544.114639 419.979405 
L 548.02129 419.979405 
L 548.173497 420.176017 
L 561.364786 420.176017 
L 561.516994 421.342753 
L 575.875205 421.428064 
L 576.027412 421.562988 
L 576.128883 421.562988 
L 576.281091 421.736702 
L 594.292274 421.672296 
L 594.444481 421.51417 
L 598.757018 421.51417 
L 598.909226 421.796316 
L 621.943246 421.796316 
L 622.095454 421.087914 
L 637.671322 421.087914 
L 637.82353 422.057036 
L 661.923001 422.057036 
L 662.075208 421.86843 
L 663.698751 421.86843 
L 663.850958 421.457202 
L 668.062024 421.457202 
L 668.214231 421.282986 
L 671.613525 421.282986 
L 671.765732 420.991129 
L 683.181271 420.886621 
L 683.333478 421.629864 
L 689.624708 421.629864 
L 689.776916 422.312727 
L 694.749017 422.312727 
L 694.901224 421.921124 
L 695.763732 421.921124 
L 695.915939 422.186924 
L 696.068146 422.186924 
L 696.220353 421.641946 
L 699.619647 421.637432 
L 699.771854 422.248447 
L 704.490277 422.248447 
L 704.490277 422.248447 
" clip-path="url(#p971cc12c80)" style="fill: none; stroke: #000000; stroke-opacity: 0.15; stroke-width: 1.5; stroke-linecap: round"/>
   </g>
   <g id="line2d_22">
    <path d="M 442.719285 417.617039 
L 177.878781 398.829938 
L 171.790494 395.762502 
L 165.702206 396.034482 
L 159.613919 362.194527 
L 153.525631 338.832154 
L 147.437344 342.127081 
L 141.349056 322.896951 
L 135.260769 283.304912 
L 129.172482 263.68052 
L 123.084194 283.868514 
L 116.995907 275.138265 
L 110.907619 235.51905 
L 104.819332 245.726468 
L 98.756412 225.009569 
" clip-path="url(#p971cc12c80)" style="fill: none; stroke-dasharray: 5.55,2.4; stroke-dashoffset: 0; stroke: #6495ed; stroke-width: 1.5"/>
   </g>
   <g id="line2d_23">
    <path d="M 442.719285 417.764352 
L 177.878781 399.784388 
L 171.790494 396.154157 
L 165.702206 397.924154 
L 159.613919 369.414004 
L 153.525631 342.925618 
L 147.437344 348.068883 
L 141.349056 331.700335 
L 135.260769 291.441324 
L 129.172482 285.551953 
L 123.084194 296.35302 
L 116.995907 288.313527 
L 110.907619 251.437513 
L 104.819332 261.027535 
L 98.756412 250.212585 
" clip-path="url(#p971cc12c80)" style="fill: none; stroke-dasharray: 5.55,2.4; stroke-dashoffset: 0; stroke: #6495ed; stroke-width: 1.5"/>
   </g>
   <g id="patch_3">
    <path d="M 65.326641 442.08 
L 65.326641 7.2 
" style="fill: none; stroke: #0000ff; stroke-width: 2; stroke-linejoin: miter; stroke-linecap: square"/>
   </g>
   <g id="patch_4">
    <path d="M 734.926641 442.08 
L 734.926641 7.2 
" style="fill: none; stroke: #cccccc; stroke-width: 1.25; stroke-linejoin: miter; stroke-linecap: square"/>
   </g>
   <g id="patch_5">
    <path d="M 65.326641 442.08 
L 734.926641 442.08 
" style="fill: none; stroke: #cccccc; stroke-width: 1.25; stroke-linejoin: miter; stroke-linecap: square"/>
   </g>
   <g id="patch_6">
    <path d="M 65.326641 7.2 
L 734.926641 7.2 
" style="fill: none; stroke: #cccccc; stroke-width: 1.25; stroke-linejoin: miter; stroke-linecap: square"/>
   </g>
   <g id="axes_2">
    <g id="patch_7">
     <path d="M 503.164078 242.0352 
L 698.849203 242.0352 
L 698.849203 46.3392 
L 503.164078 46.3392 
z
" style="fill: #ffffff"/>
    </g>
    <g id="matplotlib.axis_3"/>
    <g id="matplotlib.axis_4"/>
    <g id="PathCollection_2">
     <defs>
      <path id="meb3f740ac0" d="M 0 3 
C 0.795609 3 1.55874 2.683901 2.12132 2.12132 
C 2.683901 1.55874 3 0.795609 3 0 
C 3 -0.795609 2.683901 -1.55874 2.12132 -2.12132 
C 1.55874 -2.683901 0.795609 -3 0 -3 
C -0.795609 -3 -1.55874 -2.683901 -2.12132 -2.12132 
C -2.683901 -1.55874 -3 -0.795609 -3 0 
C -3 0.795609 -2.683901 1.55874 -2.12132 2.12132 
C -1.55874 2.683901 -0.795609 3 0 3 
z
" style="stroke: #0000ff"/>
     </defs>
     <g clip-path="url(#p98eb476de9)">
      <use xlink:href="#meb3f740ac0" x="629.803886" y="64.58904" style="fill: #0000ff; stroke: #0000ff"/>
      <use xlink:href="#meb3f740ac0" x="679.629181" y="176.695293" style="fill: #0000ff; stroke: #0000ff"/>
      <use xlink:href="#meb3f740ac0" x="580.451521" y="230.083669" style="fill: #0000ff; stroke: #0000ff"/>
      <use xlink:href="#meb3f740ac0" x="518.264432" y="117.367942" style="fill: #0000ff; stroke: #0000ff"/>
      <use xlink:href="#meb3f740ac0" x="632.45031" y="222.754411" style="fill: #0000ff; stroke: #0000ff"/>
      <use xlink:href="#meb3f740ac0" x="670.143733" y="89.716065" style="fill: #0000ff; stroke: #0000ff"/>
      <use xlink:href="#meb3f740ac0" x="543.460961" y="211.278651" style="fill: #0000ff; stroke: #0000ff"/>
      <use xlink:href="#meb3f740ac0" x="519.560367" y="169.364545" style="fill: #0000ff; stroke: #0000ff"/>
      <use xlink:href="#meb3f740ac0" x="582.813347" y="58.592109" style="fill: #0000ff; stroke: #0000ff"/>
      <use xlink:href="#meb3f740ac0" x="688.819702" y="131.036779" style="fill: #0000ff; stroke: #0000ff"/>
      <use xlink:href="#meb3f740ac0" x="540.388592" y="79.072439" style="fill: #0000ff; stroke: #0000ff"/>
      <use xlink:href="#meb3f740ac0" x="604.031951" y="146.260406" style="fill: #0000ff; stroke: #0000ff"/>
     </g>
    </g>
    <g id="line2d_24">
     <path d="M 689.954425 144.1872 
L 689.875343 140.437053 
L 689.638238 136.693574 
L 689.243533 132.963418 
L 688.691927 129.253217 
L 687.984403 125.569569 
L 687.122218 121.919022 
L 686.106904 118.308067 
L 684.940269 114.743125 
L 683.624384 111.230532 
L 682.161591 107.776536 
L 680.554489 104.387276 
L 678.805937 101.068779 
L 676.919043 97.826946 
L 674.897162 94.667539 
L 672.743889 91.596176 
L 670.463052 88.618318 
L 668.058706 85.739259 
L 665.535127 82.964119 
L 662.896801 80.297831 
L 660.148418 77.745137 
L 657.294867 75.310573 
L 654.341219 72.99847 
L 651.292727 70.812938 
L 648.15481 68.757863 
L 644.933048 66.836898 
L 641.633169 65.053459 
L 638.26104 63.410717 
L 634.822656 61.911593 
L 631.324131 60.558752 
L 627.771685 59.354599 
L 624.171635 58.301275 
L 620.53038 57.400654 
L 616.854395 56.654335 
L 613.150216 56.063647 
L 609.424428 55.62964 
L 605.683656 55.353084 
L 601.934552 55.234473 
L 598.183779 55.274016 
L 594.438009 55.471643 
L 590.703899 55.827004 
L 586.98809 56.339465 
L 583.297187 57.008117 
L 579.637754 57.83177 
L 576.016296 58.80896 
L 572.439253 59.937949 
L 568.912984 61.21673 
L 565.443758 62.64303 
L 562.037745 64.214313 
L 558.700999 65.927784 
L 555.439454 67.780397 
L 552.258907 69.768859 
L 549.165015 71.889634 
L 546.163278 74.138952 
L 543.259033 76.512813 
L 540.457443 79.006996 
L 537.76349 81.617068 
L 535.181963 84.338387 
L 532.717453 87.166114 
L 530.374341 90.095224 
L 528.156793 93.120507 
L 526.068752 96.236584 
L 524.11393 99.437916 
L 522.295802 102.718811 
L 520.617603 106.073435 
L 519.082314 109.495823 
L 517.692666 112.979892 
L 516.45113 116.519446 
L 515.359913 120.108193 
L 514.420955 123.739751 
L 513.635926 127.407664 
L 513.006221 131.10541 
L 512.53296 134.826415 
L 512.216985 138.564064 
L 512.058856 142.31171 
L 512.058856 146.06269 
L 512.216985 149.810336 
L 512.53296 153.547985 
L 513.006221 157.26899 
L 513.635926 160.966736 
L 514.420955 164.634649 
L 515.359913 168.266207 
L 516.45113 171.854954 
L 517.692666 175.394508 
L 519.082314 178.878577 
L 520.617603 182.300965 
L 522.295802 185.655589 
L 524.11393 188.936484 
L 526.068752 192.137816 
L 528.156793 195.253893 
L 530.374341 198.279176 
L 532.717453 201.208286 
L 535.181963 204.036013 
L 537.76349 206.757332 
L 540.457443 209.367404 
L 543.259033 211.861587 
L 546.163278 214.235448 
L 549.165015 216.484766 
L 552.258907 218.605541 
L 555.439454 220.594003 
L 558.700999 222.446616 
L 562.037745 224.160087 
L 565.443758 225.73137 
L 568.912984 227.15767 
L 572.439253 228.436451 
L 576.016296 229.56544 
L 579.637754 230.54263 
L 583.297187 231.366283 
L 586.98809 232.034935 
L 590.703899 232.547396 
L 594.438009 232.902757 
L 598.183779 233.100384 
L 601.934552 233.139927 
L 605.683656 233.021316 
L 609.424428 232.74476 
L 613.150216 232.310753 
L 616.854395 231.720065 
L 620.53038 230.973746 
L 624.171635 230.073125 
L 627.771685 229.019801 
L 631.324131 227.815648 
L 634.822656 226.462807 
L 638.26104 224.963683 
L 641.633169 223.320941 
L 644.933048 221.537502 
L 648.15481 219.616537 
L 651.292727 217.561462 
L 654.341219 215.37593 
L 657.294867 213.063827 
L 660.148418 210.629263 
L 662.896801 208.076569 
L 665.535127 205.410281 
L 668.058706 202.635141 
L 670.463052 199.756082 
L 672.743889 196.778224 
L 674.897162 193.706861 
L 676.919043 190.547454 
L 678.805937 187.305621 
L 680.554489 183.987124 
L 682.161591 180.597864 
L 683.624384 177.143868 
L 684.940269 173.631275 
L 686.106904 170.066333 
L 687.122218 166.455378 
L 687.984403 162.804831 
L 688.691927 159.121183 
L 689.243533 155.410982 
L 689.638238 151.680826 
L 689.875343 147.937347 
L 689.954425 144.1872 
L 689.954425 144.1872 
" clip-path="url(#p98eb476de9)" style="fill: none; stroke: #000000; stroke-width: 1.5; stroke-linecap: round"/>
    </g>
    <g id="line2d_25">
     <path d="M 512.948334 144.1872 
L 689.064947 144.1872 
" clip-path="url(#p98eb476de9)" style="fill: none; stroke: #000000; stroke-width: 1.5; stroke-linecap: round"/>
    </g>
    <g id="line2d_26">
     <path d="M 600.996754 232.2504 
L 600.996754 56.124 
" clip-path="url(#p98eb476de9)" style="fill: none; stroke: #000000; stroke-width: 1.5; stroke-linecap: round"/>
    </g>
    <g id="patch_8">
     <path d="M 503.164078 242.0352 
L 503.164078 46.3392 
" style="fill: none; stroke: #262626; stroke-width: 1.25; stroke-linejoin: miter; stroke-linecap: square"/>
    </g>
    <g id="patch_9">
     <path d="M 698.849203 242.0352 
L 698.849203 46.3392 
" style="fill: none; stroke: #262626; stroke-width: 1.25; stroke-linejoin: miter; stroke-linecap: square"/>
    </g>
    <g id="patch_10">
     <path d="M 503.164078 242.0352 
L 698.849203 242.0352 
" style="fill: none; stroke: #262626; stroke-width: 1.25; stroke-linejoin: miter; stroke-linecap: square"/>
    </g>
    <g id="patch_11">
     <path d="M 503.164078 46.3392 
L 698.849203 46.3392 
" style="fill: none; stroke: #262626; stroke-width: 1.25; stroke-linejoin: miter; stroke-linecap: square"/>
    </g>
   </g>
   <g id="legend_1">
    <g id="patch_12">
     <path d="M 336.095234 97.941875 
L 464.158047 97.941875 
Q 466.958047 97.941875 466.958047 95.141875 
L 466.958047 17 
Q 466.958047 14.2 464.158047 14.2 
L 336.095234 14.2 
Q 333.295234 14.2 333.295234 17 
L 333.295234 95.141875 
Q 333.295234 97.941875 336.095234 97.941875 
z
" style="fill: #ffffff; stroke: #000000; stroke-linejoin: miter"/>
    </g>
    <g id="line2d_27">
     <path d="M 338.895234 24.920937 
L 352.895234 24.920937 
L 366.895234 24.920937 
" style="fill: none; stroke: #0000ff; stroke-width: 1.5; stroke-linecap: round"/>
    </g>
    <g id="text_16">
     <!-- Mean Energy -->
     <g style="fill: #262626" transform="translate(378.095234 29.820937)scale(0.14 -0.14)">
      <defs>
       <path id="ArialMT-4d" d="M 475 0 
L 475 4581 
L 1388 4581 
L 2472 1338 
Q 2622 884 2691 659 
Q 2769 909 2934 1394 
L 4031 4581 
L 4847 4581 
L 4847 0 
L 4263 0 
L 4263 3834 
L 2931 0 
L 2384 0 
L 1059 3900 
L 1059 0 
L 475 0 
z
" transform="scale(0.015625)"/>
      </defs>
      <use xlink:href="#ArialMT-4d"/>
      <use xlink:href="#ArialMT-65" x="83.300781"/>
      <use xlink:href="#ArialMT-61" x="138.916016"/>
      <use xlink:href="#ArialMT-6e" x="194.53125"/>
      <use xlink:href="#ArialMT-20" x="250.146484"/>
      <use xlink:href="#ArialMT-45" x="277.929688"/>
      <use xlink:href="#ArialMT-6e" x="344.628906"/>
      <use xlink:href="#ArialMT-65" x="400.244141"/>
      <use xlink:href="#ArialMT-72" x="455.859375"/>
      <use xlink:href="#ArialMT-67" x="489.160156"/>
      <use xlink:href="#ArialMT-79" x="544.775391"/>
     </g>
    </g>
    <g id="line2d_28">
     <path d="M 338.895234 44.888437 
L 352.895234 44.888437 
L 366.895234 44.888437 
" style="fill: none; stroke: #000000; stroke-opacity: 0.15; stroke-width: 1.5; stroke-linecap: round"/>
    </g>
    <g id="text_17">
     <!-- Raw energy -->
     <g style="fill: #262626" transform="translate(378.095234 49.788437)scale(0.14 -0.14)">
      <defs>
       <path id="ArialMT-52" d="M 503 0 
L 503 4581 
L 2534 4581 
Q 3147 4581 3465 4457 
Q 3784 4334 3975 4021 
Q 4166 3709 4166 3331 
Q 4166 2844 3850 2509 
Q 3534 2175 2875 2084 
Q 3116 1969 3241 1856 
Q 3506 1613 3744 1247 
L 4541 0 
L 3778 0 
L 3172 953 
Q 2906 1366 2734 1584 
Q 2563 1803 2427 1890 
Q 2291 1978 2150 2013 
Q 2047 2034 1813 2034 
L 1109 2034 
L 1109 0 
L 503 0 
z
M 1109 2559 
L 2413 2559 
Q 2828 2559 3062 2645 
Q 3297 2731 3419 2920 
Q 3541 3109 3541 3331 
Q 3541 3656 3305 3865 
Q 3069 4075 2559 4075 
L 1109 4075 
L 1109 2559 
z
" transform="scale(0.015625)"/>
       <path id="ArialMT-77" d="M 1034 0 
L 19 3319 
L 600 3319 
L 1128 1403 
L 1325 691 
Q 1338 744 1497 1375 
L 2025 3319 
L 2603 3319 
L 3100 1394 
L 3266 759 
L 3456 1400 
L 4025 3319 
L 4572 3319 
L 3534 0 
L 2950 0 
L 2422 1988 
L 2294 2553 
L 1622 0 
L 1034 0 
z
" transform="scale(0.015625)"/>
      </defs>
      <use xlink:href="#ArialMT-52"/>
      <use xlink:href="#ArialMT-61" x="72.216797"/>
      <use xlink:href="#ArialMT-77" x="127.832031"/>
      <use xlink:href="#ArialMT-20" x="200.048828"/>
      <use xlink:href="#ArialMT-65" x="227.832031"/>
      <use xlink:href="#ArialMT-6e" x="283.447266"/>
      <use xlink:href="#ArialMT-65" x="339.0625"/>
      <use xlink:href="#ArialMT-72" x="394.677734"/>
      <use xlink:href="#ArialMT-67" x="427.978516"/>
      <use xlink:href="#ArialMT-79" x="483.59375"/>
     </g>
    </g>
    <g id="line2d_29">
     <path d="M 338.895234 64.855937 
L 352.895234 64.855937 
L 366.895234 64.855937 
" style="fill: none; stroke-dasharray: 5.55,2.4; stroke-dashoffset: 0; stroke: #6495ed; stroke-width: 1.5"/>
    </g>
    <g id="text_18">
     <!-- 95% CI -->
     <g style="fill: #262626" transform="translate(378.095234 69.755937)scale(0.14 -0.14)">
      <defs>
       <path id="ArialMT-39" d="M 350 1059 
L 891 1109 
Q 959 728 1153 556 
Q 1347 384 1650 384 
Q 1909 384 2104 503 
Q 2300 622 2425 820 
Q 2550 1019 2634 1356 
Q 2719 1694 2719 2044 
Q 2719 2081 2716 2156 
Q 2547 1888 2255 1720 
Q 1963 1553 1622 1553 
Q 1053 1553 659 1965 
Q 266 2378 266 3053 
Q 266 3750 677 4175 
Q 1088 4600 1706 4600 
Q 2153 4600 2523 4359 
Q 2894 4119 3086 3673 
Q 3278 3228 3278 2384 
Q 3278 1506 3087 986 
Q 2897 466 2520 194 
Q 2144 -78 1638 -78 
Q 1100 -78 759 220 
Q 419 519 350 1059 
z
M 2653 3081 
Q 2653 3566 2395 3850 
Q 2138 4134 1775 4134 
Q 1400 4134 1122 3828 
Q 844 3522 844 3034 
Q 844 2597 1108 2323 
Q 1372 2050 1759 2050 
Q 2150 2050 2401 2323 
Q 2653 2597 2653 3081 
z
" transform="scale(0.015625)"/>
       <path id="ArialMT-35" d="M 266 1200 
L 856 1250 
Q 922 819 1161 601 
Q 1400 384 1738 384 
Q 2144 384 2425 690 
Q 2706 997 2706 1503 
Q 2706 1984 2436 2262 
Q 2166 2541 1728 2541 
Q 1456 2541 1237 2417 
Q 1019 2294 894 2097 
L 366 2166 
L 809 4519 
L 3088 4519 
L 3088 3981 
L 1259 3981 
L 1013 2750 
Q 1425 3038 1878 3038 
Q 2478 3038 2890 2622 
Q 3303 2206 3303 1553 
Q 3303 931 2941 478 
Q 2500 -78 1738 -78 
Q 1113 -78 717 272 
Q 322 622 266 1200 
z
" transform="scale(0.015625)"/>
       <path id="ArialMT-25" d="M 372 3481 
Q 372 3972 619 4315 
Q 866 4659 1334 4659 
Q 1766 4659 2048 4351 
Q 2331 4044 2331 3447 
Q 2331 2866 2045 2552 
Q 1759 2238 1341 2238 
Q 925 2238 648 2547 
Q 372 2856 372 3481 
z
M 1350 4272 
Q 1141 4272 1002 4090 
Q 863 3909 863 3425 
Q 863 2984 1003 2804 
Q 1144 2625 1350 2625 
Q 1563 2625 1702 2806 
Q 1841 2988 1841 3469 
Q 1841 3913 1700 4092 
Q 1559 4272 1350 4272 
z
M 1353 -169 
L 3859 4659 
L 4316 4659 
L 1819 -169 
L 1353 -169 
z
M 3334 1075 
Q 3334 1569 3581 1911 
Q 3828 2253 4300 2253 
Q 4731 2253 5014 1945 
Q 5297 1638 5297 1041 
Q 5297 459 5011 145 
Q 4725 -169 4303 -169 
Q 3888 -169 3611 142 
Q 3334 453 3334 1075 
z
M 4316 1866 
Q 4103 1866 3964 1684 
Q 3825 1503 3825 1019 
Q 3825 581 3965 400 
Q 4106 219 4313 219 
Q 4528 219 4667 400 
Q 4806 581 4806 1063 
Q 4806 1506 4665 1686 
Q 4525 1866 4316 1866 
z
" transform="scale(0.015625)"/>
       <path id="ArialMT-43" d="M 3763 1606 
L 4369 1453 
Q 4178 706 3683 314 
Q 3188 -78 2472 -78 
Q 1731 -78 1267 223 
Q 803 525 561 1097 
Q 319 1669 319 2325 
Q 319 3041 592 3573 
Q 866 4106 1370 4382 
Q 1875 4659 2481 4659 
Q 3169 4659 3637 4309 
Q 4106 3959 4291 3325 
L 3694 3184 
Q 3534 3684 3231 3912 
Q 2928 4141 2469 4141 
Q 1941 4141 1586 3887 
Q 1231 3634 1087 3207 
Q 944 2781 944 2328 
Q 944 1744 1114 1308 
Q 1284 872 1643 656 
Q 2003 441 2422 441 
Q 2931 441 3284 734 
Q 3638 1028 3763 1606 
z
" transform="scale(0.015625)"/>
       <path id="ArialMT-49" d="M 597 0 
L 597 4581 
L 1203 4581 
L 1203 0 
L 597 0 
z
" transform="scale(0.015625)"/>
      </defs>
      <use xlink:href="#ArialMT-39"/>
      <use xlink:href="#ArialMT-35" x="55.615234"/>
      <use xlink:href="#ArialMT-25" x="111.230469"/>
      <use xlink:href="#ArialMT-20" x="200.146484"/>
      <use xlink:href="#ArialMT-43" x="227.929688"/>
      <use xlink:href="#ArialMT-49" x="300.146484"/>
     </g>
    </g>
    <g id="line2d_30">
     <path d="M 338.895234 84.659375 
L 352.895234 84.659375 
L 366.895234 84.659375 
" style="fill: none; stroke: #ff0000; stroke-width: 1.5; stroke-linecap: round"/>
    </g>
    <g id="text_19">
     <!-- Temperature -->
     <g style="fill: #262626" transform="translate(378.095234 89.559375)scale(0.14 -0.14)">
      <defs>
       <path id="ArialMT-54" d="M 1659 0 
L 1659 4041 
L 150 4041 
L 150 4581 
L 3781 4581 
L 3781 4041 
L 2266 4041 
L 2266 0 
L 1659 0 
z
" transform="scale(0.015625)"/>
       <path id="ArialMT-6d" d="M 422 0 
L 422 3319 
L 925 3319 
L 925 2853 
Q 1081 3097 1340 3245 
Q 1600 3394 1931 3394 
Q 2300 3394 2536 3241 
Q 2772 3088 2869 2813 
Q 3263 3394 3894 3394 
Q 4388 3394 4653 3120 
Q 4919 2847 4919 2278 
L 4919 0 
L 4359 0 
L 4359 2091 
Q 4359 2428 4304 2576 
Q 4250 2725 4106 2815 
Q 3963 2906 3769 2906 
Q 3419 2906 3187 2673 
Q 2956 2441 2956 1928 
L 2956 0 
L 2394 0 
L 2394 2156 
Q 2394 2531 2256 2718 
Q 2119 2906 1806 2906 
Q 1569 2906 1367 2781 
Q 1166 2656 1075 2415 
Q 984 2175 984 1722 
L 984 0 
L 422 0 
z
" transform="scale(0.015625)"/>
       <path id="ArialMT-70" d="M 422 -1272 
L 422 3319 
L 934 3319 
L 934 2888 
Q 1116 3141 1344 3267 
Q 1572 3394 1897 3394 
Q 2322 3394 2647 3175 
Q 2972 2956 3137 2557 
Q 3303 2159 3303 1684 
Q 3303 1175 3120 767 
Q 2938 359 2589 142 
Q 2241 -75 1856 -75 
Q 1575 -75 1351 44 
Q 1128 163 984 344 
L 984 -1272 
L 422 -1272 
z
M 931 1641 
Q 931 1000 1190 694 
Q 1450 388 1819 388 
Q 2194 388 2461 705 
Q 2728 1022 2728 1688 
Q 2728 2322 2467 2637 
Q 2206 2953 1844 2953 
Q 1484 2953 1207 2617 
Q 931 2281 931 1641 
z
" transform="scale(0.015625)"/>
      </defs>
      <use xlink:href="#ArialMT-54"/>
      <use xlink:href="#ArialMT-65" x="49.958984"/>
      <use xlink:href="#ArialMT-6d" x="105.574219"/>
      <use xlink:href="#ArialMT-70" x="188.875"/>
      <use xlink:href="#ArialMT-65" x="244.490234"/>
      <use xlink:href="#ArialMT-72" x="300.105469"/>
      <use xlink:href="#ArialMT-61" x="333.40625"/>
      <use xlink:href="#ArialMT-74" x="389.021484"/>
      <use xlink:href="#ArialMT-75" x="416.804688"/>
      <use xlink:href="#ArialMT-72" x="472.419922"/>
      <use xlink:href="#ArialMT-65" x="505.720703"/>
     </g>
    </g>
   </g>
  </g>
  <g id="axes_3">
   <g id="matplotlib.axis_5">
    <g id="ytick_7">
     <g id="line2d_31">
      <defs>
       <path id="m6751d9cc15" d="M 0 0 
L 6 0 
" style="stroke: #262626; stroke-width: 1.25"/>
      </defs>
      <g>
       <use xlink:href="#m6751d9cc15" x="734.926641" y="423.100647" style="fill: #262626; stroke: #262626; stroke-width: 1.25"/>
      </g>
     </g>
     <g id="text_20">
      <!-- 0 -->
      <g style="fill: #262626" transform="translate(744.426641 427.037444)scale(0.11 -0.11)">
       <use xlink:href="#ArialMT-30"/>
      </g>
     </g>
    </g>
    <g id="ytick_8">
     <g id="line2d_32">
      <g>
       <use xlink:href="#m6751d9cc15" x="734.926641" y="344.308632" style="fill: #262626; stroke: #262626; stroke-width: 1.25"/>
      </g>
     </g>
     <g id="text_21">
      <!-- 10 -->
      <g style="fill: #262626" transform="translate(744.426641 348.245429)scale(0.11 -0.11)">
       <use xlink:href="#ArialMT-31"/>
       <use xlink:href="#ArialMT-30" x="55.615234"/>
      </g>
     </g>
    </g>
    <g id="ytick_9">
     <g id="line2d_33">
      <g>
       <use xlink:href="#m6751d9cc15" x="734.926641" y="265.516616" style="fill: #262626; stroke: #262626; stroke-width: 1.25"/>
      </g>
     </g>
     <g id="text_22">
      <!-- 20 -->
      <g style="fill: #262626" transform="translate(744.426641 269.453413)scale(0.11 -0.11)">
       <use xlink:href="#ArialMT-32"/>
       <use xlink:href="#ArialMT-30" x="55.615234"/>
      </g>
     </g>
    </g>
    <g id="ytick_10">
     <g id="line2d_34">
      <g>
       <use xlink:href="#m6751d9cc15" x="734.926641" y="186.724601" style="fill: #262626; stroke: #262626; stroke-width: 1.25"/>
      </g>
     </g>
     <g id="text_23">
      <!-- 30 -->
      <g style="fill: #262626" transform="translate(744.426641 190.661398)scale(0.11 -0.11)">
       <defs>
        <path id="ArialMT-33" d="M 269 1209 
L 831 1284 
Q 928 806 1161 595 
Q 1394 384 1728 384 
Q 2125 384 2398 659 
Q 2672 934 2672 1341 
Q 2672 1728 2419 1979 
Q 2166 2231 1775 2231 
Q 1616 2231 1378 2169 
L 1441 2663 
Q 1497 2656 1531 2656 
Q 1891 2656 2178 2843 
Q 2466 3031 2466 3422 
Q 2466 3731 2256 3934 
Q 2047 4138 1716 4138 
Q 1388 4138 1169 3931 
Q 950 3725 888 3313 
L 325 3413 
Q 428 3978 793 4289 
Q 1159 4600 1703 4600 
Q 2078 4600 2393 4439 
Q 2709 4278 2876 4000 
Q 3044 3722 3044 3409 
Q 3044 3113 2884 2869 
Q 2725 2625 2413 2481 
Q 2819 2388 3044 2092 
Q 3269 1797 3269 1353 
Q 3269 753 2831 336 
Q 2394 -81 1725 -81 
Q 1122 -81 723 278 
Q 325 638 269 1209 
z
" transform="scale(0.015625)"/>
       </defs>
       <use xlink:href="#ArialMT-33"/>
       <use xlink:href="#ArialMT-30" x="55.615234"/>
      </g>
     </g>
    </g>
    <g id="ytick_11">
     <g id="line2d_35">
      <g>
       <use xlink:href="#m6751d9cc15" x="734.926641" y="107.932586" style="fill: #262626; stroke: #262626; stroke-width: 1.25"/>
      </g>
     </g>
     <g id="text_24">
      <!-- 40 -->
      <g style="fill: #262626" transform="translate(744.426641 111.869382)scale(0.11 -0.11)">
       <use xlink:href="#ArialMT-34"/>
       <use xlink:href="#ArialMT-30" x="55.615234"/>
      </g>
     </g>
    </g>
    <g id="ytick_12">
     <g id="line2d_36">
      <g>
       <use xlink:href="#m6751d9cc15" x="734.926641" y="29.14057" style="fill: #262626; stroke: #262626; stroke-width: 1.25"/>
      </g>
     </g>
     <g id="text_25">
      <!-- 50 -->
      <g style="fill: #262626" transform="translate(744.426641 33.077367)scale(0.11 -0.11)">
       <use xlink:href="#ArialMT-35"/>
       <use xlink:href="#ArialMT-30" x="55.615234"/>
      </g>
     </g>
    </g>
    <g id="text_26">
     <!-- Temperature -->
     <g style="fill: #262626" transform="translate(773.544766 275.155312)rotate(-90)scale(0.18 -0.18)">
      <use xlink:href="#ArialMT-54"/>
      <use xlink:href="#ArialMT-65" x="49.958984"/>
      <use xlink:href="#ArialMT-6d" x="105.574219"/>
      <use xlink:href="#ArialMT-70" x="188.875"/>
      <use xlink:href="#ArialMT-65" x="244.490234"/>
      <use xlink:href="#ArialMT-72" x="300.105469"/>
      <use xlink:href="#ArialMT-61" x="333.40625"/>
      <use xlink:href="#ArialMT-74" x="389.021484"/>
      <use xlink:href="#ArialMT-75" x="416.804688"/>
      <use xlink:href="#ArialMT-72" x="472.419922"/>
      <use xlink:href="#ArialMT-65" x="505.720703"/>
     </g>
    </g>
   </g>
   <g id="PolyCollection_7"/>
   <g id="line2d_37">
    <path d="M 95.763004 26.967273 
L 101.74982 26.967273 
L 101.902027 126.246307 
L 107.838108 126.246307 
L 107.990315 212.887305 
L 113.926395 212.887305 
L 114.078602 270.935537 
L 120.014683 270.935537 
L 120.16689 309.271758 
L 126.10297 309.271758 
L 126.255177 327.331631 
L 132.191257 327.331631 
L 132.343465 365.262584 
L 138.279545 365.262584 
L 138.431752 373.591846 
L 144.367832 373.591846 
L 144.52004 379.569327 
L 150.45612 379.569327 
L 150.608327 394.909258 
L 156.544407 394.909258 
L 156.696614 408.280869 
L 162.632695 408.280869 
L 162.784902 416.170792 
L 168.720982 416.170792 
L 168.873189 420.061582 
L 174.80927 420.061582 
L 174.961477 421.814034 
L 180.897557 421.814034 
L 181.049764 422.312727 
L 704.490277 422.312727 
L 704.490277 422.312727 
" clip-path="url(#p971cc12c80)" style="fill: none; stroke: #ff0000; stroke-width: 1.5; stroke-linecap: round"/>
   </g>
   <g id="patch_13">
    <path d="M 65.326641 442.08 
L 65.326641 7.2 
" style="fill: none; stroke: #262626; stroke-width: 1.25; stroke-linejoin: miter; stroke-linecap: square"/>
   </g>
   <g id="patch_14">
    <path d="M 734.926641 442.08 
L 734.926641 7.2 
" style="fill: none; stroke: #ff0000; stroke-width: 2; stroke-linejoin: miter; stroke-linecap: square"/>
   </g>
   <g id="patch_15">
    <path d="M 65.326641 442.08 
L 734.926641 442.08 
" style="fill: none; stroke: #262626; stroke-width: 1.25; stroke-linejoin: miter; stroke-linecap: square"/>
   </g>
   <g id="patch_16">
    <path d="M 65.326641 7.2 
L 734.926641 7.2 
" style="fill: none; stroke: #262626; stroke-width: 1.25; stroke-linejoin: miter; stroke-linecap: square"/>
   </g>
   <g id="legend_2"/>
  </g>
 </g>
 <defs>
  <clipPath id="p971cc12c80">
   <rect x="65.326641" y="7.2" width="669.6" height="434.88"/>
  </clipPath>
  <clipPath id="p98eb476de9">
   <rect x="503.164078" y="46.3392" width="195.685125" height="195.696"/>
  </clipPath>
 </defs>
</svg>
