<?xml version="1.0" encoding="utf-8" standalone="no"?>
<!DOCTYPE svg PUBLIC "-//W3C//DTD SVG 1.1//EN"
  "http://www.w3.org/Graphics/SVG/1.1/DTD/svg11.dtd">
<svg xmlns:xlink="http://www.w3.org/1999/xlink" width="784.322266pt" height="494.331328pt" viewBox="0 0 784.322266 494.331328" xmlns="http://www.w3.org/2000/svg" version="1.1">
 <metadata>
  <rdf:RDF xmlns:dc="http://purl.org/dc/elements/1.1/" xmlns:cc="http://creativecommons.org/ns#" xmlns:rdf="http://www.w3.org/1999/02/22-rdf-syntax-ns#">
   <cc:Work>
    <dc:type rdf:resource="http://purl.org/dc/dcmitype/StillImage"/>
    <dc:date>2022-12-14T14:33:57.207281</dc:date>
    <dc:format>image/svg+xml</dc:format>
    <dc:creator>
     <cc:Agent>
      <dc:title>Matplotlib v3.5.2, https://matplotlib.org/</dc:title>
     </cc:Agent>
    </dc:creator>
   </cc:Work>
  </rdf:RDF>
 </metadata>
 <defs>
  <style type="text/css">*{stroke-linejoin: round; stroke-linecap: butt}</style>
 </defs>
 <g id="figure_1">
  <g id="patch_1">
   <path d="M 0 494.331328 
L 784.322266 494.331328 
L 784.322266 0 
L 0 0 
L 0 494.331328 
z
" style="fill: none"/>
  </g>
  <g id="axes_1">
   <g id="patch_2">
    <path d="M 65.326641 442.08 
L 734.926641 442.08 
L 734.926641 7.2 
L 65.326641 7.2 
z
" style="fill: #ffffff"/>
   </g>
   <g id="matplotlib.axis_1">
    <g id="xtick_1">
     <g id="line2d_1">
      <path d="M 95.712269 442.08 
L 95.712269 7.2 
" clip-path="url(#p45094fb932)" style="fill: none; stroke: #cccccc; stroke-linecap: round"/>
     </g>
     <g id="text_1">
      <!-- 0 -->
      <g style="fill: #262626" transform="translate(91.124495 463.390391)scale(0.165 -0.165)">
       <defs>
        <path id="ArialMT-30" d="M 266 2259 
Q 266 3072 433 3567 
Q 600 4063 929 4331 
Q 1259 4600 1759 4600 
Q 2128 4600 2406 4451 
Q 2684 4303 2865 4023 
Q 3047 3744 3150 3342 
Q 3253 2941 3253 2259 
Q 3253 1453 3087 958 
Q 2922 463 2592 192 
Q 2263 -78 1759 -78 
Q 1097 -78 719 397 
Q 266 969 266 2259 
z
M 844 2259 
Q 844 1131 1108 757 
Q 1372 384 1759 384 
Q 2147 384 2411 759 
Q 2675 1134 2675 2259 
Q 2675 3391 2411 3762 
Q 2147 4134 1753 4134 
Q 1366 4134 1134 3806 
Q 844 3388 844 2259 
z
" transform="scale(0.015625)"/>
       </defs>
       <use xlink:href="#ArialMT-30"/>
      </g>
     </g>
    </g>
    <g id="xtick_2">
     <g id="line2d_2">
      <path d="M 197.183726 442.08 
L 197.183726 7.2 
" clip-path="url(#p45094fb932)" style="fill: none; stroke: #cccccc; stroke-linecap: round"/>
     </g>
     <g id="text_2">
      <!-- 2000 -->
      <g style="fill: #262626" transform="translate(178.832632 463.390391)scale(0.165 -0.165)">
       <defs>
        <path id="ArialMT-32" d="M 3222 541 
L 3222 0 
L 194 0 
Q 188 203 259 391 
Q 375 700 629 1000 
Q 884 1300 1366 1694 
Q 2113 2306 2375 2664 
Q 2638 3022 2638 3341 
Q 2638 3675 2398 3904 
Q 2159 4134 1775 4134 
Q 1369 4134 1125 3890 
Q 881 3647 878 3216 
L 300 3275 
Q 359 3922 746 4261 
Q 1134 4600 1788 4600 
Q 2447 4600 2831 4234 
Q 3216 3869 3216 3328 
Q 3216 3053 3103 2787 
Q 2991 2522 2730 2228 
Q 2469 1934 1863 1422 
Q 1356 997 1212 845 
Q 1069 694 975 541 
L 3222 541 
z
" transform="scale(0.015625)"/>
       </defs>
       <use xlink:href="#ArialMT-32"/>
       <use xlink:href="#ArialMT-30" x="55.615234"/>
       <use xlink:href="#ArialMT-30" x="111.230469"/>
       <use xlink:href="#ArialMT-30" x="166.845703"/>
      </g>
     </g>
    </g>
    <g id="xtick_3">
     <g id="line2d_3">
      <path d="M 298.655183 442.08 
L 298.655183 7.2 
" clip-path="url(#p45094fb932)" style="fill: none; stroke: #cccccc; stroke-linecap: round"/>
     </g>
     <g id="text_3">
      <!-- 4000 -->
      <g style="fill: #262626" transform="translate(280.30409 463.390391)scale(0.165 -0.165)">
       <defs>
        <path id="ArialMT-34" d="M 2069 0 
L 2069 1097 
L 81 1097 
L 81 1613 
L 2172 4581 
L 2631 4581 
L 2631 1613 
L 3250 1613 
L 3250 1097 
L 2631 1097 
L 2631 0 
L 2069 0 
z
M 2069 1613 
L 2069 3678 
L 634 1613 
L 2069 1613 
z
" transform="scale(0.015625)"/>
       </defs>
       <use xlink:href="#ArialMT-34"/>
       <use xlink:href="#ArialMT-30" x="55.615234"/>
       <use xlink:href="#ArialMT-30" x="111.230469"/>
       <use xlink:href="#ArialMT-30" x="166.845703"/>
      </g>
     </g>
    </g>
    <g id="xtick_4">
     <g id="line2d_4">
      <path d="M 400.126641 442.08 
L 400.126641 7.2 
" clip-path="url(#p45094fb932)" style="fill: none; stroke: #cccccc; stroke-linecap: round"/>
     </g>
     <g id="text_4">
      <!-- 6000 -->
      <g style="fill: #262626" transform="translate(381.775547 463.390391)scale(0.165 -0.165)">
       <defs>
        <path id="ArialMT-36" d="M 3184 3459 
L 2625 3416 
Q 2550 3747 2413 3897 
Q 2184 4138 1850 4138 
Q 1581 4138 1378 3988 
Q 1113 3794 959 3422 
Q 806 3050 800 2363 
Q 1003 2672 1297 2822 
Q 1591 2972 1913 2972 
Q 2475 2972 2870 2558 
Q 3266 2144 3266 1488 
Q 3266 1056 3080 686 
Q 2894 316 2569 119 
Q 2244 -78 1831 -78 
Q 1128 -78 684 439 
Q 241 956 241 2144 
Q 241 3472 731 4075 
Q 1159 4600 1884 4600 
Q 2425 4600 2770 4297 
Q 3116 3994 3184 3459 
z
M 888 1484 
Q 888 1194 1011 928 
Q 1134 663 1356 523 
Q 1578 384 1822 384 
Q 2178 384 2434 671 
Q 2691 959 2691 1453 
Q 2691 1928 2437 2201 
Q 2184 2475 1800 2475 
Q 1419 2475 1153 2201 
Q 888 1928 888 1484 
z
" transform="scale(0.015625)"/>
       </defs>
       <use xlink:href="#ArialMT-36"/>
       <use xlink:href="#ArialMT-30" x="55.615234"/>
       <use xlink:href="#ArialMT-30" x="111.230469"/>
       <use xlink:href="#ArialMT-30" x="166.845703"/>
      </g>
     </g>
    </g>
    <g id="xtick_5">
     <g id="line2d_5">
      <path d="M 501.598098 442.08 
L 501.598098 7.2 
" clip-path="url(#p45094fb932)" style="fill: none; stroke: #cccccc; stroke-linecap: round"/>
     </g>
     <g id="text_5">
      <!-- 8000 -->
      <g style="fill: #262626" transform="translate(483.247004 463.390391)scale(0.165 -0.165)">
       <defs>
        <path id="ArialMT-38" d="M 1131 2484 
Q 781 2613 612 2850 
Q 444 3088 444 3419 
Q 444 3919 803 4259 
Q 1163 4600 1759 4600 
Q 2359 4600 2725 4251 
Q 3091 3903 3091 3403 
Q 3091 3084 2923 2848 
Q 2756 2613 2416 2484 
Q 2838 2347 3058 2040 
Q 3278 1734 3278 1309 
Q 3278 722 2862 322 
Q 2447 -78 1769 -78 
Q 1091 -78 675 323 
Q 259 725 259 1325 
Q 259 1772 486 2073 
Q 713 2375 1131 2484 
z
M 1019 3438 
Q 1019 3113 1228 2906 
Q 1438 2700 1772 2700 
Q 2097 2700 2305 2904 
Q 2513 3109 2513 3406 
Q 2513 3716 2298 3927 
Q 2084 4138 1766 4138 
Q 1444 4138 1231 3931 
Q 1019 3725 1019 3438 
z
M 838 1322 
Q 838 1081 952 856 
Q 1066 631 1291 507 
Q 1516 384 1775 384 
Q 2178 384 2440 643 
Q 2703 903 2703 1303 
Q 2703 1709 2433 1975 
Q 2163 2241 1756 2241 
Q 1359 2241 1098 1978 
Q 838 1716 838 1322 
z
" transform="scale(0.015625)"/>
       </defs>
       <use xlink:href="#ArialMT-38"/>
       <use xlink:href="#ArialMT-30" x="55.615234"/>
       <use xlink:href="#ArialMT-30" x="111.230469"/>
       <use xlink:href="#ArialMT-30" x="166.845703"/>
      </g>
     </g>
    </g>
    <g id="xtick_6">
     <g id="line2d_6">
      <path d="M 603.069555 442.08 
L 603.069555 7.2 
" clip-path="url(#p45094fb932)" style="fill: none; stroke: #cccccc; stroke-linecap: round"/>
     </g>
     <g id="text_6">
      <!-- 10000 -->
      <g style="fill: #262626" transform="translate(580.130688 463.390391)scale(0.165 -0.165)">
       <defs>
        <path id="ArialMT-31" d="M 2384 0 
L 1822 0 
L 1822 3584 
Q 1619 3391 1289 3197 
Q 959 3003 697 2906 
L 697 3450 
Q 1169 3672 1522 3987 
Q 1875 4303 2022 4600 
L 2384 4600 
L 2384 0 
z
" transform="scale(0.015625)"/>
       </defs>
       <use xlink:href="#ArialMT-31"/>
       <use xlink:href="#ArialMT-30" x="55.615234"/>
       <use xlink:href="#ArialMT-30" x="111.230469"/>
       <use xlink:href="#ArialMT-30" x="166.845703"/>
       <use xlink:href="#ArialMT-30" x="222.460938"/>
      </g>
     </g>
    </g>
    <g id="xtick_7">
     <g id="line2d_7">
      <path d="M 704.541013 442.08 
L 704.541013 7.2 
" clip-path="url(#p45094fb932)" style="fill: none; stroke: #cccccc; stroke-linecap: round"/>
     </g>
     <g id="text_7">
      <!-- 12000 -->
      <g style="fill: #262626" transform="translate(681.602146 463.390391)scale(0.165 -0.165)">
       <use xlink:href="#ArialMT-31"/>
       <use xlink:href="#ArialMT-32" x="55.615234"/>
       <use xlink:href="#ArialMT-30" x="111.230469"/>
       <use xlink:href="#ArialMT-30" x="166.845703"/>
       <use xlink:href="#ArialMT-30" x="222.460938"/>
      </g>
     </g>
    </g>
    <g id="text_8">
     <!-- Evaluations -->
     <g style="fill: #262626" transform="translate(353.599453 483.553828)scale(0.18 -0.18)">
      <defs>
       <path id="ArialMT-45" d="M 506 0 
L 506 4581 
L 3819 4581 
L 3819 4041 
L 1113 4041 
L 1113 2638 
L 3647 2638 
L 3647 2100 
L 1113 2100 
L 1113 541 
L 3925 541 
L 3925 0 
L 506 0 
z
" transform="scale(0.015625)"/>
       <path id="ArialMT-76" d="M 1344 0 
L 81 3319 
L 675 3319 
L 1388 1331 
Q 1503 1009 1600 663 
Q 1675 925 1809 1294 
L 2547 3319 
L 3125 3319 
L 1869 0 
L 1344 0 
z
" transform="scale(0.015625)"/>
       <path id="ArialMT-61" d="M 2588 409 
Q 2275 144 1986 34 
Q 1697 -75 1366 -75 
Q 819 -75 525 192 
Q 231 459 231 875 
Q 231 1119 342 1320 
Q 453 1522 633 1644 
Q 813 1766 1038 1828 
Q 1203 1872 1538 1913 
Q 2219 1994 2541 2106 
Q 2544 2222 2544 2253 
Q 2544 2597 2384 2738 
Q 2169 2928 1744 2928 
Q 1347 2928 1158 2789 
Q 969 2650 878 2297 
L 328 2372 
Q 403 2725 575 2942 
Q 747 3159 1072 3276 
Q 1397 3394 1825 3394 
Q 2250 3394 2515 3294 
Q 2781 3194 2906 3042 
Q 3031 2891 3081 2659 
Q 3109 2516 3109 2141 
L 3109 1391 
Q 3109 606 3145 398 
Q 3181 191 3288 0 
L 2700 0 
Q 2613 175 2588 409 
z
M 2541 1666 
Q 2234 1541 1622 1453 
Q 1275 1403 1131 1340 
Q 988 1278 909 1158 
Q 831 1038 831 891 
Q 831 666 1001 516 
Q 1172 366 1500 366 
Q 1825 366 2078 508 
Q 2331 650 2450 897 
Q 2541 1088 2541 1459 
L 2541 1666 
z
" transform="scale(0.015625)"/>
       <path id="ArialMT-6c" d="M 409 0 
L 409 4581 
L 972 4581 
L 972 0 
L 409 0 
z
" transform="scale(0.015625)"/>
       <path id="ArialMT-75" d="M 2597 0 
L 2597 488 
Q 2209 -75 1544 -75 
Q 1250 -75 995 37 
Q 741 150 617 320 
Q 494 491 444 738 
Q 409 903 409 1263 
L 409 3319 
L 972 3319 
L 972 1478 
Q 972 1038 1006 884 
Q 1059 663 1231 536 
Q 1403 409 1656 409 
Q 1909 409 2131 539 
Q 2353 669 2445 892 
Q 2538 1116 2538 1541 
L 2538 3319 
L 3100 3319 
L 3100 0 
L 2597 0 
z
" transform="scale(0.015625)"/>
       <path id="ArialMT-74" d="M 1650 503 
L 1731 6 
Q 1494 -44 1306 -44 
Q 1000 -44 831 53 
Q 663 150 594 308 
Q 525 466 525 972 
L 525 2881 
L 113 2881 
L 113 3319 
L 525 3319 
L 525 4141 
L 1084 4478 
L 1084 3319 
L 1650 3319 
L 1650 2881 
L 1084 2881 
L 1084 941 
Q 1084 700 1114 631 
Q 1144 563 1211 522 
Q 1278 481 1403 481 
Q 1497 481 1650 503 
z
" transform="scale(0.015625)"/>
       <path id="ArialMT-69" d="M 425 3934 
L 425 4581 
L 988 4581 
L 988 3934 
L 425 3934 
z
M 425 0 
L 425 3319 
L 988 3319 
L 988 0 
L 425 0 
z
" transform="scale(0.015625)"/>
       <path id="ArialMT-6f" d="M 213 1659 
Q 213 2581 725 3025 
Q 1153 3394 1769 3394 
Q 2453 3394 2887 2945 
Q 3322 2497 3322 1706 
Q 3322 1066 3130 698 
Q 2938 331 2570 128 
Q 2203 -75 1769 -75 
Q 1072 -75 642 372 
Q 213 819 213 1659 
z
M 791 1659 
Q 791 1022 1069 705 
Q 1347 388 1769 388 
Q 2188 388 2466 706 
Q 2744 1025 2744 1678 
Q 2744 2294 2464 2611 
Q 2184 2928 1769 2928 
Q 1347 2928 1069 2612 
Q 791 2297 791 1659 
z
" transform="scale(0.015625)"/>
       <path id="ArialMT-6e" d="M 422 0 
L 422 3319 
L 928 3319 
L 928 2847 
Q 1294 3394 1984 3394 
Q 2284 3394 2536 3286 
Q 2788 3178 2913 3003 
Q 3038 2828 3088 2588 
Q 3119 2431 3119 2041 
L 3119 0 
L 2556 0 
L 2556 2019 
Q 2556 2363 2490 2533 
Q 2425 2703 2258 2804 
Q 2091 2906 1866 2906 
Q 1506 2906 1245 2678 
Q 984 2450 984 1813 
L 984 0 
L 422 0 
z
" transform="scale(0.015625)"/>
       <path id="ArialMT-73" d="M 197 991 
L 753 1078 
Q 800 744 1014 566 
Q 1228 388 1613 388 
Q 2000 388 2187 545 
Q 2375 703 2375 916 
Q 2375 1106 2209 1216 
Q 2094 1291 1634 1406 
Q 1016 1563 777 1677 
Q 538 1791 414 1992 
Q 291 2194 291 2438 
Q 291 2659 392 2848 
Q 494 3038 669 3163 
Q 800 3259 1026 3326 
Q 1253 3394 1513 3394 
Q 1903 3394 2198 3281 
Q 2494 3169 2634 2976 
Q 2775 2784 2828 2463 
L 2278 2388 
Q 2241 2644 2061 2787 
Q 1881 2931 1553 2931 
Q 1166 2931 1000 2803 
Q 834 2675 834 2503 
Q 834 2394 903 2306 
Q 972 2216 1119 2156 
Q 1203 2125 1616 2013 
Q 2213 1853 2448 1751 
Q 2684 1650 2818 1456 
Q 2953 1263 2953 975 
Q 2953 694 2789 445 
Q 2625 197 2315 61 
Q 2006 -75 1616 -75 
Q 969 -75 630 194 
Q 291 463 197 991 
z
" transform="scale(0.015625)"/>
      </defs>
      <use xlink:href="#ArialMT-45"/>
      <use xlink:href="#ArialMT-76" x="66.699219"/>
      <use xlink:href="#ArialMT-61" x="116.699219"/>
      <use xlink:href="#ArialMT-6c" x="172.314453"/>
      <use xlink:href="#ArialMT-75" x="194.53125"/>
      <use xlink:href="#ArialMT-61" x="250.146484"/>
      <use xlink:href="#ArialMT-74" x="305.761719"/>
      <use xlink:href="#ArialMT-69" x="333.544922"/>
      <use xlink:href="#ArialMT-6f" x="355.761719"/>
      <use xlink:href="#ArialMT-6e" x="411.376953"/>
      <use xlink:href="#ArialMT-73" x="466.992188"/>
     </g>
    </g>
   </g>
   <g id="matplotlib.axis_2">
    <g id="ytick_1">
     <g id="line2d_8">
      <path d="M 65.326641 430.595989 
L 734.926641 430.595989 
" clip-path="url(#p45094fb932)" style="fill: none; stroke: #cccccc; stroke-linecap: round"/>
     </g>
     <g id="line2d_9">
      <defs>
       <path id="m584e6aee04" d="M 0 0 
L -6 0 
" style="stroke: #262626; stroke-width: 1.25"/>
      </defs>
      <g>
       <use xlink:href="#m584e6aee04" x="65.326641" y="430.595989" style="fill: #262626; stroke: #262626; stroke-width: 1.25"/>
      </g>
     </g>
     <g id="text_9">
      <!-- 60 -->
      <g style="fill: #262626" transform="translate(37.475547 436.501184)scale(0.165 -0.165)">
       <use xlink:href="#ArialMT-36"/>
       <use xlink:href="#ArialMT-30" x="55.615234"/>
      </g>
     </g>
    </g>
    <g id="ytick_2">
     <g id="line2d_10">
      <path d="M 65.326641 373.761938 
L 734.926641 373.761938 
" clip-path="url(#p45094fb932)" style="fill: none; stroke: #cccccc; stroke-linecap: round"/>
     </g>
     <g id="line2d_11">
      <g>
       <use xlink:href="#m584e6aee04" x="65.326641" y="373.761938" style="fill: #262626; stroke: #262626; stroke-width: 1.25"/>
      </g>
     </g>
     <g id="text_10">
      <!-- 70 -->
      <g style="fill: #262626" transform="translate(37.475547 379.667133)scale(0.165 -0.165)">
       <defs>
        <path id="ArialMT-37" d="M 303 3981 
L 303 4522 
L 3269 4522 
L 3269 4084 
Q 2831 3619 2401 2847 
Q 1972 2075 1738 1259 
Q 1569 684 1522 0 
L 944 0 
Q 953 541 1156 1306 
Q 1359 2072 1739 2783 
Q 2119 3494 2547 3981 
L 303 3981 
z
" transform="scale(0.015625)"/>
       </defs>
       <use xlink:href="#ArialMT-37"/>
       <use xlink:href="#ArialMT-30" x="55.615234"/>
      </g>
     </g>
    </g>
    <g id="ytick_3">
     <g id="line2d_12">
      <path d="M 65.326641 316.927886 
L 734.926641 316.927886 
" clip-path="url(#p45094fb932)" style="fill: none; stroke: #cccccc; stroke-linecap: round"/>
     </g>
     <g id="line2d_13">
      <g>
       <use xlink:href="#m584e6aee04" x="65.326641" y="316.927886" style="fill: #262626; stroke: #262626; stroke-width: 1.25"/>
      </g>
     </g>
     <g id="text_11">
      <!-- 80 -->
      <g style="fill: #262626" transform="translate(37.475547 322.833082)scale(0.165 -0.165)">
       <use xlink:href="#ArialMT-38"/>
       <use xlink:href="#ArialMT-30" x="55.615234"/>
      </g>
     </g>
    </g>
    <g id="ytick_4">
     <g id="line2d_14">
      <path d="M 65.326641 260.093835 
L 734.926641 260.093835 
" clip-path="url(#p45094fb932)" style="fill: none; stroke: #cccccc; stroke-linecap: round"/>
     </g>
     <g id="line2d_15">
      <g>
       <use xlink:href="#m584e6aee04" x="65.326641" y="260.093835" style="fill: #262626; stroke: #262626; stroke-width: 1.25"/>
      </g>
     </g>
     <g id="text_12">
      <!-- 90 -->
      <g style="fill: #262626" transform="translate(37.475547 265.99903)scale(0.165 -0.165)">
       <defs>
        <path id="ArialMT-39" d="M 350 1059 
L 891 1109 
Q 959 728 1153 556 
Q 1347 384 1650 384 
Q 1909 384 2104 503 
Q 2300 622 2425 820 
Q 2550 1019 2634 1356 
Q 2719 1694 2719 2044 
Q 2719 2081 2716 2156 
Q 2547 1888 2255 1720 
Q 1963 1553 1622 1553 
Q 1053 1553 659 1965 
Q 266 2378 266 3053 
Q 266 3750 677 4175 
Q 1088 4600 1706 4600 
Q 2153 4600 2523 4359 
Q 2894 4119 3086 3673 
Q 3278 3228 3278 2384 
Q 3278 1506 3087 986 
Q 2897 466 2520 194 
Q 2144 -78 1638 -78 
Q 1100 -78 759 220 
Q 419 519 350 1059 
z
M 2653 3081 
Q 2653 3566 2395 3850 
Q 2138 4134 1775 4134 
Q 1400 4134 1122 3828 
Q 844 3522 844 3034 
Q 844 2597 1108 2323 
Q 1372 2050 1759 2050 
Q 2150 2050 2401 2323 
Q 2653 2597 2653 3081 
z
" transform="scale(0.015625)"/>
       </defs>
       <use xlink:href="#ArialMT-39"/>
       <use xlink:href="#ArialMT-30" x="55.615234"/>
      </g>
     </g>
    </g>
    <g id="ytick_5">
     <g id="line2d_16">
      <path d="M 65.326641 203.259784 
L 734.926641 203.259784 
" clip-path="url(#p45094fb932)" style="fill: none; stroke: #cccccc; stroke-linecap: round"/>
     </g>
     <g id="line2d_17">
      <g>
       <use xlink:href="#m584e6aee04" x="65.326641" y="203.259784" style="fill: #262626; stroke: #262626; stroke-width: 1.25"/>
      </g>
     </g>
     <g id="text_13">
      <!-- 100 -->
      <g style="fill: #262626" transform="translate(28.3 209.164979)scale(0.165 -0.165)">
       <use xlink:href="#ArialMT-31"/>
       <use xlink:href="#ArialMT-30" x="55.615234"/>
       <use xlink:href="#ArialMT-30" x="111.230469"/>
      </g>
     </g>
    </g>
    <g id="ytick_6">
     <g id="line2d_18">
      <path d="M 65.326641 146.425733 
L 734.926641 146.425733 
" clip-path="url(#p45094fb932)" style="fill: none; stroke: #cccccc; stroke-linecap: round"/>
     </g>
     <g id="line2d_19">
      <g>
       <use xlink:href="#m584e6aee04" x="65.326641" y="146.425733" style="fill: #262626; stroke: #262626; stroke-width: 1.25"/>
      </g>
     </g>
     <g id="text_14">
      <!-- 110 -->
      <g style="fill: #262626" transform="translate(29.516875 152.330928)scale(0.165 -0.165)">
       <use xlink:href="#ArialMT-31"/>
       <use xlink:href="#ArialMT-31" x="48.240234"/>
       <use xlink:href="#ArialMT-30" x="103.855469"/>
      </g>
     </g>
    </g>
    <g id="ytick_7">
     <g id="line2d_20">
      <path d="M 65.326641 89.591682 
L 734.926641 89.591682 
" clip-path="url(#p45094fb932)" style="fill: none; stroke: #cccccc; stroke-linecap: round"/>
     </g>
     <g id="line2d_21">
      <g>
       <use xlink:href="#m584e6aee04" x="65.326641" y="89.591682" style="fill: #262626; stroke: #262626; stroke-width: 1.25"/>
      </g>
     </g>
     <g id="text_15">
      <!-- 120 -->
      <g style="fill: #262626" transform="translate(28.3 95.496877)scale(0.165 -0.165)">
       <use xlink:href="#ArialMT-31"/>
       <use xlink:href="#ArialMT-32" x="55.615234"/>
       <use xlink:href="#ArialMT-30" x="111.230469"/>
      </g>
     </g>
    </g>
    <g id="ytick_8">
     <g id="line2d_22">
      <path d="M 65.326641 32.75763 
L 734.926641 32.75763 
" clip-path="url(#p45094fb932)" style="fill: none; stroke: #cccccc; stroke-linecap: round"/>
     </g>
     <g id="line2d_23">
      <g>
       <use xlink:href="#m584e6aee04" x="65.326641" y="32.75763" style="fill: #262626; stroke: #262626; stroke-width: 1.25"/>
      </g>
     </g>
     <g id="text_16">
      <!-- 130 -->
      <g style="fill: #262626" transform="translate(28.3 38.662826)scale(0.165 -0.165)">
       <defs>
        <path id="ArialMT-33" d="M 269 1209 
L 831 1284 
Q 928 806 1161 595 
Q 1394 384 1728 384 
Q 2125 384 2398 659 
Q 2672 934 2672 1341 
Q 2672 1728 2419 1979 
Q 2166 2231 1775 2231 
Q 1616 2231 1378 2169 
L 1441 2663 
Q 1497 2656 1531 2656 
Q 1891 2656 2178 2843 
Q 2466 3031 2466 3422 
Q 2466 3731 2256 3934 
Q 2047 4138 1716 4138 
Q 1388 4138 1169 3931 
Q 950 3725 888 3313 
L 325 3413 
Q 428 3978 793 4289 
Q 1159 4600 1703 4600 
Q 2078 4600 2393 4439 
Q 2709 4278 2876 4000 
Q 3044 3722 3044 3409 
Q 3044 3113 2884 2869 
Q 2725 2625 2413 2481 
Q 2819 2388 3044 2092 
Q 3269 1797 3269 1353 
Q 3269 753 2831 336 
Q 2394 -81 1725 -81 
Q 1122 -81 723 278 
Q 325 638 269 1209 
z
" transform="scale(0.015625)"/>
       </defs>
       <use xlink:href="#ArialMT-31"/>
       <use xlink:href="#ArialMT-33" x="55.615234"/>
       <use xlink:href="#ArialMT-30" x="111.230469"/>
      </g>
     </g>
    </g>
    <g id="text_17">
     <!-- Potential Energy, $E$ -->
     <g style="fill: #262626" transform="translate(20.34 301.41)rotate(-90)scale(0.18 -0.18)">
      <defs>
       <path id="ArialMT-50" d="M 494 0 
L 494 4581 
L 2222 4581 
Q 2678 4581 2919 4538 
Q 3256 4481 3484 4323 
Q 3713 4166 3852 3881 
Q 3991 3597 3991 3256 
Q 3991 2672 3619 2267 
Q 3247 1863 2275 1863 
L 1100 1863 
L 1100 0 
L 494 0 
z
M 1100 2403 
L 2284 2403 
Q 2872 2403 3119 2622 
Q 3366 2841 3366 3238 
Q 3366 3525 3220 3729 
Q 3075 3934 2838 4000 
Q 2684 4041 2272 4041 
L 1100 4041 
L 1100 2403 
z
" transform="scale(0.015625)"/>
       <path id="ArialMT-65" d="M 2694 1069 
L 3275 997 
Q 3138 488 2766 206 
Q 2394 -75 1816 -75 
Q 1088 -75 661 373 
Q 234 822 234 1631 
Q 234 2469 665 2931 
Q 1097 3394 1784 3394 
Q 2450 3394 2872 2941 
Q 3294 2488 3294 1666 
Q 3294 1616 3291 1516 
L 816 1516 
Q 847 969 1125 678 
Q 1403 388 1819 388 
Q 2128 388 2347 550 
Q 2566 713 2694 1069 
z
M 847 1978 
L 2700 1978 
Q 2663 2397 2488 2606 
Q 2219 2931 1791 2931 
Q 1403 2931 1139 2672 
Q 875 2413 847 1978 
z
" transform="scale(0.015625)"/>
       <path id="ArialMT-20" transform="scale(0.015625)"/>
       <path id="ArialMT-72" d="M 416 0 
L 416 3319 
L 922 3319 
L 922 2816 
Q 1116 3169 1280 3281 
Q 1444 3394 1641 3394 
Q 1925 3394 2219 3213 
L 2025 2691 
Q 1819 2813 1613 2813 
Q 1428 2813 1281 2702 
Q 1134 2591 1072 2394 
Q 978 2094 978 1738 
L 978 0 
L 416 0 
z
" transform="scale(0.015625)"/>
       <path id="ArialMT-67" d="M 319 -275 
L 866 -356 
Q 900 -609 1056 -725 
Q 1266 -881 1628 -881 
Q 2019 -881 2231 -725 
Q 2444 -569 2519 -288 
Q 2563 -116 2559 434 
Q 2191 0 1641 0 
Q 956 0 581 494 
Q 206 988 206 1678 
Q 206 2153 378 2554 
Q 550 2956 876 3175 
Q 1203 3394 1644 3394 
Q 2231 3394 2613 2919 
L 2613 3319 
L 3131 3319 
L 3131 450 
Q 3131 -325 2973 -648 
Q 2816 -972 2473 -1159 
Q 2131 -1347 1631 -1347 
Q 1038 -1347 672 -1080 
Q 306 -813 319 -275 
z
M 784 1719 
Q 784 1066 1043 766 
Q 1303 466 1694 466 
Q 2081 466 2343 764 
Q 2606 1063 2606 1700 
Q 2606 2309 2336 2618 
Q 2066 2928 1684 2928 
Q 1309 2928 1046 2623 
Q 784 2319 784 1719 
z
" transform="scale(0.015625)"/>
       <path id="ArialMT-79" d="M 397 -1278 
L 334 -750 
Q 519 -800 656 -800 
Q 844 -800 956 -737 
Q 1069 -675 1141 -563 
Q 1194 -478 1313 -144 
Q 1328 -97 1363 -6 
L 103 3319 
L 709 3319 
L 1400 1397 
Q 1534 1031 1641 628 
Q 1738 1016 1872 1384 
L 2581 3319 
L 3144 3319 
L 1881 -56 
Q 1678 -603 1566 -809 
Q 1416 -1088 1222 -1217 
Q 1028 -1347 759 -1347 
Q 597 -1347 397 -1278 
z
" transform="scale(0.015625)"/>
       <path id="ArialMT-2c" d="M 569 0 
L 569 641 
L 1209 641 
L 1209 0 
Q 1209 -353 1084 -570 
Q 959 -788 688 -906 
L 531 -666 
Q 709 -588 793 -436 
Q 878 -284 888 0 
L 569 0 
z
" transform="scale(0.015625)"/>
       <path id="DejaVuSans-Oblique-45" d="M 1081 4666 
L 4031 4666 
L 3928 4134 
L 1606 4134 
L 1338 2753 
L 3566 2753 
L 3463 2222 
L 1234 2222 
L 909 531 
L 3284 531 
L 3181 0 
L 172 0 
L 1081 4666 
z
" transform="scale(0.015625)"/>
      </defs>
      <use xlink:href="#ArialMT-50" transform="translate(0 0.09375)"/>
      <use xlink:href="#ArialMT-6f" transform="translate(66.699219 0.09375)"/>
      <use xlink:href="#ArialMT-74" transform="translate(122.314453 0.09375)"/>
      <use xlink:href="#ArialMT-65" transform="translate(150.097656 0.09375)"/>
      <use xlink:href="#ArialMT-6e" transform="translate(205.712891 0.09375)"/>
      <use xlink:href="#ArialMT-74" transform="translate(261.328125 0.09375)"/>
      <use xlink:href="#ArialMT-69" transform="translate(289.111328 0.09375)"/>
      <use xlink:href="#ArialMT-61" transform="translate(311.328125 0.09375)"/>
      <use xlink:href="#ArialMT-6c" transform="translate(366.943359 0.09375)"/>
      <use xlink:href="#ArialMT-20" transform="translate(389.160156 0.09375)"/>
      <use xlink:href="#ArialMT-45" transform="translate(416.943359 0.09375)"/>
      <use xlink:href="#ArialMT-6e" transform="translate(483.642578 0.09375)"/>
      <use xlink:href="#ArialMT-65" transform="translate(539.257812 0.09375)"/>
      <use xlink:href="#ArialMT-72" transform="translate(594.873047 0.09375)"/>
      <use xlink:href="#ArialMT-67" transform="translate(628.173828 0.09375)"/>
      <use xlink:href="#ArialMT-79" transform="translate(683.789062 0.09375)"/>
      <use xlink:href="#ArialMT-2c" transform="translate(733.789062 0.09375)"/>
      <use xlink:href="#ArialMT-20" transform="translate(761.572266 0.09375)"/>
      <use xlink:href="#DejaVuSans-Oblique-45" transform="translate(789.355469 0.09375)"/>
     </g>
    </g>
   </g>
   <g id="PolyCollection_1"/>
   <g id="PolyCollection_2"/>
   <g id="PolyCollection_3"/>
   <g id="PolyCollection_4"/>
   <g id="PolyCollection_5">
    <defs>
     <path id="m8f0074b7b1" d="M 98.756412 -305.101422 
L 98.756412 -294.497529 
L 104.819332 -265.276043 
L 110.907619 -315.14051 
L 116.995907 -281.439693 
L 123.084194 -283.454474 
L 129.172482 -270.657991 
L 135.260769 -287.679286 
L 141.349056 -229.151775 
L 147.437344 -201.744841 
L 153.525631 -206.332625 
L 159.613919 -172.914246 
L 165.702206 -167.07678 
L 171.790494 -139.323187 
L 177.878781 -114.283435 
L 183.967069 -106.887111 
L 190.055356 -116.36434 
L 196.143643 -111.340045 
L 202.231931 -101.969249 
L 208.320218 -96.809067 
L 214.408506 -91.159253 
L 220.496793 -89.750062 
L 464.028291 -76.12454 
L 464.028291 -76.215165 
L 464.028291 -76.215165 
L 220.496793 -89.860839 
L 214.408506 -91.245813 
L 208.320218 -97.298126 
L 202.231931 -102.514003 
L 196.143643 -112.032062 
L 190.055356 -116.536641 
L 183.967069 -107.931687 
L 177.878781 -116.256879 
L 171.790494 -141.85998 
L 165.702206 -171.660952 
L 159.613919 -177.837504 
L 153.525631 -211.205593 
L 147.437344 -204.745246 
L 141.349056 -235.548547 
L 135.260769 -294.896677 
L 129.172482 -278.235348 
L 123.084194 -292.041389 
L 116.995907 -291.446156 
L 110.907619 -325.097996 
L 104.819332 -278.007762 
L 98.756412 -305.101422 
z
" style="stroke: #6495ed; stroke-opacity: 0.5"/>
    </defs>
    <g clip-path="url(#p45094fb932)">
     <use xlink:href="#m8f0074b7b1" x="0" y="494.331328" style="fill: #6495ed; fill-opacity: 0.5; stroke: #6495ed; stroke-opacity: 0.5"/>
    </g>
   </g>
   <g id="PolyCollection_6">
    <defs>
     <path id="m8770c7c0b2" d="M 98.756412 -283.893636 
L 98.756412 -294.497529 
L 104.819332 -265.276043 
L 110.907619 -315.14051 
L 116.995907 -281.439693 
L 123.084194 -283.454474 
L 129.172482 -270.657991 
L 135.260769 -287.679286 
L 141.349056 -229.151775 
L 147.437344 -201.744841 
L 153.525631 -206.332625 
L 159.613919 -172.914246 
L 165.702206 -167.07678 
L 171.790494 -139.323187 
L 177.878781 -114.283435 
L 183.967069 -106.887111 
L 190.055356 -116.36434 
L 196.143643 -111.340045 
L 202.231931 -101.969249 
L 208.320218 -96.809067 
L 214.408506 -91.159253 
L 220.496793 -89.750062 
L 464.028291 -76.12454 
L 464.028291 -76.033914 
L 464.028291 -76.033914 
L 220.496793 -89.639285 
L 214.408506 -91.072693 
L 208.320218 -96.320008 
L 202.231931 -101.424494 
L 196.143643 -110.648027 
L 190.055356 -116.192039 
L 183.967069 -105.842534 
L 177.878781 -112.309991 
L 171.790494 -136.786394 
L 165.702206 -162.492608 
L 159.613919 -167.990987 
L 153.525631 -201.459657 
L 147.437344 -198.744436 
L 141.349056 -222.755003 
L 135.260769 -280.461896 
L 129.172482 -263.080635 
L 123.084194 -274.867559 
L 116.995907 -271.43323 
L 110.907619 -305.183024 
L 104.819332 -252.544325 
L 98.756412 -283.893636 
z
" style="stroke: #6495ed; stroke-opacity: 0.5"/>
    </defs>
    <g clip-path="url(#p45094fb932)">
     <use xlink:href="#m8770c7c0b2" x="0" y="494.331328" style="fill: #6495ed; fill-opacity: 0.5; stroke: #6495ed; stroke-opacity: 0.5"/>
    </g>
   </g>
   <g id="PathCollection_1">
    <defs>
     <path id="m31c09916ed" d="M 0 2.236068 
C 0.593012 2.236068 1.161816 2.000462 1.581139 1.581139 
C 2.000462 1.161816 2.236068 0.593012 2.236068 0 
C 2.236068 -0.593012 2.000462 -1.161816 1.581139 -1.581139 
C 1.161816 -2.000462 0.593012 -2.236068 0 -2.236068 
C -0.593012 -2.236068 -1.161816 -2.000462 -1.581139 -1.581139 
C -2.000462 -1.161816 -2.236068 -0.593012 -2.236068 0 
C -2.236068 0.593012 -2.000462 1.161816 -1.581139 1.581139 
C -1.161816 2.000462 -0.593012 2.236068 0 2.236068 
z
" style="stroke: #000000"/>
    </defs>
    <g clip-path="url(#p45094fb932)">
     <use xlink:href="#m31c09916ed" x="98.756412" y="199.833799" style="stroke: #000000"/>
     <use xlink:href="#m31c09916ed" x="104.819332" y="229.055285" style="stroke: #000000"/>
     <use xlink:href="#m31c09916ed" x="110.907619" y="179.190818" style="stroke: #000000"/>
     <use xlink:href="#m31c09916ed" x="116.995907" y="212.891635" style="stroke: #000000"/>
     <use xlink:href="#m31c09916ed" x="123.084194" y="210.876854" style="stroke: #000000"/>
     <use xlink:href="#m31c09916ed" x="129.172482" y="223.673337" style="stroke: #000000"/>
     <use xlink:href="#m31c09916ed" x="135.260769" y="206.652042" style="stroke: #000000"/>
     <use xlink:href="#m31c09916ed" x="141.349056" y="265.179553" style="stroke: #000000"/>
     <use xlink:href="#m31c09916ed" x="147.437344" y="292.586487" style="stroke: #000000"/>
     <use xlink:href="#m31c09916ed" x="153.525631" y="287.998703" style="stroke: #000000"/>
     <use xlink:href="#m31c09916ed" x="159.613919" y="321.417082" style="stroke: #000000"/>
     <use xlink:href="#m31c09916ed" x="165.702206" y="327.254548" style="stroke: #000000"/>
     <use xlink:href="#m31c09916ed" x="171.790494" y="355.008141" style="stroke: #000000"/>
     <use xlink:href="#m31c09916ed" x="177.878781" y="380.047893" style="stroke: #000000"/>
     <use xlink:href="#m31c09916ed" x="183.967069" y="387.444217" style="stroke: #000000"/>
     <use xlink:href="#m31c09916ed" x="190.055356" y="377.966988" style="stroke: #000000"/>
     <use xlink:href="#m31c09916ed" x="196.143643" y="382.991284" style="stroke: #000000"/>
     <use xlink:href="#m31c09916ed" x="202.231931" y="392.362079" style="stroke: #000000"/>
     <use xlink:href="#m31c09916ed" x="208.320218" y="397.522261" style="stroke: #000000"/>
     <use xlink:href="#m31c09916ed" x="214.408506" y="403.172075" style="stroke: #000000"/>
     <use xlink:href="#m31c09916ed" x="220.496793" y="404.581266" style="stroke: #000000"/>
     <use xlink:href="#m31c09916ed" x="464.028291" y="418.206788" style="stroke: #000000"/>
    </g>
   </g>
   <g id="line2d_24">
    <path d="M 464.028291 418.206788 
L 220.496793 404.581266 
L 214.408506 403.172075 
L 208.320218 397.522261 
L 202.231931 392.362079 
L 196.143643 382.991284 
L 190.055356 377.966988 
L 183.967069 387.444217 
L 177.878781 380.047893 
L 171.790494 355.008141 
L 165.702206 327.254548 
L 159.613919 321.417082 
L 153.525631 287.998703 
L 147.437344 292.586487 
L 141.349056 265.179553 
L 135.260769 206.652042 
L 129.172482 223.673337 
L 123.084194 210.876854 
L 116.995907 212.891635 
L 110.907619 179.190818 
L 104.819332 229.055285 
L 98.756412 199.833799 
" clip-path="url(#p45094fb932)" style="fill: none; stroke: #0000ff; stroke-width: 1.5; stroke-linecap: round"/>
   </g>
   <g id="line2d_25">
    <path d="M 95.763004 266.86578 
L 95.81374 266.86578 
L 95.965947 250.774617 
L 96.067419 297.269995 
L 96.270362 179.563644 
L 96.371833 180.703621 
L 96.422569 180.703621 
L 96.52404 230.009791 
L 96.574776 220.739004 
L 96.676247 220.739004 
L 96.726983 233.28768 
L 96.87919 202.52695 
L 97.031397 197.390909 
L 97.132869 197.35416 
L 97.23434 202.074122 
L 97.285076 255.708483 
L 97.335812 176.01235 
L 97.437283 178.515931 
L 97.690962 100.86285 
L 97.741698 100.86285 
L 97.893905 148.949675 
L 98.046112 148.949675 
L 98.198319 212.945247 
L 98.249055 89.500937 
L 98.299791 115.63079 
L 98.451998 115.63079 
L 98.553469 165.938937 
L 98.604205 109.333517 
L 98.705677 111.075614 
L 98.756412 87.858411 
L 98.807148 107.799537 
L 98.959355 107.799537 
L 99.060827 84.75051 
L 99.365241 176.765715 
L 99.415977 176.765715 
L 99.517448 182.050841 
L 99.669655 177.837939 
L 99.821863 183.477324 
L 99.97407 179.955268 
L 100.177013 248.979168 
L 100.32922 285.057869 
L 100.379956 281.508505 
L 100.633634 237.137735 
L 100.68437 237.137735 
L 100.836577 274.313039 
L 100.887313 274.313039 
L 100.938049 276.432466 
L 101.03952 295.674718 
L 101.191727 253.635146 
L 101.242463 240.427462 
L 101.293199 243.186273 
L 101.343934 243.186273 
L 101.496142 248.456251 
L 101.648349 248.456251 
L 101.800556 291.607177 
L 102.003499 291.607177 
L 102.054235 290.308831 
L 102.10497 239.108533 
L 102.155706 264.448603 
L 102.307913 284.489992 
L 102.358649 285.665744 
L 102.510856 249.904704 
L 102.612328 249.904704 
L 102.815271 202.458329 
L 102.916742 202.458329 
L 103.018213 217.564194 
L 103.170421 143.832944 
L 103.221156 143.832944 
L 103.373364 210.686884 
L 103.525571 198.639779 
L 103.576306 148.476474 
L 103.627042 181.822165 
L 103.728514 181.822165 
L 103.880721 172.992286 
L 104.032928 225.182288 
L 104.235871 225.182288 
L 104.388078 330.301323 
L 104.8447 330.301323 
L 104.996907 321.17856 
L 105.047643 321.17856 
L 105.19985 318.805671 
L 105.250586 318.805671 
L 105.402793 285.426441 
L 105.453528 285.426441 
L 105.707207 230.625948 
L 105.757943 230.625948 
L 105.91015 286.163849 
L 106.062357 275.329196 
L 106.163829 275.329196 
L 106.214564 187.989893 
L 106.2653 271.187845 
L 106.316036 268.223439 
L 106.518979 91.624431 
L 106.874129 91.624431 
L 106.924865 79.042793 
L 107.077072 170.402597 
L 107.127807 170.402597 
L 107.33075 240.473787 
L 107.381486 240.473787 
L 107.482958 203.57095 
L 107.584429 209.452784 
L 107.635165 204.929748 
L 107.685901 132.194899 
L 107.787372 133.926692 
L 108.041051 154.352572 
L 108.193258 26.967273 
L 108.243994 37.145482 
L 108.396201 109.685654 
L 108.548408 109.685654 
L 108.649879 116.024409 
L 108.751351 252.220737 
L 108.802087 230.483403 
L 108.852822 230.483403 
L 109.005029 126.979389 
L 109.055765 146.772303 
L 109.106501 146.376956 
L 109.309444 245.612706 
L 109.36018 245.612706 
L 109.410915 257.231388 
L 109.461651 239.451043 
L 109.512387 244.936493 
L 109.71533 244.936493 
L 109.867537 215.689027 
L 109.918273 215.689027 
L 110.07048 191.315083 
L 110.324158 175.269036 
L 110.374894 175.269036 
L 110.42563 178.378432 
L 110.476366 190.217781 
L 110.527101 189.099303 
L 110.628573 179.264285 
L 110.78078 248.278018 
L 110.831516 229.63951 
L 110.932987 230.310224 
L 110.983723 228.999707 
L 111.085194 165.833762 
L 111.13593 195.602817 
L 111.186666 201.805171 
L 111.237402 199.730788 
L 111.288137 199.730788 
L 111.338873 206.255618 
L 111.49108 272.936068 
L 111.541816 260.982741 
L 111.694023 96.949962 
L 111.795495 105.331506 
L 111.947702 148.042097 
L 112.150645 148.042097 
L 112.252116 288.62156 
L 112.404323 234.285156 
L 112.505795 254.4123 
L 112.658002 193.016318 
L 112.708738 193.016318 
L 112.860945 157.669163 
L 112.911681 157.669163 
L 112.962416 121.679863 
L 113.063888 127.901724 
L 113.114623 127.901724 
L 113.216095 186.125441 
L 113.266831 177.731812 
L 113.368302 125.466162 
L 113.419038 148.440176 
L 113.520509 202.540187 
L 113.571245 200.362393 
L 113.723452 107.81616 
L 113.774188 179.147203 
L 113.824924 137.500536 
L 113.926395 137.500536 
L 114.078602 176.430334 
L 114.180074 130.920919 
L 114.23081 145.663221 
L 114.281545 131.234756 
L 114.332281 131.234756 
L 114.383017 150.603131 
L 114.433752 128.259191 
L 114.535224 138.004949 
L 114.687431 266.095614 
L 114.738167 266.095614 
L 114.788903 253.846608 
L 114.839638 258.812816 
L 114.991845 278.333372 
L 115.042581 280.585662 
L 115.093317 219.533615 
L 115.144053 236.105493 
L 115.245524 236.105493 
L 115.397731 275.144873 
L 115.549938 280.619155 
L 115.702146 280.619155 
L 115.854353 269.50884 
L 115.955824 269.50884 
L 116.00656 269.252784 
L 116.209503 164.39013 
L 116.260239 80.273549 
L 116.310974 131.997763 
L 116.463182 131.997763 
L 116.564653 192.28989 
L 116.615389 169.28864 
L 116.666124 193.555381 
L 116.71686 255.243858 
L 116.818332 251.517035 
L 116.919803 279.556006 
L 116.970539 271.399747 
L 117.07201 271.399747 
L 117.122746 286.293206 
L 117.325689 246.688726 
L 117.579368 246.688726 
L 117.731575 163.991408 
L 117.782311 181.581142 
L 117.934518 244.848289 
L 118.086725 165.610544 
L 118.137461 145.022455 
L 118.238932 173.124843 
L 118.340404 157.654253 
L 118.543346 261.964744 
L 118.594082 254.415339 
L 118.746289 242.068127 
L 118.999968 242.068127 
L 119.152175 155.874924 
L 119.202911 155.874924 
L 119.253647 181.28926 
L 119.405854 117.497462 
L 119.507325 69.359292 
L 119.558061 99.297019 
L 119.710268 210.936291 
L 119.81174 210.936291 
L 120.014683 175.759864 
L 120.065418 180.632263 
L 120.116154 180.419477 
L 120.217625 140.372552 
L 120.369833 147.988138 
L 120.623511 180.401715 
L 120.674247 171.801772 
L 120.724983 171.801772 
L 120.87719 170.638464 
L 120.927926 170.638464 
L 121.080133 186.249527 
L 121.181604 186.249527 
L 121.23234 195.807548 
L 121.384547 159.622494 
L 121.536754 159.622494 
L 121.58749 121.764137 
L 121.638226 144.580625 
L 121.688962 144.580625 
L 121.739697 136.567803 
L 121.841169 202.274642 
L 121.993376 160.393437 
L 122.247055 160.393437 
L 122.29779 157.512315 
L 122.65294 249.84447 
L 122.754412 234.689804 
L 122.957355 277.456077 
L 123.008091 277.456077 
L 123.058826 295.814106 
L 123.261769 235.561849 
L 123.464712 354.005532 
L 123.616919 266.2044 
L 123.667655 266.2044 
L 123.921334 227.794614 
L 124.022805 227.794614 
L 124.175012 214.251351 
L 124.32722 277.733269 
L 124.479427 277.733269 
L 124.631634 241.200076 
L 124.783841 237.201896 
L 124.986784 180.655614 
L 125.03752 191.491856 
L 125.189727 226.079804 
L 125.240463 226.079804 
L 125.39267 252.236245 
L 125.494141 252.236245 
L 125.544877 242.457315 
L 125.595613 166.370663 
L 125.646348 183.621972 
L 125.697084 183.621972 
L 125.849291 167.90763 
L 126.052234 223.481654 
L 126.10297 223.481654 
L 126.305913 144.673589 
L 126.356649 147.38036 
L 126.407384 117.913578 
L 126.45812 128.760336 
L 126.559592 182.593671 
L 126.661063 139.582182 
L 126.711799 166.632989 
L 126.762534 164.585588 
L 126.914742 152.514274 
L 126.965477 152.514274 
L 127.117685 202.310072 
L 127.16842 204.019183 
L 127.219156 202.406086 
L 127.269892 202.406086 
L 127.422099 186.548233 
L 127.675778 162.164361 
L 127.777249 236.508899 
L 127.827985 210.022791 
L 127.878721 210.022791 
L 128.132399 255.329945 
L 128.284606 217.006397 
L 128.690492 303.75077 
L 128.741228 303.75077 
L 128.944171 213.677601 
L 129.096378 181.874606 
L 129.147114 182.482576 
L 129.197849 185.463256 
L 129.400792 228.900166 
L 129.553 228.202518 
L 129.705207 252.418273 
L 129.857414 252.418273 
L 129.90815 279.197657 
L 129.958885 224.546292 
L 130.009621 237.35233 
L 130.060357 237.35233 
L 130.111093 265.707037 
L 130.212564 263.130943 
L 130.364771 263.130943 
L 130.466243 212.104681 
L 130.516978 260.418501 
L 130.567714 251.985793 
L 130.669186 242.383023 
L 130.821393 258.831865 
L 130.922864 258.831865 
L 130.9736 210.462094 
L 131.024336 233.130111 
L 131.125807 233.130111 
L 131.227279 230.708612 
L 131.278014 236.468295 
L 131.32875 230.56615 
L 131.379486 225.852144 
L 131.430222 248.195928 
L 131.480957 230.086804 
L 131.531693 207.510723 
L 131.633164 238.257596 
L 131.6839 237.390372 
L 131.836107 237.390372 
L 131.988315 274.735118 
L 132.140522 315.174396 
L 132.292729 277.623193 
L 132.444936 277.623193 
L 132.597143 255.308473 
L 132.647879 255.308473 
L 132.74935 304.754468 
L 132.901558 162.493779 
L 133.256708 162.493779 
L 133.358179 162.624678 
L 133.408915 298.79237 
L 133.510386 279.346376 
L 133.662594 223.372147 
L 133.713329 231.842048 
L 133.814801 231.842048 
L 133.916272 236.416962 
L 134.068479 230.351492 
L 134.119215 232.339218 
L 134.271422 210.563276 
L 134.42363 212.319672 
L 134.626572 162.42948 
L 134.77878 159.236138 
L 134.880251 159.236138 
L 135.083194 209.292943 
L 135.13393 195.989188 
L 135.184665 195.989188 
L 135.336873 166.993898 
L 135.48908 193.467942 
L 135.590551 193.467942 
L 135.742758 215.297578 
L 135.84423 218.078328 
L 135.996437 212.888525 
L 136.19938 212.888525 
L 136.300851 220.173584 
L 136.453059 208.901344 
L 136.605266 243.650948 
L 136.656002 243.650948 
L 136.757473 227.898517 
L 136.808209 236.326155 
L 136.90968 236.326155 
L 136.960416 227.895277 
L 137.112623 241.09407 
L 137.163359 241.09407 
L 137.366302 187.355003 
L 137.417038 187.355003 
L 137.467773 107.871531 
L 137.518509 117.264734 
L 137.721452 139.896381 
L 137.772188 139.896381 
L 137.924395 173.183588 
L 138.076602 183.864772 
L 138.127338 174.767131 
L 138.279545 220.633534 
L 138.330281 220.633534 
L 138.482488 278.151809 
L 138.533224 278.151809 
L 138.583959 262.781705 
L 138.736166 314.172608 
L 139.192788 314.172608 
L 139.294259 314.834295 
L 139.344995 321.224624 
L 139.446467 304.00135 
L 139.497202 306.98159 
L 139.547938 306.98159 
L 139.598674 307.322042 
L 139.700145 305.593311 
L 140.00456 258.317412 
L 140.156767 286.951107 
L 140.207503 286.951107 
L 140.258238 297.517507 
L 140.308974 279.882726 
L 140.35971 299.718969 
L 140.410446 281.908217 
L 140.511917 281.908217 
L 140.664124 277.315251 
L 140.71486 277.315251 
L 140.867067 257.621966 
L 140.917803 257.621966 
L 141.019274 306.922412 
L 141.07001 293.195071 
L 141.323689 293.195071 
L 141.475896 281.668184 
L 141.577367 281.668184 
L 141.729574 258.323107 
L 141.831046 255.100248 
L 141.881782 255.939371 
L 141.932517 247.406356 
L 141.983253 274.698195 
L 142.033989 253.397802 
L 142.186196 213.942176 
L 142.389139 213.942176 
L 142.439875 241.440739 
L 142.49061 212.034218 
L 142.592082 212.034218 
L 142.744289 227.51923 
L 142.795025 227.51923 
L 142.896496 236.296257 
L 142.997968 194.356725 
L 143.048703 195.056967 
L 143.251646 195.056967 
L 143.454589 245.599593 
L 143.556061 225.351814 
L 143.606796 243.540837 
L 143.657532 233.514946 
L 143.759004 233.514946 
L 143.911211 265.056718 
L 143.961947 265.056718 
L 144.114154 276.287144 
L 144.266361 276.287144 
L 144.418568 267.845898 
L 144.570775 294.542323 
L 144.672247 289.154108 
L 144.824454 300.676297 
L 144.87519 300.676297 
L 145.027397 292.003651 
L 145.078133 292.003651 
L 145.179604 288.656319 
L 145.331811 278.764732 
L 145.433283 293.076221 
L 145.484018 292.620958 
L 145.636226 292.620958 
L 145.788433 298.973536 
L 145.889904 298.973536 
L 146.092847 250.176379 
L 146.245054 267.561445 
L 146.346526 267.561445 
L 146.397261 264.708819 
L 146.549469 284.588587 
L 146.65094 284.588587 
L 146.803147 306.961106 
L 147.00609 306.961106 
L 147.158297 280.776861 
L 147.513448 280.776861 
L 147.614919 283.299947 
L 147.817862 304.892243 
L 147.970069 310.27888 
L 148.223748 310.27888 
L 148.325219 269.192847 
L 148.375955 284.262382 
L 148.426691 284.262382 
L 148.578898 306.573145 
L 148.934048 306.573145 
L 149.035519 272.397351 
L 149.136991 279.569941 
L 149.187727 278.456496 
L 149.289198 278.456496 
L 149.390669 280.242376 
L 149.542877 294.568002 
L 149.593612 297.407432 
L 149.74582 333.372591 
L 149.796555 333.372591 
L 149.898027 332.115421 
L 150.050234 295.827331 
L 150.151705 295.827331 
L 150.303913 299.058305 
L 150.354648 299.058305 
L 150.45612 247.561117 
L 150.557591 255.980255 
L 150.760534 255.980255 
L 151.014213 206.341824 
L 151.217156 283.516411 
L 151.369363 283.516411 
L 151.420099 281.183116 
L 151.572306 296.57337 
L 151.673777 296.57337 
L 151.927456 271.690974 
L 151.978192 271.690974 
L 152.130399 291.406579 
L 152.181135 291.406579 
L 152.282606 277.236327 
L 152.333342 279.903251 
L 152.384077 279.903251 
L 152.637756 233.944667 
L 152.789963 233.944667 
L 152.94217 267.200946 
L 153.094378 298.646626 
L 153.145113 295.681363 
L 153.297321 324.302516 
L 153.398792 324.302516 
L 153.550999 311.777294 
L 153.601735 311.777294 
L 153.703206 288.37117 
L 153.753942 295.503933 
L 153.804678 295.503933 
L 153.956885 323.069241 
L 154.109092 339.740282 
L 154.312035 298.140945 
L 154.362771 302.90202 
L 154.413507 301.679323 
L 154.464242 301.679323 
L 154.667185 298.037119 
L 154.9716 298.037119 
L 155.073071 316.601224 
L 155.225278 309.947899 
L 155.377485 313.83722 
L 155.478957 313.83722 
L 155.631164 284.779681 
L 156.189257 284.779681 
L 156.341464 311.361777 
L 156.3922 306.826175 
L 156.442936 306.826175 
L 156.595143 308.437361 
L 156.645879 308.437361 
L 156.798086 345.242929 
L 157.051765 345.242929 
L 157.153236 355.768696 
L 157.305443 343.776386 
L 157.559122 343.776386 
L 157.711329 338.174494 
L 157.762065 338.174494 
L 157.914272 349.971611 
L 158.269422 349.971611 
L 158.472365 328.859717 
L 159.131929 328.859717 
L 159.284137 339.836664 
L 159.487079 339.836664 
L 159.639287 325.865873 
L 159.791494 330.732221 
L 159.84223 330.732221 
L 159.943701 331.0254 
L 159.994437 335.083708 
L 160.045173 331.37465 
L 160.146644 331.37465 
L 160.298851 317.919922 
L 160.451058 317.919922 
L 160.603266 338.089889 
L 160.856944 329.396026 
L 161.059887 309.765194 
L 161.313566 309.765194 
L 161.415037 314.645176 
L 161.465773 314.447178 
L 161.516509 314.447178 
L 161.668716 296.688316 
L 161.719452 296.688316 
L 161.871659 248.984037 
L 162.125337 248.984037 
L 162.277545 272.809011 
L 162.379016 272.809011 
L 162.531223 278.169282 
L 162.734166 278.169282 
L 162.886373 278.853926 
L 163.140052 278.853926 
L 163.292259 307.062804 
L 163.444466 313.305493 
L 163.545938 313.305493 
L 163.647409 304.988023 
L 163.698145 317.91539 
L 163.748881 314.044872 
L 163.901088 308.508988 
L 164.053295 308.508988 
L 164.104031 302.640527 
L 164.205502 302.690819 
L 164.306974 302.690819 
L 164.459181 309.429531 
L 164.560652 309.429531 
L 164.71286 315.383652 
L 165.017274 315.383652 
L 165.06801 333.620906 
L 165.118745 326.982689 
L 165.42316 326.982689 
L 165.575367 314.989198 
L 165.676838 314.989198 
L 165.829046 336.395973 
L 166.031988 336.395973 
L 166.184196 318.565184 
L 166.437874 318.565184 
L 166.590082 304.653941 
L 166.793024 342.786002 
L 166.84376 342.786002 
L 166.995967 362.871694 
L 167.655532 362.871694 
L 167.757003 358.814109 
L 167.90921 363.426806 
L 168.010682 363.426806 
L 168.162889 358.350804 
L 168.264361 357.558731 
L 168.416568 353.697817 
L 168.720982 353.697817 
L 168.873189 348.01255 
L 169.025396 356.557236 
L 169.177604 356.557236 
L 169.329811 346.126889 
L 169.482018 346.126889 
L 169.634225 355.15766 
L 169.786432 355.15766 
L 169.837168 352.440413 
L 169.887904 356.880553 
L 170.141583 328.744558 
L 170.29379 328.744558 
L 170.445997 335.830357 
L 170.902618 335.830357 
L 171.054826 346.435299 
L 171.257769 346.435299 
L 171.409976 344.374083 
L 171.765126 344.374083 
L 171.917333 358.877708 
L 172.323219 358.877708 
L 172.475426 372.026084 
L 172.729105 372.026084 
L 172.881312 360.690074 
L 173.033519 360.690074 
L 173.185726 358.241038 
L 173.337933 358.241038 
L 173.591612 380.399725 
L 173.642348 380.399725 
L 173.794555 380.082552 
L 174.200441 380.082552 
L 174.352648 357.610662 
L 174.657062 357.610662 
L 174.860005 354.606652 
L 174.910741 354.606652 
L 174.961477 370.515112 
L 175.012212 361.322848 
L 175.468834 361.322848 
L 175.570305 355.983232 
L 175.722513 371.936839 
L 175.925456 380.861385 
L 176.077663 380.861385 
L 176.22987 363.809789 
L 176.280606 362.885184 
L 176.432813 366.876808 
L 176.686492 366.876808 
L 176.838699 377.341366 
L 176.990906 384.700889 
L 177.143113 383.397074 
L 177.29532 383.397074 
L 177.447527 382.347046 
L 177.853413 382.347046 
L 178.00562 380.638657 
L 179.121806 380.638657 
L 179.274014 393.600683 
L 179.781371 393.600683 
L 179.933578 391.863804 
L 181.252707 391.863804 
L 181.404914 393.798734 
L 182.622572 393.798734 
L 182.774779 388.914848 
L 183.688022 388.914848 
L 183.840229 389.116252 
L 184.652001 389.116252 
L 184.854944 383.061569 
L 184.90568 383.061569 
L 185.007151 383.508291 
L 185.159358 388.06903 
L 185.514508 388.06903 
L 185.666715 384.260207 
L 185.768187 384.260207 
L 185.869658 385.024327 
L 185.920394 388.757883 
L 186.072601 376.075259 
L 186.630694 376.075259 
L 186.782902 376.653203 
L 187.848352 376.653203 
L 188.000559 375.74404 
L 188.355709 375.74404 
L 188.507916 378.515532 
L 191.399853 378.512697 
L 191.55206 378.989474 
L 192.008682 378.989474 
L 192.160889 377.72755 
L 192.566775 377.72755 
L 192.718982 378.174175 
L 193.784432 378.174175 
L 193.936639 379.869067 
L 195.509447 379.869067 
L 195.71239 380.160125 
L 195.966068 380.160125 
L 196.118276 378.918007 
L 196.270483 378.918007 
L 196.42269 385.74996 
L 196.828576 385.74996 
L 196.980783 386.97248 
L 197.48814 386.97248 
L 197.640347 385.920826 
L 198.046233 385.920826 
L 198.249176 387.266061 
L 198.452119 387.266061 
L 198.604326 387.787298 
L 198.807269 387.787298 
L 198.959476 389.289997 
L 199.87272 389.289997 
L 200.024927 390.939036 
L 200.177134 389.480018 
L 202.35877 389.480018 
L 202.510977 394.183146 
L 202.663185 396.37776 
L 203.119806 396.37776 
L 203.272013 395.333745 
L 204.743349 395.333745 
L 204.895557 395.472925 
L 207.280136 395.472925 
L 207.432343 396.137005 
L 207.787493 396.137005 
L 207.9397 396.399901 
L 209.208094 396.399901 
L 209.360301 398.200824 
L 210.375015 398.200824 
L 210.527223 403.398323 
L 213.825045 403.398323 
L 213.875781 406.081949 
L 213.926516 403.379524 
L 214.890495 403.379524 
L 215.042702 402.634788 
L 216.919924 402.564436 
L 217.072132 403.67557 
L 219.355239 403.67557 
L 219.507447 405.000979 
L 247.564304 405.069645 
L 247.716512 406.573461 
L 253.449649 406.517137 
L 253.601856 406.284855 
L 266.894617 406.284855 
L 267.046824 408.154871 
L 271.562304 408.154871 
L 271.714511 411.560857 
L 277.092499 411.560857 
L 277.244706 412.176557 
L 277.955006 412.176557 
L 278.107213 415.525995 
L 288.761716 415.525995 
L 288.913923 416.086279 
L 297.538997 416.086279 
L 297.691204 417.256542 
L 312.861187 417.256542 
L 313.013394 418.283266 
L 313.723695 418.283266 
L 313.875902 417.108515 
L 332.597386 417.108515 
L 332.749593 416.909069 
L 335.032701 416.909069 
L 335.184908 417.48237 
L 336.859187 417.48237 
L 337.011394 416.75627 
L 338.076844 416.75627 
L 338.229052 417.209122 
L 347.361483 417.209122 
L 347.51369 417.785548 
L 356.950536 417.764286 
L 357.102743 418.360459 
L 366.438117 418.360459 
L 366.590324 418.049803 
L 366.793267 418.049803 
L 366.945474 420.190816 
L 373.135233 420.190816 
L 373.28744 420.352165 
L 377.041884 420.352165 
L 377.194091 420.232214 
L 379.832349 420.232214 
L 379.984556 419.898527 
L 385.565486 419.898527 
L 385.717694 420.303034 
L 393.886146 420.303034 
L 394.038353 421.028126 
L 394.089089 421.028126 
L 394.241296 420.686349 
L 400.177376 420.686349 
L 400.329584 420.825739 
L 403.170784 420.744215 
L 403.322992 419.303022 
L 416.006924 419.373835 
L 416.159131 418.924975 
L 429.401156 418.924975 
L 429.553363 419.595159 
L 432.952657 419.595159 
L 433.054129 419.903585 
L 433.206336 419.656698 
L 436.707101 419.656698 
L 436.859308 419.83564 
L 447.05719 419.83564 
L 447.209397 419.603662 
L 451.877084 419.603662 
L 452.029291 420.213475 
L 457.1536 420.213475 
L 457.305807 420.025522 
L 458.016107 420.025522 
L 458.168314 419.244638 
L 469.583853 419.244638 
L 469.73606 419.863238 
L 475.367726 419.863238 
L 475.519933 419.035262 
L 482.978086 419.035262 
L 483.130293 419.16094 
L 492.719345 419.16094 
L 492.871553 419.701808 
L 497.336297 419.701808 
L 497.488504 420.715879 
L 515.956309 420.715879 
L 516.108516 419.336819 
L 530.821878 419.370956 
L 530.974085 419.966129 
L 531.075556 419.966129 
L 531.227764 419.485833 
L 532.902043 419.485833 
L 533.05425 419.254035 
L 533.510871 419.254035 
L 533.663079 419.600708 
L 535.18515 419.600708 
L 535.388093 420.124517 
L 570.750896 420.188366 
L 570.903103 421.714676 
L 582.826 421.714676 
L 582.978207 420.948663 
L 583.434828 420.948663 
L 583.587036 419.768375 
L 584.043657 419.768375 
L 584.195864 421.445473 
L 590.131945 421.355223 
L 590.284152 421.756007 
L 602.308519 421.686844 
L 602.460727 421.423087 
L 605.048249 421.423087 
L 605.200456 421.055074 
L 610.223293 421.055074 
L 610.3755 420.830319 
L 611.440951 420.830319 
L 611.593158 421.326501 
L 632.293335 421.298574 
L 632.445542 420.743757 
L 640.66473 420.654707 
L 640.816937 420.862042 
L 659.0818 420.862042 
L 659.234007 421.438721 
L 659.995043 421.438721 
L 660.14725 422.312727 
L 675.11429 422.243179 
L 675.266497 420.833542 
L 675.976797 420.833542 
L 676.129005 420.599469 
L 679.020941 420.599469 
L 679.173148 420.790622 
L 685.109229 420.790622 
L 685.261436 419.993618 
L 687.544544 419.993618 
L 687.696751 420.976385 
L 699.416704 421.05002 
L 699.568911 420.592613 
L 704.33807 420.592613 
L 704.490277 421.611877 
L 704.490277 421.611877 
" clip-path="url(#p45094fb932)" style="fill: none; stroke: #000000; stroke-opacity: 0.15; stroke-width: 1.5; stroke-linecap: round"/>
   </g>
   <g id="line2d_26">
    <path d="M 464.028291 418.116163 
L 220.496793 404.470489 
L 214.408506 403.085515 
L 208.320218 397.033202 
L 202.231931 391.817325 
L 196.143643 382.299266 
L 190.055356 377.794687 
L 183.967069 386.399641 
L 177.878781 378.074449 
L 171.790494 352.471348 
L 165.702206 322.670376 
L 159.613919 316.493824 
L 153.525631 283.125735 
L 147.437344 289.586082 
L 141.349056 258.782781 
L 135.260769 199.434651 
L 129.172482 216.09598 
L 123.084194 202.289939 
L 116.995907 202.885173 
L 110.907619 169.233332 
L 104.819332 216.323567 
L 98.756412 189.229906 
" clip-path="url(#p45094fb932)" style="fill: none; stroke-dasharray: 5.55,2.4; stroke-dashoffset: 0; stroke: #6495ed; stroke-width: 1.5"/>
   </g>
   <g id="line2d_27">
    <path d="M 464.028291 418.297414 
L 220.496793 404.692043 
L 214.408506 403.258635 
L 208.320218 398.01132 
L 202.231931 392.906834 
L 196.143643 383.683301 
L 190.055356 378.139289 
L 183.967069 388.488794 
L 177.878781 382.021337 
L 171.790494 357.544934 
L 165.702206 331.83872 
L 159.613919 326.340341 
L 153.525631 292.871671 
L 147.437344 295.586893 
L 141.349056 271.576325 
L 135.260769 213.869432 
L 129.172482 231.250694 
L 123.084194 219.463769 
L 116.995907 222.898098 
L 110.907619 189.148304 
L 104.819332 241.787003 
L 98.756412 210.437692 
" clip-path="url(#p45094fb932)" style="fill: none; stroke-dasharray: 5.55,2.4; stroke-dashoffset: 0; stroke: #6495ed; stroke-width: 1.5"/>
   </g>
   <g id="patch_3">
    <path d="M 65.326641 442.08 
L 65.326641 7.2 
" style="fill: none; stroke: #0000ff; stroke-width: 2; stroke-linejoin: miter; stroke-linecap: square"/>
   </g>
   <g id="patch_4">
    <path d="M 734.926641 442.08 
L 734.926641 7.2 
" style="fill: none; stroke: #cccccc; stroke-width: 1.25; stroke-linejoin: miter; stroke-linecap: square"/>
   </g>
   <g id="patch_5">
    <path d="M 65.326641 442.08 
L 734.926641 442.08 
" style="fill: none; stroke: #cccccc; stroke-width: 1.25; stroke-linejoin: miter; stroke-linecap: square"/>
   </g>
   <g id="patch_6">
    <path d="M 65.326641 7.2 
L 734.926641 7.2 
" style="fill: none; stroke: #cccccc; stroke-width: 1.25; stroke-linejoin: miter; stroke-linecap: square"/>
   </g>
   <g id="axes_2">
    <g id="patch_7">
     <path d="M 503.164078 242.0352 
L 698.849203 242.0352 
L 698.849203 46.3392 
L 503.164078 46.3392 
z
" style="fill: #ffffff"/>
    </g>
    <g id="matplotlib.axis_3"/>
    <g id="matplotlib.axis_4"/>
    <g id="PathCollection_2">
     <defs>
      <path id="m22f141802f" d="M 0 3 
C 0.795609 3 1.55874 2.683901 2.12132 2.12132 
C 2.683901 1.55874 3 0.795609 3 0 
C 3 -0.795609 2.683901 -1.55874 2.12132 -2.12132 
C 1.55874 -2.683901 0.795609 -3 0 -3 
C -0.795609 -3 -1.55874 -2.683901 -2.12132 -2.12132 
C -2.683901 -1.55874 -3 -0.795609 -3 0 
C -3 0.795609 -2.683901 1.55874 -2.12132 2.12132 
C -1.55874 2.683901 -0.795609 3 0 3 
z
" style="stroke: #0000ff"/>
     </defs>
     <g clip-path="url(#p23a44e3cc9)">
      <use xlink:href="#m22f141802f" x="669.777963" y="198.714034" style="fill: #0000ff; stroke: #0000ff"/>
      <use xlink:href="#m22f141802f" x="598.370469" y="147.383436" style="fill: #0000ff; stroke: #0000ff"/>
      <use xlink:href="#m22f141802f" x="528.312764" y="194.376154" style="fill: #0000ff; stroke: #0000ff"/>
      <use xlink:href="#m22f141802f" x="562.744492" y="220.001916" style="fill: #0000ff; stroke: #0000ff"/>
      <use xlink:href="#m22f141802f" x="522.639253" y="103.254323" style="fill: #0000ff; stroke: #0000ff"/>
      <use xlink:href="#m22f141802f" x="513.553175" y="154.952476" style="fill: #0000ff; stroke: #0000ff"/>
      <use xlink:href="#m22f141802f" x="684.984459" y="158.283027" style="fill: #0000ff; stroke: #0000ff"/>
      <use xlink:href="#m22f141802f" x="658.256895" y="80.209822" style="fill: #0000ff; stroke: #0000ff"/>
      <use xlink:href="#m22f141802f" x="630.229446" y="225.85204" style="fill: #0000ff; stroke: #0000ff"/>
      <use xlink:href="#m22f141802f" x="553.795547" y="70.652109" style="fill: #0000ff; stroke: #0000ff"/>
      <use xlink:href="#m22f141802f" x="605.683789" y="58.088658" style="fill: #0000ff; stroke: #0000ff"/>
      <use xlink:href="#m22f141802f" x="683.70189" y="115.248956" style="fill: #0000ff; stroke: #0000ff"/>
     </g>
    </g>
    <g id="line2d_28">
     <path d="M 689.954425 144.1872 
L 689.875343 140.437053 
L 689.638238 136.693574 
L 689.243533 132.963418 
L 688.691927 129.253217 
L 687.984403 125.569569 
L 687.122218 121.919022 
L 686.106904 118.308067 
L 684.940269 114.743125 
L 683.624384 111.230532 
L 682.161591 107.776536 
L 680.554489 104.387276 
L 678.805937 101.068779 
L 676.919043 97.826946 
L 674.897162 94.667539 
L 672.743889 91.596176 
L 670.463052 88.618318 
L 668.058706 85.739259 
L 665.535127 82.964119 
L 662.896801 80.297831 
L 660.148418 77.745137 
L 657.294867 75.310573 
L 654.341219 72.99847 
L 651.292727 70.812938 
L 648.15481 68.757863 
L 644.933048 66.836898 
L 641.633169 65.053459 
L 638.26104 63.410717 
L 634.822656 61.911593 
L 631.324131 60.558752 
L 627.771685 59.354599 
L 624.171635 58.301275 
L 620.53038 57.400654 
L 616.854395 56.654335 
L 613.150216 56.063647 
L 609.424428 55.62964 
L 605.683656 55.353084 
L 601.934552 55.234473 
L 598.183779 55.274016 
L 594.438009 55.471643 
L 590.703899 55.827004 
L 586.98809 56.339465 
L 583.297187 57.008117 
L 579.637754 57.83177 
L 576.016296 58.80896 
L 572.439253 59.937949 
L 568.912984 61.21673 
L 565.443758 62.64303 
L 562.037745 64.214313 
L 558.700999 65.927784 
L 555.439454 67.780397 
L 552.258907 69.768859 
L 549.165015 71.889634 
L 546.163278 74.138952 
L 543.259033 76.512813 
L 540.457443 79.006996 
L 537.76349 81.617068 
L 535.181963 84.338387 
L 532.717453 87.166114 
L 530.374341 90.095224 
L 528.156793 93.120507 
L 526.068752 96.236584 
L 524.11393 99.437916 
L 522.295802 102.718811 
L 520.617603 106.073435 
L 519.082314 109.495823 
L 517.692666 112.979892 
L 516.45113 116.519446 
L 515.359913 120.108193 
L 514.420955 123.739751 
L 513.635926 127.407664 
L 513.006221 131.10541 
L 512.53296 134.826415 
L 512.216985 138.564064 
L 512.058856 142.31171 
L 512.058856 146.06269 
L 512.216985 149.810336 
L 512.53296 153.547985 
L 513.006221 157.26899 
L 513.635926 160.966736 
L 514.420955 164.634649 
L 515.359913 168.266207 
L 516.45113 171.854954 
L 517.692666 175.394508 
L 519.082314 178.878577 
L 520.617603 182.300965 
L 522.295802 185.655589 
L 524.11393 188.936484 
L 526.068752 192.137816 
L 528.156793 195.253893 
L 530.374341 198.279176 
L 532.717453 201.208286 
L 535.181963 204.036013 
L 537.76349 206.757332 
L 540.457443 209.367404 
L 543.259033 211.861587 
L 546.163278 214.235448 
L 549.165015 216.484766 
L 552.258907 218.605541 
L 555.439454 220.594003 
L 558.700999 222.446616 
L 562.037745 224.160087 
L 565.443758 225.73137 
L 568.912984 227.15767 
L 572.439253 228.436451 
L 576.016296 229.56544 
L 579.637754 230.54263 
L 583.297187 231.366283 
L 586.98809 232.034935 
L 590.703899 232.547396 
L 594.438009 232.902757 
L 598.183779 233.100384 
L 601.934552 233.139927 
L 605.683656 233.021316 
L 609.424428 232.74476 
L 613.150216 232.310753 
L 616.854395 231.720065 
L 620.53038 230.973746 
L 624.171635 230.073125 
L 627.771685 229.019801 
L 631.324131 227.815648 
L 634.822656 226.462807 
L 638.26104 224.963683 
L 641.633169 223.320941 
L 644.933048 221.537502 
L 648.15481 219.616537 
L 651.292727 217.561462 
L 654.341219 215.37593 
L 657.294867 213.063827 
L 660.148418 210.629263 
L 662.896801 208.076569 
L 665.535127 205.410281 
L 668.058706 202.635141 
L 670.463052 199.756082 
L 672.743889 196.778224 
L 674.897162 193.706861 
L 676.919043 190.547454 
L 678.805937 187.305621 
L 680.554489 183.987124 
L 682.161591 180.597864 
L 683.624384 177.143868 
L 684.940269 173.631275 
L 686.106904 170.066333 
L 687.122218 166.455378 
L 687.984403 162.804831 
L 688.691927 159.121183 
L 689.243533 155.410982 
L 689.638238 151.680826 
L 689.875343 147.937347 
L 689.954425 144.1872 
L 689.954425 144.1872 
" clip-path="url(#p23a44e3cc9)" style="fill: none; stroke: #000000; stroke-width: 1.5; stroke-linecap: round"/>
    </g>
    <g id="line2d_29">
     <path d="M 512.948334 144.1872 
L 689.064947 144.1872 
" clip-path="url(#p23a44e3cc9)" style="fill: none; stroke: #000000; stroke-width: 1.5; stroke-linecap: round"/>
    </g>
    <g id="line2d_30">
     <path d="M 600.996754 232.2504 
L 600.996754 56.124 
" clip-path="url(#p23a44e3cc9)" style="fill: none; stroke: #000000; stroke-width: 1.5; stroke-linecap: round"/>
    </g>
    <g id="patch_8">
     <path d="M 503.164078 242.0352 
L 503.164078 46.3392 
" style="fill: none; stroke: #262626; stroke-width: 1.25; stroke-linejoin: miter; stroke-linecap: square"/>
    </g>
    <g id="patch_9">
     <path d="M 698.849203 242.0352 
L 698.849203 46.3392 
" style="fill: none; stroke: #262626; stroke-width: 1.25; stroke-linejoin: miter; stroke-linecap: square"/>
    </g>
    <g id="patch_10">
     <path d="M 503.164078 242.0352 
L 698.849203 242.0352 
" style="fill: none; stroke: #262626; stroke-width: 1.25; stroke-linejoin: miter; stroke-linecap: square"/>
    </g>
    <g id="patch_11">
     <path d="M 503.164078 46.3392 
L 698.849203 46.3392 
" style="fill: none; stroke: #262626; stroke-width: 1.25; stroke-linejoin: miter; stroke-linecap: square"/>
    </g>
   </g>
   <g id="legend_1">
    <g id="patch_12">
     <path d="M 336.095234 97.941875 
L 464.158047 97.941875 
Q 466.958047 97.941875 466.958047 95.141875 
L 466.958047 17 
Q 466.958047 14.2 464.158047 14.2 
L 336.095234 14.2 
Q 333.295234 14.2 333.295234 17 
L 333.295234 95.141875 
Q 333.295234 97.941875 336.095234 97.941875 
z
" style="fill: #ffffff; stroke: #000000; stroke-linejoin: miter"/>
    </g>
    <g id="line2d_31">
     <path d="M 338.895234 24.920937 
L 352.895234 24.920937 
L 366.895234 24.920937 
" style="fill: none; stroke: #0000ff; stroke-width: 1.5; stroke-linecap: round"/>
    </g>
    <g id="text_18">
     <!-- Mean Energy -->
     <g style="fill: #262626" transform="translate(378.095234 29.820937)scale(0.14 -0.14)">
      <defs>
       <path id="ArialMT-4d" d="M 475 0 
L 475 4581 
L 1388 4581 
L 2472 1338 
Q 2622 884 2691 659 
Q 2769 909 2934 1394 
L 4031 4581 
L 4847 4581 
L 4847 0 
L 4263 0 
L 4263 3834 
L 2931 0 
L 2384 0 
L 1059 3900 
L 1059 0 
L 475 0 
z
" transform="scale(0.015625)"/>
      </defs>
      <use xlink:href="#ArialMT-4d"/>
      <use xlink:href="#ArialMT-65" x="83.300781"/>
      <use xlink:href="#ArialMT-61" x="138.916016"/>
      <use xlink:href="#ArialMT-6e" x="194.53125"/>
      <use xlink:href="#ArialMT-20" x="250.146484"/>
      <use xlink:href="#ArialMT-45" x="277.929688"/>
      <use xlink:href="#ArialMT-6e" x="344.628906"/>
      <use xlink:href="#ArialMT-65" x="400.244141"/>
      <use xlink:href="#ArialMT-72" x="455.859375"/>
      <use xlink:href="#ArialMT-67" x="489.160156"/>
      <use xlink:href="#ArialMT-79" x="544.775391"/>
     </g>
    </g>
    <g id="line2d_32">
     <path d="M 338.895234 44.888437 
L 352.895234 44.888437 
L 366.895234 44.888437 
" style="fill: none; stroke: #000000; stroke-opacity: 0.15; stroke-width: 1.5; stroke-linecap: round"/>
    </g>
    <g id="text_19">
     <!-- Raw energy -->
     <g style="fill: #262626" transform="translate(378.095234 49.788437)scale(0.14 -0.14)">
      <defs>
       <path id="ArialMT-52" d="M 503 0 
L 503 4581 
L 2534 4581 
Q 3147 4581 3465 4457 
Q 3784 4334 3975 4021 
Q 4166 3709 4166 3331 
Q 4166 2844 3850 2509 
Q 3534 2175 2875 2084 
Q 3116 1969 3241 1856 
Q 3506 1613 3744 1247 
L 4541 0 
L 3778 0 
L 3172 953 
Q 2906 1366 2734 1584 
Q 2563 1803 2427 1890 
Q 2291 1978 2150 2013 
Q 2047 2034 1813 2034 
L 1109 2034 
L 1109 0 
L 503 0 
z
M 1109 2559 
L 2413 2559 
Q 2828 2559 3062 2645 
Q 3297 2731 3419 2920 
Q 3541 3109 3541 3331 
Q 3541 3656 3305 3865 
Q 3069 4075 2559 4075 
L 1109 4075 
L 1109 2559 
z
" transform="scale(0.015625)"/>
       <path id="ArialMT-77" d="M 1034 0 
L 19 3319 
L 600 3319 
L 1128 1403 
L 1325 691 
Q 1338 744 1497 1375 
L 2025 3319 
L 2603 3319 
L 3100 1394 
L 3266 759 
L 3456 1400 
L 4025 3319 
L 4572 3319 
L 3534 0 
L 2950 0 
L 2422 1988 
L 2294 2553 
L 1622 0 
L 1034 0 
z
" transform="scale(0.015625)"/>
      </defs>
      <use xlink:href="#ArialMT-52"/>
      <use xlink:href="#ArialMT-61" x="72.216797"/>
      <use xlink:href="#ArialMT-77" x="127.832031"/>
      <use xlink:href="#ArialMT-20" x="200.048828"/>
      <use xlink:href="#ArialMT-65" x="227.832031"/>
      <use xlink:href="#ArialMT-6e" x="283.447266"/>
      <use xlink:href="#ArialMT-65" x="339.0625"/>
      <use xlink:href="#ArialMT-72" x="394.677734"/>
      <use xlink:href="#ArialMT-67" x="427.978516"/>
      <use xlink:href="#ArialMT-79" x="483.59375"/>
     </g>
    </g>
    <g id="line2d_33">
     <path d="M 338.895234 64.855937 
L 352.895234 64.855937 
L 366.895234 64.855937 
" style="fill: none; stroke-dasharray: 5.55,2.4; stroke-dashoffset: 0; stroke: #6495ed; stroke-width: 1.5"/>
    </g>
    <g id="text_20">
     <!-- 95% CI -->
     <g style="fill: #262626" transform="translate(378.095234 69.755937)scale(0.14 -0.14)">
      <defs>
       <path id="ArialMT-35" d="M 266 1200 
L 856 1250 
Q 922 819 1161 601 
Q 1400 384 1738 384 
Q 2144 384 2425 690 
Q 2706 997 2706 1503 
Q 2706 1984 2436 2262 
Q 2166 2541 1728 2541 
Q 1456 2541 1237 2417 
Q 1019 2294 894 2097 
L 366 2166 
L 809 4519 
L 3088 4519 
L 3088 3981 
L 1259 3981 
L 1013 2750 
Q 1425 3038 1878 3038 
Q 2478 3038 2890 2622 
Q 3303 2206 3303 1553 
Q 3303 931 2941 478 
Q 2500 -78 1738 -78 
Q 1113 -78 717 272 
Q 322 622 266 1200 
z
" transform="scale(0.015625)"/>
       <path id="ArialMT-25" d="M 372 3481 
Q 372 3972 619 4315 
Q 866 4659 1334 4659 
Q 1766 4659 2048 4351 
Q 2331 4044 2331 3447 
Q 2331 2866 2045 2552 
Q 1759 2238 1341 2238 
Q 925 2238 648 2547 
Q 372 2856 372 3481 
z
M 1350 4272 
Q 1141 4272 1002 4090 
Q 863 3909 863 3425 
Q 863 2984 1003 2804 
Q 1144 2625 1350 2625 
Q 1563 2625 1702 2806 
Q 1841 2988 1841 3469 
Q 1841 3913 1700 4092 
Q 1559 4272 1350 4272 
z
M 1353 -169 
L 3859 4659 
L 4316 4659 
L 1819 -169 
L 1353 -169 
z
M 3334 1075 
Q 3334 1569 3581 1911 
Q 3828 2253 4300 2253 
Q 4731 2253 5014 1945 
Q 5297 1638 5297 1041 
Q 5297 459 5011 145 
Q 4725 -169 4303 -169 
Q 3888 -169 3611 142 
Q 3334 453 3334 1075 
z
M 4316 1866 
Q 4103 1866 3964 1684 
Q 3825 1503 3825 1019 
Q 3825 581 3965 400 
Q 4106 219 4313 219 
Q 4528 219 4667 400 
Q 4806 581 4806 1063 
Q 4806 1506 4665 1686 
Q 4525 1866 4316 1866 
z
" transform="scale(0.015625)"/>
       <path id="ArialMT-43" d="M 3763 1606 
L 4369 1453 
Q 4178 706 3683 314 
Q 3188 -78 2472 -78 
Q 1731 -78 1267 223 
Q 803 525 561 1097 
Q 319 1669 319 2325 
Q 319 3041 592 3573 
Q 866 4106 1370 4382 
Q 1875 4659 2481 4659 
Q 3169 4659 3637 4309 
Q 4106 3959 4291 3325 
L 3694 3184 
Q 3534 3684 3231 3912 
Q 2928 4141 2469 4141 
Q 1941 4141 1586 3887 
Q 1231 3634 1087 3207 
Q 944 2781 944 2328 
Q 944 1744 1114 1308 
Q 1284 872 1643 656 
Q 2003 441 2422 441 
Q 2931 441 3284 734 
Q 3638 1028 3763 1606 
z
" transform="scale(0.015625)"/>
       <path id="ArialMT-49" d="M 597 0 
L 597 4581 
L 1203 4581 
L 1203 0 
L 597 0 
z
" transform="scale(0.015625)"/>
      </defs>
      <use xlink:href="#ArialMT-39"/>
      <use xlink:href="#ArialMT-35" x="55.615234"/>
      <use xlink:href="#ArialMT-25" x="111.230469"/>
      <use xlink:href="#ArialMT-20" x="200.146484"/>
      <use xlink:href="#ArialMT-43" x="227.929688"/>
      <use xlink:href="#ArialMT-49" x="300.146484"/>
     </g>
    </g>
    <g id="line2d_34">
     <path d="M 338.895234 84.659375 
L 352.895234 84.659375 
L 366.895234 84.659375 
" style="fill: none; stroke: #ff0000; stroke-width: 1.5; stroke-linecap: round"/>
    </g>
    <g id="text_21">
     <!-- Temperature -->
     <g style="fill: #262626" transform="translate(378.095234 89.559375)scale(0.14 -0.14)">
      <defs>
       <path id="ArialMT-54" d="M 1659 0 
L 1659 4041 
L 150 4041 
L 150 4581 
L 3781 4581 
L 3781 4041 
L 2266 4041 
L 2266 0 
L 1659 0 
z
" transform="scale(0.015625)"/>
       <path id="ArialMT-6d" d="M 422 0 
L 422 3319 
L 925 3319 
L 925 2853 
Q 1081 3097 1340 3245 
Q 1600 3394 1931 3394 
Q 2300 3394 2536 3241 
Q 2772 3088 2869 2813 
Q 3263 3394 3894 3394 
Q 4388 3394 4653 3120 
Q 4919 2847 4919 2278 
L 4919 0 
L 4359 0 
L 4359 2091 
Q 4359 2428 4304 2576 
Q 4250 2725 4106 2815 
Q 3963 2906 3769 2906 
Q 3419 2906 3187 2673 
Q 2956 2441 2956 1928 
L 2956 0 
L 2394 0 
L 2394 2156 
Q 2394 2531 2256 2718 
Q 2119 2906 1806 2906 
Q 1569 2906 1367 2781 
Q 1166 2656 1075 2415 
Q 984 2175 984 1722 
L 984 0 
L 422 0 
z
" transform="scale(0.015625)"/>
       <path id="ArialMT-70" d="M 422 -1272 
L 422 3319 
L 934 3319 
L 934 2888 
Q 1116 3141 1344 3267 
Q 1572 3394 1897 3394 
Q 2322 3394 2647 3175 
Q 2972 2956 3137 2557 
Q 3303 2159 3303 1684 
Q 3303 1175 3120 767 
Q 2938 359 2589 142 
Q 2241 -75 1856 -75 
Q 1575 -75 1351 44 
Q 1128 163 984 344 
L 984 -1272 
L 422 -1272 
z
M 931 1641 
Q 931 1000 1190 694 
Q 1450 388 1819 388 
Q 2194 388 2461 705 
Q 2728 1022 2728 1688 
Q 2728 2322 2467 2637 
Q 2206 2953 1844 2953 
Q 1484 2953 1207 2617 
Q 931 2281 931 1641 
z
" transform="scale(0.015625)"/>
      </defs>
      <use xlink:href="#ArialMT-54"/>
      <use xlink:href="#ArialMT-65" x="49.958984"/>
      <use xlink:href="#ArialMT-6d" x="105.574219"/>
      <use xlink:href="#ArialMT-70" x="188.875"/>
      <use xlink:href="#ArialMT-65" x="244.490234"/>
      <use xlink:href="#ArialMT-72" x="300.105469"/>
      <use xlink:href="#ArialMT-61" x="333.40625"/>
      <use xlink:href="#ArialMT-74" x="389.021484"/>
      <use xlink:href="#ArialMT-75" x="416.804688"/>
      <use xlink:href="#ArialMT-72" x="472.419922"/>
      <use xlink:href="#ArialMT-65" x="505.720703"/>
     </g>
    </g>
   </g>
  </g>
  <g id="axes_3">
   <g id="matplotlib.axis_5">
    <g id="ytick_9">
     <g id="line2d_35">
      <defs>
       <path id="mcda75ae793" d="M 0 0 
L 6 0 
" style="stroke: #262626; stroke-width: 1.25"/>
      </defs>
      <g>
       <use xlink:href="#mcda75ae793" x="734.926641" y="423.105003" style="fill: #262626; stroke: #262626; stroke-width: 1.25"/>
      </g>
     </g>
     <g id="text_22">
      <!-- 0 -->
      <g style="fill: #262626" transform="translate(744.426641 427.0418)scale(0.11 -0.11)">
       <use xlink:href="#ArialMT-30"/>
      </g>
     </g>
    </g>
    <g id="ytick_10">
     <g id="line2d_36">
      <g>
       <use xlink:href="#mcda75ae793" x="734.926641" y="343.877457" style="fill: #262626; stroke: #262626; stroke-width: 1.25"/>
      </g>
     </g>
     <g id="text_23">
      <!-- 10 -->
      <g style="fill: #262626" transform="translate(744.426641 347.814254)scale(0.11 -0.11)">
       <use xlink:href="#ArialMT-31"/>
       <use xlink:href="#ArialMT-30" x="55.615234"/>
      </g>
     </g>
    </g>
    <g id="ytick_11">
     <g id="line2d_37">
      <g>
       <use xlink:href="#mcda75ae793" x="734.926641" y="264.649911" style="fill: #262626; stroke: #262626; stroke-width: 1.25"/>
      </g>
     </g>
     <g id="text_24">
      <!-- 20 -->
      <g style="fill: #262626" transform="translate(744.426641 268.586708)scale(0.11 -0.11)">
       <use xlink:href="#ArialMT-32"/>
       <use xlink:href="#ArialMT-30" x="55.615234"/>
      </g>
     </g>
    </g>
    <g id="ytick_12">
     <g id="line2d_38">
      <g>
       <use xlink:href="#mcda75ae793" x="734.926641" y="185.422365" style="fill: #262626; stroke: #262626; stroke-width: 1.25"/>
      </g>
     </g>
     <g id="text_25">
      <!-- 30 -->
      <g style="fill: #262626" transform="translate(744.426641 189.359162)scale(0.11 -0.11)">
       <use xlink:href="#ArialMT-33"/>
       <use xlink:href="#ArialMT-30" x="55.615234"/>
      </g>
     </g>
    </g>
    <g id="ytick_13">
     <g id="line2d_39">
      <g>
       <use xlink:href="#mcda75ae793" x="734.926641" y="106.194819" style="fill: #262626; stroke: #262626; stroke-width: 1.25"/>
      </g>
     </g>
     <g id="text_26">
      <!-- 40 -->
      <g style="fill: #262626" transform="translate(744.426641 110.131616)scale(0.11 -0.11)">
       <use xlink:href="#ArialMT-34"/>
       <use xlink:href="#ArialMT-30" x="55.615234"/>
      </g>
     </g>
    </g>
    <g id="ytick_14">
     <g id="line2d_40">
      <g>
       <use xlink:href="#mcda75ae793" x="734.926641" y="26.967273" style="fill: #262626; stroke: #262626; stroke-width: 1.25"/>
      </g>
     </g>
     <g id="text_27">
      <!-- 50 -->
      <g style="fill: #262626" transform="translate(744.426641 30.90407)scale(0.11 -0.11)">
       <use xlink:href="#ArialMT-35"/>
       <use xlink:href="#ArialMT-30" x="55.615234"/>
      </g>
     </g>
    </g>
    <g id="text_28">
     <!-- Temperature -->
     <g style="fill: #262626" transform="translate(773.544766 275.155312)rotate(-90)scale(0.18 -0.18)">
      <use xlink:href="#ArialMT-54"/>
      <use xlink:href="#ArialMT-65" x="49.958984"/>
      <use xlink:href="#ArialMT-6d" x="105.574219"/>
      <use xlink:href="#ArialMT-70" x="188.875"/>
      <use xlink:href="#ArialMT-65" x="244.490234"/>
      <use xlink:href="#ArialMT-72" x="300.105469"/>
      <use xlink:href="#ArialMT-61" x="333.40625"/>
      <use xlink:href="#ArialMT-74" x="389.021484"/>
      <use xlink:href="#ArialMT-75" x="416.804688"/>
      <use xlink:href="#ArialMT-72" x="472.419922"/>
      <use xlink:href="#ArialMT-65" x="505.720703"/>
     </g>
    </g>
   </g>
   <g id="PolyCollection_7"/>
   <g id="line2d_41">
    <path d="M 95.763004 26.967273 
L 101.74982 26.967273 
L 101.902027 129.638954 
L 107.838108 129.638954 
L 107.990315 205.700007 
L 113.926395 205.700007 
L 114.078602 262.047421 
L 120.014683 262.047421 
L 120.16689 303.790611 
L 126.10297 303.790611 
L 126.255177 334.714728 
L 132.191257 334.714728 
L 132.343465 357.623876 
L 138.279545 357.623876 
L 138.431752 374.595391 
L 144.367832 374.595391 
L 144.52004 387.168199 
L 150.45612 387.168199 
L 150.608327 396.482363 
L 156.544407 396.482363 
L 156.696614 403.382466 
L 162.632695 403.382466 
L 162.784902 408.494189 
L 168.720982 408.494189 
L 168.873189 412.281045 
L 174.80927 412.281045 
L 174.961477 415.086418 
L 180.897557 415.086418 
L 181.049764 417.164689 
L 186.985844 417.164689 
L 187.138052 418.70431 
L 193.074132 418.70431 
L 193.226339 419.844889 
L 199.162419 419.844889 
L 199.314627 420.689851 
L 205.250707 420.689851 
L 205.402914 421.315815 
L 211.338994 421.315815 
L 211.491201 421.77954 
L 217.427282 421.77954 
L 217.579489 422.123075 
L 223.515569 422.123075 
L 223.667776 422.312727 
L 704.490277 422.312727 
L 704.490277 422.312727 
" clip-path="url(#p45094fb932)" style="fill: none; stroke: #ff0000; stroke-width: 1.5; stroke-linecap: round"/>
   </g>
   <g id="patch_13">
    <path d="M 65.326641 442.08 
L 65.326641 7.2 
" style="fill: none; stroke: #262626; stroke-width: 1.25; stroke-linejoin: miter; stroke-linecap: square"/>
   </g>
   <g id="patch_14">
    <path d="M 734.926641 442.08 
L 734.926641 7.2 
" style="fill: none; stroke: #ff0000; stroke-width: 2; stroke-linejoin: miter; stroke-linecap: square"/>
   </g>
   <g id="patch_15">
    <path d="M 65.326641 442.08 
L 734.926641 442.08 
" style="fill: none; stroke: #262626; stroke-width: 1.25; stroke-linejoin: miter; stroke-linecap: square"/>
   </g>
   <g id="patch_16">
    <path d="M 65.326641 7.2 
L 734.926641 7.2 
" style="fill: none; stroke: #262626; stroke-width: 1.25; stroke-linejoin: miter; stroke-linecap: square"/>
   </g>
   <g id="legend_2"/>
  </g>
 </g>
 <defs>
  <clipPath id="p45094fb932">
   <rect x="65.326641" y="7.2" width="669.6" height="434.88"/>
  </clipPath>
  <clipPath id="p23a44e3cc9">
   <rect x="503.164078" y="46.3392" width="195.685125" height="195.696"/>
  </clipPath>
 </defs>
</svg>
