<?xml version="1.0" encoding="utf-8" standalone="no"?>
<!DOCTYPE svg PUBLIC "-//W3C//DTD SVG 1.1//EN"
  "http://www.w3.org/Graphics/SVG/1.1/DTD/svg11.dtd">
<svg xmlns:xlink="http://www.w3.org/1999/xlink" width="742.126641pt" height="494.331328pt" viewBox="0 0 742.126641 494.331328" xmlns="http://www.w3.org/2000/svg" version="1.1">
 <metadata>
  <rdf:RDF xmlns:dc="http://purl.org/dc/elements/1.1/" xmlns:cc="http://creativecommons.org/ns#" xmlns:rdf="http://www.w3.org/1999/02/22-rdf-syntax-ns#">
   <cc:Work>
    <dc:type rdf:resource="http://purl.org/dc/dcmitype/StillImage"/>
    <dc:date>2022-12-17T11:19:20.489511</dc:date>
    <dc:format>image/svg+xml</dc:format>
    <dc:creator>
     <cc:Agent>
      <dc:title>Matplotlib v3.5.2, https://matplotlib.org/</dc:title>
     </cc:Agent>
    </dc:creator>
   </cc:Work>
  </rdf:RDF>
 </metadata>
 <defs>
  <style type="text/css">*{stroke-linejoin: round; stroke-linecap: butt}</style>
 </defs>
 <g id="figure_1">
  <g id="patch_1">
   <path d="M 0 494.331328 
L 742.126641 494.331328 
L 742.126641 0 
L 0 0 
z
" style="fill: #ffffff"/>
  </g>
  <g id="axes_1">
   <g id="patch_2">
    <path d="M 65.326641 442.08 
L 734.926641 442.08 
L 734.926641 7.2 
L 65.326641 7.2 
z
" style="fill: #ffffff"/>
   </g>
   <g id="matplotlib.axis_1">
    <g id="xtick_1">
     <g id="line2d_1">
      <path d="M 95.763004 442.08 
L 95.763004 7.2 
" clip-path="url(#pddc7dc422a)" style="fill: none; stroke: #cccccc; stroke-linecap: round"/>
     </g>
     <g id="text_1">
      <!-- 0 -->
      <g style="fill: #262626" transform="translate(91.175231 463.390391)scale(0.165 -0.165)">
       <defs>
        <path id="ArialMT-30" d="M 266 2259 
Q 266 3072 433 3567 
Q 600 4063 929 4331 
Q 1259 4600 1759 4600 
Q 2128 4600 2406 4451 
Q 2684 4303 2865 4023 
Q 3047 3744 3150 3342 
Q 3253 2941 3253 2259 
Q 3253 1453 3087 958 
Q 2922 463 2592 192 
Q 2263 -78 1759 -78 
Q 1097 -78 719 397 
Q 266 969 266 2259 
z
M 844 2259 
Q 844 1131 1108 757 
Q 1372 384 1759 384 
Q 2147 384 2411 759 
Q 2675 1134 2675 2259 
Q 2675 3391 2411 3762 
Q 2147 4134 1753 4134 
Q 1366 4134 1134 3806 
Q 844 3388 844 2259 
z
" transform="scale(0.015625)"/>
       </defs>
       <use xlink:href="#ArialMT-30"/>
      </g>
     </g>
    </g>
    <g id="xtick_2">
     <g id="line2d_2">
      <path d="M 197.234462 442.08 
L 197.234462 7.2 
" clip-path="url(#pddc7dc422a)" style="fill: none; stroke: #cccccc; stroke-linecap: round"/>
     </g>
     <g id="text_2">
      <!-- 2000 -->
      <g style="fill: #262626" transform="translate(178.883368 463.390391)scale(0.165 -0.165)">
       <defs>
        <path id="ArialMT-32" d="M 3222 541 
L 3222 0 
L 194 0 
Q 188 203 259 391 
Q 375 700 629 1000 
Q 884 1300 1366 1694 
Q 2113 2306 2375 2664 
Q 2638 3022 2638 3341 
Q 2638 3675 2398 3904 
Q 2159 4134 1775 4134 
Q 1369 4134 1125 3890 
Q 881 3647 878 3216 
L 300 3275 
Q 359 3922 746 4261 
Q 1134 4600 1788 4600 
Q 2447 4600 2831 4234 
Q 3216 3869 3216 3328 
Q 3216 3053 3103 2787 
Q 2991 2522 2730 2228 
Q 2469 1934 1863 1422 
Q 1356 997 1212 845 
Q 1069 694 975 541 
L 3222 541 
z
" transform="scale(0.015625)"/>
       </defs>
       <use xlink:href="#ArialMT-32"/>
       <use xlink:href="#ArialMT-30" x="55.615234"/>
       <use xlink:href="#ArialMT-30" x="111.230469"/>
       <use xlink:href="#ArialMT-30" x="166.845703"/>
      </g>
     </g>
    </g>
    <g id="xtick_3">
     <g id="line2d_3">
      <path d="M 298.705919 442.08 
L 298.705919 7.2 
" clip-path="url(#pddc7dc422a)" style="fill: none; stroke: #cccccc; stroke-linecap: round"/>
     </g>
     <g id="text_3">
      <!-- 4000 -->
      <g style="fill: #262626" transform="translate(280.354825 463.390391)scale(0.165 -0.165)">
       <defs>
        <path id="ArialMT-34" d="M 2069 0 
L 2069 1097 
L 81 1097 
L 81 1613 
L 2172 4581 
L 2631 4581 
L 2631 1613 
L 3250 1613 
L 3250 1097 
L 2631 1097 
L 2631 0 
L 2069 0 
z
M 2069 1613 
L 2069 3678 
L 634 1613 
L 2069 1613 
z
" transform="scale(0.015625)"/>
       </defs>
       <use xlink:href="#ArialMT-34"/>
       <use xlink:href="#ArialMT-30" x="55.615234"/>
       <use xlink:href="#ArialMT-30" x="111.230469"/>
       <use xlink:href="#ArialMT-30" x="166.845703"/>
      </g>
     </g>
    </g>
    <g id="xtick_4">
     <g id="line2d_4">
      <path d="M 400.177376 442.08 
L 400.177376 7.2 
" clip-path="url(#pddc7dc422a)" style="fill: none; stroke: #cccccc; stroke-linecap: round"/>
     </g>
     <g id="text_4">
      <!-- 6000 -->
      <g style="fill: #262626" transform="translate(381.826283 463.390391)scale(0.165 -0.165)">
       <defs>
        <path id="ArialMT-36" d="M 3184 3459 
L 2625 3416 
Q 2550 3747 2413 3897 
Q 2184 4138 1850 4138 
Q 1581 4138 1378 3988 
Q 1113 3794 959 3422 
Q 806 3050 800 2363 
Q 1003 2672 1297 2822 
Q 1591 2972 1913 2972 
Q 2475 2972 2870 2558 
Q 3266 2144 3266 1488 
Q 3266 1056 3080 686 
Q 2894 316 2569 119 
Q 2244 -78 1831 -78 
Q 1128 -78 684 439 
Q 241 956 241 2144 
Q 241 3472 731 4075 
Q 1159 4600 1884 4600 
Q 2425 4600 2770 4297 
Q 3116 3994 3184 3459 
z
M 888 1484 
Q 888 1194 1011 928 
Q 1134 663 1356 523 
Q 1578 384 1822 384 
Q 2178 384 2434 671 
Q 2691 959 2691 1453 
Q 2691 1928 2437 2201 
Q 2184 2475 1800 2475 
Q 1419 2475 1153 2201 
Q 888 1928 888 1484 
z
" transform="scale(0.015625)"/>
       </defs>
       <use xlink:href="#ArialMT-36"/>
       <use xlink:href="#ArialMT-30" x="55.615234"/>
       <use xlink:href="#ArialMT-30" x="111.230469"/>
       <use xlink:href="#ArialMT-30" x="166.845703"/>
      </g>
     </g>
    </g>
    <g id="xtick_5">
     <g id="line2d_5">
      <path d="M 501.648834 442.08 
L 501.648834 7.2 
" clip-path="url(#pddc7dc422a)" style="fill: none; stroke: #cccccc; stroke-linecap: round"/>
     </g>
     <g id="text_5">
      <!-- 8000 -->
      <g style="fill: #262626" transform="translate(483.29774 463.390391)scale(0.165 -0.165)">
       <defs>
        <path id="ArialMT-38" d="M 1131 2484 
Q 781 2613 612 2850 
Q 444 3088 444 3419 
Q 444 3919 803 4259 
Q 1163 4600 1759 4600 
Q 2359 4600 2725 4251 
Q 3091 3903 3091 3403 
Q 3091 3084 2923 2848 
Q 2756 2613 2416 2484 
Q 2838 2347 3058 2040 
Q 3278 1734 3278 1309 
Q 3278 722 2862 322 
Q 2447 -78 1769 -78 
Q 1091 -78 675 323 
Q 259 725 259 1325 
Q 259 1772 486 2073 
Q 713 2375 1131 2484 
z
M 1019 3438 
Q 1019 3113 1228 2906 
Q 1438 2700 1772 2700 
Q 2097 2700 2305 2904 
Q 2513 3109 2513 3406 
Q 2513 3716 2298 3927 
Q 2084 4138 1766 4138 
Q 1444 4138 1231 3931 
Q 1019 3725 1019 3438 
z
M 838 1322 
Q 838 1081 952 856 
Q 1066 631 1291 507 
Q 1516 384 1775 384 
Q 2178 384 2440 643 
Q 2703 903 2703 1303 
Q 2703 1709 2433 1975 
Q 2163 2241 1756 2241 
Q 1359 2241 1098 1978 
Q 838 1716 838 1322 
z
" transform="scale(0.015625)"/>
       </defs>
       <use xlink:href="#ArialMT-38"/>
       <use xlink:href="#ArialMT-30" x="55.615234"/>
       <use xlink:href="#ArialMT-30" x="111.230469"/>
       <use xlink:href="#ArialMT-30" x="166.845703"/>
      </g>
     </g>
    </g>
    <g id="xtick_6">
     <g id="line2d_6">
      <path d="M 603.120291 442.08 
L 603.120291 7.2 
" clip-path="url(#pddc7dc422a)" style="fill: none; stroke: #cccccc; stroke-linecap: round"/>
     </g>
     <g id="text_6">
      <!-- 10000 -->
      <g style="fill: #262626" transform="translate(580.181424 463.390391)scale(0.165 -0.165)">
       <defs>
        <path id="ArialMT-31" d="M 2384 0 
L 1822 0 
L 1822 3584 
Q 1619 3391 1289 3197 
Q 959 3003 697 2906 
L 697 3450 
Q 1169 3672 1522 3987 
Q 1875 4303 2022 4600 
L 2384 4600 
L 2384 0 
z
" transform="scale(0.015625)"/>
       </defs>
       <use xlink:href="#ArialMT-31"/>
       <use xlink:href="#ArialMT-30" x="55.615234"/>
       <use xlink:href="#ArialMT-30" x="111.230469"/>
       <use xlink:href="#ArialMT-30" x="166.845703"/>
       <use xlink:href="#ArialMT-30" x="222.460938"/>
      </g>
     </g>
    </g>
    <g id="xtick_7">
     <g id="line2d_7">
      <path d="M 704.591748 442.08 
L 704.591748 7.2 
" clip-path="url(#pddc7dc422a)" style="fill: none; stroke: #cccccc; stroke-linecap: round"/>
     </g>
     <g id="text_7">
      <!-- 12000 -->
      <g style="fill: #262626" transform="translate(681.652881 463.390391)scale(0.165 -0.165)">
       <use xlink:href="#ArialMT-31"/>
       <use xlink:href="#ArialMT-32" x="55.615234"/>
       <use xlink:href="#ArialMT-30" x="111.230469"/>
       <use xlink:href="#ArialMT-30" x="166.845703"/>
       <use xlink:href="#ArialMT-30" x="222.460938"/>
      </g>
     </g>
    </g>
    <g id="text_8">
     <!-- Evaluations -->
     <g style="fill: #262626" transform="translate(353.599453 483.553828)scale(0.18 -0.18)">
      <defs>
       <path id="ArialMT-45" d="M 506 0 
L 506 4581 
L 3819 4581 
L 3819 4041 
L 1113 4041 
L 1113 2638 
L 3647 2638 
L 3647 2100 
L 1113 2100 
L 1113 541 
L 3925 541 
L 3925 0 
L 506 0 
z
" transform="scale(0.015625)"/>
       <path id="ArialMT-76" d="M 1344 0 
L 81 3319 
L 675 3319 
L 1388 1331 
Q 1503 1009 1600 663 
Q 1675 925 1809 1294 
L 2547 3319 
L 3125 3319 
L 1869 0 
L 1344 0 
z
" transform="scale(0.015625)"/>
       <path id="ArialMT-61" d="M 2588 409 
Q 2275 144 1986 34 
Q 1697 -75 1366 -75 
Q 819 -75 525 192 
Q 231 459 231 875 
Q 231 1119 342 1320 
Q 453 1522 633 1644 
Q 813 1766 1038 1828 
Q 1203 1872 1538 1913 
Q 2219 1994 2541 2106 
Q 2544 2222 2544 2253 
Q 2544 2597 2384 2738 
Q 2169 2928 1744 2928 
Q 1347 2928 1158 2789 
Q 969 2650 878 2297 
L 328 2372 
Q 403 2725 575 2942 
Q 747 3159 1072 3276 
Q 1397 3394 1825 3394 
Q 2250 3394 2515 3294 
Q 2781 3194 2906 3042 
Q 3031 2891 3081 2659 
Q 3109 2516 3109 2141 
L 3109 1391 
Q 3109 606 3145 398 
Q 3181 191 3288 0 
L 2700 0 
Q 2613 175 2588 409 
z
M 2541 1666 
Q 2234 1541 1622 1453 
Q 1275 1403 1131 1340 
Q 988 1278 909 1158 
Q 831 1038 831 891 
Q 831 666 1001 516 
Q 1172 366 1500 366 
Q 1825 366 2078 508 
Q 2331 650 2450 897 
Q 2541 1088 2541 1459 
L 2541 1666 
z
" transform="scale(0.015625)"/>
       <path id="ArialMT-6c" d="M 409 0 
L 409 4581 
L 972 4581 
L 972 0 
L 409 0 
z
" transform="scale(0.015625)"/>
       <path id="ArialMT-75" d="M 2597 0 
L 2597 488 
Q 2209 -75 1544 -75 
Q 1250 -75 995 37 
Q 741 150 617 320 
Q 494 491 444 738 
Q 409 903 409 1263 
L 409 3319 
L 972 3319 
L 972 1478 
Q 972 1038 1006 884 
Q 1059 663 1231 536 
Q 1403 409 1656 409 
Q 1909 409 2131 539 
Q 2353 669 2445 892 
Q 2538 1116 2538 1541 
L 2538 3319 
L 3100 3319 
L 3100 0 
L 2597 0 
z
" transform="scale(0.015625)"/>
       <path id="ArialMT-74" d="M 1650 503 
L 1731 6 
Q 1494 -44 1306 -44 
Q 1000 -44 831 53 
Q 663 150 594 308 
Q 525 466 525 972 
L 525 2881 
L 113 2881 
L 113 3319 
L 525 3319 
L 525 4141 
L 1084 4478 
L 1084 3319 
L 1650 3319 
L 1650 2881 
L 1084 2881 
L 1084 941 
Q 1084 700 1114 631 
Q 1144 563 1211 522 
Q 1278 481 1403 481 
Q 1497 481 1650 503 
z
" transform="scale(0.015625)"/>
       <path id="ArialMT-69" d="M 425 3934 
L 425 4581 
L 988 4581 
L 988 3934 
L 425 3934 
z
M 425 0 
L 425 3319 
L 988 3319 
L 988 0 
L 425 0 
z
" transform="scale(0.015625)"/>
       <path id="ArialMT-6f" d="M 213 1659 
Q 213 2581 725 3025 
Q 1153 3394 1769 3394 
Q 2453 3394 2887 2945 
Q 3322 2497 3322 1706 
Q 3322 1066 3130 698 
Q 2938 331 2570 128 
Q 2203 -75 1769 -75 
Q 1072 -75 642 372 
Q 213 819 213 1659 
z
M 791 1659 
Q 791 1022 1069 705 
Q 1347 388 1769 388 
Q 2188 388 2466 706 
Q 2744 1025 2744 1678 
Q 2744 2294 2464 2611 
Q 2184 2928 1769 2928 
Q 1347 2928 1069 2612 
Q 791 2297 791 1659 
z
" transform="scale(0.015625)"/>
       <path id="ArialMT-6e" d="M 422 0 
L 422 3319 
L 928 3319 
L 928 2847 
Q 1294 3394 1984 3394 
Q 2284 3394 2536 3286 
Q 2788 3178 2913 3003 
Q 3038 2828 3088 2588 
Q 3119 2431 3119 2041 
L 3119 0 
L 2556 0 
L 2556 2019 
Q 2556 2363 2490 2533 
Q 2425 2703 2258 2804 
Q 2091 2906 1866 2906 
Q 1506 2906 1245 2678 
Q 984 2450 984 1813 
L 984 0 
L 422 0 
z
" transform="scale(0.015625)"/>
       <path id="ArialMT-73" d="M 197 991 
L 753 1078 
Q 800 744 1014 566 
Q 1228 388 1613 388 
Q 2000 388 2187 545 
Q 2375 703 2375 916 
Q 2375 1106 2209 1216 
Q 2094 1291 1634 1406 
Q 1016 1563 777 1677 
Q 538 1791 414 1992 
Q 291 2194 291 2438 
Q 291 2659 392 2848 
Q 494 3038 669 3163 
Q 800 3259 1026 3326 
Q 1253 3394 1513 3394 
Q 1903 3394 2198 3281 
Q 2494 3169 2634 2976 
Q 2775 2784 2828 2463 
L 2278 2388 
Q 2241 2644 2061 2787 
Q 1881 2931 1553 2931 
Q 1166 2931 1000 2803 
Q 834 2675 834 2503 
Q 834 2394 903 2306 
Q 972 2216 1119 2156 
Q 1203 2125 1616 2013 
Q 2213 1853 2448 1751 
Q 2684 1650 2818 1456 
Q 2953 1263 2953 975 
Q 2953 694 2789 445 
Q 2625 197 2315 61 
Q 2006 -75 1616 -75 
Q 969 -75 630 194 
Q 291 463 197 991 
z
" transform="scale(0.015625)"/>
      </defs>
      <use xlink:href="#ArialMT-45"/>
      <use xlink:href="#ArialMT-76" x="66.699219"/>
      <use xlink:href="#ArialMT-61" x="116.699219"/>
      <use xlink:href="#ArialMT-6c" x="172.314453"/>
      <use xlink:href="#ArialMT-75" x="194.53125"/>
      <use xlink:href="#ArialMT-61" x="250.146484"/>
      <use xlink:href="#ArialMT-74" x="305.761719"/>
      <use xlink:href="#ArialMT-69" x="333.544922"/>
      <use xlink:href="#ArialMT-6f" x="355.761719"/>
      <use xlink:href="#ArialMT-6e" x="411.376953"/>
      <use xlink:href="#ArialMT-73" x="466.992188"/>
     </g>
    </g>
   </g>
   <g id="matplotlib.axis_2">
    <g id="ytick_1">
     <g id="line2d_8">
      <path d="M 65.326641 436.080757 
L 734.926641 436.080757 
" clip-path="url(#pddc7dc422a)" style="fill: none; stroke: #cccccc; stroke-linecap: round"/>
     </g>
     <g id="text_9">
      <!-- 60 -->
      <g style="fill: #262626" transform="translate(37.475547 441.985952)scale(0.165 -0.165)">
       <use xlink:href="#ArialMT-36"/>
       <use xlink:href="#ArialMT-30" x="55.615234"/>
      </g>
     </g>
    </g>
    <g id="ytick_2">
     <g id="line2d_9">
      <path d="M 65.326641 360.046083 
L 734.926641 360.046083 
" clip-path="url(#pddc7dc422a)" style="fill: none; stroke: #cccccc; stroke-linecap: round"/>
     </g>
     <g id="text_10">
      <!-- 70 -->
      <g style="fill: #262626" transform="translate(37.475547 365.951279)scale(0.165 -0.165)">
       <defs>
        <path id="ArialMT-37" d="M 303 3981 
L 303 4522 
L 3269 4522 
L 3269 4084 
Q 2831 3619 2401 2847 
Q 1972 2075 1738 1259 
Q 1569 684 1522 0 
L 944 0 
Q 953 541 1156 1306 
Q 1359 2072 1739 2783 
Q 2119 3494 2547 3981 
L 303 3981 
z
" transform="scale(0.015625)"/>
       </defs>
       <use xlink:href="#ArialMT-37"/>
       <use xlink:href="#ArialMT-30" x="55.615234"/>
      </g>
     </g>
    </g>
    <g id="ytick_3">
     <g id="line2d_10">
      <path d="M 65.326641 284.01141 
L 734.926641 284.01141 
" clip-path="url(#pddc7dc422a)" style="fill: none; stroke: #cccccc; stroke-linecap: round"/>
     </g>
     <g id="text_11">
      <!-- 80 -->
      <g style="fill: #262626" transform="translate(37.475547 289.916605)scale(0.165 -0.165)">
       <use xlink:href="#ArialMT-38"/>
       <use xlink:href="#ArialMT-30" x="55.615234"/>
      </g>
     </g>
    </g>
    <g id="ytick_4">
     <g id="line2d_11">
      <path d="M 65.326641 207.976737 
L 734.926641 207.976737 
" clip-path="url(#pddc7dc422a)" style="fill: none; stroke: #cccccc; stroke-linecap: round"/>
     </g>
     <g id="text_12">
      <!-- 90 -->
      <g style="fill: #262626" transform="translate(37.475547 213.881932)scale(0.165 -0.165)">
       <defs>
        <path id="ArialMT-39" d="M 350 1059 
L 891 1109 
Q 959 728 1153 556 
Q 1347 384 1650 384 
Q 1909 384 2104 503 
Q 2300 622 2425 820 
Q 2550 1019 2634 1356 
Q 2719 1694 2719 2044 
Q 2719 2081 2716 2156 
Q 2547 1888 2255 1720 
Q 1963 1553 1622 1553 
Q 1053 1553 659 1965 
Q 266 2378 266 3053 
Q 266 3750 677 4175 
Q 1088 4600 1706 4600 
Q 2153 4600 2523 4359 
Q 2894 4119 3086 3673 
Q 3278 3228 3278 2384 
Q 3278 1506 3087 986 
Q 2897 466 2520 194 
Q 2144 -78 1638 -78 
Q 1100 -78 759 220 
Q 419 519 350 1059 
z
M 2653 3081 
Q 2653 3566 2395 3850 
Q 2138 4134 1775 4134 
Q 1400 4134 1122 3828 
Q 844 3522 844 3034 
Q 844 2597 1108 2323 
Q 1372 2050 1759 2050 
Q 2150 2050 2401 2323 
Q 2653 2597 2653 3081 
z
" transform="scale(0.015625)"/>
       </defs>
       <use xlink:href="#ArialMT-39"/>
       <use xlink:href="#ArialMT-30" x="55.615234"/>
      </g>
     </g>
    </g>
    <g id="ytick_5">
     <g id="line2d_12">
      <path d="M 65.326641 131.942063 
L 734.926641 131.942063 
" clip-path="url(#pddc7dc422a)" style="fill: none; stroke: #cccccc; stroke-linecap: round"/>
     </g>
     <g id="text_13">
      <!-- 100 -->
      <g style="fill: #262626" transform="translate(28.3 137.847259)scale(0.165 -0.165)">
       <use xlink:href="#ArialMT-31"/>
       <use xlink:href="#ArialMT-30" x="55.615234"/>
       <use xlink:href="#ArialMT-30" x="111.230469"/>
      </g>
     </g>
    </g>
    <g id="ytick_6">
     <g id="line2d_13">
      <path d="M 65.326641 55.90739 
L 734.926641 55.90739 
" clip-path="url(#pddc7dc422a)" style="fill: none; stroke: #cccccc; stroke-linecap: round"/>
     </g>
     <g id="text_14">
      <!-- 110 -->
      <g style="fill: #262626" transform="translate(29.516875 61.812585)scale(0.165 -0.165)">
       <use xlink:href="#ArialMT-31"/>
       <use xlink:href="#ArialMT-31" x="48.240234"/>
       <use xlink:href="#ArialMT-30" x="103.855469"/>
      </g>
     </g>
    </g>
    <g id="text_15">
     <!-- Potential Energy, $E$ -->
     <g style="fill: #262626" transform="translate(20.34 301.41)rotate(-90)scale(0.18 -0.18)">
      <defs>
       <path id="ArialMT-50" d="M 494 0 
L 494 4581 
L 2222 4581 
Q 2678 4581 2919 4538 
Q 3256 4481 3484 4323 
Q 3713 4166 3852 3881 
Q 3991 3597 3991 3256 
Q 3991 2672 3619 2267 
Q 3247 1863 2275 1863 
L 1100 1863 
L 1100 0 
L 494 0 
z
M 1100 2403 
L 2284 2403 
Q 2872 2403 3119 2622 
Q 3366 2841 3366 3238 
Q 3366 3525 3220 3729 
Q 3075 3934 2838 4000 
Q 2684 4041 2272 4041 
L 1100 4041 
L 1100 2403 
z
" transform="scale(0.015625)"/>
       <path id="ArialMT-65" d="M 2694 1069 
L 3275 997 
Q 3138 488 2766 206 
Q 2394 -75 1816 -75 
Q 1088 -75 661 373 
Q 234 822 234 1631 
Q 234 2469 665 2931 
Q 1097 3394 1784 3394 
Q 2450 3394 2872 2941 
Q 3294 2488 3294 1666 
Q 3294 1616 3291 1516 
L 816 1516 
Q 847 969 1125 678 
Q 1403 388 1819 388 
Q 2128 388 2347 550 
Q 2566 713 2694 1069 
z
M 847 1978 
L 2700 1978 
Q 2663 2397 2488 2606 
Q 2219 2931 1791 2931 
Q 1403 2931 1139 2672 
Q 875 2413 847 1978 
z
" transform="scale(0.015625)"/>
       <path id="ArialMT-20" transform="scale(0.015625)"/>
       <path id="ArialMT-72" d="M 416 0 
L 416 3319 
L 922 3319 
L 922 2816 
Q 1116 3169 1280 3281 
Q 1444 3394 1641 3394 
Q 1925 3394 2219 3213 
L 2025 2691 
Q 1819 2813 1613 2813 
Q 1428 2813 1281 2702 
Q 1134 2591 1072 2394 
Q 978 2094 978 1738 
L 978 0 
L 416 0 
z
" transform="scale(0.015625)"/>
       <path id="ArialMT-67" d="M 319 -275 
L 866 -356 
Q 900 -609 1056 -725 
Q 1266 -881 1628 -881 
Q 2019 -881 2231 -725 
Q 2444 -569 2519 -288 
Q 2563 -116 2559 434 
Q 2191 0 1641 0 
Q 956 0 581 494 
Q 206 988 206 1678 
Q 206 2153 378 2554 
Q 550 2956 876 3175 
Q 1203 3394 1644 3394 
Q 2231 3394 2613 2919 
L 2613 3319 
L 3131 3319 
L 3131 450 
Q 3131 -325 2973 -648 
Q 2816 -972 2473 -1159 
Q 2131 -1347 1631 -1347 
Q 1038 -1347 672 -1080 
Q 306 -813 319 -275 
z
M 784 1719 
Q 784 1066 1043 766 
Q 1303 466 1694 466 
Q 2081 466 2343 764 
Q 2606 1063 2606 1700 
Q 2606 2309 2336 2618 
Q 2066 2928 1684 2928 
Q 1309 2928 1046 2623 
Q 784 2319 784 1719 
z
" transform="scale(0.015625)"/>
       <path id="ArialMT-79" d="M 397 -1278 
L 334 -750 
Q 519 -800 656 -800 
Q 844 -800 956 -737 
Q 1069 -675 1141 -563 
Q 1194 -478 1313 -144 
Q 1328 -97 1363 -6 
L 103 3319 
L 709 3319 
L 1400 1397 
Q 1534 1031 1641 628 
Q 1738 1016 1872 1384 
L 2581 3319 
L 3144 3319 
L 1881 -56 
Q 1678 -603 1566 -809 
Q 1416 -1088 1222 -1217 
Q 1028 -1347 759 -1347 
Q 597 -1347 397 -1278 
z
" transform="scale(0.015625)"/>
       <path id="ArialMT-2c" d="M 569 0 
L 569 641 
L 1209 641 
L 1209 0 
Q 1209 -353 1084 -570 
Q 959 -788 688 -906 
L 531 -666 
Q 709 -588 793 -436 
Q 878 -284 888 0 
L 569 0 
z
" transform="scale(0.015625)"/>
       <path id="DejaVuSans-Oblique-45" d="M 1081 4666 
L 4031 4666 
L 3928 4134 
L 1606 4134 
L 1338 2753 
L 3566 2753 
L 3463 2222 
L 1234 2222 
L 909 531 
L 3284 531 
L 3181 0 
L 172 0 
L 1081 4666 
z
" transform="scale(0.015625)"/>
      </defs>
      <use xlink:href="#ArialMT-50" transform="translate(0 0.09375)"/>
      <use xlink:href="#ArialMT-6f" transform="translate(66.699219 0.09375)"/>
      <use xlink:href="#ArialMT-74" transform="translate(122.314453 0.09375)"/>
      <use xlink:href="#ArialMT-65" transform="translate(150.097656 0.09375)"/>
      <use xlink:href="#ArialMT-6e" transform="translate(205.712891 0.09375)"/>
      <use xlink:href="#ArialMT-74" transform="translate(261.328125 0.09375)"/>
      <use xlink:href="#ArialMT-69" transform="translate(289.111328 0.09375)"/>
      <use xlink:href="#ArialMT-61" transform="translate(311.328125 0.09375)"/>
      <use xlink:href="#ArialMT-6c" transform="translate(366.943359 0.09375)"/>
      <use xlink:href="#ArialMT-20" transform="translate(389.160156 0.09375)"/>
      <use xlink:href="#ArialMT-45" transform="translate(416.943359 0.09375)"/>
      <use xlink:href="#ArialMT-6e" transform="translate(483.642578 0.09375)"/>
      <use xlink:href="#ArialMT-65" transform="translate(539.257812 0.09375)"/>
      <use xlink:href="#ArialMT-72" transform="translate(594.873047 0.09375)"/>
      <use xlink:href="#ArialMT-67" transform="translate(628.173828 0.09375)"/>
      <use xlink:href="#ArialMT-79" transform="translate(683.789062 0.09375)"/>
      <use xlink:href="#ArialMT-2c" transform="translate(733.789062 0.09375)"/>
      <use xlink:href="#ArialMT-20" transform="translate(761.572266 0.09375)"/>
      <use xlink:href="#DejaVuSans-Oblique-45" transform="translate(789.355469 0.09375)"/>
     </g>
    </g>
   </g>
   <g id="PolyCollection_1"/>
   <g id="PolyCollection_2"/>
   <g id="PolyCollection_3"/>
   <g id="PolyCollection_4"/>
   <g id="PolyCollection_5"/>
   <g id="PolyCollection_6"/>
   <g id="line2d_14">
    <path d="M 95.763004 26.967273 
L 96.016683 67.127622 
L 96.371833 83.955961 
L 97.031397 98.314906 
L 98.249055 116.117014 
L 100.532163 138.656811 
L 102.967478 156.343216 
L 105.098378 168.738912 
L 108.751351 186.176466 
L 109.512387 189.410032 
L 109.918273 191.042434 
L 111.896966 198.84471 
L 112.404323 200.693148 
L 113.114623 203.31166 
L 113.621981 205.068506 
L 114.383017 207.769224 
L 114.890374 209.391833 
L 118.441875 220.654653 
L 123.363241 234.165916 
L 124.32722 236.560807 
L 126.204441 241.097911 
L 126.559592 241.94148 
L 128.081663 245.434626 
L 128.487549 246.28143 
L 128.944171 247.307577 
L 130.719921 251.153983 
L 131.379486 252.561869 
L 133.510386 256.914516 
L 133.764065 257.40534 
L 134.271422 258.462851 
L 134.626572 259.131055 
L 135.945701 261.714677 
L 136.148644 262.07253 
L 137.26483 264.154084 
L 139.598674 268.467303 
L 139.801617 268.799821 
L 141.272953 271.445419 
L 144.215625 276.372912 
L 145.23034 277.978861 
L 152.079663 287.89167 
L 154.413507 291.021549 
L 162.734166 301.11675 
L 162.937109 301.315178 
L 164.256238 302.780624 
L 164.763595 303.341864 
L 166.945232 305.719434 
L 167.503325 306.319596 
L 168.264361 307.096027 
L 168.518039 307.337413 
L 169.025396 307.855154 
L 170.902618 309.722266 
L 174.098969 312.941594 
L 175.215155 313.977336 
L 176.787963 315.549726 
L 177.143113 315.913125 
L 179.223278 317.892571 
L 179.984314 318.636867 
L 182.267422 320.711446 
L 183.079193 321.477104 
L 184.753472 323.031876 
L 185.818923 323.983881 
L 186.377016 324.466205 
L 187.797616 325.712452 
L 188.558652 326.359602 
L 189.725574 327.344009 
L 190.638817 328.085889 
L 191.298381 328.636136 
L 191.856474 329.054287 
L 192.516039 329.618528 
L 192.97266 329.962755 
L 195.154297 331.68681 
L 195.458711 331.936784 
L 196.118276 332.438613 
L 196.879312 332.99971 
L 207.330872 340.142958 
L 207.838229 340.436011 
L 208.548529 340.888967 
L 208.903679 341.10225 
L 209.512508 341.490813 
L 212.404445 343.158717 
L 212.759595 343.351982 
L 213.571366 343.812162 
L 214.078724 344.193944 
L 214.789024 344.582907 
L 215.347117 344.965444 
L 216.006681 345.41393 
L 216.412567 345.629173 
L 217.021396 346.034715 
L 221.739819 348.921393 
L 222.703797 349.471156 
L 225.342055 350.998805 
L 226.052356 351.396161 
L 226.762656 351.763163 
L 229.603857 353.361021 
L 230.364892 353.751832 
L 230.770778 353.984397 
L 239.548059 358.506532 
L 240.055417 358.756389 
L 242.845882 360.027085 
L 244.266482 360.667824 
L 244.824575 360.886884 
L 245.83929 361.304744 
L 247.25989 361.954718 
L 247.97019 362.265484 
L 248.629755 362.550053 
L 249.289319 362.819024 
L 249.847412 363.06778 
L 253.906271 364.701578 
L 254.971721 365.111764 
L 255.834228 365.454437 
L 278.665306 373.604737 
L 285.971251 375.884003 
L 287.391851 376.298016 
L 288.35583 376.614401 
L 289.421281 376.938391 
L 290.588202 377.285067 
L 291.704388 377.614759 
L 292.16101 377.744174 
L 294.647061 378.450438 
L 295.052947 378.5517 
L 296.32134 378.905799 
L 298.300033 379.445026 
L 301.344177 380.26408 
L 302.155949 380.49056 
L 304.185378 381.047726 
L 304.895678 381.237583 
L 306.265543 381.5941 
L 307.229521 381.832745 
L 313.216337 383.310975 
L 315.042824 383.714954 
L 320.065661 384.838715 
L 320.573018 384.988358 
L 321.689204 385.222055 
L 322.298033 385.347881 
L 322.856126 385.476381 
L 323.414219 385.627559 
L 325.088498 385.969319 
L 326.509098 386.303239 
L 330.415749 387.184609 
L 332.039293 387.493372 
L 332.749593 387.686605 
L 336.70698 388.52599 
L 361.871901 393.091498 
L 362.379258 393.144297 
L 363.038823 393.264813 
L 371.968311 394.591305 
L 372.475668 394.668739 
L 373.084497 394.757707 
L 373.541119 394.823337 
L 380.035292 395.618897 
L 380.238235 395.612676 
L 381.861778 395.788324 
L 382.013985 395.753944 
L 384.905922 395.977314 
L 385.058129 396.074413 
L 389.31993 396.73937 
L 389.776552 396.81797 
L 389.928759 396.9041 
L 392.668489 397.303234 
L 392.972903 397.380358 
L 394.038353 397.503836 
L 394.342768 397.569966 
L 394.951596 397.71316 
L 400.126641 398.395957 
L 400.633998 398.494215 
L 402.663427 398.742486 
L 403.120049 398.795559 
L 404.388442 398.949766 
L 404.591385 398.998348 
L 407.534057 399.43051 
L 408.142886 399.51695 
L 408.903922 399.613065 
L 413.470137 400.153317 
L 414.332645 400.206066 
L 420.319461 400.625745 
L 420.471668 400.591279 
L 422.145947 400.809484 
L 422.298154 400.767303 
L 422.906983 400.888378 
L 423.921697 400.963296 
L 424.530526 401.089541 
L 425.139355 401.126398 
L 425.545241 401.223957 
L 429.959249 401.800109 
L 430.669549 401.918931 
L 430.872492 401.965267 
L 431.582792 402.08903 
L 433.003393 402.291053 
L 433.8659 402.405626 
L 435.337236 402.603107 
L 444.571139 403.672937 
L 444.875553 403.700878 
L 446.143947 403.832456 
L 447.41234 403.950052 
L 448.071904 404.019663 
L 448.427054 404.047523 
L 450.101333 404.249355 
L 451.116048 404.359638 
L 451.57267 404.402476 
L 452.28297 404.475551 
L 452.790327 404.526792 
L 453.500627 404.602369 
L 454.109456 404.662384 
L 470.852246 406.204547 
L 476.585384 406.663762 
L 477.498627 406.726947 
L 479.071434 406.827906 
L 480.035413 406.906568 
L 481.506749 407.019549 
L 482.166314 407.107632 
L 524.987269 410.135232 
L 525.697569 410.176192 
L 527.422584 410.276736 
L 528.132884 410.317621 
L 529.857899 410.42021 
L 530.517463 410.465199 
L 532.546892 410.575836 
L 534.018229 410.668344 
L 535.5403 410.768851 
L 537.265315 410.84549 
L 552.486034 411.718581 
L 554.211049 411.798589 
L 555.834592 411.885588 
L 556.392685 411.928626 
L 557.76255 411.998846 
L 562.125822 412.232966 
L 563.242008 412.290242 
L 565.017759 412.383603 
L 570.142067 412.632903 
L 574.50534 412.868441 
L 576.027412 412.925085 
L 576.636241 412.955712 
L 577.346541 412.972443 
L 580.339949 413.142087 
L 581.151721 413.156871 
L 587.69663 413.491875 
L 588.203987 413.52354 
L 588.812816 413.52094 
L 589.523116 413.579695 
L 590.18268 413.632496 
L 592.110638 413.697735 
L 623.617525 415.1813 
L 625.444012 415.268115 
L 627.219762 415.347689 
L 628.386684 415.406227 
L 629.452134 415.438606 
L 637.417644 415.766285 
L 637.975737 415.784638 
L 639.751487 415.82493 
L 640.66473 415.856677 
L 641.172088 415.867973 
L 643.100045 415.95478 
L 643.607403 415.964001 
L 646.651546 416.121229 
L 647.666261 416.160138 
L 649.34054 416.226488 
L 653.754548 416.407206 
L 654.464849 416.426925 
L 654.92147 416.447042 
L 655.98692 416.484982 
L 658.523707 416.569835 
L 661.618586 416.707617 
L 662.988451 416.743912 
L 667.351724 416.981057 
L 674.454726 417.252672 
L 675.266497 417.261151 
L 676.382683 417.308459 
L 678.158434 417.364851 
L 681.05037 417.460703 
L 683.384214 417.529214 
L 686.123943 417.598875 
L 689.218823 417.682239 
L 690.994573 417.703541 
L 694.444603 417.744061 
L 696.930653 417.753309 
L 697.133596 417.713128 
L 701.547605 417.975722 
L 703.577034 418.067077 
L 704.490277 418.132106 
L 704.490277 418.132106 
" clip-path="url(#pddc7dc422a)" style="fill: none; stroke: #ff0000; stroke-opacity: 0.5; stroke-width: 1.5; stroke-linecap: round"/>
   </g>
   <g id="line2d_15">
    <path d="M 95.763004 85.27542 
L 96.016683 108.494565 
L 96.371833 121.460394 
L 97.031397 133.32065 
L 98.249055 148.413727 
L 100.177013 165.195189 
L 103.474835 186.376903 
L 105.098378 194.527604 
L 107.33075 204.528618 
L 107.838108 206.564892 
L 111.13593 218.756567 
L 111.896966 221.443407 
L 112.404323 223.092693 
L 117.680839 238.911492 
L 117.934518 239.567926 
L 118.492611 241.094763 
L 123.616919 253.76536 
L 124.733105 256.175185 
L 126.356649 259.698612 
L 126.762534 260.589229 
L 128.487549 264.079022 
L 128.893435 264.883442 
L 129.400792 265.929821 
L 129.806678 266.723152 
L 134.220687 275.025462 
L 137.163359 280.162608 
L 137.366302 280.475636 
L 138.228809 281.977911 
L 139.953824 284.807644 
L 140.816331 286.235631 
L 141.019274 286.525621 
L 141.983253 288.099673 
L 143.048703 289.739749 
L 144.164889 291.383509 
L 148.122276 296.858254 
L 148.325219 297.105616 
L 149.796555 299.015808 
L 151.825984 301.51183 
L 152.23187 302.020262 
L 154.261299 304.444919 
L 154.667185 304.950796 
L 155.478957 305.833719 
L 155.884843 306.328361 
L 156.442936 306.977268 
L 157.305443 307.93262 
L 158.269422 308.983706 
L 159.233401 310.073381 
L 159.892965 310.7266 
L 160.55253 311.407959 
L 162.176073 313.10171 
L 162.531223 313.478704 
L 163.393731 314.333682 
L 163.748881 314.702889 
L 164.611388 315.549749 
L 164.966538 315.90512 
L 165.930517 316.830983 
L 167.503325 318.362047 
L 168.264361 319.065793 
L 168.518039 319.279128 
L 169.025396 319.747139 
L 170.953354 321.480781 
L 171.612919 322.060227 
L 175.87472 325.899604 
L 176.382077 326.328759 
L 178.512978 328.197683 
L 179.223278 328.809396 
L 179.984314 329.484974 
L 181.963007 331.085441 
L 182.673307 331.685845 
L 190.080724 337.568205 
L 190.537345 337.898113 
L 195.661654 341.564722 
L 196.524161 342.153052 
L 197.589612 342.870605 
L 198.19844 343.24585 
L 199.466834 344.068569 
L 200.735227 344.86395 
L 203.170542 346.392844 
L 210.375015 350.536143 
L 211.186787 350.979996 
L 211.491201 351.126257 
L 212.658123 351.818769 
L 212.81033 351.860655 
L 213.571366 352.271732 
L 214.129459 352.612546 
L 215.093438 353.145438 
L 215.397852 353.312533 
L 219.710389 355.748879 
L 220.217747 356.002047 
L 220.826575 356.355395 
L 222.399383 357.191055 
L 223.058948 357.539635 
L 223.464833 357.761927 
L 225.747941 358.946717 
L 226.35677 359.260788 
L 228.081785 360.167034 
L 229.197971 360.729611 
L 230.466364 361.391917 
L 230.87225 361.629729 
L 232.140643 362.274639 
L 241.983374 366.896007 
L 242.693675 367.198898 
L 243.09956 367.362427 
L 243.556182 367.561441 
L 250.405505 370.278383 
L 250.912863 370.454948 
L 252.434934 371.019751 
L 254.413628 371.708204 
L 257.00115 372.612221 
L 258.726165 373.202817 
L 259.132051 373.310062 
L 262.22693 374.314777 
L 263.038702 374.566731 
L 264.307095 374.993918 
L 264.712981 375.163146 
L 265.626224 375.458725 
L 271.460833 377.386733 
L 272.221869 377.664039 
L 273.642469 378.128015 
L 275.468955 378.67481 
L 283.688143 381.112722 
L 284.195501 381.257702 
L 285.463894 381.609266 
L 288.305095 382.402735 
L 290.080845 382.863593 
L 291.399974 383.219032 
L 292.313217 383.470111 
L 293.632346 383.810429 
L 295.408097 384.277268 
L 300.177255 385.411632 
L 300.83682 385.580875 
L 301.54712 385.736744 
L 302.866249 386.052938 
L 306.0626 386.801969 
L 306.620693 386.929298 
L 307.584672 387.153288 
L 308.853065 387.440216 
L 310.375137 387.770786 
L 312.911923 388.299181 
L 313.571487 388.435017 
L 314.433995 388.613702 
L 343.962189 394.400736 
L 344.469546 394.482682 
L 345.027639 394.586317 
L 347.260011 394.983853 
L 348.173254 395.15069 
L 349.847534 395.440054 
L 351.369605 395.681395 
L 352.333584 395.858347 
L 354.210806 396.133158 
L 354.718163 396.239449 
L 358.574079 396.833674 
L 359.182908 396.915802 
L 359.639529 396.995621 
L 362.937352 397.464476 
L 363.698387 397.564206 
L 364.408688 397.654092 
L 365.880024 397.859448 
L 366.488853 397.92821 
L 367.097681 398.0268 
L 367.70651 398.091292 
L 368.315339 398.195429 
L 368.924167 398.272044 
L 369.634468 398.383466 
L 370.395504 398.484933 
L 371.15654 398.577904 
L 372.171254 398.717202 
L 377.599977 399.411364 
L 377.904391 399.443669 
L 379.629406 399.625011 
L 392.05966 401.206111 
L 392.668489 401.283241 
L 393.175846 401.351144 
L 394.241296 401.485675 
L 395.864839 401.7029 
L 396.169254 401.769407 
L 400.481791 402.276763 
L 401.192091 402.342664 
L 401.597977 402.403623 
L 407.939943 403.175704 
L 408.954657 403.298715 
L 424.175376 404.755293 
L 425.139355 404.857784 
L 426.103334 404.968777 
L 426.712162 405.04548 
L 428.843063 405.280118 
L 429.451892 405.364364 
L 430.060721 405.405251 
L 430.720285 405.501237 
L 432.901921 405.758524 
L 435.996801 406.102405 
L 436.554894 406.167792 
L 440.918166 406.627779 
L 441.273317 406.667371 
L 442.89686 406.855199 
L 449.949126 407.572199 
L 450.557955 407.605168 
L 451.116048 407.690237 
L 451.724877 407.755509 
L 452.130763 407.788023 
L 456.392564 408.245145 
L 458.066843 408.383709 
L 459.487443 408.513462 
L 464.611752 408.973018 
L 467.554424 409.210483 
L 468.011046 409.240328 
L 471.816225 409.556177 
L 472.323583 409.609431 
L 475.012576 409.812458 
L 476.686855 409.932483 
L 477.194212 409.973227 
L 478.919227 410.090242 
L 480.339828 410.17402 
L 480.948656 410.257498 
L 481.557485 410.263978 
L 482.21705 410.348655 
L 484.398686 410.497683 
L 486.732529 410.666752 
L 492.465667 411.05915 
L 493.277438 411.109009 
L 493.683324 411.14425 
L 494.647303 411.191796 
L 499.112047 411.499481 
L 500.684855 411.619444 
L 506.519464 411.974697 
L 507.128292 412.013263 
L 507.686385 412.060219 
L 509.665079 412.177808 
L 510.933472 412.276319 
L 511.593037 412.291509 
L 513.825409 412.439022 
L 515.905573 412.582129 
L 519.101924 412.828292 
L 520.21811 412.892867 
L 524.124762 413.139362 
L 525.08874 413.188146 
L 534.931472 413.752639 
L 536.605751 413.837989 
L 538.533708 413.941774 
L 544.063903 414.255653 
L 545.129353 414.301191 
L 547.108047 414.406348 
L 549.08674 414.508695 
L 550.202926 414.573739 
L 551.572791 414.647885 
L 554.566199 414.791756 
L 555.428706 414.838767 
L 559.741243 415.06988 
L 561.516994 415.159501 
L 567.199395 415.44776 
L 568.467788 415.51288 
L 569.228824 415.531374 
L 581.354663 416.076153 
L 582.47085 416.130896 
L 583.5363 416.183909 
L 590.030473 416.497535 
L 590.740773 416.532817 
L 591.704752 416.575319 
L 593.98786 416.677919 
L 595.205517 416.725706 
L 597.032004 416.813544 
L 598.554076 416.892134 
L 602.054841 417.024284 
L 603.424705 417.091972 
L 604.236477 417.124545 
L 605.86002 417.194551 
L 606.671792 417.236081 
L 608.701221 417.33572 
L 610.476972 417.42076 
L 611.999044 417.470512 
L 619.76161 417.826613 
L 620.268967 417.849005 
L 635.743365 418.566788 
L 636.910286 418.60876 
L 644.875796 418.865659 
L 645.991982 418.914304 
L 651.319233 419.12356 
L 652.333948 419.150713 
L 656.189863 419.290002 
L 657.306049 419.320937 
L 658.980328 419.398544 
L 664.814937 419.606303 
L 665.525237 419.652625 
L 667.047309 419.730758 
L 668.924531 419.811972 
L 670.091453 419.859712 
L 672.120882 419.934134 
L 673.287804 419.976806 
L 684.703343 420.329296 
L 686.225415 420.355618 
L 687.493808 420.394609 
L 697.082861 420.627566 
L 698.604932 420.678998 
L 703.323355 420.841054 
L 704.490277 420.889621 
L 704.490277 420.889621 
" clip-path="url(#pddc7dc422a)" style="fill: none; stroke: #ff0000; stroke-opacity: 0.5; stroke-width: 1.5; stroke-linecap: round"/>
   </g>
   <g id="line2d_16">
    <path d="M 95.763004 30.024451 
L 96.270362 80.684269 
L 96.574776 88.177759 
L 96.980662 95.891046 
L 98.604205 116.753764 
L 100.278484 132.126715 
L 100.379956 132.694958 
L 101.851292 143.451615 
L 103.018213 151.084676 
L 104.286607 158.595263 
L 107.635165 175.373787 
L 108.446936 179.096724 
L 109.157237 182.165405 
L 113.672716 199.861899 
L 113.723452 199.842864 
L 114.383017 202.176072 
L 114.890374 204.033199 
L 114.94111 204.031052 
L 115.448467 205.757617 
L 116.108031 208.005511 
L 116.158767 208.00037 
L 116.666124 209.646497 
L 117.680839 212.901479 
L 123.413976 229.454874 
L 123.515448 229.573372 
L 124.022805 230.98225 
L 124.124277 231.136506 
L 124.530162 232.268723 
L 125.291198 234.085005 
L 125.595613 234.869935 
L 126.45812 236.953951 
L 126.559592 237.096507 
L 126.914742 237.997551 
L 127.929456 240.3987 
L 128.081663 240.744511 
L 131.32875 247.959139 
L 131.379486 247.9037 
L 131.430222 247.984199 
L 131.886843 249.09538 
L 132.546408 250.469779 
L 132.597143 250.409016 
L 132.647879 250.48724 
L 132.952293 251.117126 
L 135.590551 256.327992 
L 135.793494 256.723275 
L 138.025866 260.841018 
L 138.228809 261.342938 
L 138.736166 262.196807 
L 139.446467 263.553652 
L 139.801617 264.125393 
L 140.106031 264.69172 
L 140.207503 264.798524 
L 142.49061 268.840901 
L 142.795025 269.248943 
L 143.708268 270.832684 
L 144.012682 271.228645 
L 144.722982 272.371939 
L 144.87519 272.55944 
L 145.686961 273.808393 
L 146.549469 275.174071 
L 146.803147 275.547739 
L 146.955355 275.713579 
L 147.919333 277.193204 
L 148.375955 277.916751 
L 148.731105 278.402913 
L 149.035519 278.966727 
L 152.23187 283.326968 
L 152.282606 283.278337 
L 152.333342 283.370977 
L 152.637756 283.813646 
L 152.840699 284.164103 
L 152.891435 284.100757 
L 152.94217 284.190651 
L 155.884843 287.837474 
L 155.935578 287.763661 
L 155.986314 287.840455 
L 156.189257 288.152378 
L 157.1025 289.302056 
L 157.153236 289.22392 
L 157.203972 289.295852 
L 157.406915 289.596588 
L 158.726044 291.381193 
L 158.928986 291.710706 
L 159.233401 292.168708 
L 162.32828 295.850767 
L 162.886373 296.462999 
L 163.748881 297.35406 
L 164.611388 298.270635 
L 166.640817 300.604462 
L 166.742289 300.63456 
L 169.076132 303.238868 
L 169.126868 303.162786 
L 169.177604 303.266424 
L 170.29379 304.445551 
L 170.344525 304.34759 
L 170.395261 304.483592 
L 171.511447 305.543928 
L 171.562183 305.401451 
L 171.765126 305.765769 
L 172.42469 306.442376 
L 173.337933 307.389959 
L 173.388669 307.247168 
L 173.540876 307.554846 
L 173.946762 308.008888 
L 173.997498 307.881415 
L 174.200441 308.28417 
L 175.113684 309.142836 
L 175.468834 309.595061 
L 175.773248 309.884109 
L 176.077663 310.284939 
L 176.483549 310.825393 
L 177.193849 311.452607 
L 177.599735 311.867954 
L 177.853413 312.28206 
L 178.817392 313.124908 
L 179.121806 313.500005 
L 179.324749 313.678346 
L 180.03505 314.349595 
L 180.136521 314.438113 
L 187.645409 321.729389 
L 187.899088 321.955313 
L 188.507916 322.529706 
L 189.421159 323.376348 
L 190.385138 324.170994 
L 190.943231 324.660699 
L 191.450589 325.023214 
L 195.407975 328.213984 
L 195.763125 328.459889 
L 196.625633 329.136606 
L 197.691083 329.946348 
L 198.401383 330.503347 
L 198.807269 330.767427 
L 199.821984 331.529203 
L 200.532284 332.039984 
L 201.141113 332.51194 
L 202.257299 333.320994 
L 202.866128 333.742349 
L 203.525692 334.231146 
L 204.844821 335.144916 
L 207.026457 336.758352 
L 207.635286 337.232398 
L 210.476487 339.214838 
L 210.67943 339.354974 
L 211.694144 340.022724 
L 211.897087 340.17844 
L 212.861066 340.830306 
L 216.61551 343.297861 
L 216.869189 343.467374 
L 217.579489 343.920054 
L 219.405975 345.081012 
L 220.217747 345.55845 
L 220.471425 345.776893 
L 222.653062 347.024597 
L 222.90674 347.236636 
L 225.240584 348.572179 
L 225.697205 348.825719 
L 225.950884 348.944471 
L 232.089907 352.285154 
L 232.343586 352.390978 
L 239.091438 355.742492 
L 239.294381 355.826664 
L 241.526753 356.899409 
L 241.67896 356.969066 
L 244.621632 358.346294 
L 245.027518 358.543555 
L 247.361362 359.601453 
L 248.731226 360.202868 
L 249.137112 360.369561 
L 249.289319 360.404447 
L 250.862127 361.036819 
L 252.790085 361.735738 
L 252.891556 361.678988 
L 253.398913 361.943402 
L 253.500385 361.882727 
L 254.007742 362.157841 
L 254.058478 362.048107 
L 254.109213 362.07736 
L 254.616571 362.369636 
L 254.718042 362.285936 
L 255.783493 362.9598 
L 256.138643 363.213943 
L 256.443057 363.39288 
L 256.544528 363.346316 
L 258.117336 364.079444 
L 258.269543 364.125634 
L 258.472486 364.276634 
L 259.487201 364.774309 
L 259.639408 364.783766 
L 260.45118 365.221527 
L 260.857065 365.319581 
L 261.922516 365.808055 
L 262.176194 365.949869 
L 263.140173 366.281726 
L 263.444588 366.441269 
L 267.554182 368.244958 
L 268.974782 368.84257 
L 270.243175 369.342718 
L 270.446118 369.419862 
L 272.018926 370.012327 
L 272.627754 370.28853 
L 273.236583 370.465887 
L 273.845412 370.739539 
L 274.454241 370.904281 
L 275.012334 371.135923 
L 275.215277 371.189942 
L 276.382198 371.575994 
L 276.635877 371.670946 
L 284.246236 374.20713 
L 284.550651 374.291623 
L 285.463894 374.590959 
L 285.768308 374.672223 
L 286.681551 374.954427 
L 286.985966 375.025916 
L 287.899209 375.285237 
L 288.203623 375.373589 
L 289.472016 375.745898 
L 291.602917 376.352101 
L 291.907331 376.408736 
L 294.038232 377.024309 
L 294.342646 377.076196 
L 296.473547 377.669163 
L 296.727226 377.698906 
L 297.589733 377.98876 
L 299.365483 378.427649 
L 299.669898 378.574761 
L 301.851534 379.100581 
L 307.432464 380.463088 
L 307.736879 380.517665 
L 311.237644 381.473526 
L 311.897208 381.639693 
L 312.455301 381.749777 
L 312.911923 381.874026 
L 313.41928 382.044997 
L 314.383259 382.274961 
L 318.848003 383.257373 
L 319.101682 383.27884 
L 321.181847 383.772495 
L 321.993618 383.935597 
L 322.298033 384.004495 
L 324.834819 384.532046 
L 325.646591 384.6949 
L 325.951005 384.761465 
L 327.371606 385.081142 
L 327.878963 385.208408 
L 328.589263 385.318194 
L 328.842942 385.449966 
L 329.908392 385.693503 
L 330.314278 385.811445 
L 331.024578 385.920368 
L 331.278257 386.041503 
L 332.445179 386.307633 
L 332.952536 386.372099 
L 333.307686 386.428177 
L 334.170193 386.676171 
L 334.677551 386.745036 
L 334.880494 386.828046 
L 336.605508 387.165789 
L 337.112866 387.216146 
L 337.315809 387.290841 
L 339.345238 387.641457 
L 340.004802 387.805525 
L 340.410688 387.840572 
L 341.780553 388.061392 
L 343.251889 388.265512 
L 347.615161 389.134543 
L 347.86884 389.214804 
L 348.731347 389.371931 
L 357.762307 391.342187 
L 358.574079 391.510695 
L 358.979965 391.58104 
L 359.639529 391.733195 
L 360.400565 391.886902 
L 362.632937 392.29264 
L 364.459423 392.655688 
L 365.423402 392.802548 
L 365.981495 392.915507 
L 380.644121 395.433867 
L 385.108865 396.050354 
L 385.666958 396.140763 
L 387.138294 396.345964 
L 390.689795 396.802219 
L 390.892738 396.784286 
L 392.05966 396.895794 
L 392.41481 396.92375 
L 392.972903 396.997574 
L 395.560425 397.437508 
L 395.763368 397.420647 
L 397.64059 397.676248 
L 402.105334 398.24015 
L 410.324522 399.286353 
L 410.476729 399.213217 
L 410.781144 399.288853 
L 410.933351 399.306243 
L 411.085558 399.215483 
L 411.491444 399.314185 
L 411.846594 399.377806 
L 412.151008 399.417597 
L 412.303216 399.31635 
L 412.60763 399.387511 
L 412.759837 399.396345 
L 412.912044 399.292496 
L 413.114987 399.36717 
L 413.977495 399.626019 
L 414.129702 399.534275 
L 414.38338 399.602919 
L 414.586323 399.622683 
L 414.73853 399.744108 
L 415.144416 399.800285 
L 415.347359 399.916874 
L 415.803981 399.967697 
L 415.956188 399.901407 
L 416.970903 400.142051 
L 417.630467 400.103952 
L 417.83341 400.225836 
L 427.92982 401.547999 
L 428.183499 401.631692 
L 429.198213 401.838796 
L 429.553363 401.902362 
L 429.908513 401.985521 
L 431.582792 402.201725 
L 431.785735 402.201982 
L 433.307807 402.429378 
L 434.474729 402.637392 
L 437.67108 403.119708 
L 437.975494 403.182149 
L 440.004923 403.391941 
L 440.563016 403.468563 
L 445.382911 404.055164 
L 445.941004 404.121633 
L 452.181498 404.932418 
L 452.99327 405.027972 
L 454.41387 405.206995 
L 471.055189 406.824238 
L 471.511811 406.843919 
L 473.287561 406.981517 
L 487.595037 407.873054 
L 487.79798 407.943954 
L 488.609751 408.073774 
L 489.117109 408.073768 
L 490.639181 408.23813 
L 490.892859 408.309974 
L 502.105455 409.351368 
L 502.40987 409.344339 
L 504.54077 409.457215 
L 504.794449 409.435766 
L 505.758428 409.471264 
L 505.961371 409.459287 
L 506.417992 409.437609 
L 507.584914 409.482993 
L 507.737121 409.437802 
L 508.447421 409.490337 
L 511.948187 409.732782 
L 512.607751 409.787325 
L 513.21658 409.83756 
L 513.825409 409.902586 
L 514.890859 409.982797 
L 515.043066 409.91911 
L 517.935003 410.081363 
L 518.08721 409.999573 
L 520.370318 410.188643 
L 520.522525 410.114544 
L 521.587975 410.22566 
L 521.740182 410.122828 
L 524.02329 410.355964 
L 524.175497 410.272249 
L 525.849776 410.46318 
L 526.306398 410.495349 
L 528.285091 410.611556 
L 528.335827 410.479757 
L 528.386563 410.5238 
L 529.857899 410.659015 
L 533.206457 411.014142 
L 533.358664 411.090918 
L 534.068964 411.203611 
L 544.824939 412.081377 
L 546.093332 412.167433 
L 546.448482 412.229948 
L 547.158782 412.277845 
L 548.224233 412.376437 
L 553.450013 412.769713 
L 554.261784 412.852898 
L 556.595628 412.991501 
L 557.204457 413.008475 
L 558.269907 413.064552 
L 558.574321 413.100789 
L 565.575852 413.462858 
L 565.880266 413.500912 
L 597.082739 415.184122 
L 597.691568 415.193081 
L 598.300397 415.239575 
L 599.92394 415.300639 
L 601.953369 415.401841 
L 602.562198 415.407324 
L 603.221763 415.45376 
L 664.66273 417.925132 
L 665.119352 417.945341 
L 668.975267 418.084031 
L 699.924061 419.151816 
L 701.699812 419.210288 
L 704.490277 419.30343 
L 704.490277 419.30343 
" clip-path="url(#pddc7dc422a)" style="fill: none; stroke: #0000ff; stroke-opacity: 0.5; stroke-width: 1.5; stroke-linecap: round"/>
   </g>
   <g id="line2d_17">
    <path d="M 95.763004 84.501428 
L 96.16889 117.692636 
L 96.828455 130.133872 
L 97.893905 143.602789 
L 99.111562 154.664308 
L 100.278484 163.5611 
L 100.32922 163.664633 
L 101.343934 170.369886 
L 102.713799 178.478235 
L 103.068949 180.395788 
L 105.707207 193.536233 
L 106.366772 196.529321 
L 106.417507 196.536795 
L 106.924865 198.898023 
L 107.584429 201.659394 
L 107.635165 201.644259 
L 108.142522 203.86175 
L 108.802087 206.471179 
L 108.852822 206.43457 
L 109.258708 208.155615 
L 110.628573 213.193035 
L 110.679308 213.197404 
L 111.186666 215.110358 
L 111.744759 217.017452 
L 114.890374 227.479483 
L 114.94111 227.475089 
L 115.397731 228.907058 
L 118.594082 238.010411 
L 118.847761 238.729536 
L 119.355118 240.159424 
L 123.413976 250.585145 
L 123.515448 250.688785 
L 124.022805 251.999473 
L 124.124277 252.116593 
L 124.530162 253.185763 
L 125.240463 254.816477 
L 125.341934 254.926562 
L 125.697084 255.841958 
L 126.508856 257.556963 
L 126.762534 258.128032 
L 127.117685 258.864511 
L 127.52357 259.778175 
L 128.893435 262.711749 
L 128.994907 262.805723 
L 129.350057 263.633181 
L 130.111093 265.205751 
L 130.161828 265.157525 
L 130.212564 265.233751 
L 130.61845 266.138484 
L 131.32875 267.547084 
L 131.379486 267.495406 
L 131.582429 267.904374 
L 132.546408 269.809505 
L 132.597143 269.753671 
L 132.850822 270.230735 
L 133.713329 271.889558 
L 134.372894 272.995922 
L 134.474365 273.116379 
L 134.829515 273.830098 
L 135.590551 275.112757 
L 135.742758 275.387221 
L 137.417038 278.273293 
L 137.467773 278.21561 
L 137.670716 278.568249 
L 141.120746 284.379444 
L 141.526632 284.934452 
L 143.759004 288.307305 
L 144.114154 288.855067 
L 144.367832 289.209287 
L 145.078133 290.169389 
L 145.991376 291.477347 
L 146.346526 291.918371 
L 148.477426 294.87087 
L 149.390669 296.066259 
L 150.81127 297.903173 
L 150.963477 298.041076 
L 151.572306 298.851015 
L 153.195849 300.778575 
L 153.449528 301.026075 
L 153.601735 301.146199 
L 153.855414 301.473658 
L 154.058357 301.761805 
L 154.159828 301.822311 
L 155.884843 303.756298 
L 156.03705 303.867255 
L 157.001029 304.990303 
L 157.406915 305.392521 
L 159.436344 307.676467 
L 159.639287 307.8952 
L 159.943701 308.241567 
L 160.19738 308.550552 
L 163.342995 311.660534 
L 163.799616 312.127808 
L 169.684961 317.841696 
L 169.837168 317.975056 
L 172.06954 319.949172 
L 172.729105 320.612844 
L 172.77984 320.548199 
L 173.033519 320.865485 
L 173.490141 321.243283 
L 175.113684 322.695142 
L 175.671777 323.257112 
L 177.29532 324.838588 
L 178.868128 326.337831 
L 179.172542 326.605528 
L 179.984314 327.353467 
L 185.362301 332.042863 
L 186.782902 333.318579 
L 187.087316 333.587666 
L 187.696145 334.03184 
L 188.304973 334.595119 
L 188.913802 335.02167 
L 189.522631 335.572285 
L 190.13146 335.995428 
L 190.689553 336.460608 
L 201.496263 344.031737 
L 201.749941 344.184299 
L 202.35877 344.596599 
L 205.605857 346.73709 
L 206.87425 347.575537 
L 207.838229 348.185421 
L 208.650001 348.710857 
L 208.903679 348.825502 
L 210.476487 349.825304 
L 210.67943 349.952225 
L 211.592673 350.478747 
L 212.45518 351.018956 
L 214.180195 352.044575 
L 214.535345 352.248526 
L 216.26036 353.168303 
L 216.919924 353.60021 
L 217.122867 353.682461 
L 217.782432 354.098466 
L 218.086846 354.29794 
L 219.000089 354.753179 
L 219.304504 354.968602 
L 222.653062 356.721741 
L 222.957476 356.927178 
L 223.617041 357.195348 
L 224.124398 357.539185 
L 235.793615 363.124647 
L 236.047294 363.227484 
L 236.300973 363.370663 
L 244.266482 366.764442 
L 244.469425 366.81041 
L 245.534875 367.285228 
L 246.19444 367.596404 
L 246.600326 367.757315 
L 250.963598 369.427895 
L 251.115805 369.474738 
L 252.790085 370.076869 
L 252.942292 370.08823 
L 255.276135 371.052265 
L 256.189378 371.486228 
L 256.747471 371.680744 
L 257.204093 371.882638 
L 258.726165 372.523682 
L 259.132051 372.705712 
L 260.45118 373.217266 
L 260.907801 373.35524 
L 262.531344 374.010649 
L 262.785023 374.045327 
L 268.010803 376.119363 
L 269.025518 376.49742 
L 269.279196 376.589364 
L 269.634346 376.705542 
L 270.141704 376.878242 
L 271.105683 377.24639 
L 271.359361 377.305391 
L 271.663776 377.427195 
L 273.693205 378.122113 
L 274.707919 378.473742 
L 275.316748 378.663333 
L 275.824105 378.822735 
L 276.889556 379.165152 
L 277.346177 379.31507 
L 278.665306 379.704604 
L 279.172663 379.87412 
L 279.933699 380.097738 
L 280.593264 380.295471 
L 281.455771 380.566723 
L 281.810921 380.667727 
L 282.876372 380.968968 
L 283.84035 381.261531 
L 285.007272 381.603783 
L 286.681551 382.056964 
L 287.138173 382.16405 
L 288.102152 382.414317 
L 288.761716 382.610795 
L 289.116866 382.693562 
L 289.573488 382.80036 
L 290.588202 383.059 
L 290.943353 383.179444 
L 291.501446 383.327098 
L 302.764777 385.990054 
L 303.221399 386.126568 
L 307.381729 387.041308 
L 307.83835 387.127174 
L 315.80386 388.89107 
L 316.412688 388.990971 
L 317.021517 389.130959 
L 318.391382 389.389409 
L 319.609039 389.59615 
L 320.116396 389.702558 
L 322.45024 390.171142 
L 324.023048 390.446338 
L 324.733348 390.58825 
L 325.748062 390.779712 
L 331.734878 391.982098 
L 332.242236 392.064577 
L 332.54665 392.166488 
L 333.865779 392.417495 
L 334.576079 392.51963 
L 335.134172 392.655522 
L 336.808451 392.944368 
L 337.670959 393.116819 
L 338.48273 393.266899 
L 338.888616 393.350254 
L 339.446709 393.419443 
L 340.004802 393.551842 
L 341.019517 393.700046 
L 343.556303 394.146062 
L 344.165132 394.258233 
L 344.571018 394.315694 
L 345.382789 394.459576 
L 345.788675 394.507142 
L 346.600447 394.656831 
L 346.955597 394.685099 
L 347.767369 394.868331 
L 348.680612 395.015915 
L 349.340176 395.146671 
L 351.115927 395.480071 
L 352.181377 395.667695 
L 357.711571 396.714818 
L 358.421872 396.846575 
L 359.081436 396.949654 
L 373.794797 399.408218 
L 378.766899 400.154972 
L 380.339706 400.361475 
L 380.847064 400.415008 
L 381.96325 400.547737 
L 383.536057 400.736158 
L 384.043415 400.791737 
L 421.232704 405.394569 
L 421.892268 405.454506 
L 422.399626 405.51857 
L 423.921697 405.680591 
L 427.92982 406.13786 
L 428.843063 406.263828 
L 430.009985 406.436072 
L 460.197743 409.692462 
L 462.683794 409.896048 
L 463.647773 410.002098 
L 464.916166 410.119567 
L 465.626466 410.181551 
L 466.539709 410.252491 
L 470.953718 410.630045 
L 472.019168 410.704625 
L 476.483912 411.032643 
L 477.092741 411.086477 
L 477.904513 411.128601 
L 478.564077 411.15957 
L 480.745714 411.341117 
L 481.658957 411.391762 
L 483.2825 411.506572 
L 486.529587 411.76116 
L 490.334766 412.108991 
L 492.973024 412.373509 
L 496.930411 412.678256 
L 502.206927 413.014327 
L 503.018698 413.049136 
L 505.758428 413.18647 
L 506.164314 413.216857 
L 546.549954 415.659271 
L 547.006575 415.679298 
L 551.826469 416.035702 
L 553.551484 416.1219 
L 556.037535 416.268418 
L 557.204457 416.339012 
L 558.625057 416.416927 
L 559.944186 416.488543 
L 560.654486 416.488241 
L 561.872144 416.547852 
L 593.581974 418.108317 
L 594.545953 418.152355 
L 627.016819 419.432336 
L 628.843306 419.498899 
L 631.481563 419.60185 
L 637.772794 419.819016 
L 642.947838 420.008034 
L 643.911817 420.036991 
L 646.093453 420.119877 
L 648.98539 420.215075 
L 650.76114 420.278773 
L 662.227415 420.669067 
L 664.510523 420.74133 
L 698.452725 421.819554 
L 701.141719 421.923139 
L 702.866734 421.967309 
L 704.490277 422.008551 
L 704.490277 422.008551 
" clip-path="url(#pddc7dc422a)" style="fill: none; stroke: #0000ff; stroke-opacity: 0.5; stroke-width: 1.5; stroke-linecap: round"/>
   </g>
   <g id="line2d_18">
    <path d="M 95.763004 61.943514 
L 95.965947 78.051736 
L 96.371833 95.618221 
L 96.777719 103.006993 
L 97.58949 114.877058 
L 98.096848 120.61943 
L 98.451998 124.618948 
L 99.111562 131.072458 
L 100.430691 142.096793 
L 103.474835 162.59134 
L 107.077072 181.158803 
L 107.635165 183.679077 
L 109.766065 192.5337 
L 113.165359 205.357171 
L 114.636695 210.281625 
L 117.274953 218.533402 
L 117.376425 218.755434 
L 118.492611 222.026697 
L 118.594082 222.228588 
L 119.710268 225.394949 
L 119.81174 225.598552 
L 120.87719 228.617254 
L 120.978661 228.839702 
L 123.566184 235.721641 
L 124.377955 237.775831 
L 127.929456 246.456705 
L 133.104501 257.04614 
L 133.256708 257.310728 
L 140.106031 269.494827 
L 140.207503 269.529935 
L 140.461181 270.032704 
L 142.033989 272.455398 
L 142.338403 273.082054 
L 143.759004 275.292464 
L 143.809739 275.228005 
L 143.860475 275.312956 
L 144.114154 275.850544 
L 144.367832 276.196404 
L 144.418568 276.104981 
L 144.469304 276.176902 
L 144.672247 276.620009 
L 144.976661 277.045881 
L 145.23034 277.594799 
L 145.58549 278.139632 
L 146.955355 280.206197 
L 147.259769 280.601248 
L 148.477426 282.266366 
L 148.528162 282.227269 
L 148.578898 282.308976 
L 150.45612 284.710571 
L 150.557591 284.762454 
L 150.912741 285.353928 
L 150.963477 285.245303 
L 151.014213 285.32114 
L 152.333342 286.948399 
L 152.840699 287.734945 
L 154.413507 289.555789 
L 154.920864 290.31373 
L 155.225278 290.662662 
L 155.783371 291.413166 
L 155.834107 291.326704 
L 155.884843 291.401399 
L 156.189257 291.828848 
L 156.544407 292.271311 
L 161.26283 298.230222 
L 161.364301 298.280598 
L 161.719452 298.763246 
L 162.226809 299.408711 
L 162.379016 299.609595 
L 162.987845 300.283192 
L 163.698145 301.146887 
L 164.002559 301.560808 
L 164.71286 302.339082 
L 164.865067 302.520654 
L 170.496733 308.525049 
L 170.851883 308.973499 
L 171.35924 309.542605 
L 173.236462 311.418367 
L 173.490141 311.653489 
L 181.354179 318.846464 
L 181.607857 318.993858 
L 182.368893 319.691302 
L 182.622572 319.859516 
L 190.993967 326.597445 
L 191.298381 326.861804 
L 192.110153 327.519324 
L 192.566775 327.876903 
L 193.074132 328.286127 
L 193.936639 328.918983 
L 194.088846 329.020893 
L 196.42269 330.794254 
L 196.625633 330.924893 
L 197.792555 331.835589 
L 197.995498 331.95966 
L 198.604326 332.38875 
L 198.908741 332.618714 
L 199.466834 333.088012 
L 199.669777 333.190466 
L 200.633755 333.907633 
L 200.785963 333.949328 
L 204.033049 336.172769 
L 209.918394 339.974276 
L 210.273544 340.168823 
L 210.577958 340.360477 
L 212.302973 341.29498 
L 212.861066 341.593246 
L 213.114745 341.694478 
L 214.687552 342.523969 
L 215.499324 342.977988 
L 217.782432 344.122951 
L 231.9377 350.973684 
L 233.053886 351.505562 
L 235.184787 352.438714 
L 238.381138 353.813554 
L 238.685552 353.965322 
L 241.67896 355.248926 
L 242.03411 355.43203 
L 242.38926 355.584535 
L 244.469425 356.448718 
L 249.542998 358.515235 
L 249.796677 358.592691 
L 250.811391 359.020989 
L 251.115805 359.159393 
L 252.891556 359.875968 
L 270.090968 366.592766 
L 270.699797 366.811724 
L 272.881433 367.539514 
L 274.403505 368.036473 
L 279.933699 369.709425 
L 280.593264 369.882348 
L 281.252828 370.102767 
L 282.369014 370.446103 
L 284.550651 371.175522 
L 286.021987 371.671861 
L 288.00068 372.251052 
L 296.625754 374.946334 
L 297.38679 375.186188 
L 299.162541 375.69255 
L 299.619162 375.768738 
L 305.605978 377.533293 
L 306.620693 377.797005 
L 307.635407 378.091642 
L 309.106743 378.523257 
L 310.476608 378.966142 
L 310.730287 379.000449 
L 312.252359 379.469904 
L 312.506037 379.517696 
L 312.962659 379.621819 
L 315.093559 380.218712 
L 315.347238 380.335517 
L 315.651652 380.403415 
L 321.942883 382.110122 
L 322.653183 382.278102 
L 323.008333 382.364473 
L 323.617162 382.576422 
L 324.124519 382.708718 
L 326.61057 383.454484 
L 331.531935 384.736419 
L 332.1915 384.905827 
L 332.445179 384.954858 
L 334.931229 385.586424 
L 336.453301 385.951082 
L 336.808451 386.016891 
L 339.091559 386.600529 
L 339.446709 386.693447 
L 340.157009 386.85907 
L 340.765838 387.004132 
L 341.679081 387.233802 
L 342.541589 387.435564 
L 342.846003 387.453975 
L 344.012925 387.748408 
L 348.325462 388.727376 
L 348.832819 388.812909 
L 356.493914 390.304104 
L 357.204214 390.447861 
L 358.624815 390.662975 
L 374.149948 393.405757 
L 374.454362 393.431339 
L 385.210336 395.284933 
L 385.819165 395.376756 
L 388.203744 395.801641 
L 388.711102 395.916045 
L 393.733939 396.627496 
L 394.19056 396.711777 
L 396.93029 397.094155 
L 398.959719 397.447844 
L 399.365605 397.501163 
L 405.352421 398.383816 
L 406.062721 398.458219 
L 406.570078 398.531847 
L 407.077435 398.616136 
L 407.483321 398.714435 
L 409.005393 398.962968 
L 424.682733 401.109795 
L 425.291562 401.105991 
L 425.900391 401.230445 
L 426.407748 401.273301 
L 429.756306 401.7019 
L 429.959249 401.694091 
L 436.808572 402.746456 
L 454.363135 404.581018 
L 454.667549 404.602215 
L 455.732999 404.75022 
L 456.088149 404.782389 
L 458.21905 405.019085 
L 458.777143 405.074294 
L 459.842593 405.147875 
L 460.603629 405.233598 
L 461.212458 405.303067 
L 462.074965 405.392761 
L 463.44483 405.491359 
L 464.561016 405.625983 
L 466.945595 405.833285 
L 467.402217 405.889631 
L 489.21858 407.832961 
L 489.878145 407.895249 
L 490.28403 407.95509 
L 494.79951 408.376503 
L 496.270846 408.525279 
L 499.568669 408.79742 
L 499.974555 408.840027 
L 503.881206 409.186857 
L 504.236356 409.208871 
L 507.534178 409.418077 
L 508.193743 409.480504 
L 509.918757 409.625477 
L 511.390094 409.762003 
L 512.354072 409.822053 
L 515.296745 410.067204 
L 522.805633 410.646401 
L 523.160783 410.684485 
L 523.414461 410.658167 
L 531.075556 411.148918 
L 531.278499 411.179708 
L 538.330766 411.818582 
L 545.433768 412.254098 
L 546.093332 412.285859 
L 571.511932 413.923532 
L 572.272968 413.961259 
L 574.353133 414.058195 
L 581.050249 414.39388 
L 592.009167 414.918105 
L 594.901103 415.078342 
L 598.249661 415.233814 
L 598.807754 415.237847 
L 601.293805 415.373263 
L 601.699691 415.393478 
L 607.432828 415.678661 
L 608.092392 415.712991 
L 608.853428 415.750444 
L 620.066024 416.183529 
L 629.705813 416.50952 
L 634.830122 416.747924 
L 635.540422 416.774396 
L 637.772794 416.891218 
L 638.483094 416.907197 
L 638.88898 416.941653 
L 653.653077 417.617988 
L 654.21117 417.629659 
L 659.487686 417.836654 
L 661.009758 417.895797 
L 661.720058 417.93126 
L 666.08333 418.10772 
L 667.909817 418.178436 
L 669.026003 418.220192 
L 670.497339 418.299603 
L 674.201047 418.434651 
L 704.490277 419.348215 
L 704.490277 419.348215 
" clip-path="url(#pddc7dc422a)" style="fill: none; stroke: #008000; stroke-opacity: 0.5; stroke-width: 1.5; stroke-linecap: round"/>
   </g>
   <g id="line2d_19">
    <path d="M 95.763004 110.538854 
L 96.067419 125.139114 
L 96.52404 135.898581 
L 98.046112 154.31606 
L 98.451998 158.205271 
L 99.162298 164.161302 
L 101.851292 182.710792 
L 102.358649 185.608527 
L 102.866006 188.419109 
L 106.924865 207.52113 
L 109.207972 216.250222 
L 110.730044 221.603427 
L 116.158767 238.539325 
L 118.035989 243.739135 
L 119.507325 247.65626 
L 121.739697 253.215157 
L 122.449998 254.973127 
L 122.957355 256.17443 
L 123.667655 257.871666 
L 124.377955 259.53099 
L 128.386078 268.354424 
L 133.967008 278.64511 
L 136.097909 282.13047 
L 136.402323 282.708085 
L 137.417038 284.280085 
L 138.888374 286.632238 
L 138.989845 286.671775 
L 139.294259 287.194335 
L 141.323689 290.186387 
L 141.374424 290.118301 
L 141.42516 290.17711 
L 141.678839 290.702246 
L 142.084725 291.336313 
L 142.744289 292.341891 
L 143.302382 293.138038 
L 143.759004 293.725292 
L 143.809739 293.660594 
L 143.860475 293.727152 
L 144.114154 294.235113 
L 144.367832 294.563234 
L 144.418568 294.481031 
L 144.469304 294.563258 
L 144.672247 294.948922 
L 146.194319 297.143358 
L 146.29579 297.179052 
L 146.549469 297.663416 
L 148.020805 299.613818 
L 148.122276 299.67957 
L 148.375955 300.042906 
L 149.136991 300.983199 
L 149.695084 301.643585 
L 149.948762 301.824043 
L 150.253177 302.303482 
L 158.472365 311.756485 
L 159.030458 312.376656 
L 159.639287 313.057383 
L 160.55253 314.068046 
L 160.90768 314.418067 
L 162.176073 315.790677 
L 166.13346 319.885541 
L 166.48861 320.210515 
L 172.576897 325.926869 
L 174.251177 327.367121 
L 174.657062 327.756799 
L 175.316627 328.284804 
L 176.686492 329.432587 
L 176.94017 329.639027 
L 177.498263 330.095369 
L 177.802678 330.362535 
L 179.527692 331.734792 
L 179.984314 332.100941 
L 180.74535 332.646302 
L 181.201971 332.990179 
L 182.013743 333.557665 
L 184.144644 335.104069 
L 185.210094 335.895528 
L 185.869658 336.32813 
L 190.689553 339.74544 
L 191.247646 340.149587 
L 192.566775 341.083883 
L 193.124868 341.469396 
L 193.530753 341.770401 
L 194.038111 342.070182 
L 194.951354 342.680443 
L 205.199971 349.139648 
L 206.468364 349.837555 
L 207.178664 350.246366 
L 207.58455 350.467908 
L 208.751472 351.147933 
L 209.106622 351.362405 
L 209.96913 351.754146 
L 212.962538 353.196505 
L 213.317688 353.355857 
L 213.672838 353.496234 
L 218.492732 355.705634 
L 219.000089 355.946149 
L 219.964068 356.382839 
L 220.623633 356.6774 
L 222.247176 357.36099 
L 224.378076 358.228593 
L 225.088377 358.547071 
L 225.849413 358.842629 
L 227.371484 359.499437 
L 229.654592 360.462915 
L 230.669307 360.883664 
L 231.075193 361.037529 
L 231.684021 361.326168 
L 234.423751 362.462295 
L 236.503916 363.262339 
L 237.315687 363.612107 
L 237.569366 363.669363 
L 239.598795 364.493336 
L 239.903209 364.59428 
L 243.860596 366.138519 
L 244.926047 366.561604 
L 248.984905 367.992776 
L 249.441526 368.160909 
L 255.58055 370.428416 
L 255.9357 370.519709 
L 264.154888 373.4493 
L 265.118867 373.792666 
L 266.488731 374.285316 
L 267.80786 374.732343 
L 271.308626 375.802134 
L 274.099091 376.628354 
L 275.519691 377.020453 
L 275.824105 377.079403 
L 278.766778 377.907932 
L 286.478608 380.130136 
L 286.783023 380.167364 
L 299.466955 383.695741 
L 300.481669 383.951835 
L 301.496384 384.212103 
L 303.069192 384.633591 
L 319.152418 388.591842 
L 320.116396 388.814102 
L 321.02964 389.053148 
L 326.712041 390.55585 
L 328.081906 390.9056 
L 329.603978 391.240547 
L 331.430464 391.632776 
L 332.597386 391.903927 
L 334.017986 392.204181 
L 335.032701 392.433044 
L 339.19303 393.331161 
L 343.860718 394.29618 
L 345.484261 394.600983 
L 357.001271 396.649447 
L 364.408688 397.818556 
L 364.662366 397.873142 
L 365.626345 398.000959 
L 366.082967 398.059481 
L 367.858717 398.301926 
L 369.888146 398.611365 
L 371.86684 398.901456 
L 372.627876 399.003673 
L 376.077905 399.52891 
L 376.838941 399.639348 
L 382.115457 400.385077 
L 382.825757 400.490436 
L 383.485322 400.595487 
L 388.60963 401.401443 
L 389.066252 401.475542 
L 393.074374 402.034239 
L 394.19056 402.162914 
L 396.321461 402.42434 
L 396.676611 402.47023 
L 397.742061 402.610602 
L 398.300154 402.700286 
L 399.720755 402.915244 
L 400.228112 402.981933 
L 413.114987 404.557609 
L 413.622344 404.605275 
L 432.496036 406.589593 
L 433.206336 406.695969 
L 433.815164 406.748422 
L 434.423993 406.819781 
L 434.982086 406.866731 
L 440.055659 407.351244 
L 447.970433 408.061682 
L 448.528526 408.124723 
L 453.044006 408.556423 
L 455.783735 408.850687 
L 456.240357 408.882333 
L 460.603629 409.25 
L 461.364665 409.327495 
L 462.73453 409.453212 
L 464.814695 409.662501 
L 472.171375 410.377125 
L 472.627997 410.420865 
L 476.433177 410.713067 
L 477.092741 410.752616 
L 480.136885 411.041208 
L 481.151599 411.130694 
L 485.971494 411.562676 
L 491.450952 412.000083 
L 495.306868 412.340079 
L 497.18409 412.468933 
L 497.945126 412.531465 
L 500.786326 412.749315 
L 502.05472 412.836037 
L 505.25107 413.036825 
L 508.7011 413.30585 
L 509.259193 413.363137 
L 512.252601 413.602487 
L 545.230825 415.753216 
L 546.296275 415.786657 
L 553.297806 416.166693 
L 559.386093 416.628415 
L 560.451543 416.695183 
L 561.719936 416.77757 
L 565.931002 417.01743 
L 567.300867 417.099343 
L 572.881797 417.347698 
L 573.997983 417.407887 
L 575.21564 417.446468 
L 578.817877 417.627682 
L 579.477442 417.657919 
L 581.151721 417.730822 
L 583.028943 417.816292 
L 583.789978 417.847 
L 624.023411 419.498718 
L 624.682976 419.506368 
L 668.518645 421.226046 
L 671.613525 421.32442 
L 673.084861 421.387668 
L 683.688628 421.719077 
L 686.884979 421.818961 
L 688.457787 421.860988 
L 690.233537 421.919948 
L 691.349723 421.958978 
L 692.973267 422.004258 
L 696.271089 422.083234 
L 704.490277 422.307851 
L 704.490277 422.307851 
" clip-path="url(#pddc7dc422a)" style="fill: none; stroke: #008000; stroke-opacity: 0.5; stroke-width: 1.5; stroke-linecap: round"/>
   </g>
   <g id="patch_3">
    <path d="M 65.326641 442.08 
L 65.326641 7.2 
" style="fill: none; stroke: #cccccc; stroke-width: 1.25; stroke-linejoin: miter; stroke-linecap: square"/>
   </g>
   <g id="patch_4">
    <path d="M 734.926641 442.08 
L 734.926641 7.2 
" style="fill: none; stroke: #cccccc; stroke-width: 1.25; stroke-linejoin: miter; stroke-linecap: square"/>
   </g>
   <g id="patch_5">
    <path d="M 65.326641 442.08 
L 734.926641 442.08 
" style="fill: none; stroke: #cccccc; stroke-width: 1.25; stroke-linejoin: miter; stroke-linecap: square"/>
   </g>
   <g id="patch_6">
    <path d="M 65.326641 7.2 
L 734.926641 7.2 
" style="fill: none; stroke: #cccccc; stroke-width: 1.25; stroke-linejoin: miter; stroke-linecap: square"/>
   </g>
   <g id="text_16">
    <g id="patch_7">
     <path d="M 156.9887 69.765221 
L 290.202763 69.765221 
L 290.202763 33.143659 
L 156.9887 33.143659 
z
" style="fill: #ffffff; stroke: #000000; stroke-linejoin: miter"/>
    </g>
    <!-- constant force -->
    <g style="fill: #262626" transform="translate(167.0687 56.107721)scale(0.18 -0.18)">
     <defs>
      <path id="Arial-ItalicMT-63" d="M 2503 1209 
L 3069 1150 
Q 2856 528 2464 226 
Q 2072 -75 1572 -75 
Q 1031 -75 695 275 
Q 359 625 359 1253 
Q 359 1797 575 2322 
Q 791 2847 1192 3120 
Q 1594 3394 2109 3394 
Q 2644 3394 2956 3092 
Q 3269 2791 3269 2294 
L 2713 2256 
Q 2709 2572 2529 2750 
Q 2350 2928 2056 2928 
Q 1716 2928 1466 2712 
Q 1216 2497 1073 2058 
Q 931 1619 931 1213 
Q 931 788 1118 575 
Q 1306 363 1581 363 
Q 1856 363 2107 572 
Q 2359 781 2503 1209 
z
" transform="scale(0.015625)"/>
      <path id="Arial-ItalicMT-6f" d="M 313 1259 
Q 313 2231 884 2869 
Q 1356 3394 2122 3394 
Q 2722 3394 3089 3019 
Q 3456 2644 3456 2006 
Q 3456 1434 3225 942 
Q 2994 450 2567 187 
Q 2141 -75 1669 -75 
Q 1281 -75 964 90 
Q 647 256 480 559 
Q 313 863 313 1259 
z
M 878 1316 
Q 878 847 1103 605 
Q 1328 363 1675 363 
Q 1856 363 2034 436 
Q 2213 509 2366 659 
Q 2519 809 2626 1001 
Q 2734 1194 2800 1416 
Q 2897 1725 2897 2009 
Q 2897 2459 2670 2707 
Q 2444 2956 2100 2956 
Q 1834 2956 1615 2829 
Q 1397 2703 1220 2459 
Q 1044 2216 961 1892 
Q 878 1569 878 1316 
z
" transform="scale(0.015625)"/>
      <path id="Arial-ItalicMT-6e" d="M 213 0 
L 906 3319 
L 1419 3319 
L 1297 2741 
Q 1631 3081 1922 3237 
Q 2213 3394 2516 3394 
Q 2919 3394 3148 3175 
Q 3378 2956 3378 2591 
Q 3378 2406 3297 2009 
L 2875 0 
L 2309 0 
L 2750 2103 
Q 2816 2409 2816 2556 
Q 2816 2722 2702 2825 
Q 2588 2928 2372 2928 
Q 1938 2928 1598 2615 
Q 1259 2303 1100 1544 
L 778 0 
L 213 0 
z
" transform="scale(0.015625)"/>
      <path id="Arial-ItalicMT-73" d="M 266 1134 
L 831 1169 
Q 831 925 906 753 
Q 981 581 1182 472 
Q 1384 363 1653 363 
Q 2028 363 2215 513 
Q 2403 663 2403 866 
Q 2403 1013 2291 1144 
Q 2175 1275 1726 1467 
Q 1278 1659 1153 1738 
Q 944 1866 837 2039 
Q 731 2213 731 2438 
Q 731 2831 1043 3112 
Q 1356 3394 1919 3394 
Q 2544 3394 2870 3105 
Q 3197 2816 3209 2344 
L 2656 2306 
Q 2644 2606 2444 2781 
Q 2244 2956 1878 2956 
Q 1584 2956 1421 2822 
Q 1259 2688 1259 2531 
Q 1259 2375 1400 2256 
Q 1494 2175 1884 2006 
Q 2534 1725 2703 1563 
Q 2972 1303 2972 931 
Q 2972 684 2820 446 
Q 2669 209 2358 67 
Q 2047 -75 1625 -75 
Q 1050 -75 647 209 
Q 244 494 266 1134 
z
" transform="scale(0.015625)"/>
      <path id="Arial-ItalicMT-74" d="M 1534 459 
L 1441 -3 
Q 1238 -56 1047 -56 
Q 709 -56 509 109 
Q 359 234 359 450 
Q 359 559 441 953 
L 844 2881 
L 397 2881 
L 488 3319 
L 934 3319 
L 1106 4134 
L 1753 4525 
L 1500 3319 
L 2056 3319 
L 1963 2881 
L 1409 2881 
L 1025 1047 
Q 953 697 953 628 
Q 953 528 1011 475 
Q 1069 422 1200 422 
Q 1388 422 1534 459 
z
" transform="scale(0.015625)"/>
      <path id="Arial-ItalicMT-61" d="M 2450 413 
Q 2156 159 1884 42 
Q 1613 -75 1303 -75 
Q 844 -75 562 195 
Q 281 466 281 888 
Q 281 1166 407 1380 
Q 534 1594 743 1723 
Q 953 1853 1256 1909 
Q 1447 1947 1980 1969 
Q 2513 1991 2744 2081 
Q 2809 2313 2809 2466 
Q 2809 2663 2666 2775 
Q 2469 2931 2091 2931 
Q 1734 2931 1507 2773 
Q 1281 2616 1178 2325 
L 606 2375 
Q 781 2869 1161 3131 
Q 1541 3394 2119 3394 
Q 2734 3394 3094 3100 
Q 3369 2881 3369 2531 
Q 3369 2266 3291 1916 
L 3106 1091 
Q 3019 697 3019 450 
Q 3019 294 3088 0 
L 2516 0 
Q 2469 163 2450 413 
z
M 2659 1681 
Q 2541 1634 2405 1609 
Q 2269 1584 1950 1556 
Q 1456 1513 1253 1445 
Q 1050 1378 947 1231 
Q 844 1084 844 906 
Q 844 669 1008 516 
Q 1172 363 1475 363 
Q 1756 363 2015 511 
Q 2275 659 2425 925 
Q 2575 1191 2659 1681 
z
" transform="scale(0.015625)"/>
      <path id="Arial-ItalicMT-20" transform="scale(0.015625)"/>
      <path id="Arial-ItalicMT-66" d="M 291 0 
L 894 2881 
L 388 2881 
L 478 3319 
L 984 3319 
L 1081 3791 
Q 1156 4144 1236 4300 
Q 1316 4456 1495 4557 
Q 1675 4659 1984 4659 
Q 2200 4659 2609 4569 
L 2506 4075 
Q 2219 4150 2025 4150 
Q 1859 4150 1773 4067 
Q 1688 3984 1625 3675 
L 1550 3319 
L 2181 3319 
L 2091 2881 
L 1459 2881 
L 856 0 
L 291 0 
z
" transform="scale(0.015625)"/>
      <path id="Arial-ItalicMT-72" d="M 213 0 
L 906 3319 
L 1406 3319 
L 1266 2641 
Q 1522 3025 1767 3209 
Q 2013 3394 2269 3394 
Q 2438 3394 2684 3272 
L 2453 2747 
Q 2306 2853 2131 2853 
Q 1834 2853 1521 2522 
Q 1209 2191 1031 1331 
L 750 0 
L 213 0 
z
" transform="scale(0.015625)"/>
      <path id="Arial-ItalicMT-65" d="M 2650 1128 
L 3200 1072 
Q 3081 663 2654 294 
Q 2228 -75 1638 -75 
Q 1269 -75 961 95 
Q 653 266 492 591 
Q 331 916 331 1331 
Q 331 1875 582 2386 
Q 834 2897 1234 3145 
Q 1634 3394 2100 3394 
Q 2694 3394 3048 3025 
Q 3403 2656 3403 2019 
Q 3403 1775 3359 1519 
L 916 1519 
Q 903 1422 903 1344 
Q 903 878 1117 633 
Q 1331 388 1641 388 
Q 1931 388 2212 578 
Q 2494 769 2650 1128 
z
M 1006 1950 
L 2869 1950 
Q 2872 2038 2872 2075 
Q 2872 2500 2659 2726 
Q 2447 2953 2113 2953 
Q 1750 2953 1451 2703 
Q 1153 2453 1006 1950 
z
" transform="scale(0.015625)"/>
     </defs>
     <use xlink:href="#Arial-ItalicMT-63"/>
     <use xlink:href="#Arial-ItalicMT-6f" x="50"/>
     <use xlink:href="#Arial-ItalicMT-6e" x="105.615234"/>
     <use xlink:href="#Arial-ItalicMT-73" x="161.230469"/>
     <use xlink:href="#Arial-ItalicMT-74" x="211.230469"/>
     <use xlink:href="#Arial-ItalicMT-61" x="239.013672"/>
     <use xlink:href="#Arial-ItalicMT-6e" x="294.628906"/>
     <use xlink:href="#Arial-ItalicMT-74" x="350.244141"/>
     <use xlink:href="#Arial-ItalicMT-20" x="378.027344"/>
     <use xlink:href="#Arial-ItalicMT-66" x="405.810547"/>
     <use xlink:href="#Arial-ItalicMT-6f" x="433.59375"/>
     <use xlink:href="#Arial-ItalicMT-72" x="489.208984"/>
     <use xlink:href="#Arial-ItalicMT-63" x="522.509766"/>
     <use xlink:href="#Arial-ItalicMT-65" x="572.509766"/>
    </g>
   </g>
   <g id="legend_1">
    <g id="patch_8">
     <path d="M 522.332266 78.015938 
L 725.126641 78.015938 
Q 727.926641 78.015938 727.926641 75.215937 
L 727.926641 17 
Q 727.926641 14.2 725.126641 14.2 
L 522.332266 14.2 
Q 519.532266 14.2 519.532266 17 
L 519.532266 75.215937 
Q 519.532266 78.015938 522.332266 78.015938 
z
" style="fill: #ffffff; stroke: #000000; stroke-linejoin: miter"/>
    </g>
    <g id="line2d_20">
     <path d="M 525.132266 24.920938 
L 539.132266 24.920938 
L 553.132266 24.920938 
" style="fill: none; stroke: #ff0000; stroke-opacity: 0.5; stroke-width: 1.5; stroke-linecap: round"/>
    </g>
    <g id="text_17">
     <!-- linear -->
     <g style="fill: #262626" transform="translate(564.332266 29.820938)scale(0.14 -0.14)">
      <use xlink:href="#ArialMT-6c"/>
      <use xlink:href="#ArialMT-69" x="22.216797"/>
      <use xlink:href="#ArialMT-6e" x="44.433594"/>
      <use xlink:href="#ArialMT-65" x="100.048828"/>
      <use xlink:href="#ArialMT-61" x="155.664062"/>
      <use xlink:href="#ArialMT-72" x="211.279297"/>
     </g>
    </g>
    <g id="line2d_21">
     <path d="M 525.132266 44.724375 
L 539.132266 44.724375 
L 553.132266 44.724375 
" style="fill: none; stroke: #0000ff; stroke-opacity: 0.5; stroke-width: 1.5; stroke-linecap: round"/>
    </g>
    <g id="text_18">
     <!-- exponential even spacing -->
     <g style="fill: #262626" transform="translate(564.332266 49.624375)scale(0.14 -0.14)">
      <defs>
       <path id="ArialMT-78" d="M 47 0 
L 1259 1725 
L 138 3319 
L 841 3319 
L 1350 2541 
Q 1494 2319 1581 2169 
Q 1719 2375 1834 2534 
L 2394 3319 
L 3066 3319 
L 1919 1756 
L 3153 0 
L 2463 0 
L 1781 1031 
L 1600 1309 
L 728 0 
L 47 0 
z
" transform="scale(0.015625)"/>
       <path id="ArialMT-70" d="M 422 -1272 
L 422 3319 
L 934 3319 
L 934 2888 
Q 1116 3141 1344 3267 
Q 1572 3394 1897 3394 
Q 2322 3394 2647 3175 
Q 2972 2956 3137 2557 
Q 3303 2159 3303 1684 
Q 3303 1175 3120 767 
Q 2938 359 2589 142 
Q 2241 -75 1856 -75 
Q 1575 -75 1351 44 
Q 1128 163 984 344 
L 984 -1272 
L 422 -1272 
z
M 931 1641 
Q 931 1000 1190 694 
Q 1450 388 1819 388 
Q 2194 388 2461 705 
Q 2728 1022 2728 1688 
Q 2728 2322 2467 2637 
Q 2206 2953 1844 2953 
Q 1484 2953 1207 2617 
Q 931 2281 931 1641 
z
" transform="scale(0.015625)"/>
       <path id="ArialMT-63" d="M 2588 1216 
L 3141 1144 
Q 3050 572 2676 248 
Q 2303 -75 1759 -75 
Q 1078 -75 664 370 
Q 250 816 250 1647 
Q 250 2184 428 2587 
Q 606 2991 970 3192 
Q 1334 3394 1763 3394 
Q 2303 3394 2647 3120 
Q 2991 2847 3088 2344 
L 2541 2259 
Q 2463 2594 2264 2762 
Q 2066 2931 1784 2931 
Q 1359 2931 1093 2626 
Q 828 2322 828 1663 
Q 828 994 1084 691 
Q 1341 388 1753 388 
Q 2084 388 2306 591 
Q 2528 794 2588 1216 
z
" transform="scale(0.015625)"/>
      </defs>
      <use xlink:href="#ArialMT-65"/>
      <use xlink:href="#ArialMT-78" x="55.615234"/>
      <use xlink:href="#ArialMT-70" x="105.615234"/>
      <use xlink:href="#ArialMT-6f" x="161.230469"/>
      <use xlink:href="#ArialMT-6e" x="216.845703"/>
      <use xlink:href="#ArialMT-65" x="272.460938"/>
      <use xlink:href="#ArialMT-6e" x="328.076172"/>
      <use xlink:href="#ArialMT-74" x="383.691406"/>
      <use xlink:href="#ArialMT-69" x="411.474609"/>
      <use xlink:href="#ArialMT-61" x="433.691406"/>
      <use xlink:href="#ArialMT-6c" x="489.306641"/>
      <use xlink:href="#ArialMT-20" x="511.523438"/>
      <use xlink:href="#ArialMT-65" x="539.306641"/>
      <use xlink:href="#ArialMT-76" x="594.921875"/>
      <use xlink:href="#ArialMT-65" x="644.921875"/>
      <use xlink:href="#ArialMT-6e" x="700.537109"/>
      <use xlink:href="#ArialMT-20" x="756.152344"/>
      <use xlink:href="#ArialMT-73" x="783.935547"/>
      <use xlink:href="#ArialMT-70" x="833.935547"/>
      <use xlink:href="#ArialMT-61" x="889.550781"/>
      <use xlink:href="#ArialMT-63" x="945.166016"/>
      <use xlink:href="#ArialMT-69" x="995.166016"/>
      <use xlink:href="#ArialMT-6e" x="1017.382812"/>
      <use xlink:href="#ArialMT-67" x="1072.998047"/>
     </g>
    </g>
    <g id="line2d_22">
     <path d="M 525.132266 64.733438 
L 539.132266 64.733438 
L 553.132266 64.733438 
" style="fill: none; stroke: #008000; stroke-opacity: 0.5; stroke-width: 1.5; stroke-linecap: round"/>
    </g>
    <g id="text_19">
     <!-- exponential 0.003 -->
     <g style="fill: #262626" transform="translate(564.332266 69.633438)scale(0.14 -0.14)">
      <defs>
       <path id="ArialMT-2e" d="M 581 0 
L 581 641 
L 1222 641 
L 1222 0 
L 581 0 
z
" transform="scale(0.015625)"/>
       <path id="ArialMT-33" d="M 269 1209 
L 831 1284 
Q 928 806 1161 595 
Q 1394 384 1728 384 
Q 2125 384 2398 659 
Q 2672 934 2672 1341 
Q 2672 1728 2419 1979 
Q 2166 2231 1775 2231 
Q 1616 2231 1378 2169 
L 1441 2663 
Q 1497 2656 1531 2656 
Q 1891 2656 2178 2843 
Q 2466 3031 2466 3422 
Q 2466 3731 2256 3934 
Q 2047 4138 1716 4138 
Q 1388 4138 1169 3931 
Q 950 3725 888 3313 
L 325 3413 
Q 428 3978 793 4289 
Q 1159 4600 1703 4600 
Q 2078 4600 2393 4439 
Q 2709 4278 2876 4000 
Q 3044 3722 3044 3409 
Q 3044 3113 2884 2869 
Q 2725 2625 2413 2481 
Q 2819 2388 3044 2092 
Q 3269 1797 3269 1353 
Q 3269 753 2831 336 
Q 2394 -81 1725 -81 
Q 1122 -81 723 278 
Q 325 638 269 1209 
z
" transform="scale(0.015625)"/>
      </defs>
      <use xlink:href="#ArialMT-65"/>
      <use xlink:href="#ArialMT-78" x="55.615234"/>
      <use xlink:href="#ArialMT-70" x="105.615234"/>
      <use xlink:href="#ArialMT-6f" x="161.230469"/>
      <use xlink:href="#ArialMT-6e" x="216.845703"/>
      <use xlink:href="#ArialMT-65" x="272.460938"/>
      <use xlink:href="#ArialMT-6e" x="328.076172"/>
      <use xlink:href="#ArialMT-74" x="383.691406"/>
      <use xlink:href="#ArialMT-69" x="411.474609"/>
      <use xlink:href="#ArialMT-61" x="433.691406"/>
      <use xlink:href="#ArialMT-6c" x="489.306641"/>
      <use xlink:href="#ArialMT-20" x="511.523438"/>
      <use xlink:href="#ArialMT-30" x="539.306641"/>
      <use xlink:href="#ArialMT-2e" x="594.921875"/>
      <use xlink:href="#ArialMT-30" x="622.705078"/>
      <use xlink:href="#ArialMT-30" x="678.320312"/>
      <use xlink:href="#ArialMT-33" x="733.935547"/>
     </g>
    </g>
   </g>
  </g>
 </g>
 <defs>
  <clipPath id="pddc7dc422a">
   <rect x="65.326641" y="7.2" width="669.6" height="434.88"/>
  </clipPath>
 </defs>
</svg>
