<?xml version="1.0" encoding="utf-8" standalone="no"?>
<!DOCTYPE svg PUBLIC "-//W3C//DTD SVG 1.1//EN"
  "http://www.w3.org/Graphics/SVG/1.1/DTD/svg11.dtd">
<svg xmlns:xlink="http://www.w3.org/1999/xlink" width="759.501563pt" height="494.331328pt" viewBox="0 0 759.501563 494.331328" xmlns="http://www.w3.org/2000/svg" version="1.1">
 <metadata>
  <rdf:RDF xmlns:dc="http://purl.org/dc/elements/1.1/" xmlns:cc="http://creativecommons.org/ns#" xmlns:rdf="http://www.w3.org/1999/02/22-rdf-syntax-ns#">
   <cc:Work>
    <dc:type rdf:resource="http://purl.org/dc/dcmitype/StillImage"/>
    <dc:date>2022-12-17T11:20:32.832969</dc:date>
    <dc:format>image/svg+xml</dc:format>
    <dc:creator>
     <cc:Agent>
      <dc:title>Matplotlib v3.5.2, https://matplotlib.org/</dc:title>
     </cc:Agent>
    </dc:creator>
   </cc:Work>
  </rdf:RDF>
 </metadata>
 <defs>
  <style type="text/css">*{stroke-linejoin: round; stroke-linecap: butt}</style>
 </defs>
 <g id="figure_1">
  <g id="patch_1">
   <path d="M 0 494.331328 
L 759.501563 494.331328 
L 759.501563 0 
L 0 0 
z
" style="fill: #ffffff"/>
  </g>
  <g id="axes_1">
   <g id="patch_2">
    <path d="M 82.701563 442.08 
L 752.301563 442.08 
L 752.301563 7.2 
L 82.701563 7.2 
z
" style="fill: #ffffff"/>
   </g>
   <g id="matplotlib.axis_1">
    <g id="xtick_1">
     <g id="line2d_1">
      <path d="M 113.137926 442.08 
L 113.137926 7.2 
" clip-path="url(#p3d80b92740)" style="fill: none; stroke: #cccccc; stroke-linecap: round"/>
     </g>
     <g id="text_1">
      <!-- 0 -->
      <g style="fill: #262626" transform="translate(108.550153 463.390391)scale(0.165 -0.165)">
       <defs>
        <path id="ArialMT-30" d="M 266 2259 
Q 266 3072 433 3567 
Q 600 4063 929 4331 
Q 1259 4600 1759 4600 
Q 2128 4600 2406 4451 
Q 2684 4303 2865 4023 
Q 3047 3744 3150 3342 
Q 3253 2941 3253 2259 
Q 3253 1453 3087 958 
Q 2922 463 2592 192 
Q 2263 -78 1759 -78 
Q 1097 -78 719 397 
Q 266 969 266 2259 
z
M 844 2259 
Q 844 1131 1108 757 
Q 1372 384 1759 384 
Q 2147 384 2411 759 
Q 2675 1134 2675 2259 
Q 2675 3391 2411 3762 
Q 2147 4134 1753 4134 
Q 1366 4134 1134 3806 
Q 844 3388 844 2259 
z
" transform="scale(0.015625)"/>
       </defs>
       <use xlink:href="#ArialMT-30"/>
      </g>
     </g>
    </g>
    <g id="xtick_2">
     <g id="line2d_2">
      <path d="M 214.609384 442.08 
L 214.609384 7.2 
" clip-path="url(#p3d80b92740)" style="fill: none; stroke: #cccccc; stroke-linecap: round"/>
     </g>
     <g id="text_2">
      <!-- 2000 -->
      <g style="fill: #262626" transform="translate(196.25829 463.390391)scale(0.165 -0.165)">
       <defs>
        <path id="ArialMT-32" d="M 3222 541 
L 3222 0 
L 194 0 
Q 188 203 259 391 
Q 375 700 629 1000 
Q 884 1300 1366 1694 
Q 2113 2306 2375 2664 
Q 2638 3022 2638 3341 
Q 2638 3675 2398 3904 
Q 2159 4134 1775 4134 
Q 1369 4134 1125 3890 
Q 881 3647 878 3216 
L 300 3275 
Q 359 3922 746 4261 
Q 1134 4600 1788 4600 
Q 2447 4600 2831 4234 
Q 3216 3869 3216 3328 
Q 3216 3053 3103 2787 
Q 2991 2522 2730 2228 
Q 2469 1934 1863 1422 
Q 1356 997 1212 845 
Q 1069 694 975 541 
L 3222 541 
z
" transform="scale(0.015625)"/>
       </defs>
       <use xlink:href="#ArialMT-32"/>
       <use xlink:href="#ArialMT-30" x="55.615234"/>
       <use xlink:href="#ArialMT-30" x="111.230469"/>
       <use xlink:href="#ArialMT-30" x="166.845703"/>
      </g>
     </g>
    </g>
    <g id="xtick_3">
     <g id="line2d_3">
      <path d="M 316.080841 442.08 
L 316.080841 7.2 
" clip-path="url(#p3d80b92740)" style="fill: none; stroke: #cccccc; stroke-linecap: round"/>
     </g>
     <g id="text_3">
      <!-- 4000 -->
      <g style="fill: #262626" transform="translate(297.729747 463.390391)scale(0.165 -0.165)">
       <defs>
        <path id="ArialMT-34" d="M 2069 0 
L 2069 1097 
L 81 1097 
L 81 1613 
L 2172 4581 
L 2631 4581 
L 2631 1613 
L 3250 1613 
L 3250 1097 
L 2631 1097 
L 2631 0 
L 2069 0 
z
M 2069 1613 
L 2069 3678 
L 634 1613 
L 2069 1613 
z
" transform="scale(0.015625)"/>
       </defs>
       <use xlink:href="#ArialMT-34"/>
       <use xlink:href="#ArialMT-30" x="55.615234"/>
       <use xlink:href="#ArialMT-30" x="111.230469"/>
       <use xlink:href="#ArialMT-30" x="166.845703"/>
      </g>
     </g>
    </g>
    <g id="xtick_4">
     <g id="line2d_4">
      <path d="M 417.552298 442.08 
L 417.552298 7.2 
" clip-path="url(#p3d80b92740)" style="fill: none; stroke: #cccccc; stroke-linecap: round"/>
     </g>
     <g id="text_4">
      <!-- 6000 -->
      <g style="fill: #262626" transform="translate(399.201204 463.390391)scale(0.165 -0.165)">
       <defs>
        <path id="ArialMT-36" d="M 3184 3459 
L 2625 3416 
Q 2550 3747 2413 3897 
Q 2184 4138 1850 4138 
Q 1581 4138 1378 3988 
Q 1113 3794 959 3422 
Q 806 3050 800 2363 
Q 1003 2672 1297 2822 
Q 1591 2972 1913 2972 
Q 2475 2972 2870 2558 
Q 3266 2144 3266 1488 
Q 3266 1056 3080 686 
Q 2894 316 2569 119 
Q 2244 -78 1831 -78 
Q 1128 -78 684 439 
Q 241 956 241 2144 
Q 241 3472 731 4075 
Q 1159 4600 1884 4600 
Q 2425 4600 2770 4297 
Q 3116 3994 3184 3459 
z
M 888 1484 
Q 888 1194 1011 928 
Q 1134 663 1356 523 
Q 1578 384 1822 384 
Q 2178 384 2434 671 
Q 2691 959 2691 1453 
Q 2691 1928 2437 2201 
Q 2184 2475 1800 2475 
Q 1419 2475 1153 2201 
Q 888 1928 888 1484 
z
" transform="scale(0.015625)"/>
       </defs>
       <use xlink:href="#ArialMT-36"/>
       <use xlink:href="#ArialMT-30" x="55.615234"/>
       <use xlink:href="#ArialMT-30" x="111.230469"/>
       <use xlink:href="#ArialMT-30" x="166.845703"/>
      </g>
     </g>
    </g>
    <g id="xtick_5">
     <g id="line2d_5">
      <path d="M 519.023756 442.08 
L 519.023756 7.2 
" clip-path="url(#p3d80b92740)" style="fill: none; stroke: #cccccc; stroke-linecap: round"/>
     </g>
     <g id="text_5">
      <!-- 8000 -->
      <g style="fill: #262626" transform="translate(500.672662 463.390391)scale(0.165 -0.165)">
       <defs>
        <path id="ArialMT-38" d="M 1131 2484 
Q 781 2613 612 2850 
Q 444 3088 444 3419 
Q 444 3919 803 4259 
Q 1163 4600 1759 4600 
Q 2359 4600 2725 4251 
Q 3091 3903 3091 3403 
Q 3091 3084 2923 2848 
Q 2756 2613 2416 2484 
Q 2838 2347 3058 2040 
Q 3278 1734 3278 1309 
Q 3278 722 2862 322 
Q 2447 -78 1769 -78 
Q 1091 -78 675 323 
Q 259 725 259 1325 
Q 259 1772 486 2073 
Q 713 2375 1131 2484 
z
M 1019 3438 
Q 1019 3113 1228 2906 
Q 1438 2700 1772 2700 
Q 2097 2700 2305 2904 
Q 2513 3109 2513 3406 
Q 2513 3716 2298 3927 
Q 2084 4138 1766 4138 
Q 1444 4138 1231 3931 
Q 1019 3725 1019 3438 
z
M 838 1322 
Q 838 1081 952 856 
Q 1066 631 1291 507 
Q 1516 384 1775 384 
Q 2178 384 2440 643 
Q 2703 903 2703 1303 
Q 2703 1709 2433 1975 
Q 2163 2241 1756 2241 
Q 1359 2241 1098 1978 
Q 838 1716 838 1322 
z
" transform="scale(0.015625)"/>
       </defs>
       <use xlink:href="#ArialMT-38"/>
       <use xlink:href="#ArialMT-30" x="55.615234"/>
       <use xlink:href="#ArialMT-30" x="111.230469"/>
       <use xlink:href="#ArialMT-30" x="166.845703"/>
      </g>
     </g>
    </g>
    <g id="xtick_6">
     <g id="line2d_6">
      <path d="M 620.495213 442.08 
L 620.495213 7.2 
" clip-path="url(#p3d80b92740)" style="fill: none; stroke: #cccccc; stroke-linecap: round"/>
     </g>
     <g id="text_6">
      <!-- 10000 -->
      <g style="fill: #262626" transform="translate(597.556346 463.390391)scale(0.165 -0.165)">
       <defs>
        <path id="ArialMT-31" d="M 2384 0 
L 1822 0 
L 1822 3584 
Q 1619 3391 1289 3197 
Q 959 3003 697 2906 
L 697 3450 
Q 1169 3672 1522 3987 
Q 1875 4303 2022 4600 
L 2384 4600 
L 2384 0 
z
" transform="scale(0.015625)"/>
       </defs>
       <use xlink:href="#ArialMT-31"/>
       <use xlink:href="#ArialMT-30" x="55.615234"/>
       <use xlink:href="#ArialMT-30" x="111.230469"/>
       <use xlink:href="#ArialMT-30" x="166.845703"/>
       <use xlink:href="#ArialMT-30" x="222.460938"/>
      </g>
     </g>
    </g>
    <g id="xtick_7">
     <g id="line2d_7">
      <path d="M 721.96667 442.08 
L 721.96667 7.2 
" clip-path="url(#p3d80b92740)" style="fill: none; stroke: #cccccc; stroke-linecap: round"/>
     </g>
     <g id="text_7">
      <!-- 12000 -->
      <g style="fill: #262626" transform="translate(699.027803 463.390391)scale(0.165 -0.165)">
       <use xlink:href="#ArialMT-31"/>
       <use xlink:href="#ArialMT-32" x="55.615234"/>
       <use xlink:href="#ArialMT-30" x="111.230469"/>
       <use xlink:href="#ArialMT-30" x="166.845703"/>
       <use xlink:href="#ArialMT-30" x="222.460938"/>
      </g>
     </g>
    </g>
    <g id="text_8">
     <!-- Evaluations -->
     <g style="fill: #262626" transform="translate(370.974375 483.553828)scale(0.18 -0.18)">
      <defs>
       <path id="ArialMT-45" d="M 506 0 
L 506 4581 
L 3819 4581 
L 3819 4041 
L 1113 4041 
L 1113 2638 
L 3647 2638 
L 3647 2100 
L 1113 2100 
L 1113 541 
L 3925 541 
L 3925 0 
L 506 0 
z
" transform="scale(0.015625)"/>
       <path id="ArialMT-76" d="M 1344 0 
L 81 3319 
L 675 3319 
L 1388 1331 
Q 1503 1009 1600 663 
Q 1675 925 1809 1294 
L 2547 3319 
L 3125 3319 
L 1869 0 
L 1344 0 
z
" transform="scale(0.015625)"/>
       <path id="ArialMT-61" d="M 2588 409 
Q 2275 144 1986 34 
Q 1697 -75 1366 -75 
Q 819 -75 525 192 
Q 231 459 231 875 
Q 231 1119 342 1320 
Q 453 1522 633 1644 
Q 813 1766 1038 1828 
Q 1203 1872 1538 1913 
Q 2219 1994 2541 2106 
Q 2544 2222 2544 2253 
Q 2544 2597 2384 2738 
Q 2169 2928 1744 2928 
Q 1347 2928 1158 2789 
Q 969 2650 878 2297 
L 328 2372 
Q 403 2725 575 2942 
Q 747 3159 1072 3276 
Q 1397 3394 1825 3394 
Q 2250 3394 2515 3294 
Q 2781 3194 2906 3042 
Q 3031 2891 3081 2659 
Q 3109 2516 3109 2141 
L 3109 1391 
Q 3109 606 3145 398 
Q 3181 191 3288 0 
L 2700 0 
Q 2613 175 2588 409 
z
M 2541 1666 
Q 2234 1541 1622 1453 
Q 1275 1403 1131 1340 
Q 988 1278 909 1158 
Q 831 1038 831 891 
Q 831 666 1001 516 
Q 1172 366 1500 366 
Q 1825 366 2078 508 
Q 2331 650 2450 897 
Q 2541 1088 2541 1459 
L 2541 1666 
z
" transform="scale(0.015625)"/>
       <path id="ArialMT-6c" d="M 409 0 
L 409 4581 
L 972 4581 
L 972 0 
L 409 0 
z
" transform="scale(0.015625)"/>
       <path id="ArialMT-75" d="M 2597 0 
L 2597 488 
Q 2209 -75 1544 -75 
Q 1250 -75 995 37 
Q 741 150 617 320 
Q 494 491 444 738 
Q 409 903 409 1263 
L 409 3319 
L 972 3319 
L 972 1478 
Q 972 1038 1006 884 
Q 1059 663 1231 536 
Q 1403 409 1656 409 
Q 1909 409 2131 539 
Q 2353 669 2445 892 
Q 2538 1116 2538 1541 
L 2538 3319 
L 3100 3319 
L 3100 0 
L 2597 0 
z
" transform="scale(0.015625)"/>
       <path id="ArialMT-74" d="M 1650 503 
L 1731 6 
Q 1494 -44 1306 -44 
Q 1000 -44 831 53 
Q 663 150 594 308 
Q 525 466 525 972 
L 525 2881 
L 113 2881 
L 113 3319 
L 525 3319 
L 525 4141 
L 1084 4478 
L 1084 3319 
L 1650 3319 
L 1650 2881 
L 1084 2881 
L 1084 941 
Q 1084 700 1114 631 
Q 1144 563 1211 522 
Q 1278 481 1403 481 
Q 1497 481 1650 503 
z
" transform="scale(0.015625)"/>
       <path id="ArialMT-69" d="M 425 3934 
L 425 4581 
L 988 4581 
L 988 3934 
L 425 3934 
z
M 425 0 
L 425 3319 
L 988 3319 
L 988 0 
L 425 0 
z
" transform="scale(0.015625)"/>
       <path id="ArialMT-6f" d="M 213 1659 
Q 213 2581 725 3025 
Q 1153 3394 1769 3394 
Q 2453 3394 2887 2945 
Q 3322 2497 3322 1706 
Q 3322 1066 3130 698 
Q 2938 331 2570 128 
Q 2203 -75 1769 -75 
Q 1072 -75 642 372 
Q 213 819 213 1659 
z
M 791 1659 
Q 791 1022 1069 705 
Q 1347 388 1769 388 
Q 2188 388 2466 706 
Q 2744 1025 2744 1678 
Q 2744 2294 2464 2611 
Q 2184 2928 1769 2928 
Q 1347 2928 1069 2612 
Q 791 2297 791 1659 
z
" transform="scale(0.015625)"/>
       <path id="ArialMT-6e" d="M 422 0 
L 422 3319 
L 928 3319 
L 928 2847 
Q 1294 3394 1984 3394 
Q 2284 3394 2536 3286 
Q 2788 3178 2913 3003 
Q 3038 2828 3088 2588 
Q 3119 2431 3119 2041 
L 3119 0 
L 2556 0 
L 2556 2019 
Q 2556 2363 2490 2533 
Q 2425 2703 2258 2804 
Q 2091 2906 1866 2906 
Q 1506 2906 1245 2678 
Q 984 2450 984 1813 
L 984 0 
L 422 0 
z
" transform="scale(0.015625)"/>
       <path id="ArialMT-73" d="M 197 991 
L 753 1078 
Q 800 744 1014 566 
Q 1228 388 1613 388 
Q 2000 388 2187 545 
Q 2375 703 2375 916 
Q 2375 1106 2209 1216 
Q 2094 1291 1634 1406 
Q 1016 1563 777 1677 
Q 538 1791 414 1992 
Q 291 2194 291 2438 
Q 291 2659 392 2848 
Q 494 3038 669 3163 
Q 800 3259 1026 3326 
Q 1253 3394 1513 3394 
Q 1903 3394 2198 3281 
Q 2494 3169 2634 2976 
Q 2775 2784 2828 2463 
L 2278 2388 
Q 2241 2644 2061 2787 
Q 1881 2931 1553 2931 
Q 1166 2931 1000 2803 
Q 834 2675 834 2503 
Q 834 2394 903 2306 
Q 972 2216 1119 2156 
Q 1203 2125 1616 2013 
Q 2213 1853 2448 1751 
Q 2684 1650 2818 1456 
Q 2953 1263 2953 975 
Q 2953 694 2789 445 
Q 2625 197 2315 61 
Q 2006 -75 1616 -75 
Q 969 -75 630 194 
Q 291 463 197 991 
z
" transform="scale(0.015625)"/>
      </defs>
      <use xlink:href="#ArialMT-45"/>
      <use xlink:href="#ArialMT-76" x="66.699219"/>
      <use xlink:href="#ArialMT-61" x="116.699219"/>
      <use xlink:href="#ArialMT-6c" x="172.314453"/>
      <use xlink:href="#ArialMT-75" x="194.53125"/>
      <use xlink:href="#ArialMT-61" x="250.146484"/>
      <use xlink:href="#ArialMT-74" x="305.761719"/>
      <use xlink:href="#ArialMT-69" x="333.544922"/>
      <use xlink:href="#ArialMT-6f" x="355.761719"/>
      <use xlink:href="#ArialMT-6e" x="411.376953"/>
      <use xlink:href="#ArialMT-73" x="466.992188"/>
     </g>
    </g>
   </g>
   <g id="matplotlib.axis_2">
    <g id="ytick_1">
     <g id="line2d_8">
      <path d="M 82.701563 393.476621 
L 752.301563 393.476621 
" clip-path="url(#p3d80b92740)" style="fill: none; stroke: #cccccc; stroke-linecap: round"/>
     </g>
     <g id="text_9">
      <!-- $\mathdefault{10^{-273}}$ -->
      <g style="fill: #262626" transform="translate(27.661563 401.984433)scale(0.165 -0.165)">
       <defs>
        <path id="ArialMT-2212" d="M 3381 1997 
L 356 1997 
L 356 2522 
L 3381 2522 
L 3381 1997 
z
" transform="scale(0.015625)"/>
        <path id="ArialMT-37" d="M 303 3981 
L 303 4522 
L 3269 4522 
L 3269 4084 
Q 2831 3619 2401 2847 
Q 1972 2075 1738 1259 
Q 1569 684 1522 0 
L 944 0 
Q 953 541 1156 1306 
Q 1359 2072 1739 2783 
Q 2119 3494 2547 3981 
L 303 3981 
z
" transform="scale(0.015625)"/>
        <path id="ArialMT-33" d="M 269 1209 
L 831 1284 
Q 928 806 1161 595 
Q 1394 384 1728 384 
Q 2125 384 2398 659 
Q 2672 934 2672 1341 
Q 2672 1728 2419 1979 
Q 2166 2231 1775 2231 
Q 1616 2231 1378 2169 
L 1441 2663 
Q 1497 2656 1531 2656 
Q 1891 2656 2178 2843 
Q 2466 3031 2466 3422 
Q 2466 3731 2256 3934 
Q 2047 4138 1716 4138 
Q 1388 4138 1169 3931 
Q 950 3725 888 3313 
L 325 3413 
Q 428 3978 793 4289 
Q 1159 4600 1703 4600 
Q 2078 4600 2393 4439 
Q 2709 4278 2876 4000 
Q 3044 3722 3044 3409 
Q 3044 3113 2884 2869 
Q 2725 2625 2413 2481 
Q 2819 2388 3044 2092 
Q 3269 1797 3269 1353 
Q 3269 753 2831 336 
Q 2394 -81 1725 -81 
Q 1122 -81 723 278 
Q 325 638 269 1209 
z
" transform="scale(0.015625)"/>
       </defs>
       <use xlink:href="#ArialMT-31" transform="translate(0 0.99375)"/>
       <use xlink:href="#ArialMT-30" transform="translate(55.615234 0.99375)"/>
       <use xlink:href="#ArialMT-2212" transform="translate(112.972813 70.6875)scale(0.7)"/>
       <use xlink:href="#ArialMT-32" transform="translate(153.851719 70.6875)scale(0.7)"/>
       <use xlink:href="#ArialMT-37" transform="translate(192.782383 70.6875)scale(0.7)"/>
       <use xlink:href="#ArialMT-33" transform="translate(231.713047 70.6875)scale(0.7)"/>
      </g>
     </g>
    </g>
    <g id="ytick_2">
     <g id="line2d_9">
      <path d="M 82.701563 343.928825 
L 752.301563 343.928825 
" clip-path="url(#p3d80b92740)" style="fill: none; stroke: #cccccc; stroke-linecap: round"/>
     </g>
     <g id="text_10">
      <!-- $\mathdefault{10^{-236}}$ -->
      <g style="fill: #262626" transform="translate(27.661563 352.436637)scale(0.165 -0.165)">
       <use xlink:href="#ArialMT-31" transform="translate(0 0.99375)"/>
       <use xlink:href="#ArialMT-30" transform="translate(55.615234 0.99375)"/>
       <use xlink:href="#ArialMT-2212" transform="translate(112.972813 70.6875)scale(0.7)"/>
       <use xlink:href="#ArialMT-32" transform="translate(153.851719 70.6875)scale(0.7)"/>
       <use xlink:href="#ArialMT-33" transform="translate(192.782383 70.6875)scale(0.7)"/>
       <use xlink:href="#ArialMT-36" transform="translate(231.713047 70.6875)scale(0.7)"/>
      </g>
     </g>
    </g>
    <g id="ytick_3">
     <g id="line2d_10">
      <path d="M 82.701563 294.381029 
L 752.301563 294.381029 
" clip-path="url(#p3d80b92740)" style="fill: none; stroke: #cccccc; stroke-linecap: round"/>
     </g>
     <g id="text_11">
      <!-- $\mathdefault{10^{-199}}$ -->
      <g style="fill: #262626" transform="translate(27.661563 302.888841)scale(0.165 -0.165)">
       <defs>
        <path id="ArialMT-39" d="M 350 1059 
L 891 1109 
Q 959 728 1153 556 
Q 1347 384 1650 384 
Q 1909 384 2104 503 
Q 2300 622 2425 820 
Q 2550 1019 2634 1356 
Q 2719 1694 2719 2044 
Q 2719 2081 2716 2156 
Q 2547 1888 2255 1720 
Q 1963 1553 1622 1553 
Q 1053 1553 659 1965 
Q 266 2378 266 3053 
Q 266 3750 677 4175 
Q 1088 4600 1706 4600 
Q 2153 4600 2523 4359 
Q 2894 4119 3086 3673 
Q 3278 3228 3278 2384 
Q 3278 1506 3087 986 
Q 2897 466 2520 194 
Q 2144 -78 1638 -78 
Q 1100 -78 759 220 
Q 419 519 350 1059 
z
M 2653 3081 
Q 2653 3566 2395 3850 
Q 2138 4134 1775 4134 
Q 1400 4134 1122 3828 
Q 844 3522 844 3034 
Q 844 2597 1108 2323 
Q 1372 2050 1759 2050 
Q 2150 2050 2401 2323 
Q 2653 2597 2653 3081 
z
" transform="scale(0.015625)"/>
       </defs>
       <use xlink:href="#ArialMT-31" transform="translate(0 0.99375)"/>
       <use xlink:href="#ArialMT-30" transform="translate(55.615234 0.99375)"/>
       <use xlink:href="#ArialMT-2212" transform="translate(112.972813 70.6875)scale(0.7)"/>
       <use xlink:href="#ArialMT-31" transform="translate(153.851719 70.6875)scale(0.7)"/>
       <use xlink:href="#ArialMT-39" transform="translate(192.782383 70.6875)scale(0.7)"/>
       <use xlink:href="#ArialMT-39" transform="translate(231.713047 70.6875)scale(0.7)"/>
      </g>
     </g>
    </g>
    <g id="ytick_4">
     <g id="line2d_11">
      <path d="M 82.701563 244.833233 
L 752.301563 244.833233 
" clip-path="url(#p3d80b92740)" style="fill: none; stroke: #cccccc; stroke-linecap: round"/>
     </g>
     <g id="text_12">
      <!-- $\mathdefault{10^{-162}}$ -->
      <g style="fill: #262626" transform="translate(27.661563 253.341045)scale(0.165 -0.165)">
       <use xlink:href="#ArialMT-31" transform="translate(0 0.99375)"/>
       <use xlink:href="#ArialMT-30" transform="translate(55.615234 0.99375)"/>
       <use xlink:href="#ArialMT-2212" transform="translate(112.972813 70.6875)scale(0.7)"/>
       <use xlink:href="#ArialMT-31" transform="translate(153.851719 70.6875)scale(0.7)"/>
       <use xlink:href="#ArialMT-36" transform="translate(192.782383 70.6875)scale(0.7)"/>
       <use xlink:href="#ArialMT-32" transform="translate(231.713047 70.6875)scale(0.7)"/>
      </g>
     </g>
    </g>
    <g id="ytick_5">
     <g id="line2d_12">
      <path d="M 82.701563 195.285437 
L 752.301563 195.285437 
" clip-path="url(#p3d80b92740)" style="fill: none; stroke: #cccccc; stroke-linecap: round"/>
     </g>
     <g id="text_13">
      <!-- $\mathdefault{10^{-125}}$ -->
      <g style="fill: #262626" transform="translate(27.661563 203.793249)scale(0.165 -0.165)">
       <defs>
        <path id="ArialMT-35" d="M 266 1200 
L 856 1250 
Q 922 819 1161 601 
Q 1400 384 1738 384 
Q 2144 384 2425 690 
Q 2706 997 2706 1503 
Q 2706 1984 2436 2262 
Q 2166 2541 1728 2541 
Q 1456 2541 1237 2417 
Q 1019 2294 894 2097 
L 366 2166 
L 809 4519 
L 3088 4519 
L 3088 3981 
L 1259 3981 
L 1013 2750 
Q 1425 3038 1878 3038 
Q 2478 3038 2890 2622 
Q 3303 2206 3303 1553 
Q 3303 931 2941 478 
Q 2500 -78 1738 -78 
Q 1113 -78 717 272 
Q 322 622 266 1200 
z
" transform="scale(0.015625)"/>
       </defs>
       <use xlink:href="#ArialMT-31" transform="translate(0 0.99375)"/>
       <use xlink:href="#ArialMT-30" transform="translate(55.615234 0.99375)"/>
       <use xlink:href="#ArialMT-2212" transform="translate(112.972813 70.6875)scale(0.7)"/>
       <use xlink:href="#ArialMT-31" transform="translate(153.851719 70.6875)scale(0.7)"/>
       <use xlink:href="#ArialMT-32" transform="translate(192.782383 70.6875)scale(0.7)"/>
       <use xlink:href="#ArialMT-35" transform="translate(231.713047 70.6875)scale(0.7)"/>
      </g>
     </g>
    </g>
    <g id="ytick_6">
     <g id="line2d_13">
      <path d="M 82.701563 145.737641 
L 752.301563 145.737641 
" clip-path="url(#p3d80b92740)" style="fill: none; stroke: #cccccc; stroke-linecap: round"/>
     </g>
     <g id="text_14">
      <!-- $\mathdefault{10^{-88}}$ -->
      <g style="fill: #262626" transform="translate(34.096563 154.245453)scale(0.165 -0.165)">
       <use xlink:href="#ArialMT-31" transform="translate(0 0.99375)"/>
       <use xlink:href="#ArialMT-30" transform="translate(55.615234 0.99375)"/>
       <use xlink:href="#ArialMT-2212" transform="translate(112.972813 70.6875)scale(0.7)"/>
       <use xlink:href="#ArialMT-38" transform="translate(153.851719 70.6875)scale(0.7)"/>
       <use xlink:href="#ArialMT-38" transform="translate(192.782383 70.6875)scale(0.7)"/>
      </g>
     </g>
    </g>
    <g id="ytick_7">
     <g id="line2d_14">
      <path d="M 82.701563 96.189845 
L 752.301563 96.189845 
" clip-path="url(#p3d80b92740)" style="fill: none; stroke: #cccccc; stroke-linecap: round"/>
     </g>
     <g id="text_15">
      <!-- $\mathdefault{10^{-51}}$ -->
      <g style="fill: #262626" transform="translate(34.096563 104.697657)scale(0.165 -0.165)">
       <use xlink:href="#ArialMT-31" transform="translate(0 0.99375)"/>
       <use xlink:href="#ArialMT-30" transform="translate(55.615234 0.99375)"/>
       <use xlink:href="#ArialMT-2212" transform="translate(112.972813 70.6875)scale(0.7)"/>
       <use xlink:href="#ArialMT-35" transform="translate(153.851719 70.6875)scale(0.7)"/>
       <use xlink:href="#ArialMT-31" transform="translate(192.782383 70.6875)scale(0.7)"/>
      </g>
     </g>
    </g>
    <g id="ytick_8">
     <g id="line2d_15">
      <path d="M 82.701563 46.642049 
L 752.301563 46.642049 
" clip-path="url(#p3d80b92740)" style="fill: none; stroke: #cccccc; stroke-linecap: round"/>
     </g>
     <g id="text_16">
      <!-- $\mathdefault{10^{-14}}$ -->
      <g style="fill: #262626" transform="translate(34.096563 55.149861)scale(0.165 -0.165)">
       <use xlink:href="#ArialMT-31" transform="translate(0 0.99375)"/>
       <use xlink:href="#ArialMT-30" transform="translate(55.615234 0.99375)"/>
       <use xlink:href="#ArialMT-2212" transform="translate(112.972813 70.6875)scale(0.7)"/>
       <use xlink:href="#ArialMT-31" transform="translate(153.851719 70.6875)scale(0.7)"/>
       <use xlink:href="#ArialMT-34" transform="translate(192.782383 70.6875)scale(0.7)"/>
      </g>
     </g>
    </g>
    <g id="text_17">
     <!-- p-value -->
     <g style="fill: #262626" transform="translate(20.084063 254.155781)rotate(-90)scale(0.18 -0.18)">
      <defs>
       <path id="ArialMT-70" d="M 422 -1272 
L 422 3319 
L 934 3319 
L 934 2888 
Q 1116 3141 1344 3267 
Q 1572 3394 1897 3394 
Q 2322 3394 2647 3175 
Q 2972 2956 3137 2557 
Q 3303 2159 3303 1684 
Q 3303 1175 3120 767 
Q 2938 359 2589 142 
Q 2241 -75 1856 -75 
Q 1575 -75 1351 44 
Q 1128 163 984 344 
L 984 -1272 
L 422 -1272 
z
M 931 1641 
Q 931 1000 1190 694 
Q 1450 388 1819 388 
Q 2194 388 2461 705 
Q 2728 1022 2728 1688 
Q 2728 2322 2467 2637 
Q 2206 2953 1844 2953 
Q 1484 2953 1207 2617 
Q 931 2281 931 1641 
z
" transform="scale(0.015625)"/>
       <path id="ArialMT-2d" d="M 203 1375 
L 203 1941 
L 1931 1941 
L 1931 1375 
L 203 1375 
z
" transform="scale(0.015625)"/>
       <path id="ArialMT-65" d="M 2694 1069 
L 3275 997 
Q 3138 488 2766 206 
Q 2394 -75 1816 -75 
Q 1088 -75 661 373 
Q 234 822 234 1631 
Q 234 2469 665 2931 
Q 1097 3394 1784 3394 
Q 2450 3394 2872 2941 
Q 3294 2488 3294 1666 
Q 3294 1616 3291 1516 
L 816 1516 
Q 847 969 1125 678 
Q 1403 388 1819 388 
Q 2128 388 2347 550 
Q 2566 713 2694 1069 
z
M 847 1978 
L 2700 1978 
Q 2663 2397 2488 2606 
Q 2219 2931 1791 2931 
Q 1403 2931 1139 2672 
Q 875 2413 847 1978 
z
" transform="scale(0.015625)"/>
      </defs>
      <use xlink:href="#ArialMT-70"/>
      <use xlink:href="#ArialMT-2d" x="55.615234"/>
      <use xlink:href="#ArialMT-76" x="88.916016"/>
      <use xlink:href="#ArialMT-61" x="138.916016"/>
      <use xlink:href="#ArialMT-6c" x="194.53125"/>
      <use xlink:href="#ArialMT-75" x="216.748047"/>
      <use xlink:href="#ArialMT-65" x="272.363281"/>
     </g>
    </g>
   </g>
   <g id="PolyCollection_1"/>
   <g id="PolyCollection_2"/>
   <g id="PolyCollection_3"/>
   <g id="line2d_16">
    <path d="M 113.137926 92.713276 
L 113.340869 135.59668 
L 113.493076 194.205212 
L 113.696019 31.803773 
L 113.746755 31.447408 
L 114.000434 144.402899 
L 114.101905 57.038309 
L 114.152641 69.84196 
L 114.254112 57.635452 
L 114.304848 72.104597 
L 114.355584 59.819593 
L 114.406319 54.924426 
L 114.659998 104.255956 
L 114.710734 194.455161 
L 114.761469 148.864169 
L 114.964412 52.717853 
L 115.015148 55.097935 
L 115.11662 80.815237 
L 115.268827 181.801369 
L 115.319562 158.225031 
L 115.47177 75.549409 
L 115.623977 220.476795 
L 115.674713 209.795019 
L 115.82692 95.171572 
L 115.877655 109.183632 
L 115.928391 70.151898 
L 115.979127 147.732864 
L 116.029863 126.72168 
L 116.334277 28.127855 
L 116.385013 29.296139 
L 116.435749 33.649629 
L 116.486484 66.933589 
L 116.53722 38.26685 
L 116.689427 29.41955 
L 116.740163 27.908936 
L 116.790899 28.041431 
L 117.044577 44.855589 
L 117.095313 34.430729 
L 117.146049 46.616391 
L 117.298256 92.53996 
L 117.348992 30.593233 
L 117.450463 34.199119 
L 117.501199 28.596812 
L 117.551935 34.301005 
L 117.653406 35.55524 
L 117.754877 47.224615 
L 117.805613 37.660278 
L 117.856349 39.325628 
L 118.008556 68.246639 
L 118.059292 87.330899 
L 118.110028 43.495651 
L 118.211499 44.10316 
L 118.262235 39.675995 
L 118.31297 51.850586 
L 118.363706 43.608848 
L 118.465178 58.625417 
L 118.515913 78.024228 
L 118.566649 144.66647 
L 118.668121 35.152544 
L 118.718856 64.115471 
L 118.871063 120.792997 
L 119.124742 41.108203 
L 119.175478 42.398567 
L 119.226214 42.141605 
L 119.327685 29.002517 
L 119.378421 32.692503 
L 119.479892 35.204876 
L 119.530628 29.020509 
L 119.581364 30.874068 
L 119.632099 44.457667 
L 119.682835 29.155661 
L 119.733571 34.500275 
L 119.784307 65.532922 
L 119.835042 28.003005 
L 119.885778 31.536193 
L 119.936514 53.038227 
L 119.98725 30.802722 
L 120.139457 42.528075 
L 120.240928 122.671025 
L 120.291664 67.120641 
L 120.3424 123.215343 
L 120.393135 89.058885 
L 120.443871 117.436838 
L 120.494607 141.609022 
L 120.646814 74.402056 
L 120.69755 97.066797 
L 120.849757 30.19018 
L 120.900493 31.636666 
L 120.951228 28.08052 
L 121.001964 41.60246 
L 121.0527 29.453427 
L 121.103436 28.299396 
L 121.154171 32.235628 
L 121.204907 28.211029 
L 121.255643 27.916254 
L 121.40785 67.861503 
L 121.458586 58.745874 
L 121.509321 47.965015 
L 121.560057 68.223989 
L 121.610793 66.163477 
L 121.763 28.75845 
L 121.813736 28.525671 
L 121.915207 34.758486 
L 122.016679 28.203585 
L 122.067414 30.162211 
L 122.11815 35.413639 
L 122.168886 27.9509 
L 122.219622 32.465843 
L 122.371829 71.015202 
L 122.4733 57.977862 
L 122.524036 32.945061 
L 122.574772 36.96073 
L 122.676243 164.342185 
L 122.82845 39.174328 
L 122.879186 40.031952 
L 122.980658 28.279589 
L 123.082129 140.874453 
L 123.132865 79.103776 
L 123.234336 42.042869 
L 123.335808 45.016038 
L 123.488015 93.806286 
L 123.538751 74.502723 
L 123.640222 39.790806 
L 123.690958 49.022376 
L 123.792429 28.222243 
L 123.893901 66.077271 
L 123.944636 63.658335 
L 123.995372 28.164408 
L 124.046108 29.760131 
L 124.096844 39.724519 
L 124.147579 29.49038 
L 124.198315 28.640462 
L 124.249051 29.184829 
L 124.299786 47.03928 
L 124.350522 36.578286 
L 124.401258 33.999187 
L 124.451994 41.437527 
L 124.654937 188.688334 
L 124.705672 187.672859 
L 124.908615 37.663787 
L 124.959351 38.537352 
L 125.162294 107.712735 
L 125.21303 59.818147 
L 125.263765 69.65292 
L 125.314501 79.683511 
L 125.365237 61.751463 
L 125.618915 160.974641 
L 125.720387 105.169658 
L 125.771123 150.976945 
L 125.872594 73.511093 
L 125.92333 86.063329 
L 125.974065 124.806503 
L 126.075537 34.622526 
L 126.126273 47.715697 
L 126.27848 144.470369 
L 126.329216 126.959072 
L 126.379951 118.758857 
L 126.430687 147.008602 
L 126.481423 73.720448 
L 126.532159 90.608747 
L 126.582894 93.448207 
L 126.735101 54.483269 
L 126.836573 28.479849 
L 126.938044 30.904558 
L 127.191723 119.712117 
L 127.34393 28.644923 
L 127.394666 59.953579 
L 127.445402 37.540141 
L 127.496137 29.467105 
L 127.546873 32.905198 
L 127.597609 32.495771 
L 127.648345 42.979602 
L 127.69908 28.082252 
L 127.749816 30.356806 
L 127.800552 34.520624 
L 127.851287 32.672641 
L 128.003495 28.131077 
L 128.05423 47.193067 
L 128.104966 44.064669 
L 128.155702 41.711985 
L 128.206438 43.790483 
L 128.358645 28.766258 
L 128.40938 28.395546 
L 128.460116 29.820808 
L 128.510852 44.197152 
L 128.561588 30.14322 
L 128.663059 27.912368 
L 128.713795 28.233054 
L 128.764531 40.688381 
L 128.967473 126.286779 
L 129.170416 223.2314 
L 129.271888 219.188283 
L 129.525567 35.059332 
L 129.677774 88.213423 
L 129.829981 27.960589 
L 129.982188 63.836272 
L 130.134395 31.545567 
L 130.185131 33.861138 
L 130.235867 29.509047 
L 130.286602 39.304462 
L 130.337338 28.372355 
L 130.388074 29.151204 
L 130.43881 32.568855 
L 130.540281 32.346854 
L 130.591017 64.581998 
L 130.641753 32.590707 
L 130.743224 51.888431 
L 130.79396 44.529137 
L 130.844695 47.718218 
L 130.895431 33.129426 
L 130.946167 48.668691 
L 131.047638 64.961259 
L 131.250581 30.45573 
L 131.301317 31.464687 
L 131.352053 50.710348 
L 131.402788 48.387454 
L 131.453524 41.049524 
L 131.50426 44.815689 
L 131.554996 63.767619 
L 131.656467 35.382116 
L 131.707203 40.259193 
L 131.757939 52.055682 
L 131.808674 36.348321 
L 131.85941 57.600352 
L 131.910146 36.803542 
L 132.062353 28.180295 
L 132.21456 61.971347 
L 132.265296 54.694288 
L 132.316032 55.938472 
L 132.417503 97.005998 
L 132.56971 35.509955 
L 132.620446 28.954565 
L 132.671182 29.531338 
L 132.721917 31.363301 
L 132.772653 29.272179 
L 132.92486 85.388732 
L 133.026332 89.175846 
L 133.127803 44.027825 
L 133.229275 31.736546 
L 133.28001 33.305027 
L 133.330746 31.437317 
L 133.381482 31.51839 
L 133.432218 34.585768 
L 133.685896 177.546632 
L 133.736632 103.670053 
L 133.838103 117.035006 
L 133.888839 110.744581 
L 134.041046 58.21931 
L 134.091782 58.312057 
L 134.142518 61.408491 
L 134.294725 42.396553 
L 134.345461 106.465981 
L 134.396196 105.997541 
L 134.548404 56.884805 
L 134.700611 138.235865 
L 134.852818 73.690312 
L 134.903554 111.285332 
L 135.055761 28.873415 
L 135.207968 52.53376 
L 135.258704 55.161683 
L 135.410911 28.30754 
L 135.461647 35.728929 
L 135.563118 34.457507 
L 135.613854 36.270787 
L 135.66459 109.557993 
L 135.715325 66.026137 
L 135.766061 31.261247 
L 135.816797 45.514979 
L 135.969004 101.652436 
L 136.01974 37.508496 
L 136.070476 80.341996 
L 136.121211 95.435657 
L 136.273418 28.580096 
L 136.324154 27.978235 
L 136.425626 36.859596 
L 136.527097 31.126594 
L 136.628569 40.99538 
L 136.679304 48.495589 
L 136.73004 96.611741 
L 136.780776 38.416369 
L 136.831511 40.850366 
L 136.983719 89.497516 
L 137.034454 87.666243 
L 137.135926 46.533311 
L 137.186662 50.474406 
L 137.237397 28.89758 
L 137.288133 29.200024 
L 137.338869 37.092189 
L 137.389604 27.925672 
L 137.541812 38.807141 
L 137.592547 36.269925 
L 137.643283 45.452041 
L 137.694019 34.813907 
L 137.744755 33.728664 
L 137.79549 28.362131 
L 137.896962 52.113595 
L 138.049169 28.212881 
L 138.099905 43.438844 
L 138.15064 31.547145 
L 138.252112 51.854807 
L 138.302848 42.212095 
L 138.404319 43.823326 
L 138.50579 110.599366 
L 138.708733 48.738331 
L 138.810205 53.605891 
L 138.860941 44.715449 
L 138.911676 67.972166 
L 139.063883 28.737623 
L 139.114619 30.564795 
L 139.216091 54.252115 
L 139.266826 107.262488 
L 139.317562 106.725818 
L 139.368298 91.249045 
L 139.469769 168.782946 
L 139.621977 152.432677 
L 139.672712 133.640186 
L 139.723448 209.97508 
L 139.774184 128.531568 
L 139.926391 253.472055 
L 139.977127 210.205308 
L 140.129334 46.2355 
L 140.230805 185.321267 
L 140.332277 181.776452 
L 140.433748 127.030709 
L 140.53522 39.675948 
L 140.585955 60.415731 
L 140.636691 71.740073 
L 140.788898 28.27778 
L 140.839634 28.956199 
L 141.042577 40.171722 
L 141.093313 37.301894 
L 141.194784 43.464235 
L 141.397727 140.022001 
L 141.651406 29.034516 
L 141.702141 52.981734 
L 141.752877 41.621058 
L 141.803613 27.939167 
L 141.854349 54.668997 
L 141.905084 34.483312 
L 141.95582 33.619911 
L 142.108027 82.623484 
L 142.209499 45.602066 
L 142.31097 67.741594 
L 142.361706 129.975781 
L 142.412442 122.516331 
L 142.564649 71.565658 
L 142.615385 101.542776 
L 142.818327 29.24253 
L 142.869063 29.140339 
L 142.919799 33.77377 
L 142.970535 32.209048 
L 143.02127 31.935837 
L 143.122742 28.657118 
L 143.173478 34.405317 
L 143.224213 62.207792 
L 143.325685 58.458612 
L 143.37642 56.542536 
L 143.427156 82.601284 
L 143.528628 80.086815 
L 143.579363 64.061616 
L 143.731571 113.765337 
L 143.883778 40.31522 
L 143.934513 52.260664 
L 143.985249 65.794754 
L 144.035985 61.235927 
L 144.137456 52.707631 
L 144.238928 82.868658 
L 144.340399 28.206979 
L 144.391135 38.894503 
L 144.441871 31.35759 
L 144.492606 49.256496 
L 144.543342 46.111298 
L 144.594078 37.099506 
L 144.644814 43.973182 
L 144.695549 42.964767 
L 144.847757 28.188856 
L 144.898492 28.432429 
L 144.949228 28.91753 
L 145.101435 39.200689 
L 145.202907 27.98489 
L 145.253642 30.201439 
L 145.40585 50.865978 
L 145.456585 42.561539 
L 145.608792 126.353075 
L 145.659528 95.781759 
L 145.710264 133.456075 
L 145.761 96.234077 
L 146.014678 53.345422 
L 146.166886 34.32705 
L 146.217621 44.38881 
L 146.319093 158.849147 
L 146.369828 110.476701 
L 146.420564 58.656744 
L 146.4713 80.799147 
L 146.572771 208.096588 
L 146.674243 68.804959 
L 146.724979 70.3361 
L 146.775714 86.686717 
L 146.927921 34.035706 
L 146.978657 30.009042 
L 147.029393 35.66939 
L 147.130864 33.626691 
L 147.1816 72.536746 
L 147.283072 49.317893 
L 147.333807 62.911611 
L 147.384543 205.246427 
L 147.486014 203.117045 
L 147.53675 207.839052 
L 147.587486 242.497272 
L 147.638222 206.358741 
L 147.688957 95.910472 
L 147.739693 147.526623 
L 147.8919 108.833605 
L 147.993372 173.390225 
L 148.044107 248.732157 
L 148.094843 168.921731 
L 148.145579 114.913514 
L 148.196315 151.359808 
L 148.24705 129.95359 
L 148.297786 179.977055 
L 148.348522 128.152648 
L 148.500729 68.679289 
L 148.6022 38.075847 
L 148.703672 46.818384 
L 148.855879 27.955985 
L 149.008086 70.948724 
L 149.109558 29.635444 
L 149.160294 49.162166 
L 149.211029 62.19878 
L 149.261765 162.777138 
L 149.312501 127.943611 
L 149.363236 133.624896 
L 149.667651 28.095312 
L 149.769122 45.617696 
L 149.819858 41.184829 
L 149.870594 30.11289 
L 149.921329 35.225761 
L 149.972065 50.106873 
L 150.022801 32.44091 
L 150.327215 97.150692 
L 150.479422 161.10208 
L 150.530158 92.64404 
L 150.63163 94.511361 
L 150.733101 32.120256 
L 150.783837 42.881616 
L 150.885308 125.210029 
L 150.98678 51.724876 
L 151.291194 131.383025 
L 151.392666 89.894355 
L 151.443401 91.864036 
L 151.544873 125.477522 
L 151.69708 53.657669 
L 151.798551 39.166077 
L 151.849287 43.928453 
L 151.900023 27.914144 
L 151.950759 33.254054 
L 152.05223 35.663185 
L 152.102966 30.579849 
L 152.153701 75.752889 
L 152.204437 55.554505 
L 152.255173 39.146771 
L 152.305909 85.369058 
L 152.356644 51.619738 
L 152.40738 50.513658 
L 152.508852 31.560223 
L 152.559587 31.820875 
L 152.610323 34.996531 
L 152.914737 167.193602 
L 153.016209 28.337112 
L 153.066945 30.121359 
L 153.11768 33.371621 
L 153.168416 28.323166 
L 153.269888 55.743138 
L 153.320623 28.346271 
L 153.371359 28.820238 
L 153.47283 47.413827 
L 153.523566 47.306292 
L 153.574302 30.501146 
L 153.625038 38.840162 
L 153.827981 65.247136 
L 153.929452 84.069682 
L 154.132395 33.991285 
L 154.233866 102.700042 
L 154.284602 91.323009 
L 154.386074 29.409809 
L 154.436809 32.29389 
L 154.487545 37.35733 
L 154.538281 28.35776 
L 154.589016 36.806101 
L 154.741224 49.821453 
L 154.842695 28.084856 
L 154.893431 29.769498 
L 154.944167 29.629664 
L 154.994902 34.102563 
L 155.045638 31.7516 
L 155.096374 28.288452 
L 155.147109 28.549795 
L 155.197845 55.306776 
L 155.248581 34.362541 
L 155.299317 41.795524 
L 155.350052 27.915931 
L 155.400788 52.592183 
L 155.50226 50.07267 
L 155.552995 45.638993 
L 155.603731 46.104791 
L 155.654467 51.170935 
L 155.755938 37.846494 
L 155.908145 100.11716 
L 156.009617 58.247196 
L 156.060353 41.695183 
L 156.111088 90.064501 
L 156.161824 75.250746 
L 156.364767 33.814551 
L 156.415503 30.944486 
L 156.516974 70.695188 
L 156.618446 28.654585 
L 156.669181 29.315137 
L 156.719917 27.980587 
L 157.024331 51.251173 
L 157.176539 111.617329 
L 157.227274 105.945144 
L 157.379482 188.697561 
L 157.531689 120.914638 
L 157.683896 204.270941 
L 157.734632 128.995664 
L 157.785367 138.512566 
L 157.98831 225.478649 
L 158.140517 157.679999 
L 158.34346 67.402544 
L 158.495668 105.438301 
L 158.597139 77.411748 
L 158.647875 88.86742 
L 158.800082 142.558665 
L 158.952289 52.632663 
L 159.003025 40.326374 
L 159.053761 75.570286 
L 159.104496 32.243357 
L 159.155232 49.855 
L 159.205968 50.32783 
L 159.358175 27.911788 
L 159.510382 65.939092 
L 159.611854 31.583271 
L 159.814797 238.985442 
L 159.967004 112.860751 
L 160.169947 33.314932 
L 160.220682 30.643085 
L 160.271418 36.733427 
L 160.322154 29.189733 
L 160.37289 31.274852 
L 160.474361 48.905654 
L 160.525097 48.016867 
L 160.677304 28.155305 
L 160.778775 27.910569 
L 160.829511 31.109007 
L 160.930983 28.103049 
L 161.032454 98.553977 
L 161.08319 132.346833 
L 161.133925 127.689825 
L 161.184661 91.868473 
L 161.235397 104.673616 
L 161.286133 184.060058 
L 161.336868 99.559123 
L 161.387604 94.319539 
L 161.43834 50.302773 
L 161.489076 71.135292 
L 161.692018 261.707524 
L 161.79349 124.983017 
L 161.844226 128.70704 
L 161.894961 153.712485 
L 161.945697 255.216871 
L 161.996433 193.986193 
L 162.047169 134.261747 
L 162.097904 230.967681 
L 162.14864 153.833687 
L 162.199376 139.62686 
L 162.250112 140.901194 
L 162.300847 188.148498 
L 162.351583 141.64621 
L 162.402319 124.324621 
L 162.453054 142.87517 
L 162.85894 28.590434 
L 162.960412 37.656588 
L 163.011147 36.039091 
L 163.163355 44.791574 
L 163.264826 79.201568 
L 163.315562 79.028751 
L 163.467769 50.242096 
L 163.518505 47.636844 
L 163.670712 94.362387 
L 163.772183 38.313355 
L 163.822919 42.470473 
L 163.873655 76.638023 
L 163.924391 48.491213 
L 164.076598 98.579999 
L 164.127333 91.96812 
L 164.279541 37.977187 
L 164.330276 30.368687 
L 164.381012 76.212782 
L 164.431748 49.430831 
L 164.482484 40.858367 
L 164.533219 45.692197 
L 164.685426 150.163291 
L 164.786898 48.002177 
L 164.837634 59.686905 
L 164.888369 61.172286 
L 164.939105 28.281108 
L 165.040577 30.1825 
L 165.091312 28.258193 
L 165.142048 30.136218 
L 165.294255 28.132768 
L 165.344991 35.456651 
L 165.395727 31.329786 
L 165.446462 28.31719 
L 165.497198 31.530898 
L 165.547934 31.239607 
L 165.801613 108.200727 
L 165.903084 47.156764 
L 166.055291 99.138136 
L 166.258234 44.356383 
L 166.359706 119.054346 
L 166.410441 100.989281 
L 166.461177 103.373452 
L 166.511913 125.40965 
L 166.562648 107.722152 
L 166.613384 92.912804 
L 166.714856 142.252734 
L 166.917799 64.610535 
L 167.222213 335.241315 
L 167.272949 226.428366 
L 167.323684 349.764337 
L 167.526627 134.637673 
L 167.577363 109.455333 
L 167.628099 122.626653 
L 167.678834 133.951715 
L 167.72957 119.175426 
L 167.831042 205.512406 
L 167.881777 178.11514 
L 167.932513 173.657905 
L 168.033985 78.553661 
L 168.135456 85.871235 
L 168.236927 52.132206 
L 168.287663 131.467774 
L 168.338399 129.182909 
L 168.389135 102.113889 
L 168.43987 109.519066 
L 168.592078 198.825141 
L 168.642813 216.696203 
L 168.845756 60.806958 
L 168.947228 29.599634 
L 168.997963 30.438041 
L 169.099435 39.838561 
L 169.150171 31.760425 
L 169.200906 40.198522 
L 169.251642 90.46983 
L 169.353114 81.562614 
L 169.454585 30.051918 
L 169.556056 32.372549 
L 169.758999 67.574578 
L 169.809735 77.463257 
L 169.860471 64.955779 
L 169.961942 131.145847 
L 170.164885 82.094968 
L 170.215621 115.887488 
L 170.317092 115.083521 
L 170.367828 140.004636 
L 170.418564 116.619938 
L 170.4693 116.811055 
L 170.621507 187.512582 
L 170.722978 130.260274 
L 170.773714 139.935589 
L 170.82445 155.287844 
L 170.875185 146.260334 
L 170.925921 121.806131 
L 170.976657 131.16626 
L 171.078128 226.868168 
L 171.128864 145.989796 
L 171.1796 232.034619 
L 171.230335 330.883819 
L 171.281071 252.95356 
L 171.382543 172.547281 
L 171.484014 204.402197 
L 171.53475 190.633171 
L 171.686957 63.732757 
L 171.737693 142.216173 
L 171.788428 99.932642 
L 171.839164 73.114822 
L 171.8899 138.592529 
L 171.991371 134.725566 
L 172.194314 29.172228 
L 172.346522 37.229246 
L 172.397257 31.056898 
L 172.447993 32.627575 
L 172.498729 33.909233 
L 172.549464 28.881186 
L 172.752407 90.157959 
L 172.803143 58.333797 
L 172.853879 171.364399 
L 172.904615 107.521803 
L 172.95535 51.284114 
L 173.056822 52.138318 
L 173.107557 69.851878 
L 173.158293 54.455571 
L 173.209029 47.100459 
L 173.3105 83.486568 
L 173.411972 36.310889 
L 173.462708 40.971309 
L 173.564179 30.429674 
L 173.614915 30.854967 
L 173.767122 67.727178 
L 173.817858 53.48384 
L 173.868593 59.053196 
L 173.919329 141.708754 
L 174.020801 138.846286 
L 174.071536 123.17824 
L 174.173008 174.964214 
L 174.325215 79.090159 
L 174.375951 72.417297 
L 174.426686 88.592599 
L 174.477422 30.509288 
L 174.528158 33.314949 
L 174.680365 72.40631 
L 174.781836 36.064096 
L 174.832572 45.846722 
L 174.984779 69.35153 
L 175.136987 179.356235 
L 175.187722 160.775848 
L 175.289194 234.696102 
L 175.390665 180.661953 
L 175.441401 218.158116 
L 175.593608 38.01292 
L 175.69508 60.477839 
L 175.796551 149.581014 
L 175.847287 112.924603 
L 175.999494 30.372406 
L 176.05023 35.824247 
L 176.557587 221.617053 
L 176.608323 157.486305 
L 176.709794 164.499329 
L 176.811266 58.98446 
L 176.862001 71.405152 
L 176.963473 152.919396 
L 177.014209 150.412998 
L 177.064944 201.173318 
L 177.11568 123.519599 
L 177.166416 250.643447 
L 177.217151 221.59279 
L 177.267887 164.661783 
L 177.318623 196.002094 
L 177.369359 270.549652 
L 177.420094 264.000221 
L 177.724509 53.482938 
L 177.775244 44.674437 
L 177.876716 110.50699 
L 177.927452 65.802567 
L 177.978187 139.311686 
L 178.028923 118.954966 
L 178.079659 99.755606 
L 178.282602 232.424196 
L 178.333337 216.870928 
L 178.384073 236.586553 
L 178.434809 195.744093 
L 178.485545 286.426757 
L 178.53628 246.328083 
L 178.637752 127.301692 
L 178.688488 193.83863 
L 178.840695 366.94614 
L 179.094373 82.865843 
L 179.145109 87.50262 
L 179.500259 398.657813 
L 179.550995 356.790786 
L 179.652466 294.993168 
L 179.703202 317.350063 
L 179.753938 304.899221 
L 179.804674 325.805216 
L 179.855409 313.160147 
L 179.906145 314.580232 
L 179.956881 335.029893 
L 180.261295 125.39064 
L 180.514974 247.8603 
L 180.56571 260.530426 
L 180.616445 410.798449 
L 180.717917 406.917609 
L 180.768652 438.939662 
L 181.123803 142.379129 
L 181.174538 186.029298 
L 181.225274 149.910667 
L 181.27601 127.837561 
L 181.326745 153.325063 
L 181.580424 367.416702 
L 181.732631 223.040095 
L 181.884839 421.337849 
L 181.935574 379.337434 
L 182.087781 262.533181 
L 182.138517 368.538627 
L 182.189253 349.702472 
L 182.442932 152.64693 
L 182.493667 191.769129 
L 182.544403 135.277412 
L 182.595139 148.194643 
L 182.645874 201.63767 
L 182.69661 168.499566 
L 182.747346 179.975862 
L 182.848817 184.398508 
L 183.001025 78.347656 
L 183.153232 128.911588 
L 183.305439 52.556048 
L 183.40691 86.370028 
L 183.457646 128.154831 
L 183.508382 127.931889 
L 183.76206 79.686985 
L 183.965003 268.575564 
L 184.015739 251.440769 
L 184.066475 270.313247 
L 184.167946 198.427626 
L 184.269418 246.110372 
L 184.320153 385.729686 
L 184.370889 347.151729 
L 184.472361 315.127464 
L 184.675304 70.314159 
L 184.726039 99.776654 
L 184.776775 66.203045 
L 184.827511 93.537262 
L 184.878246 79.304671 
L 184.979718 36.491934 
L 185.030454 118.72353 
L 185.081189 114.783919 
L 185.131925 93.236442 
L 185.182661 104.165875 
L 185.233397 118.446469 
L 185.284132 103.641706 
L 185.537811 28.157731 
L 185.690018 76.985174 
L 185.740754 130.360439 
L 185.79149 108.616896 
L 185.892961 91.392135 
L 186.045168 135.366821 
L 186.14664 81.378052 
L 186.248111 88.178808 
L 186.349583 103.735504 
L 186.400318 50.542056 
L 186.50179 58.302454 
L 186.552526 33.874028 
L 186.704733 89.380605 
L 186.755468 44.734819 
L 186.806204 64.820695 
L 186.958411 189.182069 
L 187.009147 157.338627 
L 187.059883 245.697235 
L 187.110619 175.805545 
L 187.21209 285.370133 
L 187.364297 439.337148 
L 187.465769 276.522587 
L 187.516504 303.966166 
L 187.719447 69.262599 
L 187.770183 51.277626 
L 187.820919 57.953644 
L 187.973126 129.221916 
L 188.176069 56.281976 
L 188.27754 111.088828 
L 188.379012 64.390091 
L 188.63269 207.345775 
L 188.683426 183.309367 
L 188.784898 114.96608 
L 188.835633 130.212352 
L 188.937105 149.743044 
L 189.089312 266.579231 
L 189.241519 189.524367 
L 189.545934 32.827558 
L 189.596669 37.007173 
L 189.647405 45.63752 
L 189.748876 30.269516 
L 189.799612 55.850094 
L 189.850348 39.072936 
L 190.002555 27.981644 
L 190.053291 28.403022 
L 190.256234 75.940369 
L 190.459177 263.3749 
L 190.611384 177.088106 
L 190.66212 166.507451 
L 190.763591 325.445772 
L 190.915798 141.235597 
L 191.068005 170.836821 
L 191.169477 100.82517 
L 191.220213 120.564778 
L 191.270948 135.143384 
L 191.423155 70.531854 
L 191.524627 128.676807 
L 191.626098 78.244196 
L 191.676834 97.962414 
L 191.72757 252.544947 
L 191.778306 248.751492 
L 191.879777 163.004691 
L 191.930513 178.64863 
L 192.133456 254.864546 
L 192.184191 213.790936 
L 192.234927 255.751858 
L 192.285663 253.510103 
L 192.336399 291.443232 
L 192.387134 270.73547 
L 192.43787 260.780876 
L 192.488606 135.956218 
L 192.590077 137.551066 
L 192.691549 165.061051 
L 192.894492 33.650427 
L 192.945227 28.529011 
L 192.995963 39.678858 
L 193.046699 29.144068 
L 193.097435 35.400223 
L 193.14817 64.71317 
L 193.198906 56.689077 
L 193.249642 52.643309 
L 193.351113 29.915958 
L 193.401849 30.253282 
L 193.50332 78.337846 
L 193.554056 44.667176 
L 193.604792 33.117885 
L 193.655528 35.526505 
L 193.756999 47.987716 
L 193.807735 42.29502 
L 193.909206 187.478596 
L 193.959942 142.718796 
L 194.061413 85.595187 
L 194.213621 219.993413 
L 194.416563 161.466858 
L 194.467299 207.188012 
L 194.518035 156.718514 
L 194.720978 44.456435 
L 194.822449 27.924903 
L 194.923921 28.068088 
L 194.974657 29.190776 
L 195.025392 29.075071 
L 195.431278 192.004893 
L 195.634221 413.851722 
L 195.786428 168.338969 
L 195.8879 289.765892 
L 196.090843 58.218248 
L 196.24305 28.092294 
L 196.293785 30.700938 
L 196.395257 36.842824 
L 196.445993 32.434627 
L 196.496728 32.89333 
L 196.547464 39.737942 
L 196.5982 37.847834 
L 196.648936 32.993335 
L 196.699671 39.385567 
L 196.750407 38.412732 
L 196.801143 30.303331 
L 197.004086 183.457061 
L 197.105557 36.192293 
L 197.156293 53.295183 
L 197.257764 170.94724 
L 197.3085 331.604143 
L 197.409971 310.552883 
L 197.460707 364.796906 
L 197.562179 184.55141 
L 197.612914 211.458854 
L 197.765122 174.078265 
L 197.917329 95.161691 
L 198.0188 216.087452 
L 198.120272 133.615191 
L 198.171007 216.939385 
L 198.221743 205.482594 
L 198.323215 80.576131 
L 198.37395 101.323878 
L 198.424686 97.65823 
L 198.576893 189.649039 
L 198.678365 135.183206 
L 198.7291 203.803558 
L 198.779836 136.686052 
L 198.830572 148.893344 
L 198.881308 210.083986 
L 198.932043 113.361364 
L 198.982779 183.94593 
L 199.134986 263.038146 
L 199.337929 140.576636 
L 199.439401 113.198784 
L 199.490136 135.786141 
L 199.642344 58.256201 
L 199.794551 141.700724 
L 199.845286 141.99268 
L 199.946758 66.162283 
L 200.149701 283.713534 
L 200.403379 131.616119 
L 200.454115 179.658468 
L 200.504851 88.27871 
L 200.555587 144.761482 
L 200.657058 214.09355 
L 200.860001 47.167608 
L 200.961472 77.116311 
L 201.012208 63.108786 
L 201.11368 144.709403 
L 201.164415 93.171852 
L 201.215151 129.084143 
L 201.265887 139.536606 
L 201.316623 125.049089 
L 201.418094 249.966794 
L 201.46883 195.494918 
L 201.519566 248.294791 
L 201.671773 138.293388 
L 201.722508 166.49295 
L 201.773244 137.616613 
L 201.82398 131.772545 
L 201.874716 133.172184 
L 201.925451 163.392696 
L 202.026923 71.827312 
L 202.077659 87.338926 
L 202.17913 101.160298 
L 202.280601 200.715058 
L 202.483544 97.069894 
L 202.686487 263.907701 
L 202.88943 413.987244 
L 202.990902 364.682282 
L 202.997515 495.331328 
M 203.088514 495.331328 
L 203.092373 423.566257 
L 203.096232 495.331328 
M 203.186274 495.331328 
L 203.295316 259.434777 
L 203.346052 220.782668 
L 203.396787 227.19571 
L 203.502732 495.331328 
M 203.748641 495.331328 
L 203.751938 434.756709 
L 203.755234 495.331328 
M 203.849007 495.331328 
L 203.95488 331.940886 
L 204.157823 200.410691 
L 204.208559 214.904766 
L 204.265432 495.331328 
M 204.406584 495.331328 
L 204.411502 401.772374 
L 204.465665 495.331328 
M 204.763696 495.331328 
L 204.868124 216.776957 
L 204.918859 250.596588 
L 204.969595 224.715273 
L 205.020331 222.859683 
L 205.071067 269.514929 
L 205.223274 139.826071 
L 205.274009 191.584198 
L 205.375481 110.89676 
L 205.426217 121.947605 
L 205.476952 156.44513 
L 205.527688 146.255897 
L 205.679895 58.932828 
L 205.781367 79.328993 
L 205.832102 54.772935 
L 205.882838 72.935698 
L 205.933574 114.139396 
L 205.98431 97.662301 
L 206.035045 71.536911 
L 206.187253 202.56879 
L 206.237988 174.769336 
L 206.288724 246.129899 
L 206.33946 157.654303 
L 206.440931 388.898045 
L 206.593138 211.463601 
L 206.643874 192.535157 
L 206.796081 45.34244 
L 206.948288 86.802396 
L 207.252703 437.851935 
L 207.303439 423.951489 
L 207.354174 442.08 
L 207.506381 139.779927 
L 207.607853 268.022755 
L 207.76006 156.648575 
L 207.810796 142.620868 
L 208.018672 495.331328 
M 208.15835 495.331328 
L 208.216682 221.073174 
L 208.267417 247.242115 
L 208.368889 438.232508 
L 208.419625 422.610762 
L 208.571832 353.386234 
L 208.673303 373.842531 
L 208.727103 495.331328 
M 208.869988 495.331328 
L 208.926982 214.593229 
L 208.977718 217.666995 
L 209.028453 217.648121 
L 209.332868 58.60978 
L 209.383603 56.102653 
L 209.485075 29.227408 
L 209.535811 41.920421 
L 209.586546 63.080613 
L 209.637282 44.980868 
L 209.688018 52.792499 
L 209.992432 361.496042 
L 210.195375 182.169926 
L 210.246111 143.999026 
L 210.296847 154.239429 
L 210.347582 162.691981 
L 210.398318 202.749934 
L 210.550525 133.761566 
L 210.601261 89.046268 
L 210.651997 152.835982 
L 210.702732 149.22486 
L 210.85494 62.662322 
L 210.956411 110.132423 
L 211.057882 208.142485 
L 211.108618 198.211465 
L 211.159354 153.722057 
L 211.21009 211.063894 
L 211.311561 100.980835 
L 211.362297 107.259539 
L 211.413033 86.489131 
L 211.463768 182.542352 
L 211.514504 141.026915 
L 211.56524 162.408977 
L 211.717447 88.390833 
L 211.768183 114.936054 
L 211.971126 357.399998 
L 212.021861 309.540402 
L 212.030775 495.331328 
M 212.41914 495.331328 
L 212.529219 143.93338 
L 212.579954 151.557573 
L 212.681426 89.156127 
L 212.732162 90.726538 
L 212.833633 179.581568 
L 212.884369 137.201268 
L 212.98584 57.284563 
L 213.036576 84.739719 
L 213.087312 70.939346 
L 213.138047 79.515432 
L 213.34099 30.550715 
L 213.391726 33.137497 
L 213.543933 56.48161 
L 213.848348 401.109958 
L 213.949819 371.109627 
L 214.000555 260.896951 
L 214.05129 325.505018 
L 214.157863 495.331328 
M 214.349629 495.331328 
L 214.406441 277.507138 
L 214.457176 326.418205 
L 214.507912 357.26491 
L 214.558648 321.203557 
L 214.660119 258.721597 
L 214.710855 308.991025 
L 214.761591 285.76211 
L 214.812326 191.228697 
L 214.863062 260.056234 
L 214.964534 148.224192 
L 215.015269 186.306587 
L 215.066005 205.711661 
L 215.116741 156.25531 
L 215.218212 242.806501 
L 215.370419 107.769555 
L 215.421155 112.169004 
L 215.471891 173.518986 
L 215.624098 90.789791 
L 215.674834 109.148123 
L 215.72557 189.995418 
L 215.776305 139.915398 
L 215.827041 137.215591 
L 215.928512 121.823263 
L 216.08072 247.650634 
L 216.334398 136.638427 
L 216.385134 174.810682 
L 216.486605 280.868326 
L 216.537341 412.956596 
L 216.588077 386.013283 
L 216.689548 228.911163 
L 216.740284 293.334875 
L 216.79102 351.679628 
L 216.841756 351.385413 
L 216.943227 230.910944 
L 216.993963 251.419081 
L 217.044698 242.830227 
L 217.095434 255.49255 
L 217.247641 337.503604 
L 217.298377 314.484117 
L 217.399849 386.471873 
L 217.450584 332.515796 
L 217.458569 495.331328 
M 217.598267 495.331328 
L 217.602791 409.986493 
L 217.657269 495.331328 
M 217.853527 495.331328 
L 217.957942 309.581596 
L 218.110149 429.699116 
L 218.160885 403.531171 
L 218.262356 348.609414 
L 218.317962 495.331328 
M 218.410654 495.331328 
L 218.414563 422.561661 
L 218.418472 495.331328 
M 218.50974 495.331328 
L 218.516035 371.873116 
L 218.617506 389.832159 
L 218.622984 495.331328 
M 219.933595 495.331328 
L 219.987371 437.231455 
L 219.990541 495.331328 
M 220.135973 495.331328 
L 220.190314 374.72719 
L 220.19648 495.331328 
M 220.84297 495.331328 
L 220.95135 254.666107 
L 221.002085 232.699323 
L 221.113115 495.331328 
M 221.755457 495.331328 
L 221.763121 340.208463 
L 221.864593 357.952322 
L 221.915328 369.655175 
L 221.966064 331.044743 
L 222.067536 96.411098 
L 222.118271 186.599089 
L 222.169007 194.268836 
L 222.219743 162.064576 
L 222.473421 398.422992 
L 222.524157 393.631722 
L 222.529458 495.331328 
M 223.225916 495.331328 
L 223.234457 318.869106 
L 223.289775 495.331328 
M 223.637336 495.331328 
L 223.741815 379.598573 
L 223.79255 360.816846 
L 223.799333 495.331328 
M 224.03834 495.331328 
L 224.1477 278.158753 
L 224.204725 495.331328 
M 224.698685 495.331328 
L 224.807265 90.863132 
L 224.959472 139.401392 
L 225.010208 134.19245 
L 225.213151 336.591602 
L 225.263887 306.700112 
L 225.314622 322.716835 
L 225.323008 495.331328 
M 225.46289 495.331328 
L 225.466829 421.949668 
L 225.470769 495.331328 
M 225.562312 495.331328 
L 225.669772 237.293475 
L 225.927984 495.331328 
M 226.626805 495.331328 
L 226.735223 328.142573 
L 226.938166 132.436693 
L 227.04755 495.331328 
M 227.136358 495.331328 
L 227.141108 405.273238 
L 227.145859 495.331328 
M 227.288403 495.331328 
L 227.344051 228.40648 
L 227.394787 258.403114 
L 227.445523 295.546547 
L 227.496259 254.060084 
L 227.59773 194.372589 
L 227.749937 341.385855 
L 227.902144 396.887074 
L 227.907293 495.331328 
M 229.521417 495.331328 
L 229.525688 415.203677 
L 229.529959 495.331328 
M 229.774288 495.331328 
L 229.779366 398.370982 
L 229.784445 495.331328 
M 229.92714 495.331328 
L 229.931574 411.870505 
L 230.033045 436.796286 
L 230.083781 388.690899 
L 230.134516 423.517233 
L 230.138378 495.331328 
M 230.232176 495.331328 
L 230.286724 407.556011 
L 230.291365 495.331328 
M 230.6869 495.331328 
L 230.692609 384.793944 
L 230.794081 425.973999 
L 230.946288 279.461712 
L 231.003931 495.331328 
M 232.106215 495.331328 
L 232.163946 268.040456 
L 232.214681 375.04684 
L 232.265417 351.325374 
L 232.316153 369.772521 
L 232.46836 430.214728 
L 232.519096 322.70648 
L 232.569831 376.287827 
L 232.575928 495.331328 
M 232.764698 495.331328 
L 232.82351 279.036985 
L 232.874246 289.176225 
L 232.930292 495.331328 
M 233.121809 495.331328 
L 233.229396 209.903285 
L 233.381603 222.731403 
L 233.432339 331.32802 
L 233.483075 259.651671 
L 233.53381 230.397833 
L 233.584546 351.034605 
L 233.635282 339.54982 
L 233.787489 299.298124 
L 233.838225 357.146047 
L 233.88896 309.505267 
L 234.041168 157.465715 
L 234.193375 371.927625 
L 234.244111 358.921984 
L 234.548525 119.229823 
L 234.649996 121.875564 
L 234.700732 102.151701 
L 234.954411 304.644508 
L 235.005146 264.017604 
L 235.106618 325.246276 
L 235.208089 436.822688 
L 235.258825 324.846303 
L 235.309561 421.323842 
L 235.461768 360.224569 
L 235.56729 495.331328 
M 235.908857 495.331328 
L 235.969125 288.958599 
L 236.019861 424.322715 
L 236.070597 437.283081 
L 236.222804 291.308177 
L 236.27354 276.425818 
L 236.425747 181.873952 
L 236.476483 171.422283 
L 236.527218 232.905683 
L 236.577954 178.841457 
L 236.730161 164.06808 
L 236.933104 407.078189 
L 236.98384 369.047847 
L 237.034576 384.281839 
L 237.085311 415.907316 
L 237.089548 495.331328 
M 237.738741 495.331328 
L 237.846347 255.714786 
L 237.947819 343.23115 
L 238.04929 189.409668 
L 238.201497 441.192237 
L 238.252233 423.594249 
L 238.353705 285.100506 
L 238.40444 333.888476 
L 238.455176 358.76496 
L 238.556647 251.719591 
L 238.607383 312.901469 
L 238.658119 223.745286 
L 238.708855 323.682177 
L 238.810326 355.030999 
L 238.911798 216.076579 
L 239.013269 414.034934 
L 239.064005 360.484883 
L 239.165476 228.820339 
L 239.216212 296.715263 
L 239.317683 412.634037 
L 239.368419 239.249063 
L 239.419155 257.451651 
L 239.520626 372.050892 
L 239.571362 297.555846 
L 239.622098 356.619379 
L 239.672833 410.97016 
L 239.723569 389.289435 
L 239.774305 382.531945 
L 239.780118 495.331328 
M 239.872243 495.331328 
L 239.977248 408.204795 
L 240.027984 338.701719 
L 240.035711 495.331328 
M 240.122883 495.331328 
L 240.230926 144.506247 
L 240.281662 238.912686 
L 240.332398 205.611299 
L 240.433869 172.208611 
L 240.484605 177.267091 
L 240.535341 169.550562 
L 240.738284 322.206957 
L 240.78902 314.02432 
L 240.839755 341.880805 
L 240.84735 495.331328 
M 240.938214 495.331328 
L 240.941227 440.29968 
L 240.94424 495.331328 
M 241.087998 495.331328 
L 241.14417 347.053276 
L 241.194905 404.793961 
L 241.245641 430.410446 
L 241.249158 495.331328 
M 241.391927 495.331328 
L 241.448584 356.664151 
L 241.455547 495.331328 
M 241.90114 495.331328 
L 242.006677 358.18783 
L 242.158884 155.944429 
L 242.20962 177.172906 
L 242.466521 495.331328 
M 242.56029 495.331328 
L 242.56477 410.896143 
L 242.56925 495.331328 
M 242.865513 495.331328 
L 242.869184 427.341706 
L 242.872855 495.331328 
M 243.827829 495.331328 
L 243.883899 320.062188 
L 243.934635 369.560669 
L 243.98537 355.615138 
L 244.036106 298.644084 
L 244.086842 346.082384 
L 244.239049 432.301839 
L 244.289785 388.662124 
L 244.340521 396.982193 
L 244.345664 495.331328 
M 244.538688 495.331328 
L 244.543463 404.767847 
L 244.644935 432.463479 
L 244.695671 391.889384 
L 244.746406 420.330199 
L 244.750426 495.331328 
M 245.452876 495.331328 
L 245.456707 424.153692 
L 245.460537 495.331328 
M 245.548641 495.331328 
L 245.608914 182.425816 
L 245.659649 253.639153 
L 245.710385 227.802549 
L 245.811857 383.566836 
L 245.862592 338.45374 
L 245.870331 495.331328 
M 249.205856 495.331328 
L 249.21115 393.77588 
L 249.216445 495.331328 
M 249.307388 495.331328 
L 249.312622 395.064559 
L 249.317856 495.331328 
M 249.862759 495.331328 
L 249.972186 227.660499 
L 250.073658 243.886476 
L 250.124394 164.086046 
L 250.225865 172.059116 
L 250.428808 395.426218 
L 250.479544 390.771471 
L 250.530279 411.850938 
L 250.534714 495.331328 
M 250.622352 495.331328 
L 250.682487 225.781031 
L 250.733222 231.872285 
L 250.88543 162.209364 
L 251.037637 80.487493 
L 251.245308 495.331328 
M 252.099887 495.331328 
L 252.103087 436.654762 
L 252.106287 495.331328 
M 252.251967 495.331328 
L 252.356766 320.848794 
L 252.458237 282.416072 
L 252.508973 308.774549 
L 252.66118 164.973466 
L 252.819326 495.331328 
M 254.991908 495.331328 
L 255.045759 399.382813 
L 255.05079 495.331328 
M 255.190816 495.331328 
L 255.197966 352.330825 
L 255.205117 495.331328 
M 255.344431 495.331328 
L 255.350174 384.079262 
L 255.404649 495.331328 
M 255.700456 495.331328 
L 255.806795 345.408072 
L 255.908267 250.176878 
L 255.959002 299.889578 
L 256.009738 261.95374 
L 256.060474 233.580748 
L 256.161945 432.084794 
L 256.364888 189.955758 
L 256.520499 495.331328 
M 256.662257 495.331328 
L 256.770774 333.967922 
L 256.778699 495.331328 
M 256.868122 495.331328 
L 256.872245 418.218353 
L 256.876369 495.331328 
M 257.170149 495.331328 
L 257.227396 268.212111 
L 257.278131 346.186377 
L 257.285544 495.331328 
M 257.422201 495.331328 
L 257.53181 310.378821 
L 257.689849 495.331328 
M 262.296886 495.331328 
L 262.300968 419.049511 
L 262.305051 495.331328 
" clip-path="url(#p3d80b92740)" style="fill: none; stroke: #ff0000; stroke-opacity: 0.5; stroke-width: 1.5; stroke-linecap: round"/>
   </g>
   <g id="line2d_17">
    <path d="M 113.137926 51.780902 
L 113.188662 56.964112 
L 113.239398 38.560569 
L 113.391605 99.197029 
L 113.442341 85.312588 
L 113.493076 100.125042 
L 113.594548 136.922521 
L 113.746755 50.15029 
L 113.797491 52.112036 
L 113.848226 42.7633 
L 113.898962 46.1571 
L 114.000434 60.20911 
L 114.152641 31.749142 
L 114.203376 29.697458 
L 114.254112 39.489096 
L 114.304848 39.374503 
L 114.355584 37.398401 
L 114.406319 28.07149 
L 114.507791 28.845635 
L 114.558527 31.953094 
L 114.609262 28.121386 
L 114.659998 30.902656 
L 114.812205 29.515935 
L 114.862941 40.181816 
L 114.913677 36.964135 
L 114.964412 28.888405 
L 115.065884 29.988416 
L 115.11662 30.269991 
L 115.167355 33.919763 
L 115.218091 29.255891 
L 115.319562 68.650783 
L 115.370298 54.462415 
L 115.47177 51.587844 
L 115.573241 103.570375 
L 115.623977 100.742256 
L 115.674713 108.496532 
L 115.725448 56.211321 
L 115.776184 83.507094 
L 115.979127 213.327061 
L 116.131334 41.108699 
L 116.232806 94.331191 
L 116.283541 34.853972 
L 116.385013 43.577505 
L 116.486484 31.375189 
L 116.53722 41.867464 
L 116.638691 41.651975 
L 116.689427 36.196435 
L 116.740163 36.461419 
L 116.790899 39.928728 
L 116.89237 38.245009 
L 116.943106 57.722695 
L 116.993842 34.302687 
L 117.095313 36.661299 
L 117.146049 36.060066 
L 117.196784 53.002736 
L 117.24752 29.30576 
L 117.298256 29.882808 
L 117.348992 36.487586 
L 117.399727 97.004181 
L 117.450463 87.225892 
L 117.551935 28.232371 
L 117.60267 29.022301 
L 117.653406 33.233031 
L 117.704142 29.581147 
L 117.754877 29.21355 
L 117.805613 47.470309 
L 117.856349 28.234888 
L 117.907085 30.537123 
L 117.95782 29.916228 
L 118.059292 27.921172 
L 118.110028 28.015278 
L 118.160763 27.964455 
L 118.211499 32.558449 
L 118.262235 29.488577 
L 118.31297 29.959752 
L 118.363706 34.045868 
L 118.414442 31.065765 
L 118.465178 32.969158 
L 118.515913 42.117519 
L 118.566649 28.194176 
L 118.617385 49.815173 
L 118.668121 34.53806 
L 118.718856 38.017263 
L 118.820328 28.190095 
L 118.871063 30.171564 
L 118.921799 28.390199 
L 119.023271 28.971038 
L 119.074006 63.523767 
L 119.124742 34.837036 
L 119.175478 36.257158 
L 119.226214 30.653896 
L 119.276949 31.042772 
L 119.327685 37.08904 
L 119.378421 62.061993 
L 119.429156 34.784872 
L 119.479892 39.915993 
L 119.530628 30.466751 
L 119.581364 38.290186 
L 119.632099 44.614057 
L 119.682835 28.1783 
L 119.733571 31.735562 
L 119.784307 38.444946 
L 119.835042 29.447765 
L 119.885778 31.553371 
L 120.037985 107.646749 
L 120.240928 42.325271 
L 120.291664 71.11097 
L 120.3424 55.902004 
L 120.443871 49.071735 
L 120.545343 29.120461 
L 120.596078 33.008643 
L 120.646814 28.226875 
L 120.748285 28.458374 
L 120.799021 32.975546 
L 120.849757 47.5146 
L 120.900493 37.76329 
L 120.951228 44.492442 
L 121.0527 77.17651 
L 121.103436 43.127948 
L 121.154171 73.968964 
L 121.255643 61.439024 
L 121.306378 54.153293 
L 121.357114 28.538782 
L 121.40785 30.894343 
L 121.509321 57.477294 
L 121.560057 48.448116 
L 121.610793 70.249716 
L 121.712264 251.18038 
L 121.763 181.865398 
L 121.813736 172.40093 
L 121.864471 177.7296 
L 121.915207 204.758868 
L 121.965943 150.057836 
L 122.016679 160.330229 
L 122.067414 166.553338 
L 122.270357 58.447563 
L 122.321093 67.917151 
L 122.422564 129.148387 
L 122.4733 109.271485 
L 122.524036 95.961681 
L 122.574772 147.964694 
L 122.726979 46.956342 
L 122.777715 66.265276 
L 122.82845 55.034709 
L 122.929922 29.424746 
L 122.980658 31.627116 
L 123.082129 79.60602 
L 123.234336 30.528486 
L 123.335808 46.953521 
L 123.386543 43.969227 
L 123.538751 27.990036 
L 123.589486 31.963237 
L 123.640222 28.105297 
L 123.690958 28.556415 
L 123.741693 31.571551 
L 123.792429 54.364338 
L 123.843165 28.116447 
L 123.944636 45.339192 
L 123.995372 43.142979 
L 124.046108 27.908571 
L 124.096844 29.496296 
L 124.249051 56.242456 
L 124.299786 36.362217 
L 124.401258 114.412737 
L 124.451994 111.231585 
L 124.502729 84.211603 
L 124.553465 101.701129 
L 124.807144 55.839507 
L 124.959351 112.850363 
L 125.010087 102.187898 
L 125.162294 35.283074 
L 125.21303 33.532835 
L 125.415972 58.475246 
L 125.517444 97.880689 
L 125.56818 93.867954 
L 125.771123 35.732368 
L 125.92333 28.016949 
L 125.974065 30.112181 
L 126.024801 29.448351 
L 126.126273 47.240824 
L 126.27848 30.092135 
L 126.430687 68.375336 
L 126.481423 92.692945 
L 126.532159 58.618489 
L 126.582894 78.81261 
L 126.684366 55.899348 
L 126.735101 67.5243 
L 126.98878 200.018794 
L 127.039516 254.648285 
L 127.090252 209.929051 
L 127.140987 206.726219 
L 127.191723 193.242813 
L 127.34393 63.299904 
L 127.394666 113.496038 
L 127.445402 96.435186 
L 127.546873 61.723328 
L 127.597609 45.85841 
L 127.749816 184.739229 
L 127.800552 156.158187 
L 127.902023 90.340717 
L 127.952759 125.720184 
L 128.003495 207.779053 
L 128.05423 115.696385 
L 128.206438 83.509809 
L 128.307909 99.16082 
L 128.40938 44.070357 
L 128.460116 57.021058 
L 128.510852 57.544362 
L 128.561588 61.940362 
L 128.612323 41.506499 
L 128.713795 42.775981 
L 128.866002 121.544045 
L 128.916738 114.796319 
L 129.018209 197.245632 
L 129.221152 86.246191 
L 129.271888 139.921823 
L 129.424095 35.21137 
L 129.474831 45.423859 
L 129.525567 38.853859 
L 129.576302 31.806987 
L 129.627038 35.80056 
L 129.677774 59.605509 
L 129.728509 50.074683 
L 129.880717 35.292118 
L 129.931452 38.634285 
L 130.08366 115.452568 
L 130.235867 38.514995 
L 130.286602 53.322982 
L 130.388074 79.149541 
L 130.540281 46.516368 
L 130.591017 30.539486 
L 130.641753 60.211902 
L 130.692488 42.436963 
L 130.743224 36.360044 
L 130.79396 48.378588 
L 130.844695 34.186768 
L 130.996903 48.890385 
L 131.047638 36.944853 
L 131.098374 50.074899 
L 131.250581 189.74775 
L 131.301317 152.977161 
L 131.554996 57.876986 
L 131.605731 62.564439 
L 131.707203 68.269204 
L 131.808674 103.966413 
L 131.85941 68.493831 
L 131.910146 75.975752 
L 132.062353 174.391448 
L 132.163824 349.920877 
L 132.21456 306.945628 
L 132.316032 358.489343 
L 132.322916 495.331328 
M 132.414467 495.331328 
L 132.468239 360.657944 
L 132.518974 368.717632 
L 132.721917 148.973699 
L 132.823389 237.371019 
L 132.92486 155.682635 
L 132.975596 169.620219 
L 133.026332 124.980619 
L 133.077068 161.566013 
L 133.127803 200.273483 
L 133.178539 120.552147 
L 133.229275 143.353796 
L 133.28001 165.53466 
L 133.330746 159.194001 
L 133.381482 146.268743 
L 133.592292 495.331328 
M 133.731488 495.331328 
L 133.838103 285.086006 
L 134.041046 192.162467 
L 134.243989 304.193558 
L 134.294725 169.570907 
L 134.345461 249.18615 
L 134.396196 236.149469 
L 134.446932 274.950643 
L 134.497668 273.90555 
L 134.548404 224.558965 
L 134.599139 235.721642 
L 134.6576 495.331328 
M 134.949832 495.331328 
L 135.055761 190.339625 
L 135.106497 213.927616 
L 135.157232 212.477938 
L 135.512382 50.093632 
L 135.563118 75.827009 
L 135.613854 64.093948 
L 135.715325 35.337958 
L 135.918268 134.392908 
L 136.070476 209.727398 
L 136.121211 181.390406 
L 136.171947 199.82262 
L 136.324154 415.594957 
L 136.37489 254.829477 
L 136.425626 286.768698 
L 136.628569 356.762559 
L 136.882247 175.797658 
L 136.932983 181.898051 
L 137.034454 131.357017 
L 137.297345 495.331328 
M 137.38162 495.331328 
L 137.389604 332.538003 
L 137.491076 349.172104 
L 137.592547 253.138833 
L 137.643283 283.953577 
L 137.79549 376.861123 
L 137.801561 495.331328 
M 138.755978 495.331328 
L 138.759469 430.926722 
L 138.76296 495.331328 
M 139.97411 495.331328 
L 140.027862 383.486375 
L 140.033632 495.331328 
M 140.119419 495.331328 
L 140.129334 283.622011 
L 140.230805 409.358609 
L 140.281541 348.890094 
L 140.332277 384.126681 
L 140.383012 367.572195 
L 140.433748 416.936689 
L 140.484484 270.340367 
L 140.53522 344.286426 
L 140.636691 420.352601 
L 140.738163 302.396187 
L 140.747357 495.331328 
M 141.848311 495.331328 
L 141.854349 377.589818 
L 141.860386 495.331328 
M 142.054003 495.331328 
L 142.057291 434.925461 
L 142.060579 495.331328 
M 142.356429 495.331328 
L 142.361706 394.140964 
L 142.41748 495.331328 
M 142.914994 495.331328 
L 143.02127 308.8768 
L 143.072006 239.836444 
L 143.129201 495.331328 
M 143.269833 495.331328 
L 143.274949 397.586334 
L 143.280064 495.331328 
M 143.371783 495.331328 
L 143.37642 407.63879 
L 143.480915 495.331328 
M 143.726281 495.331328 
L 143.782306 393.674265 
L 143.787605 495.331328 
M 143.880838 495.331328 
L 143.934513 415.486914 
L 143.938771 495.331328 
M 144.031922 495.331328 
L 144.035985 419.444354 
L 144.040048 495.331328 
" clip-path="url(#p3d80b92740)" style="fill: none; stroke: #0000ff; stroke-opacity: 0.5; stroke-width: 1.5; stroke-linecap: round"/>
   </g>
   <g id="line2d_18">
    <path d="M 113.137926 29.702445 
L 113.188662 31.081983 
L 113.239398 53.294845 
L 113.290133 36.646771 
L 113.340869 37.253917 
L 113.391605 35.647736 
L 113.442341 45.848107 
L 113.493076 44.021404 
L 113.645283 29.647415 
L 113.696019 58.094359 
L 113.746755 38.785315 
L 113.797491 28.148033 
L 113.848226 31.492318 
L 114.000434 50.566854 
L 114.051169 47.283132 
L 114.101905 97.063484 
L 114.152641 92.639779 
L 114.203376 73.567012 
L 114.304848 117.866429 
L 114.355584 95.140865 
L 114.406319 54.276784 
L 114.457055 82.89106 
L 114.507791 78.098721 
L 114.761469 182.058839 
L 114.913677 39.875257 
L 114.964412 46.647222 
L 115.065884 83.872309 
L 115.11662 70.915351 
L 115.167355 75.502977 
L 115.218091 134.680014 
L 115.268827 106.420496 
L 115.421034 42.347559 
L 115.47177 34.128093 
L 115.522505 38.680223 
L 115.623977 61.244678 
L 115.82692 31.82774 
L 115.928391 50.064794 
L 116.080598 28.062953 
L 116.232806 45.378116 
L 116.283541 36.191359 
L 116.385013 37.378202 
L 116.435749 44.995789 
L 116.486484 75.482502 
L 116.53722 67.579684 
L 116.689427 32.263116 
L 116.790899 39.451581 
L 116.841634 38.184609 
L 117.044577 28.151213 
L 117.146049 29.499671 
L 117.196784 28.551205 
L 117.298256 67.224828 
L 117.348992 43.817608 
L 117.399727 61.851297 
L 117.60267 31.780049 
L 117.805613 71.68727 
L 117.856349 40.594627 
L 117.907085 58.71842 
L 117.95782 48.915841 
L 118.059292 89.421266 
L 118.211499 34.669777 
L 118.262235 35.272895 
L 118.363706 73.122377 
L 118.414442 37.652711 
L 118.515913 40.791834 
L 118.566649 151.697513 
L 118.617385 103.619713 
L 118.668121 54.011929 
L 118.718856 110.641918 
L 118.769592 122.2623 
L 118.820328 110.575578 
L 119.074006 28.859664 
L 119.175478 29.771084 
L 119.226214 34.06677 
L 119.276949 28.282372 
L 119.327685 32.837665 
L 119.378421 88.081184 
L 119.429156 54.480282 
L 119.479892 62.723571 
L 119.632099 28.47252 
L 119.682835 28.577093 
L 119.733571 28.459496 
L 119.784307 35.081851 
L 119.835042 29.159629 
L 119.885778 27.973296 
L 119.936514 30.959548 
L 120.240928 198.107395 
L 120.291664 185.406754 
L 120.3424 250.220115 
L 120.393135 198.00542 
L 120.443871 234.664824 
L 120.494607 200.877461 
L 120.646814 76.716686 
L 120.69755 96.14543 
L 120.799021 30.569174 
L 120.849757 37.42596 
L 120.900493 30.009342 
L 121.0527 65.201547 
L 121.103436 41.522887 
L 121.154171 103.008519 
L 121.204907 66.253441 
L 121.255643 61.922925 
L 121.306378 33.523216 
L 121.357114 53.799378 
L 121.661529 213.434743 
L 121.763 160.663501 
L 121.813736 173.186198 
L 121.915207 278.746182 
L 122.11815 92.0852 
L 122.168886 112.065347 
L 122.219622 95.156984 
L 122.270357 102.852038 
L 122.422564 243.860225 
L 122.625507 28.154304 
L 122.777715 30.783562 
L 122.82845 32.152266 
L 122.879186 30.387924 
L 122.929922 34.566418 
L 122.980658 30.103713 
L 123.031393 29.29732 
L 123.082129 38.289214 
L 123.132865 36.217101 
L 123.285072 30.61578 
L 123.335808 28.230293 
L 123.386543 30.314634 
L 123.538751 65.276514 
L 123.741693 38.268883 
L 123.792429 53.768834 
L 123.843165 42.930044 
L 123.944636 30.587057 
L 124.046108 29.560345 
L 124.096844 46.380997 
L 124.147579 39.860467 
L 124.299786 72.229297 
L 124.553465 314.715523 
L 124.654937 366.939179 
L 124.908615 175.596671 
L 124.959351 195.921734 
L 125.010087 297.709065 
L 125.162294 147.875678 
L 125.21303 84.965504 
L 125.263765 113.480077 
L 125.56818 416.859624 
L 125.618915 366.298047 
L 125.872594 55.602885 
L 125.92333 95.272446 
L 125.974065 117.465229 
L 126.024801 111.985926 
L 126.075537 89.62357 
L 126.430687 414.370539 
L 126.63363 185.119713 
L 126.735101 174.128614 
L 126.785837 180.927895 
L 126.887309 84.892426 
L 126.938044 121.828011 
L 127.191723 40.237767 
L 127.293194 67.28293 
L 127.34393 57.212026 
L 127.394666 40.164961 
L 127.445402 54.752717 
L 127.496137 67.815983 
L 127.597609 33.499267 
L 127.648345 41.535408 
L 127.749816 194.064384 
L 127.800552 126.95441 
L 127.902023 84.267163 
L 128.05423 223.69569 
L 128.155702 165.996749 
L 128.206438 166.92248 
L 128.40938 46.436045 
L 128.460116 68.016229 
L 128.510852 112.747722 
L 128.561588 78.510766 
L 128.612323 38.165232 
L 128.713795 40.370742 
L 128.815266 29.340715 
L 128.866002 52.038181 
L 128.916738 33.721122 
L 128.967473 33.671238 
L 129.018209 34.953298 
L 129.068945 28.503104 
L 129.221152 65.59051 
L 129.322624 66.859659 
L 129.373359 45.364769 
L 129.474831 28.421623 
L 129.525567 28.54908 
L 129.576302 57.372495 
L 129.627038 43.497085 
L 129.728509 28.645042 
L 129.779245 33.84031 
L 129.829981 38.158219 
L 129.982188 174.978376 
L 130.134395 68.348929 
L 130.185131 85.621249 
L 130.235867 45.30872 
L 130.286602 95.145873 
L 130.388074 90.813526 
L 130.489545 90.899426 
L 130.540281 67.752244 
L 130.692488 95.935179 
L 130.743224 82.556276 
L 130.79396 101.516499 
L 130.895431 61.793748 
L 130.996903 133.210282 
L 131.047638 105.922619 
L 131.098374 116.899965 
L 131.250581 222.365629 
L 131.301317 188.476507 
L 131.352053 246.03608 
L 131.402788 134.589472 
L 131.453524 211.26058 
L 131.554996 173.877883 
L 131.605731 104.073081 
L 131.656467 104.663277 
L 131.707203 123.388502 
L 131.757939 187.08852 
L 131.808674 144.408373 
L 131.85941 146.435524 
L 132.011617 86.753429 
L 132.163824 235.04212 
L 132.21456 111.495208 
L 132.265296 154.309437 
L 132.316032 175.599002 
L 132.366767 261.841967 
L 132.417503 188.4769 
L 132.56971 265.783205 
L 133.026332 32.499436 
L 133.28001 212.960931 
L 133.381482 205.802987 
L 133.482953 133.370859 
L 133.533689 154.686328 
L 133.635161 254.200545 
L 133.685896 246.241603 
L 133.888839 74.244442 
L 133.939575 111.619091 
L 133.990311 80.968022 
L 134.041046 86.114017 
L 134.243989 154.490574 
L 134.396196 91.95941 
L 134.497668 125.461679 
L 134.548404 125.062691 
L 134.599139 95.371318 
L 134.700611 199.52276 
L 134.852818 382.810863 
L 134.954289 234.791795 
L 135.005025 294.592604 
L 135.055761 159.347452 
L 135.106497 295.97162 
L 135.157232 292.143623 
L 135.207968 277.656418 
L 135.461647 38.799325 
L 135.66459 160.311328 
L 135.715325 96.895756 
L 135.766061 66.779543 
L 135.918268 261.057294 
L 136.01974 254.093797 
L 136.070476 439.987868 
L 136.171947 319.126015 
L 136.273418 365.27224 
L 136.324154 415.037398 
L 136.37489 337.797687 
L 136.425626 414.145843 
L 136.527097 347.001284 
L 136.581667 495.331328 
M 136.771313 495.331328 
L 136.831511 283.668358 
L 136.882247 285.95961 
L 136.983719 317.245413 
L 137.08519 310.160434 
L 137.135926 301.788783 
L 137.186662 312.472497 
L 137.237397 297.591717 
L 137.288133 239.888712 
L 137.338869 277.464952 
L 137.389604 270.244623 
L 137.541812 396.88089 
L 137.592547 302.490803 
L 137.643283 372.876011 
L 137.694019 339.018033 
L 137.744755 339.071632 
L 137.79549 374.831124 
L 137.801652 495.331328 
M 138.497639 495.331328 
L 138.50579 328.473975 
L 138.607262 409.324338 
L 138.657998 367.608493 
L 138.708733 389.906236 
L 138.759469 383.337956 
L 138.810205 355.150023 
L 138.817234 495.331328 
M 139.463598 495.331328 
L 139.469769 374.621641 
L 139.475941 495.331328 
M 139.565094 495.331328 
L 139.621977 216.163105 
L 139.672712 291.088773 
L 139.723448 288.533761 
L 139.774184 289.029004 
L 139.926391 164.346314 
L 139.977127 108.721965 
L 140.078598 316.192152 
L 140.129334 237.418899 
L 140.281541 93.656069 
L 140.332277 93.012597 
L 140.383012 89.437902 
L 140.53522 202.572809 
L 140.585955 183.549435 
L 140.636691 213.585667 
L 140.738163 209.849864 
L 140.750679 495.331328 
M 141.746509 495.331328 
L 141.752877 370.225115 
L 141.854349 381.018704 
L 141.905084 365.503183 
L 141.911661 495.331328 
M 142.001107 495.331328 
L 142.006556 390.44791 
L 142.061611 495.331328 
M 142.91636 495.331328 
L 143.02127 270.084902 
L 143.072006 219.737986 
L 143.173478 367.568338 
L 143.224213 341.46541 
L 143.325685 346.24087 
L 143.427156 220.656659 
L 143.477892 220.356991 
L 143.528628 309.717941 
L 143.579363 270.96339 
L 143.731571 160.693246 
L 143.782306 189.530214 
L 143.883778 429.593682 
L 143.934513 392.49758 
L 144.035985 354.406264 
L 144.043046 495.331328 
M 144.336979 495.331328 
L 144.340399 432.328947 
L 144.343819 495.331328 
M 144.488543 495.331328 
L 144.492606 419.438147 
L 144.49667 495.331328 
" clip-path="url(#p3d80b92740)" style="fill: none; stroke: #008000; stroke-opacity: 0.5; stroke-width: 1.5; stroke-linecap: round"/>
   </g>
   <g id="line2d_19">
    <path d="M 82.701563 29.636482 
L 752.301563 29.636482 
" clip-path="url(#p3d80b92740)" style="fill: none; stroke-dasharray: 5.55,2.4; stroke-dashoffset: 0; stroke: #000000; stroke-width: 1.5"/>
   </g>
   <g id="patch_3">
    <path d="M 82.701563 442.08 
L 82.701563 7.2 
" style="fill: none; stroke: #cccccc; stroke-width: 1.25; stroke-linejoin: miter; stroke-linecap: square"/>
   </g>
   <g id="patch_4">
    <path d="M 752.301563 442.08 
L 752.301563 7.2 
" style="fill: none; stroke: #cccccc; stroke-width: 1.25; stroke-linejoin: miter; stroke-linecap: square"/>
   </g>
   <g id="patch_5">
    <path d="M 82.701563 442.08 
L 752.301563 442.08 
" style="fill: none; stroke: #cccccc; stroke-width: 1.25; stroke-linejoin: miter; stroke-linecap: square"/>
   </g>
   <g id="patch_6">
    <path d="M 82.701563 7.2 
L 752.301563 7.2 
" style="fill: none; stroke: #cccccc; stroke-width: 1.25; stroke-linejoin: miter; stroke-linecap: square"/>
   </g>
   <g id="legend_1">
    <g id="patch_7">
     <path d="M 403.51125 435.08 
L 742.501563 435.08 
Q 745.301563 435.08 745.301563 432.28 
L 745.301563 354.055 
Q 745.301563 351.255 742.501563 351.255 
L 403.51125 351.255 
Q 400.71125 351.255 400.71125 354.055 
L 400.71125 432.28 
Q 400.71125 435.08 403.51125 435.08 
z
" style="fill: #ffffff; stroke: #000000; stroke-linejoin: miter"/>
    </g>
    <g id="line2d_20">
     <path d="M 406.31125 361.975937 
L 420.31125 361.975937 
L 434.31125 361.975937 
" style="fill: none; stroke: #ff0000; stroke-opacity: 0.5; stroke-width: 1.5; stroke-linecap: round"/>
    </g>
    <g id="text_18">
     <!-- linear vs. exponential even spacing -->
     <g style="fill: #262626" transform="translate(445.51125 366.875937)scale(0.14 -0.14)">
      <defs>
       <path id="ArialMT-72" d="M 416 0 
L 416 3319 
L 922 3319 
L 922 2816 
Q 1116 3169 1280 3281 
Q 1444 3394 1641 3394 
Q 1925 3394 2219 3213 
L 2025 2691 
Q 1819 2813 1613 2813 
Q 1428 2813 1281 2702 
Q 1134 2591 1072 2394 
Q 978 2094 978 1738 
L 978 0 
L 416 0 
z
" transform="scale(0.015625)"/>
       <path id="ArialMT-20" transform="scale(0.015625)"/>
       <path id="ArialMT-2e" d="M 581 0 
L 581 641 
L 1222 641 
L 1222 0 
L 581 0 
z
" transform="scale(0.015625)"/>
       <path id="ArialMT-78" d="M 47 0 
L 1259 1725 
L 138 3319 
L 841 3319 
L 1350 2541 
Q 1494 2319 1581 2169 
Q 1719 2375 1834 2534 
L 2394 3319 
L 3066 3319 
L 1919 1756 
L 3153 0 
L 2463 0 
L 1781 1031 
L 1600 1309 
L 728 0 
L 47 0 
z
" transform="scale(0.015625)"/>
       <path id="ArialMT-63" d="M 2588 1216 
L 3141 1144 
Q 3050 572 2676 248 
Q 2303 -75 1759 -75 
Q 1078 -75 664 370 
Q 250 816 250 1647 
Q 250 2184 428 2587 
Q 606 2991 970 3192 
Q 1334 3394 1763 3394 
Q 2303 3394 2647 3120 
Q 2991 2847 3088 2344 
L 2541 2259 
Q 2463 2594 2264 2762 
Q 2066 2931 1784 2931 
Q 1359 2931 1093 2626 
Q 828 2322 828 1663 
Q 828 994 1084 691 
Q 1341 388 1753 388 
Q 2084 388 2306 591 
Q 2528 794 2588 1216 
z
" transform="scale(0.015625)"/>
       <path id="ArialMT-67" d="M 319 -275 
L 866 -356 
Q 900 -609 1056 -725 
Q 1266 -881 1628 -881 
Q 2019 -881 2231 -725 
Q 2444 -569 2519 -288 
Q 2563 -116 2559 434 
Q 2191 0 1641 0 
Q 956 0 581 494 
Q 206 988 206 1678 
Q 206 2153 378 2554 
Q 550 2956 876 3175 
Q 1203 3394 1644 3394 
Q 2231 3394 2613 2919 
L 2613 3319 
L 3131 3319 
L 3131 450 
Q 3131 -325 2973 -648 
Q 2816 -972 2473 -1159 
Q 2131 -1347 1631 -1347 
Q 1038 -1347 672 -1080 
Q 306 -813 319 -275 
z
M 784 1719 
Q 784 1066 1043 766 
Q 1303 466 1694 466 
Q 2081 466 2343 764 
Q 2606 1063 2606 1700 
Q 2606 2309 2336 2618 
Q 2066 2928 1684 2928 
Q 1309 2928 1046 2623 
Q 784 2319 784 1719 
z
" transform="scale(0.015625)"/>
      </defs>
      <use xlink:href="#ArialMT-6c"/>
      <use xlink:href="#ArialMT-69" x="22.216797"/>
      <use xlink:href="#ArialMT-6e" x="44.433594"/>
      <use xlink:href="#ArialMT-65" x="100.048828"/>
      <use xlink:href="#ArialMT-61" x="155.664062"/>
      <use xlink:href="#ArialMT-72" x="211.279297"/>
      <use xlink:href="#ArialMT-20" x="244.580078"/>
      <use xlink:href="#ArialMT-76" x="272.363281"/>
      <use xlink:href="#ArialMT-73" x="322.363281"/>
      <use xlink:href="#ArialMT-2e" x="372.363281"/>
      <use xlink:href="#ArialMT-20" x="400.146484"/>
      <use xlink:href="#ArialMT-65" x="427.929688"/>
      <use xlink:href="#ArialMT-78" x="483.544922"/>
      <use xlink:href="#ArialMT-70" x="533.544922"/>
      <use xlink:href="#ArialMT-6f" x="589.160156"/>
      <use xlink:href="#ArialMT-6e" x="644.775391"/>
      <use xlink:href="#ArialMT-65" x="700.390625"/>
      <use xlink:href="#ArialMT-6e" x="756.005859"/>
      <use xlink:href="#ArialMT-74" x="811.621094"/>
      <use xlink:href="#ArialMT-69" x="839.404297"/>
      <use xlink:href="#ArialMT-61" x="861.621094"/>
      <use xlink:href="#ArialMT-6c" x="917.236328"/>
      <use xlink:href="#ArialMT-20" x="939.453125"/>
      <use xlink:href="#ArialMT-65" x="967.236328"/>
      <use xlink:href="#ArialMT-76" x="1022.851562"/>
      <use xlink:href="#ArialMT-65" x="1072.851562"/>
      <use xlink:href="#ArialMT-6e" x="1128.466797"/>
      <use xlink:href="#ArialMT-20" x="1184.082031"/>
      <use xlink:href="#ArialMT-73" x="1211.865234"/>
      <use xlink:href="#ArialMT-70" x="1261.865234"/>
      <use xlink:href="#ArialMT-61" x="1317.480469"/>
      <use xlink:href="#ArialMT-63" x="1373.095703"/>
      <use xlink:href="#ArialMT-69" x="1423.095703"/>
      <use xlink:href="#ArialMT-6e" x="1445.3125"/>
      <use xlink:href="#ArialMT-67" x="1500.927734"/>
     </g>
    </g>
    <g id="line2d_21">
     <path d="M 406.31125 381.985 
L 420.31125 381.985 
L 434.31125 381.985 
" style="fill: none; stroke: #0000ff; stroke-opacity: 0.5; stroke-width: 1.5; stroke-linecap: round"/>
    </g>
    <g id="text_19">
     <!-- linear vs. exponential 0.003 -->
     <g style="fill: #262626" transform="translate(445.51125 386.885)scale(0.14 -0.14)">
      <use xlink:href="#ArialMT-6c"/>
      <use xlink:href="#ArialMT-69" x="22.216797"/>
      <use xlink:href="#ArialMT-6e" x="44.433594"/>
      <use xlink:href="#ArialMT-65" x="100.048828"/>
      <use xlink:href="#ArialMT-61" x="155.664062"/>
      <use xlink:href="#ArialMT-72" x="211.279297"/>
      <use xlink:href="#ArialMT-20" x="244.580078"/>
      <use xlink:href="#ArialMT-76" x="272.363281"/>
      <use xlink:href="#ArialMT-73" x="322.363281"/>
      <use xlink:href="#ArialMT-2e" x="372.363281"/>
      <use xlink:href="#ArialMT-20" x="400.146484"/>
      <use xlink:href="#ArialMT-65" x="427.929688"/>
      <use xlink:href="#ArialMT-78" x="483.544922"/>
      <use xlink:href="#ArialMT-70" x="533.544922"/>
      <use xlink:href="#ArialMT-6f" x="589.160156"/>
      <use xlink:href="#ArialMT-6e" x="644.775391"/>
      <use xlink:href="#ArialMT-65" x="700.390625"/>
      <use xlink:href="#ArialMT-6e" x="756.005859"/>
      <use xlink:href="#ArialMT-74" x="811.621094"/>
      <use xlink:href="#ArialMT-69" x="839.404297"/>
      <use xlink:href="#ArialMT-61" x="861.621094"/>
      <use xlink:href="#ArialMT-6c" x="917.236328"/>
      <use xlink:href="#ArialMT-20" x="939.453125"/>
      <use xlink:href="#ArialMT-30" x="967.236328"/>
      <use xlink:href="#ArialMT-2e" x="1022.851562"/>
      <use xlink:href="#ArialMT-30" x="1050.634766"/>
      <use xlink:href="#ArialMT-30" x="1106.25"/>
      <use xlink:href="#ArialMT-33" x="1161.865234"/>
     </g>
    </g>
    <g id="line2d_22">
     <path d="M 406.31125 401.83 
L 420.31125 401.83 
L 434.31125 401.83 
" style="fill: none; stroke: #008000; stroke-opacity: 0.5; stroke-width: 1.5; stroke-linecap: round"/>
    </g>
    <g id="text_20">
     <!-- exponential even spacing vs. exponential 0.003 -->
     <g style="fill: #262626" transform="translate(445.51125 406.73)scale(0.14 -0.14)">
      <use xlink:href="#ArialMT-65"/>
      <use xlink:href="#ArialMT-78" x="55.615234"/>
      <use xlink:href="#ArialMT-70" x="105.615234"/>
      <use xlink:href="#ArialMT-6f" x="161.230469"/>
      <use xlink:href="#ArialMT-6e" x="216.845703"/>
      <use xlink:href="#ArialMT-65" x="272.460938"/>
      <use xlink:href="#ArialMT-6e" x="328.076172"/>
      <use xlink:href="#ArialMT-74" x="383.691406"/>
      <use xlink:href="#ArialMT-69" x="411.474609"/>
      <use xlink:href="#ArialMT-61" x="433.691406"/>
      <use xlink:href="#ArialMT-6c" x="489.306641"/>
      <use xlink:href="#ArialMT-20" x="511.523438"/>
      <use xlink:href="#ArialMT-65" x="539.306641"/>
      <use xlink:href="#ArialMT-76" x="594.921875"/>
      <use xlink:href="#ArialMT-65" x="644.921875"/>
      <use xlink:href="#ArialMT-6e" x="700.537109"/>
      <use xlink:href="#ArialMT-20" x="756.152344"/>
      <use xlink:href="#ArialMT-73" x="783.935547"/>
      <use xlink:href="#ArialMT-70" x="833.935547"/>
      <use xlink:href="#ArialMT-61" x="889.550781"/>
      <use xlink:href="#ArialMT-63" x="945.166016"/>
      <use xlink:href="#ArialMT-69" x="995.166016"/>
      <use xlink:href="#ArialMT-6e" x="1017.382812"/>
      <use xlink:href="#ArialMT-67" x="1072.998047"/>
      <use xlink:href="#ArialMT-20" x="1128.613281"/>
      <use xlink:href="#ArialMT-76" x="1156.396484"/>
      <use xlink:href="#ArialMT-73" x="1206.396484"/>
      <use xlink:href="#ArialMT-2e" x="1256.396484"/>
      <use xlink:href="#ArialMT-20" x="1284.179688"/>
      <use xlink:href="#ArialMT-65" x="1311.962891"/>
      <use xlink:href="#ArialMT-78" x="1367.578125"/>
      <use xlink:href="#ArialMT-70" x="1417.578125"/>
      <use xlink:href="#ArialMT-6f" x="1473.193359"/>
      <use xlink:href="#ArialMT-6e" x="1528.808594"/>
      <use xlink:href="#ArialMT-65" x="1584.423828"/>
      <use xlink:href="#ArialMT-6e" x="1640.039062"/>
      <use xlink:href="#ArialMT-74" x="1695.654297"/>
      <use xlink:href="#ArialMT-69" x="1723.4375"/>
      <use xlink:href="#ArialMT-61" x="1745.654297"/>
      <use xlink:href="#ArialMT-6c" x="1801.269531"/>
      <use xlink:href="#ArialMT-20" x="1823.486328"/>
      <use xlink:href="#ArialMT-30" x="1851.269531"/>
      <use xlink:href="#ArialMT-2e" x="1906.884766"/>
      <use xlink:href="#ArialMT-30" x="1934.667969"/>
      <use xlink:href="#ArialMT-30" x="1990.283203"/>
      <use xlink:href="#ArialMT-33" x="2045.898438"/>
     </g>
    </g>
    <g id="line2d_23">
     <path d="M 406.31125 421.7975 
L 420.31125 421.7975 
L 434.31125 421.7975 
" style="fill: none; stroke-dasharray: 5.55,2.4; stroke-dashoffset: 0; stroke: #000000; stroke-width: 1.5"/>
    </g>
    <g id="text_21">
     <!-- $\alpha$ of 0.05 -->
     <g style="fill: #262626" transform="translate(445.51125 426.6975)scale(0.14 -0.14)">
      <defs>
       <path id="DejaVuSans-Oblique-3b1" d="M 2619 1628 
L 2622 2350 
Q 2625 3088 2069 3091 
Q 1653 3094 1394 2747 
Q 1069 2319 959 1747 
Q 825 1059 994 731 
Q 1169 397 1547 397 
Q 1966 397 2319 1063 
L 2619 1628 
z
M 2166 3578 
Q 3141 3594 3128 2584 
Q 3128 2584 3616 3500 
L 4128 3500 
L 3119 1603 
L 3109 919 
Q 3109 766 3194 638 
Q 3291 488 3391 488 
L 3669 488 
L 3575 0 
L 3228 0 
Q 2934 0 2722 263 
Q 2622 394 2619 669 
Q 2416 334 2066 50 
Q 1900 -81 1453 -78 
Q 722 -72 456 397 
Q 184 884 353 1747 
Q 534 2675 1009 3097 
Q 1544 3569 2166 3578 
z
" transform="scale(0.015625)"/>
       <path id="ArialMT-66" d="M 556 0 
L 556 2881 
L 59 2881 
L 59 3319 
L 556 3319 
L 556 3672 
Q 556 4006 616 4169 
Q 697 4388 901 4523 
Q 1106 4659 1475 4659 
Q 1713 4659 2000 4603 
L 1916 4113 
Q 1741 4144 1584 4144 
Q 1328 4144 1222 4034 
Q 1116 3925 1116 3625 
L 1116 3319 
L 1763 3319 
L 1763 2881 
L 1116 2881 
L 1116 0 
L 556 0 
z
" transform="scale(0.015625)"/>
      </defs>
      <use xlink:href="#DejaVuSans-Oblique-3b1" transform="translate(0 0.203125)"/>
      <use xlink:href="#ArialMT-20" transform="translate(65.917969 0.203125)"/>
      <use xlink:href="#ArialMT-6f" transform="translate(93.701172 0.203125)"/>
      <use xlink:href="#ArialMT-66" transform="translate(149.316406 0.203125)"/>
      <use xlink:href="#ArialMT-20" transform="translate(177.099609 0.203125)"/>
      <use xlink:href="#ArialMT-30" transform="translate(204.882812 0.203125)"/>
      <use xlink:href="#ArialMT-2e" transform="translate(260.498047 0.203125)"/>
      <use xlink:href="#ArialMT-30" transform="translate(288.28125 0.203125)"/>
      <use xlink:href="#ArialMT-35" transform="translate(343.896484 0.203125)"/>
     </g>
    </g>
   </g>
  </g>
 </g>
 <defs>
  <clipPath id="p3d80b92740">
   <rect x="82.701563" y="7.2" width="669.6" height="434.88"/>
  </clipPath>
 </defs>
</svg>
