<?xml version="1.0" encoding="utf-8" standalone="no"?>
<!DOCTYPE svg PUBLIC "-//W3C//DTD SVG 1.1//EN"
  "http://www.w3.org/Graphics/SVG/1.1/DTD/svg11.dtd">
<svg xmlns:xlink="http://www.w3.org/1999/xlink" width="717.362266pt" height="450.843328pt" viewBox="0 0 717.362266 450.843328" xmlns="http://www.w3.org/2000/svg" version="1.1">
 <metadata>
  <rdf:RDF xmlns:dc="http://purl.org/dc/elements/1.1/" xmlns:cc="http://creativecommons.org/ns#" xmlns:rdf="http://www.w3.org/1999/02/22-rdf-syntax-ns#">
   <cc:Work>
    <dc:type rdf:resource="http://purl.org/dc/dcmitype/StillImage"/>
    <dc:date>2022-12-22T21:08:02.052597</dc:date>
    <dc:format>image/svg+xml</dc:format>
    <dc:creator>
     <cc:Agent>
      <dc:title>Matplotlib v3.5.2, https://matplotlib.org/</dc:title>
     </cc:Agent>
    </dc:creator>
   </cc:Work>
  </rdf:RDF>
 </metadata>
 <defs>
  <style type="text/css">*{stroke-linejoin: round; stroke-linecap: butt}</style>
 </defs>
 <g id="figure_1">
  <g id="patch_1">
   <path d="M -0 450.843328 
L 717.362266 450.843328 
L 717.362266 0 
L -0 0 
z
" style="fill: #ffffff"/>
  </g>
  <g id="axes_1">
   <g id="patch_2">
    <path d="M 65.326641 398.592 
L 667.966641 398.592 
L 667.966641 7.2 
L 65.326641 7.2 
z
" style="fill: #ffffff"/>
   </g>
   <g id="matplotlib.axis_1">
    <g id="xtick_1">
     <g id="line2d_1">
      <path d="M 92.673706 398.592 
L 92.673706 7.2 
" clip-path="url(#p04d7b1d1dc)" style="fill: none; stroke: #cccccc; stroke-linecap: round"/>
     </g>
     <g id="text_1">
      <!-- 0 -->
      <g style="fill: #262626" transform="translate(88.085932 419.902391)scale(0.165 -0.165)">
       <defs>
        <path id="ArialMT-30" d="M 266 2259 
Q 266 3072 433 3567 
Q 600 4063 929 4331 
Q 1259 4600 1759 4600 
Q 2128 4600 2406 4451 
Q 2684 4303 2865 4023 
Q 3047 3744 3150 3342 
Q 3253 2941 3253 2259 
Q 3253 1453 3087 958 
Q 2922 463 2592 192 
Q 2263 -78 1759 -78 
Q 1097 -78 719 397 
Q 266 969 266 2259 
z
M 844 2259 
Q 844 1131 1108 757 
Q 1372 384 1759 384 
Q 2147 384 2411 759 
Q 2675 1134 2675 2259 
Q 2675 3391 2411 3762 
Q 2147 4134 1753 4134 
Q 1366 4134 1134 3806 
Q 844 3388 844 2259 
z
" transform="scale(0.015625)"/>
       </defs>
       <use xlink:href="#ArialMT-30"/>
      </g>
     </g>
    </g>
    <g id="xtick_2">
     <g id="line2d_2">
      <path d="M 183.998017 398.592 
L 183.998017 7.2 
" clip-path="url(#p04d7b1d1dc)" style="fill: none; stroke: #cccccc; stroke-linecap: round"/>
     </g>
     <g id="text_2">
      <!-- 2000 -->
      <g style="fill: #262626" transform="translate(165.646924 419.902391)scale(0.165 -0.165)">
       <defs>
        <path id="ArialMT-32" d="M 3222 541 
L 3222 0 
L 194 0 
Q 188 203 259 391 
Q 375 700 629 1000 
Q 884 1300 1366 1694 
Q 2113 2306 2375 2664 
Q 2638 3022 2638 3341 
Q 2638 3675 2398 3904 
Q 2159 4134 1775 4134 
Q 1369 4134 1125 3890 
Q 881 3647 878 3216 
L 300 3275 
Q 359 3922 746 4261 
Q 1134 4600 1788 4600 
Q 2447 4600 2831 4234 
Q 3216 3869 3216 3328 
Q 3216 3053 3103 2787 
Q 2991 2522 2730 2228 
Q 2469 1934 1863 1422 
Q 1356 997 1212 845 
Q 1069 694 975 541 
L 3222 541 
z
" transform="scale(0.015625)"/>
       </defs>
       <use xlink:href="#ArialMT-32"/>
       <use xlink:href="#ArialMT-30" x="55.615234"/>
       <use xlink:href="#ArialMT-30" x="111.230469"/>
       <use xlink:href="#ArialMT-30" x="166.845703"/>
      </g>
     </g>
    </g>
    <g id="xtick_3">
     <g id="line2d_3">
      <path d="M 275.322329 398.592 
L 275.322329 7.2 
" clip-path="url(#p04d7b1d1dc)" style="fill: none; stroke: #cccccc; stroke-linecap: round"/>
     </g>
     <g id="text_3">
      <!-- 4000 -->
      <g style="fill: #262626" transform="translate(256.971235 419.902391)scale(0.165 -0.165)">
       <defs>
        <path id="ArialMT-34" d="M 2069 0 
L 2069 1097 
L 81 1097 
L 81 1613 
L 2172 4581 
L 2631 4581 
L 2631 1613 
L 3250 1613 
L 3250 1097 
L 2631 1097 
L 2631 0 
L 2069 0 
z
M 2069 1613 
L 2069 3678 
L 634 1613 
L 2069 1613 
z
" transform="scale(0.015625)"/>
       </defs>
       <use xlink:href="#ArialMT-34"/>
       <use xlink:href="#ArialMT-30" x="55.615234"/>
       <use xlink:href="#ArialMT-30" x="111.230469"/>
       <use xlink:href="#ArialMT-30" x="166.845703"/>
      </g>
     </g>
    </g>
    <g id="xtick_4">
     <g id="line2d_4">
      <path d="M 366.646641 398.592 
L 366.646641 7.2 
" clip-path="url(#p04d7b1d1dc)" style="fill: none; stroke: #cccccc; stroke-linecap: round"/>
     </g>
     <g id="text_4">
      <!-- 6000 -->
      <g style="fill: #262626" transform="translate(348.295547 419.902391)scale(0.165 -0.165)">
       <defs>
        <path id="ArialMT-36" d="M 3184 3459 
L 2625 3416 
Q 2550 3747 2413 3897 
Q 2184 4138 1850 4138 
Q 1581 4138 1378 3988 
Q 1113 3794 959 3422 
Q 806 3050 800 2363 
Q 1003 2672 1297 2822 
Q 1591 2972 1913 2972 
Q 2475 2972 2870 2558 
Q 3266 2144 3266 1488 
Q 3266 1056 3080 686 
Q 2894 316 2569 119 
Q 2244 -78 1831 -78 
Q 1128 -78 684 439 
Q 241 956 241 2144 
Q 241 3472 731 4075 
Q 1159 4600 1884 4600 
Q 2425 4600 2770 4297 
Q 3116 3994 3184 3459 
z
M 888 1484 
Q 888 1194 1011 928 
Q 1134 663 1356 523 
Q 1578 384 1822 384 
Q 2178 384 2434 671 
Q 2691 959 2691 1453 
Q 2691 1928 2437 2201 
Q 2184 2475 1800 2475 
Q 1419 2475 1153 2201 
Q 888 1928 888 1484 
z
" transform="scale(0.015625)"/>
       </defs>
       <use xlink:href="#ArialMT-36"/>
       <use xlink:href="#ArialMT-30" x="55.615234"/>
       <use xlink:href="#ArialMT-30" x="111.230469"/>
       <use xlink:href="#ArialMT-30" x="166.845703"/>
      </g>
     </g>
    </g>
    <g id="xtick_5">
     <g id="line2d_5">
      <path d="M 457.970952 398.592 
L 457.970952 7.2 
" clip-path="url(#p04d7b1d1dc)" style="fill: none; stroke: #cccccc; stroke-linecap: round"/>
     </g>
     <g id="text_5">
      <!-- 8000 -->
      <g style="fill: #262626" transform="translate(439.619859 419.902391)scale(0.165 -0.165)">
       <defs>
        <path id="ArialMT-38" d="M 1131 2484 
Q 781 2613 612 2850 
Q 444 3088 444 3419 
Q 444 3919 803 4259 
Q 1163 4600 1759 4600 
Q 2359 4600 2725 4251 
Q 3091 3903 3091 3403 
Q 3091 3084 2923 2848 
Q 2756 2613 2416 2484 
Q 2838 2347 3058 2040 
Q 3278 1734 3278 1309 
Q 3278 722 2862 322 
Q 2447 -78 1769 -78 
Q 1091 -78 675 323 
Q 259 725 259 1325 
Q 259 1772 486 2073 
Q 713 2375 1131 2484 
z
M 1019 3438 
Q 1019 3113 1228 2906 
Q 1438 2700 1772 2700 
Q 2097 2700 2305 2904 
Q 2513 3109 2513 3406 
Q 2513 3716 2298 3927 
Q 2084 4138 1766 4138 
Q 1444 4138 1231 3931 
Q 1019 3725 1019 3438 
z
M 838 1322 
Q 838 1081 952 856 
Q 1066 631 1291 507 
Q 1516 384 1775 384 
Q 2178 384 2440 643 
Q 2703 903 2703 1303 
Q 2703 1709 2433 1975 
Q 2163 2241 1756 2241 
Q 1359 2241 1098 1978 
Q 838 1716 838 1322 
z
" transform="scale(0.015625)"/>
       </defs>
       <use xlink:href="#ArialMT-38"/>
       <use xlink:href="#ArialMT-30" x="55.615234"/>
       <use xlink:href="#ArialMT-30" x="111.230469"/>
       <use xlink:href="#ArialMT-30" x="166.845703"/>
      </g>
     </g>
    </g>
    <g id="xtick_6">
     <g id="line2d_6">
      <path d="M 549.295264 398.592 
L 549.295264 7.2 
" clip-path="url(#p04d7b1d1dc)" style="fill: none; stroke: #cccccc; stroke-linecap: round"/>
     </g>
     <g id="text_6">
      <!-- 10000 -->
      <g style="fill: #262626" transform="translate(526.356397 419.902391)scale(0.165 -0.165)">
       <defs>
        <path id="ArialMT-31" d="M 2384 0 
L 1822 0 
L 1822 3584 
Q 1619 3391 1289 3197 
Q 959 3003 697 2906 
L 697 3450 
Q 1169 3672 1522 3987 
Q 1875 4303 2022 4600 
L 2384 4600 
L 2384 0 
z
" transform="scale(0.015625)"/>
       </defs>
       <use xlink:href="#ArialMT-31"/>
       <use xlink:href="#ArialMT-30" x="55.615234"/>
       <use xlink:href="#ArialMT-30" x="111.230469"/>
       <use xlink:href="#ArialMT-30" x="166.845703"/>
       <use xlink:href="#ArialMT-30" x="222.460938"/>
      </g>
     </g>
    </g>
    <g id="xtick_7">
     <g id="line2d_7">
      <path d="M 640.619576 398.592 
L 640.619576 7.2 
" clip-path="url(#p04d7b1d1dc)" style="fill: none; stroke: #cccccc; stroke-linecap: round"/>
     </g>
     <g id="text_7">
      <!-- 12000 -->
      <g style="fill: #262626" transform="translate(617.680708 419.902391)scale(0.165 -0.165)">
       <use xlink:href="#ArialMT-31"/>
       <use xlink:href="#ArialMT-32" x="55.615234"/>
       <use xlink:href="#ArialMT-30" x="111.230469"/>
       <use xlink:href="#ArialMT-30" x="166.845703"/>
       <use xlink:href="#ArialMT-30" x="222.460938"/>
      </g>
     </g>
    </g>
    <g id="text_8">
     <!-- Evaluations -->
     <g style="fill: #262626" transform="translate(320.119453 440.065828)scale(0.18 -0.18)">
      <defs>
       <path id="ArialMT-45" d="M 506 0 
L 506 4581 
L 3819 4581 
L 3819 4041 
L 1113 4041 
L 1113 2638 
L 3647 2638 
L 3647 2100 
L 1113 2100 
L 1113 541 
L 3925 541 
L 3925 0 
L 506 0 
z
" transform="scale(0.015625)"/>
       <path id="ArialMT-76" d="M 1344 0 
L 81 3319 
L 675 3319 
L 1388 1331 
Q 1503 1009 1600 663 
Q 1675 925 1809 1294 
L 2547 3319 
L 3125 3319 
L 1869 0 
L 1344 0 
z
" transform="scale(0.015625)"/>
       <path id="ArialMT-61" d="M 2588 409 
Q 2275 144 1986 34 
Q 1697 -75 1366 -75 
Q 819 -75 525 192 
Q 231 459 231 875 
Q 231 1119 342 1320 
Q 453 1522 633 1644 
Q 813 1766 1038 1828 
Q 1203 1872 1538 1913 
Q 2219 1994 2541 2106 
Q 2544 2222 2544 2253 
Q 2544 2597 2384 2738 
Q 2169 2928 1744 2928 
Q 1347 2928 1158 2789 
Q 969 2650 878 2297 
L 328 2372 
Q 403 2725 575 2942 
Q 747 3159 1072 3276 
Q 1397 3394 1825 3394 
Q 2250 3394 2515 3294 
Q 2781 3194 2906 3042 
Q 3031 2891 3081 2659 
Q 3109 2516 3109 2141 
L 3109 1391 
Q 3109 606 3145 398 
Q 3181 191 3288 0 
L 2700 0 
Q 2613 175 2588 409 
z
M 2541 1666 
Q 2234 1541 1622 1453 
Q 1275 1403 1131 1340 
Q 988 1278 909 1158 
Q 831 1038 831 891 
Q 831 666 1001 516 
Q 1172 366 1500 366 
Q 1825 366 2078 508 
Q 2331 650 2450 897 
Q 2541 1088 2541 1459 
L 2541 1666 
z
" transform="scale(0.015625)"/>
       <path id="ArialMT-6c" d="M 409 0 
L 409 4581 
L 972 4581 
L 972 0 
L 409 0 
z
" transform="scale(0.015625)"/>
       <path id="ArialMT-75" d="M 2597 0 
L 2597 488 
Q 2209 -75 1544 -75 
Q 1250 -75 995 37 
Q 741 150 617 320 
Q 494 491 444 738 
Q 409 903 409 1263 
L 409 3319 
L 972 3319 
L 972 1478 
Q 972 1038 1006 884 
Q 1059 663 1231 536 
Q 1403 409 1656 409 
Q 1909 409 2131 539 
Q 2353 669 2445 892 
Q 2538 1116 2538 1541 
L 2538 3319 
L 3100 3319 
L 3100 0 
L 2597 0 
z
" transform="scale(0.015625)"/>
       <path id="ArialMT-74" d="M 1650 503 
L 1731 6 
Q 1494 -44 1306 -44 
Q 1000 -44 831 53 
Q 663 150 594 308 
Q 525 466 525 972 
L 525 2881 
L 113 2881 
L 113 3319 
L 525 3319 
L 525 4141 
L 1084 4478 
L 1084 3319 
L 1650 3319 
L 1650 2881 
L 1084 2881 
L 1084 941 
Q 1084 700 1114 631 
Q 1144 563 1211 522 
Q 1278 481 1403 481 
Q 1497 481 1650 503 
z
" transform="scale(0.015625)"/>
       <path id="ArialMT-69" d="M 425 3934 
L 425 4581 
L 988 4581 
L 988 3934 
L 425 3934 
z
M 425 0 
L 425 3319 
L 988 3319 
L 988 0 
L 425 0 
z
" transform="scale(0.015625)"/>
       <path id="ArialMT-6f" d="M 213 1659 
Q 213 2581 725 3025 
Q 1153 3394 1769 3394 
Q 2453 3394 2887 2945 
Q 3322 2497 3322 1706 
Q 3322 1066 3130 698 
Q 2938 331 2570 128 
Q 2203 -75 1769 -75 
Q 1072 -75 642 372 
Q 213 819 213 1659 
z
M 791 1659 
Q 791 1022 1069 705 
Q 1347 388 1769 388 
Q 2188 388 2466 706 
Q 2744 1025 2744 1678 
Q 2744 2294 2464 2611 
Q 2184 2928 1769 2928 
Q 1347 2928 1069 2612 
Q 791 2297 791 1659 
z
" transform="scale(0.015625)"/>
       <path id="ArialMT-6e" d="M 422 0 
L 422 3319 
L 928 3319 
L 928 2847 
Q 1294 3394 1984 3394 
Q 2284 3394 2536 3286 
Q 2788 3178 2913 3003 
Q 3038 2828 3088 2588 
Q 3119 2431 3119 2041 
L 3119 0 
L 2556 0 
L 2556 2019 
Q 2556 2363 2490 2533 
Q 2425 2703 2258 2804 
Q 2091 2906 1866 2906 
Q 1506 2906 1245 2678 
Q 984 2450 984 1813 
L 984 0 
L 422 0 
z
" transform="scale(0.015625)"/>
       <path id="ArialMT-73" d="M 197 991 
L 753 1078 
Q 800 744 1014 566 
Q 1228 388 1613 388 
Q 2000 388 2187 545 
Q 2375 703 2375 916 
Q 2375 1106 2209 1216 
Q 2094 1291 1634 1406 
Q 1016 1563 777 1677 
Q 538 1791 414 1992 
Q 291 2194 291 2438 
Q 291 2659 392 2848 
Q 494 3038 669 3163 
Q 800 3259 1026 3326 
Q 1253 3394 1513 3394 
Q 1903 3394 2198 3281 
Q 2494 3169 2634 2976 
Q 2775 2784 2828 2463 
L 2278 2388 
Q 2241 2644 2061 2787 
Q 1881 2931 1553 2931 
Q 1166 2931 1000 2803 
Q 834 2675 834 2503 
Q 834 2394 903 2306 
Q 972 2216 1119 2156 
Q 1203 2125 1616 2013 
Q 2213 1853 2448 1751 
Q 2684 1650 2818 1456 
Q 2953 1263 2953 975 
Q 2953 694 2789 445 
Q 2625 197 2315 61 
Q 2006 -75 1616 -75 
Q 969 -75 630 194 
Q 291 463 197 991 
z
" transform="scale(0.015625)"/>
      </defs>
      <use xlink:href="#ArialMT-45"/>
      <use xlink:href="#ArialMT-76" x="66.699219"/>
      <use xlink:href="#ArialMT-61" x="116.699219"/>
      <use xlink:href="#ArialMT-6c" x="172.314453"/>
      <use xlink:href="#ArialMT-75" x="194.53125"/>
      <use xlink:href="#ArialMT-61" x="250.146484"/>
      <use xlink:href="#ArialMT-74" x="305.761719"/>
      <use xlink:href="#ArialMT-69" x="333.544922"/>
      <use xlink:href="#ArialMT-6f" x="355.761719"/>
      <use xlink:href="#ArialMT-6e" x="411.376953"/>
      <use xlink:href="#ArialMT-73" x="466.992188"/>
     </g>
    </g>
   </g>
   <g id="matplotlib.axis_2">
    <g id="ytick_1">
     <g id="line2d_8">
      <path d="M 65.326641 322.700798 
L 667.966641 322.700798 
" clip-path="url(#p04d7b1d1dc)" style="fill: none; stroke: #cccccc; stroke-linecap: round"/>
     </g>
     <g id="line2d_9">
      <defs>
       <path id="m7b8caee3ec" d="M 0 0 
L -6 0 
" style="stroke: #262626; stroke-width: 1.25"/>
      </defs>
      <g>
       <use xlink:href="#m7b8caee3ec" x="65.326641" y="322.700798" style="fill: #262626; stroke: #262626; stroke-width: 1.25"/>
      </g>
     </g>
     <g id="text_9">
      <!-- 80 -->
      <g style="fill: #262626" transform="translate(37.475547 328.605993)scale(0.165 -0.165)">
       <use xlink:href="#ArialMT-38"/>
       <use xlink:href="#ArialMT-30" x="55.615234"/>
      </g>
     </g>
    </g>
    <g id="ytick_2">
     <g id="line2d_10">
      <path d="M 65.326641 238.55809 
L 667.966641 238.55809 
" clip-path="url(#p04d7b1d1dc)" style="fill: none; stroke: #cccccc; stroke-linecap: round"/>
     </g>
     <g id="line2d_11">
      <g>
       <use xlink:href="#m7b8caee3ec" x="65.326641" y="238.55809" style="fill: #262626; stroke: #262626; stroke-width: 1.25"/>
      </g>
     </g>
     <g id="text_10">
      <!-- 100 -->
      <g style="fill: #262626" transform="translate(28.3 244.463285)scale(0.165 -0.165)">
       <use xlink:href="#ArialMT-31"/>
       <use xlink:href="#ArialMT-30" x="55.615234"/>
       <use xlink:href="#ArialMT-30" x="111.230469"/>
      </g>
     </g>
    </g>
    <g id="ytick_3">
     <g id="line2d_12">
      <path d="M 65.326641 154.415382 
L 667.966641 154.415382 
" clip-path="url(#p04d7b1d1dc)" style="fill: none; stroke: #cccccc; stroke-linecap: round"/>
     </g>
     <g id="line2d_13">
      <g>
       <use xlink:href="#m7b8caee3ec" x="65.326641" y="154.415382" style="fill: #262626; stroke: #262626; stroke-width: 1.25"/>
      </g>
     </g>
     <g id="text_11">
      <!-- 120 -->
      <g style="fill: #262626" transform="translate(28.3 160.320577)scale(0.165 -0.165)">
       <use xlink:href="#ArialMT-31"/>
       <use xlink:href="#ArialMT-32" x="55.615234"/>
       <use xlink:href="#ArialMT-30" x="111.230469"/>
      </g>
     </g>
    </g>
    <g id="ytick_4">
     <g id="line2d_14">
      <path d="M 65.326641 70.272673 
L 667.966641 70.272673 
" clip-path="url(#p04d7b1d1dc)" style="fill: none; stroke: #cccccc; stroke-linecap: round"/>
     </g>
     <g id="line2d_15">
      <g>
       <use xlink:href="#m7b8caee3ec" x="65.326641" y="70.272673" style="fill: #262626; stroke: #262626; stroke-width: 1.25"/>
      </g>
     </g>
     <g id="text_12">
      <!-- 140 -->
      <g style="fill: #262626" transform="translate(28.3 76.177869)scale(0.165 -0.165)">
       <use xlink:href="#ArialMT-31"/>
       <use xlink:href="#ArialMT-34" x="55.615234"/>
       <use xlink:href="#ArialMT-30" x="111.230469"/>
      </g>
     </g>
    </g>
    <g id="text_13">
     <!-- Potential Energy, $E$ -->
     <g style="fill: #262626" transform="translate(20.34 279.666)rotate(-90)scale(0.18 -0.18)">
      <defs>
       <path id="ArialMT-50" d="M 494 0 
L 494 4581 
L 2222 4581 
Q 2678 4581 2919 4538 
Q 3256 4481 3484 4323 
Q 3713 4166 3852 3881 
Q 3991 3597 3991 3256 
Q 3991 2672 3619 2267 
Q 3247 1863 2275 1863 
L 1100 1863 
L 1100 0 
L 494 0 
z
M 1100 2403 
L 2284 2403 
Q 2872 2403 3119 2622 
Q 3366 2841 3366 3238 
Q 3366 3525 3220 3729 
Q 3075 3934 2838 4000 
Q 2684 4041 2272 4041 
L 1100 4041 
L 1100 2403 
z
" transform="scale(0.015625)"/>
       <path id="ArialMT-65" d="M 2694 1069 
L 3275 997 
Q 3138 488 2766 206 
Q 2394 -75 1816 -75 
Q 1088 -75 661 373 
Q 234 822 234 1631 
Q 234 2469 665 2931 
Q 1097 3394 1784 3394 
Q 2450 3394 2872 2941 
Q 3294 2488 3294 1666 
Q 3294 1616 3291 1516 
L 816 1516 
Q 847 969 1125 678 
Q 1403 388 1819 388 
Q 2128 388 2347 550 
Q 2566 713 2694 1069 
z
M 847 1978 
L 2700 1978 
Q 2663 2397 2488 2606 
Q 2219 2931 1791 2931 
Q 1403 2931 1139 2672 
Q 875 2413 847 1978 
z
" transform="scale(0.015625)"/>
       <path id="ArialMT-20" transform="scale(0.015625)"/>
       <path id="ArialMT-72" d="M 416 0 
L 416 3319 
L 922 3319 
L 922 2816 
Q 1116 3169 1280 3281 
Q 1444 3394 1641 3394 
Q 1925 3394 2219 3213 
L 2025 2691 
Q 1819 2813 1613 2813 
Q 1428 2813 1281 2702 
Q 1134 2591 1072 2394 
Q 978 2094 978 1738 
L 978 0 
L 416 0 
z
" transform="scale(0.015625)"/>
       <path id="ArialMT-67" d="M 319 -275 
L 866 -356 
Q 900 -609 1056 -725 
Q 1266 -881 1628 -881 
Q 2019 -881 2231 -725 
Q 2444 -569 2519 -288 
Q 2563 -116 2559 434 
Q 2191 0 1641 0 
Q 956 0 581 494 
Q 206 988 206 1678 
Q 206 2153 378 2554 
Q 550 2956 876 3175 
Q 1203 3394 1644 3394 
Q 2231 3394 2613 2919 
L 2613 3319 
L 3131 3319 
L 3131 450 
Q 3131 -325 2973 -648 
Q 2816 -972 2473 -1159 
Q 2131 -1347 1631 -1347 
Q 1038 -1347 672 -1080 
Q 306 -813 319 -275 
z
M 784 1719 
Q 784 1066 1043 766 
Q 1303 466 1694 466 
Q 2081 466 2343 764 
Q 2606 1063 2606 1700 
Q 2606 2309 2336 2618 
Q 2066 2928 1684 2928 
Q 1309 2928 1046 2623 
Q 784 2319 784 1719 
z
" transform="scale(0.015625)"/>
       <path id="ArialMT-79" d="M 397 -1278 
L 334 -750 
Q 519 -800 656 -800 
Q 844 -800 956 -737 
Q 1069 -675 1141 -563 
Q 1194 -478 1313 -144 
Q 1328 -97 1363 -6 
L 103 3319 
L 709 3319 
L 1400 1397 
Q 1534 1031 1641 628 
Q 1738 1016 1872 1384 
L 2581 3319 
L 3144 3319 
L 1881 -56 
Q 1678 -603 1566 -809 
Q 1416 -1088 1222 -1217 
Q 1028 -1347 759 -1347 
Q 597 -1347 397 -1278 
z
" transform="scale(0.015625)"/>
       <path id="ArialMT-2c" d="M 569 0 
L 569 641 
L 1209 641 
L 1209 0 
Q 1209 -353 1084 -570 
Q 959 -788 688 -906 
L 531 -666 
Q 709 -588 793 -436 
Q 878 -284 888 0 
L 569 0 
z
" transform="scale(0.015625)"/>
       <path id="DejaVuSans-Oblique-45" d="M 1081 4666 
L 4031 4666 
L 3928 4134 
L 1606 4134 
L 1338 2753 
L 3566 2753 
L 3463 2222 
L 1234 2222 
L 909 531 
L 3284 531 
L 3181 0 
L 172 0 
L 1081 4666 
z
" transform="scale(0.015625)"/>
      </defs>
      <use xlink:href="#ArialMT-50" transform="translate(0 0.09375)"/>
      <use xlink:href="#ArialMT-6f" transform="translate(66.699219 0.09375)"/>
      <use xlink:href="#ArialMT-74" transform="translate(122.314453 0.09375)"/>
      <use xlink:href="#ArialMT-65" transform="translate(150.097656 0.09375)"/>
      <use xlink:href="#ArialMT-6e" transform="translate(205.712891 0.09375)"/>
      <use xlink:href="#ArialMT-74" transform="translate(261.328125 0.09375)"/>
      <use xlink:href="#ArialMT-69" transform="translate(289.111328 0.09375)"/>
      <use xlink:href="#ArialMT-61" transform="translate(311.328125 0.09375)"/>
      <use xlink:href="#ArialMT-6c" transform="translate(366.943359 0.09375)"/>
      <use xlink:href="#ArialMT-20" transform="translate(389.160156 0.09375)"/>
      <use xlink:href="#ArialMT-45" transform="translate(416.943359 0.09375)"/>
      <use xlink:href="#ArialMT-6e" transform="translate(483.642578 0.09375)"/>
      <use xlink:href="#ArialMT-65" transform="translate(539.257812 0.09375)"/>
      <use xlink:href="#ArialMT-72" transform="translate(594.873047 0.09375)"/>
      <use xlink:href="#ArialMT-67" transform="translate(628.173828 0.09375)"/>
      <use xlink:href="#ArialMT-79" transform="translate(683.789062 0.09375)"/>
      <use xlink:href="#ArialMT-2c" transform="translate(733.789062 0.09375)"/>
      <use xlink:href="#ArialMT-20" transform="translate(761.572266 0.09375)"/>
      <use xlink:href="#DejaVuSans-Oblique-45" transform="translate(789.355469 0.09375)"/>
     </g>
    </g>
   </g>
   <g id="PolyCollection_1"/>
   <g id="PolyCollection_2"/>
   <g id="PolyCollection_3"/>
   <g id="PolyCollection_4"/>
   <g id="PolyCollection_5"/>
   <g id="PolyCollection_6">
    <defs>
     <path id="mfb6d63b401" d="M 95.413435 -364.521419 
L 95.413435 -299.016939 
L 100.870063 -252.429554 
L 106.349521 -205.976837 
L 111.82898 -229.885638 
L 117.308439 -307.425856 
L 122.787898 -265.330808 
L 128.267356 -249.157065 
L 133.746815 -245.314632 
L 139.226274 -228.709997 
L 144.705732 -231.794003 
L 150.185191 -265.053576 
L 161.144108 -283.204966 
L 166.623567 -196.893187 
L 155.66465 -193.793232 
L 172.103026 -222.826255 
L 177.582484 -262.574292 
L 183.061943 -224.538326 
L 188.541402 -206.591025 
L 194.020861 -218.578467 
L 199.500319 -220.915465 
L 204.979778 -198.392469 
L 210.459237 -214.360236 
L 215.938695 -238.320603 
L 221.418154 -256.303476 
L 232.377071 -205.95209 
L 226.897613 -232.755707 
L 237.85653 -211.008353 
L 243.335989 -224.735472 
L 248.815448 -213.626256 
L 254.294906 -213.691117 
L 259.774365 -247.018704 
L 265.253824 -249.999449 
L 270.733282 -219.523355 
L 276.212741 -195.818539 
L 281.6922 -196.152371 
L 287.171658 -259.337414 
L 298.130576 -228.518637 
L 292.651117 -208.463472 
L 303.610035 -226.56438 
L 309.089493 -213.079834 
L 314.568952 -218.779642 
L 320.048411 -191.772006 
L 325.527869 -200.220061 
L 331.007328 -263.619908 
L 336.486787 -212.887805 
L 341.966245 -220.616952 
L 347.445704 -201.373071 
L 352.925163 -180.547884 
L 358.404622 -204.931393 
L 369.363539 -251.020275 
L 363.88408 -188.774139 
L 374.842998 -245.058054 
L 380.322456 -216.657238 
L 385.801915 -231.418104 
L 391.281374 -252.549512 
L 396.760832 -204.128463 
L 402.240291 -173.292222 
L 407.71975 -263.110012 
L 413.199208 -206.435472 
L 418.678667 -206.098964 
L 424.158126 -216.563936 
L 429.637585 -198.541714 
L 435.117043 -182.113894 
L 440.596502 -212.668786 
L 446.075961 -212.363484 
L 451.555419 -205.038363 
L 457.034878 -201.43674 
L 462.514337 -177.940837 
L 467.993795 -191.989818 
L 473.473254 -207.530838 
L 478.952713 -228.574969 
L 484.432172 -201.398402 
L 489.91163 -222.627569 
L 495.391089 -173.9727 
L 500.870548 -219.250684 
L 506.350006 -221.041349 
L 511.829465 -200.967969 
L 517.308924 -183.068842 
L 522.788382 -203.801485 
L 528.267841 -184.2029 
L 533.7473 -194.499609 
L 539.226759 -175.184031 
L 544.706217 -162.974466 
L 550.185676 -157.540446 
L 555.665135 -155.60314 
L 561.144593 -178.365941 
L 566.624052 -153.04034 
L 572.103511 -160.937382 
L 577.582969 -147.46649 
L 583.062428 -151.807193 
L 588.541887 -153.553215 
L 594.021346 -156.89478 
L 599.500804 -131.93431 
L 604.980263 -135.459242 
L 610.459722 -101.734627 
L 615.93918 -101.390367 
L 621.418639 -97.952928 
L 626.898098 -88.324424 
L 635.117286 -75.142536 
L 635.117286 -80.243199 
L 635.117286 -80.243199 
L 626.898098 -89.879505 
L 621.418639 -105.496218 
L 615.93918 -108.674894 
L 610.459722 -112.303693 
L 604.980263 -146.210729 
L 599.500804 -149.18367 
L 594.021346 -172.493869 
L 588.541887 -183.890113 
L 583.062428 -175.545433 
L 577.582969 -169.079509 
L 572.103511 -185.3651 
L 566.624052 -185.062255 
L 561.144593 -216.999544 
L 555.665135 -184.552748 
L 550.185676 -185.338572 
L 544.706217 -187.050612 
L 539.226759 -216.009496 
L 533.7473 -236.190719 
L 528.267841 -219.899871 
L 522.788382 -238.333497 
L 517.308924 -220.709271 
L 511.829465 -233.137793 
L 506.350006 -290.329136 
L 500.870548 -261.992285 
L 495.391089 -196.850689 
L 489.91163 -270.048536 
L 484.432172 -233.877023 
L 478.952713 -284.119809 
L 473.473254 -243.98687 
L 467.993795 -244.162838 
L 462.514337 -222.979604 
L 457.034878 -253.551257 
L 451.555419 -244.136432 
L 446.075961 -257.664934 
L 440.596502 -282.554326 
L 435.117043 -226.52697 
L 429.637585 -241.551413 
L 424.158126 -258.056054 
L 418.678667 -241.277963 
L 413.199208 -247.373876 
L 407.71975 -330.042376 
L 402.240291 -211.663007 
L 396.760832 -232.150932 
L 391.281374 -300.158619 
L 385.801915 -301.846566 
L 380.322456 -277.309469 
L 374.842998 -292.262092 
L 363.88408 -224.832924 
L 369.363539 -313.825039 
L 358.404622 -236.924535 
L 352.925163 -223.727776 
L 347.445704 -242.969965 
L 341.966245 -270.820045 
L 336.486787 -259.645999 
L 331.007328 -312.361376 
L 325.527869 -236.084213 
L 320.048411 -223.322085 
L 314.568952 -281.260262 
L 309.089493 -255.861065 
L 303.610035 -278.908746 
L 292.651117 -255.735824 
L 298.130576 -293.843747 
L 287.171658 -304.492119 
L 281.6922 -252.34108 
L 276.212741 -233.187106 
L 270.733282 -279.947956 
L 265.253824 -298.483951 
L 259.774365 -318.052334 
L 254.294906 -276.88094 
L 248.815448 -254.867416 
L 243.335989 -276.80615 
L 237.85653 -255.127353 
L 226.897613 -285.832444 
L 232.377071 -275.515799 
L 221.418154 -323.469639 
L 215.938695 -311.719873 
L 210.459237 -269.504307 
L 204.979778 -248.503107 
L 199.500319 -264.553326 
L 194.020861 -262.638525 
L 188.541402 -235.25144 
L 183.061943 -256.591149 
L 177.582484 -310.087249 
L 172.103026 -272.095749 
L 155.66465 -242.848981 
L 166.623567 -236.804575 
L 161.144108 -339.136301 
L 150.185191 -323.624522 
L 144.705732 -301.194554 
L 139.226274 -267.847884 
L 133.746815 -282.086837 
L 128.267356 -316.337086 
L 122.787898 -331.668076 
L 117.308439 -425.852783 
L 111.82898 -279.499938 
L 106.349521 -247.174737 
L 100.870063 -316.771666 
L 95.413435 -364.521419 
z
" style="stroke: #000000; stroke-opacity: 0.15"/>
    </defs>
    <g clip-path="url(#p04d7b1d1dc)">
     <use xlink:href="#mfb6d63b401" x="0" y="450.843328" style="fill-opacity: 0.15; stroke: #000000; stroke-opacity: 0.15"/>
    </g>
   </g>
   <g id="PolyCollection_7">
    <defs>
     <path id="md9b54e57be" d="M 95.413435 -233.51246 
L 95.413435 -299.016939 
L 100.870063 -252.429554 
L 106.349521 -205.976837 
L 111.82898 -229.885638 
L 117.308439 -307.425856 
L 122.787898 -265.330808 
L 128.267356 -249.157065 
L 133.746815 -245.314632 
L 139.226274 -228.709997 
L 144.705732 -231.794003 
L 150.185191 -265.053576 
L 161.144108 -283.204966 
L 166.623567 -196.893187 
L 155.66465 -193.793232 
L 172.103026 -222.826255 
L 177.582484 -262.574292 
L 183.061943 -224.538326 
L 188.541402 -206.591025 
L 194.020861 -218.578467 
L 199.500319 -220.915465 
L 204.979778 -198.392469 
L 210.459237 -214.360236 
L 215.938695 -238.320603 
L 221.418154 -256.303476 
L 232.377071 -205.95209 
L 226.897613 -232.755707 
L 237.85653 -211.008353 
L 243.335989 -224.735472 
L 248.815448 -213.626256 
L 254.294906 -213.691117 
L 259.774365 -247.018704 
L 265.253824 -249.999449 
L 270.733282 -219.523355 
L 276.212741 -195.818539 
L 281.6922 -196.152371 
L 287.171658 -259.337414 
L 298.130576 -228.518637 
L 292.651117 -208.463472 
L 303.610035 -226.56438 
L 309.089493 -213.079834 
L 314.568952 -218.779642 
L 320.048411 -191.772006 
L 325.527869 -200.220061 
L 331.007328 -263.619908 
L 336.486787 -212.887805 
L 341.966245 -220.616952 
L 347.445704 -201.373071 
L 352.925163 -180.547884 
L 358.404622 -204.931393 
L 369.363539 -251.020275 
L 363.88408 -188.774139 
L 374.842998 -245.058054 
L 380.322456 -216.657238 
L 385.801915 -231.418104 
L 391.281374 -252.549512 
L 396.760832 -204.128463 
L 402.240291 -173.292222 
L 407.71975 -263.110012 
L 413.199208 -206.435472 
L 418.678667 -206.098964 
L 424.158126 -216.563936 
L 429.637585 -198.541714 
L 435.117043 -182.113894 
L 440.596502 -212.668786 
L 446.075961 -212.363484 
L 451.555419 -205.038363 
L 457.034878 -201.43674 
L 462.514337 -177.940837 
L 467.993795 -191.989818 
L 473.473254 -207.530838 
L 478.952713 -228.574969 
L 484.432172 -201.398402 
L 489.91163 -222.627569 
L 495.391089 -173.9727 
L 500.870548 -219.250684 
L 506.350006 -221.041349 
L 511.829465 -200.967969 
L 517.308924 -183.068842 
L 522.788382 -203.801485 
L 528.267841 -184.2029 
L 533.7473 -194.499609 
L 539.226759 -175.184031 
L 544.706217 -162.974466 
L 550.185676 -157.540446 
L 555.665135 -155.60314 
L 561.144593 -178.365941 
L 566.624052 -153.04034 
L 572.103511 -160.937382 
L 577.582969 -147.46649 
L 583.062428 -151.807193 
L 588.541887 -153.553215 
L 594.021346 -156.89478 
L 599.500804 -131.93431 
L 604.980263 -135.459242 
L 610.459722 -101.734627 
L 615.93918 -101.390367 
L 621.418639 -97.952928 
L 626.898098 -88.324424 
L 635.117286 -75.142536 
L 635.117286 -70.041874 
L 635.117286 -70.041874 
L 626.898098 -86.769342 
L 621.418639 -90.409639 
L 615.93918 -94.105839 
L 610.459722 -91.165561 
L 604.980263 -124.707754 
L 599.500804 -114.68495 
L 594.021346 -141.295692 
L 588.541887 -123.216318 
L 583.062428 -128.068953 
L 577.582969 -125.85347 
L 572.103511 -136.509664 
L 566.624052 -121.018426 
L 561.144593 -139.732337 
L 555.665135 -126.653532 
L 550.185676 -129.74232 
L 544.706217 -138.898319 
L 539.226759 -134.358566 
L 533.7473 -152.808499 
L 528.267841 -148.505929 
L 522.788382 -169.269474 
L 517.308924 -145.428412 
L 511.829465 -168.798145 
L 506.350006 -151.753561 
L 500.870548 -176.509084 
L 495.391089 -151.09471 
L 489.91163 -175.206601 
L 484.432172 -168.919781 
L 478.952713 -173.03013 
L 473.473254 -171.074806 
L 467.993795 -139.816797 
L 462.514337 -132.902071 
L 457.034878 -149.322222 
L 451.555419 -165.940294 
L 446.075961 -167.062033 
L 440.596502 -142.783246 
L 435.117043 -137.700818 
L 429.637585 -155.532014 
L 424.158126 -175.071819 
L 418.678667 -170.919964 
L 413.199208 -165.497069 
L 407.71975 -196.177648 
L 402.240291 -134.921438 
L 396.760832 -176.105993 
L 391.281374 -204.940404 
L 385.801915 -160.989642 
L 380.322456 -156.005007 
L 374.842998 -197.854016 
L 363.88408 -152.715354 
L 369.363539 -188.21551 
L 358.404622 -172.938251 
L 352.925163 -137.367993 
L 347.445704 -159.776178 
L 341.966245 -170.413859 
L 336.486787 -166.12961 
L 331.007328 -214.87844 
L 325.527869 -164.355909 
L 320.048411 -160.221928 
L 314.568952 -156.299023 
L 309.089493 -170.298603 
L 303.610035 -174.220014 
L 292.651117 -161.19112 
L 298.130576 -163.193527 
L 287.171658 -214.182709 
L 281.6922 -139.963662 
L 276.212741 -158.449971 
L 270.733282 -159.098754 
L 265.253824 -201.514946 
L 259.774365 -175.985074 
L 254.294906 -150.501293 
L 248.815448 -172.385096 
L 243.335989 -172.664794 
L 237.85653 -166.889353 
L 226.897613 -179.67897 
L 232.377071 -136.388382 
L 221.418154 -189.137313 
L 215.938695 -164.921332 
L 210.459237 -159.216164 
L 204.979778 -148.281831 
L 199.500319 -177.277603 
L 194.020861 -174.518409 
L 188.541402 -177.930611 
L 183.061943 -192.485503 
L 177.582484 -215.061335 
L 172.103026 -173.55676 
L 155.66465 -144.737483 
L 166.623567 -156.981799 
L 161.144108 -227.273632 
L 150.185191 -206.482631 
L 144.705732 -162.393451 
L 139.226274 -189.57211 
L 133.746815 -208.542428 
L 128.267356 -181.977044 
L 122.787898 -198.99354 
L 117.308439 -188.998929 
L 111.82898 -180.271337 
L 106.349521 -164.778937 
L 100.870063 -188.087441 
L 95.413435 -233.51246 
z
" style="stroke: #000000; stroke-opacity: 0.15"/>
    </defs>
    <g clip-path="url(#p04d7b1d1dc)">
     <use xlink:href="#md9b54e57be" x="0" y="450.843328" style="fill-opacity: 0.15; stroke: #000000; stroke-opacity: 0.15"/>
    </g>
   </g>
   <g id="PolyCollection_8">
    <defs>
     <path id="mfc16458f2d" d="M 95.413435 -310.78632 
L 95.413435 -299.016939 
L 100.870063 -252.429554 
L 106.349521 -205.976837 
L 111.82898 -229.885638 
L 117.308439 -307.425856 
L 122.787898 -265.330808 
L 128.267356 -249.157065 
L 133.746815 -245.314632 
L 139.226274 -228.709997 
L 144.705732 -231.794003 
L 150.185191 -265.053576 
L 161.144108 -283.204966 
L 166.623567 -196.893187 
L 155.66465 -193.793232 
L 172.103026 -222.826255 
L 177.582484 -262.574292 
L 183.061943 -224.538326 
L 188.541402 -206.591025 
L 194.020861 -218.578467 
L 199.500319 -220.915465 
L 204.979778 -198.392469 
L 210.459237 -214.360236 
L 215.938695 -238.320603 
L 221.418154 -256.303476 
L 232.377071 -205.95209 
L 226.897613 -232.755707 
L 237.85653 -211.008353 
L 243.335989 -224.735472 
L 248.815448 -213.626256 
L 254.294906 -213.691117 
L 259.774365 -247.018704 
L 265.253824 -249.999449 
L 270.733282 -219.523355 
L 276.212741 -195.818539 
L 281.6922 -196.152371 
L 287.171658 -259.337414 
L 298.130576 -228.518637 
L 292.651117 -208.463472 
L 303.610035 -226.56438 
L 309.089493 -213.079834 
L 314.568952 -218.779642 
L 320.048411 -191.772006 
L 325.527869 -200.220061 
L 331.007328 -263.619908 
L 336.486787 -212.887805 
L 341.966245 -220.616952 
L 347.445704 -201.373071 
L 352.925163 -180.547884 
L 358.404622 -204.931393 
L 369.363539 -251.020275 
L 363.88408 -188.774139 
L 374.842998 -245.058054 
L 380.322456 -216.657238 
L 385.801915 -231.418104 
L 391.281374 -252.549512 
L 396.760832 -204.128463 
L 402.240291 -173.292222 
L 407.71975 -263.110012 
L 413.199208 -206.435472 
L 418.678667 -206.098964 
L 424.158126 -216.563936 
L 429.637585 -198.541714 
L 435.117043 -182.113894 
L 440.596502 -212.668786 
L 446.075961 -212.363484 
L 451.555419 -205.038363 
L 457.034878 -201.43674 
L 462.514337 -177.940837 
L 467.993795 -191.989818 
L 473.473254 -207.530838 
L 478.952713 -228.574969 
L 484.432172 -201.398402 
L 489.91163 -222.627569 
L 495.391089 -173.9727 
L 500.870548 -219.250684 
L 506.350006 -221.041349 
L 511.829465 -200.967969 
L 517.308924 -183.068842 
L 522.788382 -203.801485 
L 528.267841 -184.2029 
L 533.7473 -194.499609 
L 539.226759 -175.184031 
L 544.706217 -162.974466 
L 550.185676 -157.540446 
L 555.665135 -155.60314 
L 561.144593 -178.365941 
L 566.624052 -153.04034 
L 572.103511 -160.937382 
L 577.582969 -147.46649 
L 583.062428 -151.807193 
L 588.541887 -153.553215 
L 594.021346 -156.89478 
L 599.500804 -131.93431 
L 604.980263 -135.459242 
L 610.459722 -101.734627 
L 615.93918 -101.390367 
L 621.418639 -97.952928 
L 626.898098 -88.324424 
L 635.117286 -75.142536 
L 635.117286 -75.787859 
L 635.117286 -75.787859 
L 626.898098 -88.602663 
L 621.418639 -99.302594 
L 615.93918 -102.693734 
L 610.459722 -103.625673 
L 604.980263 -137.382927 
L 599.500804 -135.020612 
L 594.021346 -159.685811 
L 588.541887 -158.981175 
L 583.062428 -156.054503 
L 577.582969 -151.33355 
L 572.103511 -165.308055 
L 566.624052 -158.769788 
L 561.144593 -185.278369 
L 555.665135 -160.782882 
L 550.185676 -162.514162 
L 544.706217 -167.282235 
L 539.226759 -182.488633 
L 533.7473 -201.959095 
L 528.267841 -190.589899 
L 522.788382 -209.980046 
L 517.308924 -189.803569 
L 511.829465 -206.723881 
L 506.350006 -233.438507 
L 500.870548 -226.898127 
L 495.391089 -178.066091 
L 489.91163 -231.112256 
L 484.432172 -207.209565 
L 478.952713 -238.513202 
L 473.473254 -214.05365 
L 467.993795 -201.324756 
L 462.514337 -185.999295 
L 457.034878 -210.76121 
L 451.555419 -212.033895 
L 446.075961 -220.468941 
L 440.596502 -225.172896 
L 435.117043 -190.060401 
L 429.637585 -206.237126 
L 424.158126 -223.987818 
L 418.678667 -212.393285 
L 413.199208 -213.760282 
L 407.71975 -275.085731 
L 402.240291 -180.157627 
L 396.760832 -209.142319 
L 391.281374 -261.067862 
L 385.801915 -244.019355 
L 380.322456 -227.509299 
L 374.842998 -253.503928 
L 363.88408 -195.225874 
L 369.363539 -262.257473 
L 358.404622 -210.655693 
L 352.925163 -188.273747 
L 347.445704 -208.8157 
L 341.966245 -229.599425 
L 336.486787 -221.253907 
L 331.007328 -272.340863 
L 325.527869 -206.636972 
L 320.048411 -197.417032 
L 314.568952 -229.958844 
L 309.089493 -220.734367 
L 303.610035 -235.929976 
L 292.651117 -216.921569 
L 298.130576 -240.206782 
L 287.171658 -267.416616 
L 281.6922 -206.205807 
L 276.212741 -202.504624 
L 270.733282 -230.334687 
L 265.253824 -258.674427 
L 259.774365 -259.728233 
L 254.294906 -224.997211 
L 248.815448 -221.005236 
L 243.335989 -234.052098 
L 237.85653 -218.902244 
L 226.897613 -242.25234 
L 232.377071 -218.398617 
L 221.418154 -268.321027 
L 215.938695 -251.453399 
L 210.459237 -224.226762 
L 204.979778 -207.358399 
L 199.500319 -228.723269 
L 194.020861 -226.461812 
L 188.541402 -211.719024 
L 183.061943 -230.273304 
L 177.582484 -271.075439 
L 172.103026 -231.641686 
L 155.66465 -202.570419 
L 166.623567 -204.034241 
L 161.144108 -293.212352 
L 150.185191 -275.533248 
L 144.705732 -244.211337 
L 139.226274 -235.712653 
L 133.746815 -251.894015 
L 128.267356 -261.177096 
L 122.787898 -277.200051 
L 117.308439 -328.615122 
L 111.82898 -238.762762 
L 106.349521 -213.348076 
L 100.870063 -263.941818 
L 95.413435 -310.78632 
z
" style="stroke: #6495ed; stroke-opacity: 0.5"/>
    </defs>
    <g clip-path="url(#p04d7b1d1dc)">
     <use xlink:href="#mfc16458f2d" x="0" y="450.843328" style="fill: #6495ed; fill-opacity: 0.5; stroke: #6495ed; stroke-opacity: 0.5"/>
    </g>
   </g>
   <g id="PolyCollection_9">
    <defs>
     <path id="m9c53b306e2" d="M 95.413435 -287.247559 
L 95.413435 -299.016939 
L 100.870063 -252.429554 
L 106.349521 -205.976837 
L 111.82898 -229.885638 
L 117.308439 -307.425856 
L 122.787898 -265.330808 
L 128.267356 -249.157065 
L 133.746815 -245.314632 
L 139.226274 -228.709997 
L 144.705732 -231.794003 
L 150.185191 -265.053576 
L 161.144108 -283.204966 
L 166.623567 -196.893187 
L 155.66465 -193.793232 
L 172.103026 -222.826255 
L 177.582484 -262.574292 
L 183.061943 -224.538326 
L 188.541402 -206.591025 
L 194.020861 -218.578467 
L 199.500319 -220.915465 
L 204.979778 -198.392469 
L 210.459237 -214.360236 
L 215.938695 -238.320603 
L 221.418154 -256.303476 
L 232.377071 -205.95209 
L 226.897613 -232.755707 
L 237.85653 -211.008353 
L 243.335989 -224.735472 
L 248.815448 -213.626256 
L 254.294906 -213.691117 
L 259.774365 -247.018704 
L 265.253824 -249.999449 
L 270.733282 -219.523355 
L 276.212741 -195.818539 
L 281.6922 -196.152371 
L 287.171658 -259.337414 
L 298.130576 -228.518637 
L 292.651117 -208.463472 
L 303.610035 -226.56438 
L 309.089493 -213.079834 
L 314.568952 -218.779642 
L 320.048411 -191.772006 
L 325.527869 -200.220061 
L 331.007328 -263.619908 
L 336.486787 -212.887805 
L 341.966245 -220.616952 
L 347.445704 -201.373071 
L 352.925163 -180.547884 
L 358.404622 -204.931393 
L 369.363539 -251.020275 
L 363.88408 -188.774139 
L 374.842998 -245.058054 
L 380.322456 -216.657238 
L 385.801915 -231.418104 
L 391.281374 -252.549512 
L 396.760832 -204.128463 
L 402.240291 -173.292222 
L 407.71975 -263.110012 
L 413.199208 -206.435472 
L 418.678667 -206.098964 
L 424.158126 -216.563936 
L 429.637585 -198.541714 
L 435.117043 -182.113894 
L 440.596502 -212.668786 
L 446.075961 -212.363484 
L 451.555419 -205.038363 
L 457.034878 -201.43674 
L 462.514337 -177.940837 
L 467.993795 -191.989818 
L 473.473254 -207.530838 
L 478.952713 -228.574969 
L 484.432172 -201.398402 
L 489.91163 -222.627569 
L 495.391089 -173.9727 
L 500.870548 -219.250684 
L 506.350006 -221.041349 
L 511.829465 -200.967969 
L 517.308924 -183.068842 
L 522.788382 -203.801485 
L 528.267841 -184.2029 
L 533.7473 -194.499609 
L 539.226759 -175.184031 
L 544.706217 -162.974466 
L 550.185676 -157.540446 
L 555.665135 -155.60314 
L 561.144593 -178.365941 
L 566.624052 -153.04034 
L 572.103511 -160.937382 
L 577.582969 -147.46649 
L 583.062428 -151.807193 
L 588.541887 -153.553215 
L 594.021346 -156.89478 
L 599.500804 -131.93431 
L 604.980263 -135.459242 
L 610.459722 -101.734627 
L 615.93918 -101.390367 
L 621.418639 -97.952928 
L 626.898098 -88.324424 
L 635.117286 -75.142536 
L 635.117286 -74.497214 
L 635.117286 -74.497214 
L 626.898098 -88.046184 
L 621.418639 -96.603263 
L 615.93918 -100.086999 
L 610.459722 -99.843581 
L 604.980263 -133.535556 
L 599.500804 -128.848008 
L 594.021346 -154.103749 
L 588.541887 -148.125256 
L 583.062428 -147.559883 
L 577.582969 -143.59943 
L 572.103511 -156.566709 
L 566.624052 -147.310893 
L 561.144593 -171.453512 
L 555.665135 -150.423398 
L 550.185676 -152.56673 
L 544.706217 -158.666696 
L 539.226759 -167.879428 
L 533.7473 -187.040123 
L 528.267841 -177.815902 
L 522.788382 -197.622925 
L 517.308924 -176.334114 
L 511.829465 -195.212057 
L 506.350006 -208.644191 
L 500.870548 -211.603242 
L 495.391089 -169.879308 
L 489.91163 -214.142881 
L 484.432172 -195.58724 
L 478.952713 -218.636737 
L 473.473254 -201.008026 
L 467.993795 -182.65488 
L 462.514337 -169.88238 
L 457.034878 -192.112269 
L 451.555419 -198.042831 
L 446.075961 -204.258026 
L 440.596502 -200.164676 
L 435.117043 -174.167386 
L 429.637585 -190.846302 
L 424.158126 -209.140055 
L 418.678667 -199.804642 
L 413.199208 -199.110663 
L 407.71975 -251.134292 
L 402.240291 -166.426818 
L 396.760832 -199.114607 
L 391.281374 -244.031161 
L 385.801915 -218.816853 
L 380.322456 -205.805177 
L 374.842998 -236.61218 
L 363.88408 -182.322404 
L 369.363539 -239.783077 
L 358.404622 -199.207094 
L 352.925163 -172.822022 
L 347.445704 -193.930443 
L 341.966245 -211.634479 
L 336.486787 -204.521702 
L 331.007328 -254.898953 
L 325.527869 -193.80315 
L 320.048411 -186.126981 
L 314.568952 -207.600441 
L 309.089493 -205.4253 
L 303.610035 -217.198785 
L 292.651117 -200.005375 
L 298.130576 -216.830492 
L 287.171658 -251.258212 
L 281.6922 -186.098935 
L 276.212741 -189.132453 
L 270.733282 -208.712022 
L 265.253824 -241.32447 
L 259.774365 -234.309175 
L 254.294906 -202.385023 
L 248.815448 -206.247276 
L 243.335989 -215.418845 
L 237.85653 -203.114462 
L 226.897613 -223.259074 
L 232.377071 -193.505563 
L 221.418154 -244.285924 
L 215.938695 -225.187807 
L 210.459237 -204.493709 
L 204.979778 -189.426538 
L 199.500319 -213.10766 
L 194.020861 -210.695123 
L 188.541402 -201.463026 
L 183.061943 -218.803349 
L 177.582484 -254.073145 
L 172.103026 -214.010824 
L 155.66465 -185.016045 
L 166.623567 -189.752134 
L 161.144108 -273.197581 
L 150.185191 -254.573904 
L 144.705732 -219.376668 
L 139.226274 -221.70734 
L 133.746815 -238.73525 
L 128.267356 -237.137034 
L 122.787898 -253.461565 
L 117.308439 -286.23659 
L 111.82898 -221.008513 
L 106.349521 -198.605597 
L 100.870063 -240.917289 
L 95.413435 -287.247559 
z
" style="stroke: #6495ed; stroke-opacity: 0.5"/>
    </defs>
    <g clip-path="url(#p04d7b1d1dc)">
     <use xlink:href="#m9c53b306e2" x="0" y="450.843328" style="fill: #6495ed; fill-opacity: 0.5; stroke: #6495ed; stroke-opacity: 0.5"/>
    </g>
   </g>
   <g id="PathCollection_1">
    <defs>
     <path id="m2cc3a1ffad" d="M 0 2.236068 
C 0.593012 2.236068 1.161816 2.000462 1.581139 1.581139 
C 2.000462 1.161816 2.236068 0.593012 2.236068 0 
C 2.236068 -0.593012 2.000462 -1.161816 1.581139 -1.581139 
C 1.161816 -2.000462 0.593012 -2.236068 0 -2.236068 
C -0.593012 -2.236068 -1.161816 -2.000462 -1.581139 -1.581139 
C -2.000462 -1.161816 -2.236068 -0.593012 -2.236068 0 
C -2.236068 0.593012 -2.000462 1.161816 -1.581139 1.581139 
C -1.161816 2.000462 -0.593012 2.236068 0 2.236068 
z
" style="stroke: #000000"/>
    </defs>
    <g clip-path="url(#p04d7b1d1dc)">
     <use xlink:href="#m2cc3a1ffad" x="95.413435" y="151.826389" style="stroke: #000000"/>
     <use xlink:href="#m2cc3a1ffad" x="100.870063" y="198.413775" style="stroke: #000000"/>
     <use xlink:href="#m2cc3a1ffad" x="106.349521" y="244.866491" style="stroke: #000000"/>
     <use xlink:href="#m2cc3a1ffad" x="111.82898" y="220.957691" style="stroke: #000000"/>
     <use xlink:href="#m2cc3a1ffad" x="117.308439" y="143.417472" style="stroke: #000000"/>
     <use xlink:href="#m2cc3a1ffad" x="122.787898" y="185.51252" style="stroke: #000000"/>
     <use xlink:href="#m2cc3a1ffad" x="128.267356" y="201.686263" style="stroke: #000000"/>
     <use xlink:href="#m2cc3a1ffad" x="133.746815" y="205.528696" style="stroke: #000000"/>
     <use xlink:href="#m2cc3a1ffad" x="139.226274" y="222.133331" style="stroke: #000000"/>
     <use xlink:href="#m2cc3a1ffad" x="144.705732" y="219.049326" style="stroke: #000000"/>
     <use xlink:href="#m2cc3a1ffad" x="150.185191" y="185.789752" style="stroke: #000000"/>
     <use xlink:href="#m2cc3a1ffad" x="161.144108" y="167.638362" style="stroke: #000000"/>
     <use xlink:href="#m2cc3a1ffad" x="166.623567" y="253.950141" style="stroke: #000000"/>
     <use xlink:href="#m2cc3a1ffad" x="155.66465" y="257.050096" style="stroke: #000000"/>
     <use xlink:href="#m2cc3a1ffad" x="172.103026" y="228.017073" style="stroke: #000000"/>
     <use xlink:href="#m2cc3a1ffad" x="177.582484" y="188.269036" style="stroke: #000000"/>
     <use xlink:href="#m2cc3a1ffad" x="183.061943" y="226.305002" style="stroke: #000000"/>
     <use xlink:href="#m2cc3a1ffad" x="188.541402" y="244.252303" style="stroke: #000000"/>
     <use xlink:href="#m2cc3a1ffad" x="194.020861" y="232.264861" style="stroke: #000000"/>
     <use xlink:href="#m2cc3a1ffad" x="199.500319" y="229.927864" style="stroke: #000000"/>
     <use xlink:href="#m2cc3a1ffad" x="204.979778" y="252.45086" style="stroke: #000000"/>
     <use xlink:href="#m2cc3a1ffad" x="210.459237" y="236.483092" style="stroke: #000000"/>
     <use xlink:href="#m2cc3a1ffad" x="215.938695" y="212.522725" style="stroke: #000000"/>
     <use xlink:href="#m2cc3a1ffad" x="221.418154" y="194.539852" style="stroke: #000000"/>
     <use xlink:href="#m2cc3a1ffad" x="232.377071" y="244.891238" style="stroke: #000000"/>
     <use xlink:href="#m2cc3a1ffad" x="226.897613" y="218.087621" style="stroke: #000000"/>
     <use xlink:href="#m2cc3a1ffad" x="237.85653" y="239.834975" style="stroke: #000000"/>
     <use xlink:href="#m2cc3a1ffad" x="243.335989" y="226.107856" style="stroke: #000000"/>
     <use xlink:href="#m2cc3a1ffad" x="248.815448" y="237.217072" style="stroke: #000000"/>
     <use xlink:href="#m2cc3a1ffad" x="254.294906" y="237.152211" style="stroke: #000000"/>
     <use xlink:href="#m2cc3a1ffad" x="259.774365" y="203.824624" style="stroke: #000000"/>
     <use xlink:href="#m2cc3a1ffad" x="265.253824" y="200.84388" style="stroke: #000000"/>
     <use xlink:href="#m2cc3a1ffad" x="270.733282" y="231.319974" style="stroke: #000000"/>
     <use xlink:href="#m2cc3a1ffad" x="276.212741" y="255.02479" style="stroke: #000000"/>
     <use xlink:href="#m2cc3a1ffad" x="281.6922" y="254.690957" style="stroke: #000000"/>
     <use xlink:href="#m2cc3a1ffad" x="287.171658" y="191.505914" style="stroke: #000000"/>
     <use xlink:href="#m2cc3a1ffad" x="298.130576" y="222.324691" style="stroke: #000000"/>
     <use xlink:href="#m2cc3a1ffad" x="292.651117" y="242.379856" style="stroke: #000000"/>
     <use xlink:href="#m2cc3a1ffad" x="303.610035" y="224.278948" style="stroke: #000000"/>
     <use xlink:href="#m2cc3a1ffad" x="309.089493" y="237.763494" style="stroke: #000000"/>
     <use xlink:href="#m2cc3a1ffad" x="314.568952" y="232.063686" style="stroke: #000000"/>
     <use xlink:href="#m2cc3a1ffad" x="320.048411" y="259.071322" style="stroke: #000000"/>
     <use xlink:href="#m2cc3a1ffad" x="325.527869" y="250.623267" style="stroke: #000000"/>
     <use xlink:href="#m2cc3a1ffad" x="331.007328" y="187.22342" style="stroke: #000000"/>
     <use xlink:href="#m2cc3a1ffad" x="336.486787" y="237.955524" style="stroke: #000000"/>
     <use xlink:href="#m2cc3a1ffad" x="341.966245" y="230.226376" style="stroke: #000000"/>
     <use xlink:href="#m2cc3a1ffad" x="347.445704" y="249.470257" style="stroke: #000000"/>
     <use xlink:href="#m2cc3a1ffad" x="352.925163" y="270.295444" style="stroke: #000000"/>
     <use xlink:href="#m2cc3a1ffad" x="358.404622" y="245.911935" style="stroke: #000000"/>
     <use xlink:href="#m2cc3a1ffad" x="369.363539" y="199.823053" style="stroke: #000000"/>
     <use xlink:href="#m2cc3a1ffad" x="363.88408" y="262.069189" style="stroke: #000000"/>
     <use xlink:href="#m2cc3a1ffad" x="374.842998" y="205.785274" style="stroke: #000000"/>
     <use xlink:href="#m2cc3a1ffad" x="380.322456" y="234.18609" style="stroke: #000000"/>
     <use xlink:href="#m2cc3a1ffad" x="385.801915" y="219.425224" style="stroke: #000000"/>
     <use xlink:href="#m2cc3a1ffad" x="391.281374" y="198.293817" style="stroke: #000000"/>
     <use xlink:href="#m2cc3a1ffad" x="396.760832" y="246.714865" style="stroke: #000000"/>
     <use xlink:href="#m2cc3a1ffad" x="402.240291" y="277.551106" style="stroke: #000000"/>
     <use xlink:href="#m2cc3a1ffad" x="407.71975" y="187.733316" style="stroke: #000000"/>
     <use xlink:href="#m2cc3a1ffad" x="413.199208" y="244.407856" style="stroke: #000000"/>
     <use xlink:href="#m2cc3a1ffad" x="418.678667" y="244.744364" style="stroke: #000000"/>
     <use xlink:href="#m2cc3a1ffad" x="424.158126" y="234.279392" style="stroke: #000000"/>
     <use xlink:href="#m2cc3a1ffad" x="429.637585" y="252.301614" style="stroke: #000000"/>
     <use xlink:href="#m2cc3a1ffad" x="435.117043" y="268.729434" style="stroke: #000000"/>
     <use xlink:href="#m2cc3a1ffad" x="440.596502" y="238.174542" style="stroke: #000000"/>
     <use xlink:href="#m2cc3a1ffad" x="446.075961" y="238.479845" style="stroke: #000000"/>
     <use xlink:href="#m2cc3a1ffad" x="451.555419" y="245.804965" style="stroke: #000000"/>
     <use xlink:href="#m2cc3a1ffad" x="457.034878" y="249.406588" style="stroke: #000000"/>
     <use xlink:href="#m2cc3a1ffad" x="462.514337" y="272.902491" style="stroke: #000000"/>
     <use xlink:href="#m2cc3a1ffad" x="467.993795" y="258.85351" style="stroke: #000000"/>
     <use xlink:href="#m2cc3a1ffad" x="473.473254" y="243.31249" style="stroke: #000000"/>
     <use xlink:href="#m2cc3a1ffad" x="478.952713" y="222.268359" style="stroke: #000000"/>
     <use xlink:href="#m2cc3a1ffad" x="484.432172" y="249.444926" style="stroke: #000000"/>
     <use xlink:href="#m2cc3a1ffad" x="489.91163" y="228.21576" style="stroke: #000000"/>
     <use xlink:href="#m2cc3a1ffad" x="495.391089" y="276.870628" style="stroke: #000000"/>
     <use xlink:href="#m2cc3a1ffad" x="500.870548" y="231.592644" style="stroke: #000000"/>
     <use xlink:href="#m2cc3a1ffad" x="506.350006" y="229.801979" style="stroke: #000000"/>
     <use xlink:href="#m2cc3a1ffad" x="511.829465" y="249.875359" style="stroke: #000000"/>
     <use xlink:href="#m2cc3a1ffad" x="517.308924" y="267.774487" style="stroke: #000000"/>
     <use xlink:href="#m2cc3a1ffad" x="522.788382" y="247.041843" style="stroke: #000000"/>
     <use xlink:href="#m2cc3a1ffad" x="528.267841" y="266.640428" style="stroke: #000000"/>
     <use xlink:href="#m2cc3a1ffad" x="533.7473" y="256.343719" style="stroke: #000000"/>
     <use xlink:href="#m2cc3a1ffad" x="539.226759" y="275.659297" style="stroke: #000000"/>
     <use xlink:href="#m2cc3a1ffad" x="544.706217" y="287.868863" style="stroke: #000000"/>
     <use xlink:href="#m2cc3a1ffad" x="550.185676" y="293.302882" style="stroke: #000000"/>
     <use xlink:href="#m2cc3a1ffad" x="555.665135" y="295.240188" style="stroke: #000000"/>
     <use xlink:href="#m2cc3a1ffad" x="561.144593" y="272.477387" style="stroke: #000000"/>
     <use xlink:href="#m2cc3a1ffad" x="566.624052" y="297.802988" style="stroke: #000000"/>
     <use xlink:href="#m2cc3a1ffad" x="572.103511" y="289.905946" style="stroke: #000000"/>
     <use xlink:href="#m2cc3a1ffad" x="577.582969" y="303.376838" style="stroke: #000000"/>
     <use xlink:href="#m2cc3a1ffad" x="583.062428" y="299.036135" style="stroke: #000000"/>
     <use xlink:href="#m2cc3a1ffad" x="588.541887" y="297.290113" style="stroke: #000000"/>
     <use xlink:href="#m2cc3a1ffad" x="594.021346" y="293.948548" style="stroke: #000000"/>
     <use xlink:href="#m2cc3a1ffad" x="599.500804" y="318.909018" style="stroke: #000000"/>
     <use xlink:href="#m2cc3a1ffad" x="604.980263" y="315.384087" style="stroke: #000000"/>
     <use xlink:href="#m2cc3a1ffad" x="610.459722" y="349.108701" style="stroke: #000000"/>
     <use xlink:href="#m2cc3a1ffad" x="615.93918" y="349.452962" style="stroke: #000000"/>
     <use xlink:href="#m2cc3a1ffad" x="621.418639" y="352.8904" style="stroke: #000000"/>
     <use xlink:href="#m2cc3a1ffad" x="626.898098" y="362.518905" style="stroke: #000000"/>
     <use xlink:href="#m2cc3a1ffad" x="635.117286" y="375.700792" style="stroke: #000000"/>
    </g>
   </g>
   <g id="line2d_16">
    <path d="M 635.117286 375.700792 
L 626.898098 362.518905 
L 621.418639 352.8904 
L 615.93918 349.452962 
L 610.459722 349.108701 
L 604.980263 315.384087 
L 599.500804 318.909018 
L 594.021346 293.948548 
L 588.541887 297.290113 
L 583.062428 299.036135 
L 577.582969 303.376838 
L 572.103511 289.905946 
L 566.624052 297.802988 
L 561.144593 272.477387 
L 555.665135 295.240188 
L 550.185676 293.302882 
L 544.706217 287.868863 
L 539.226759 275.659297 
L 533.7473 256.343719 
L 528.267841 266.640428 
L 522.788382 247.041843 
L 517.308924 267.774487 
L 511.829465 249.875359 
L 506.350006 229.801979 
L 500.870548 231.592644 
L 495.391089 276.870628 
L 489.91163 228.21576 
L 484.432172 249.444926 
L 478.952713 222.268359 
L 473.473254 243.31249 
L 467.993795 258.85351 
L 462.514337 272.902491 
L 457.034878 249.406588 
L 451.555419 245.804965 
L 446.075961 238.479845 
L 440.596502 238.174542 
L 435.117043 268.729434 
L 429.637585 252.301614 
L 424.158126 234.279392 
L 418.678667 244.744364 
L 413.199208 244.407856 
L 407.71975 187.733316 
L 402.240291 277.551106 
L 396.760832 246.714865 
L 391.281374 198.293817 
L 385.801915 219.425224 
L 380.322456 234.18609 
L 374.842998 205.785274 
L 363.88408 262.069189 
L 369.363539 199.823053 
L 358.404622 245.911935 
L 352.925163 270.295444 
L 347.445704 249.470257 
L 341.966245 230.226376 
L 336.486787 237.955524 
L 331.007328 187.22342 
L 325.527869 250.623267 
L 320.048411 259.071322 
L 314.568952 232.063686 
L 309.089493 237.763494 
L 303.610035 224.278948 
L 292.651117 242.379856 
L 298.130576 222.324691 
L 287.171658 191.505914 
L 281.6922 254.690957 
L 276.212741 255.02479 
L 270.733282 231.319974 
L 265.253824 200.84388 
L 259.774365 203.824624 
L 254.294906 237.152211 
L 248.815448 237.217072 
L 243.335989 226.107856 
L 237.85653 239.834975 
L 226.897613 218.087621 
L 232.377071 244.891238 
L 221.418154 194.539852 
L 215.938695 212.522725 
L 210.459237 236.483092 
L 204.979778 252.45086 
L 199.500319 229.927864 
L 194.020861 232.264861 
L 188.541402 244.252303 
L 183.061943 226.305002 
L 177.582484 188.269036 
L 172.103026 228.017073 
L 155.66465 257.050096 
L 166.623567 253.950141 
L 161.144108 167.638362 
L 150.185191 185.789752 
L 144.705732 219.049326 
L 139.226274 222.133331 
L 133.746815 205.528696 
L 128.267356 201.686263 
L 122.787898 185.51252 
L 117.308439 143.417472 
L 111.82898 220.957691 
L 106.349521 244.866491 
L 100.870063 198.413775 
L 95.413435 151.826389 
" clip-path="url(#p04d7b1d1dc)" style="fill: none; stroke: #0000ff; stroke-width: 1.5; stroke-linecap: round"/>
   </g>
   <g id="line2d_17">
    <path d="M 635.117286 375.055469 
L 626.898098 362.240665 
L 621.418639 351.540734 
L 615.93918 348.149594 
L 610.459722 347.217655 
L 604.980263 313.460401 
L 599.500804 315.822716 
L 594.021346 291.157517 
L 588.541887 291.862153 
L 583.062428 294.788825 
L 577.582969 299.509779 
L 572.103511 285.535273 
L 566.624052 292.07354 
L 561.144593 265.564959 
L 555.665135 290.060446 
L 550.185676 288.329166 
L 544.706217 283.561093 
L 539.226759 268.354695 
L 533.7473 248.884233 
L 528.267841 260.253429 
L 522.788382 240.863282 
L 517.308924 261.039759 
L 511.829465 244.119447 
L 506.350006 217.404821 
L 500.870548 223.945201 
L 495.391089 272.777237 
L 489.91163 219.731072 
L 484.432172 243.633763 
L 478.952713 212.330126 
L 473.473254 236.789678 
L 467.993795 249.518573 
L 462.514337 264.844033 
L 457.034878 240.082118 
L 451.555419 238.809433 
L 446.075961 230.374387 
L 440.596502 225.670433 
L 435.117043 260.782927 
L 429.637585 244.606203 
L 424.158126 226.85551 
L 418.678667 238.450043 
L 413.199208 237.083046 
L 407.71975 175.757597 
L 402.240291 270.685701 
L 396.760832 241.70101 
L 391.281374 189.775466 
L 385.801915 206.823973 
L 380.322456 223.334029 
L 374.842998 197.3394 
L 363.88408 255.617454 
L 369.363539 188.585855 
L 358.404622 240.187636 
L 352.925163 262.569581 
L 347.445704 242.027628 
L 341.966245 221.243903 
L 336.486787 229.589421 
L 331.007328 178.502465 
L 325.527869 244.206356 
L 320.048411 253.426296 
L 314.568952 220.884485 
L 309.089493 230.108961 
L 303.610035 214.913353 
L 292.651117 233.921759 
L 298.130576 210.636546 
L 287.171658 183.426712 
L 281.6922 244.637521 
L 276.212741 248.338705 
L 270.733282 220.508641 
L 265.253824 192.168901 
L 259.774365 191.115095 
L 254.294906 225.846117 
L 248.815448 229.838092 
L 243.335989 216.79123 
L 237.85653 231.941085 
L 226.897613 208.590988 
L 232.377071 232.444711 
L 221.418154 182.522301 
L 215.938695 199.38993 
L 210.459237 226.616566 
L 204.979778 243.484929 
L 199.500319 222.12006 
L 194.020861 224.381516 
L 188.541402 239.124304 
L 183.061943 220.570024 
L 177.582484 179.767889 
L 172.103026 219.201642 
L 155.66465 248.272909 
L 166.623567 246.809088 
L 161.144108 157.630976 
L 150.185191 175.31008 
L 144.705732 206.631991 
L 139.226274 215.130675 
L 133.746815 198.949314 
L 128.267356 189.666232 
L 122.787898 173.643277 
L 117.308439 122.228207 
L 111.82898 212.080566 
L 106.349521 237.495252 
L 100.870063 186.90151 
L 95.413435 140.057009 
" clip-path="url(#p04d7b1d1dc)" style="fill: none; stroke-dasharray: 5.55,2.4; stroke-dashoffset: 0; stroke: #6495ed; stroke-width: 1.5"/>
   </g>
   <g id="line2d_18">
    <path d="M 635.117286 376.346115 
L 626.898098 362.797144 
L 621.418639 354.240065 
L 615.93918 350.756329 
L 610.459722 350.999747 
L 604.980263 317.307772 
L 599.500804 321.99532 
L 594.021346 296.739579 
L 588.541887 302.718073 
L 583.062428 303.283445 
L 577.582969 307.243898 
L 572.103511 294.27662 
L 566.624052 303.532435 
L 561.144593 279.389816 
L 555.665135 300.41993 
L 550.185676 298.276598 
L 544.706217 292.176632 
L 539.226759 282.9639 
L 533.7473 263.803205 
L 528.267841 273.027427 
L 522.788382 253.220403 
L 517.308924 274.509214 
L 511.829465 255.631271 
L 506.350006 242.199138 
L 500.870548 239.240086 
L 495.391089 280.96402 
L 489.91163 236.700447 
L 484.432172 255.256089 
L 478.952713 232.206592 
L 473.473254 249.835302 
L 467.993795 268.188448 
L 462.514337 280.960948 
L 457.034878 258.731059 
L 451.555419 252.800498 
L 446.075961 246.585302 
L 440.596502 250.678652 
L 435.117043 276.675942 
L 429.637585 259.997026 
L 424.158126 241.703274 
L 418.678667 251.038686 
L 413.199208 251.732665 
L 407.71975 199.709036 
L 402.240291 284.41651 
L 396.760832 251.728721 
L 391.281374 206.812167 
L 385.801915 232.026475 
L 380.322456 245.038151 
L 374.842998 214.231148 
L 363.88408 268.520924 
L 369.363539 211.060251 
L 358.404622 251.636234 
L 352.925163 278.021307 
L 347.445704 256.912885 
L 341.966245 239.208849 
L 336.486787 246.321626 
L 331.007328 195.944375 
L 325.527869 257.040178 
L 320.048411 264.716347 
L 314.568952 243.242887 
L 309.089493 245.418028 
L 303.610035 233.644543 
L 292.651117 250.837953 
L 298.130576 234.012836 
L 287.171658 199.585116 
L 281.6922 264.744393 
L 276.212741 261.710875 
L 270.733282 242.131306 
L 265.253824 209.518858 
L 259.774365 216.534153 
L 254.294906 248.458305 
L 248.815448 244.596052 
L 243.335989 235.424483 
L 237.85653 247.728866 
L 226.897613 227.584254 
L 232.377071 257.337765 
L 221.418154 206.557404 
L 215.938695 225.655521 
L 210.459237 246.349619 
L 204.979778 261.41679 
L 199.500319 237.735668 
L 194.020861 240.148206 
L 188.541402 249.380302 
L 183.061943 232.03998 
L 177.582484 196.770183 
L 172.103026 236.832505 
L 155.66465 265.827284 
L 166.623567 261.091194 
L 161.144108 177.645747 
L 150.185191 196.269424 
L 144.705732 231.46666 
L 139.226274 229.135988 
L 133.746815 212.108078 
L 128.267356 213.706294 
L 122.787898 197.381763 
L 117.308439 164.606738 
L 111.82898 229.834815 
L 106.349521 252.237731 
L 100.870063 209.926039 
L 95.413435 163.595769 
" clip-path="url(#p04d7b1d1dc)" style="fill: none; stroke-dasharray: 5.55,2.4; stroke-dashoffset: 0; stroke: #6495ed; stroke-width: 1.5"/>
   </g>
   <g id="line2d_19">
    <path d="M 635.117286 370.600129 
L 626.898098 360.963823 
L 621.418639 345.34711 
L 615.93918 342.168434 
L 610.459722 338.539635 
L 604.980263 304.632599 
L 599.500804 301.659658 
L 594.021346 278.349459 
L 588.541887 266.953216 
L 583.062428 275.297895 
L 577.582969 281.763819 
L 572.103511 265.478228 
L 566.624052 265.781073 
L 561.144593 233.843784 
L 555.665135 266.29058 
L 550.185676 265.504756 
L 544.706217 263.792716 
L 539.226759 234.833832 
L 533.7473 214.652609 
L 528.267841 230.943457 
L 522.788382 212.509831 
L 517.308924 230.134057 
L 511.829465 217.705535 
L 506.350006 160.514192 
L 500.870548 188.851043 
L 495.391089 253.992639 
L 489.91163 180.794792 
L 484.432172 216.966305 
L 478.952713 166.723519 
L 473.473254 206.856458 
L 467.993795 206.68049 
L 462.514337 227.863724 
L 457.034878 197.292071 
L 451.555419 206.706897 
L 446.075961 193.178395 
L 440.596502 168.289002 
L 435.117043 224.316358 
L 429.637585 209.291915 
L 424.158126 192.787274 
L 418.678667 209.565365 
L 413.199208 203.469452 
L 407.71975 120.800952 
L 402.240291 239.180321 
L 396.760832 218.692396 
L 391.281374 150.684709 
L 385.801915 148.996762 
L 380.322456 173.53386 
L 374.842998 158.581236 
L 363.88408 226.010404 
L 369.363539 137.018289 
L 358.404622 213.918793 
L 352.925163 227.115552 
L 347.445704 207.873363 
L 341.966245 180.023284 
L 336.486787 191.197329 
L 331.007328 138.481952 
L 325.527869 214.759116 
L 320.048411 227.521244 
L 314.568952 169.583066 
L 309.089493 194.982263 
L 303.610035 171.934582 
L 292.651117 195.107504 
L 298.130576 156.999582 
L 287.171658 146.351209 
L 281.6922 198.502248 
L 276.212741 217.656222 
L 270.733282 170.895373 
L 265.253824 152.359377 
L 259.774365 132.790994 
L 254.294906 173.962388 
L 248.815448 195.975912 
L 243.335989 174.037178 
L 237.85653 195.715975 
L 226.897613 165.010884 
L 232.377071 175.32753 
L 221.418154 127.373689 
L 215.938695 139.123455 
L 210.459237 181.339021 
L 204.979778 202.340222 
L 199.500319 186.290002 
L 194.020861 188.204803 
L 188.541402 215.591888 
L 183.061943 194.252179 
L 177.582484 140.756079 
L 172.103026 178.747579 
L 155.66465 207.994347 
L 166.623567 214.038753 
L 161.144108 111.707027 
L 150.185191 127.218807 
L 144.705732 149.648774 
L 139.226274 182.995444 
L 133.746815 168.756491 
L 128.267356 134.506242 
L 122.787898 119.175252 
L 117.308439 24.990545 
L 111.82898 171.34339 
L 106.349521 203.668592 
L 100.870063 134.071662 
L 95.413435 86.321909 
" clip-path="url(#p04d7b1d1dc)" style="fill: none; stroke-dasharray: 5.55,2.4; stroke-dashoffset: 0; stroke: #ffffff; stroke-opacity: 0; stroke-width: 1.5"/>
   </g>
   <g id="line2d_20">
    <path d="M 635.117286 380.801455 
L 626.898098 364.073986 
L 621.418639 360.433689 
L 615.93918 356.737489 
L 610.459722 359.677767 
L 604.980263 326.135574 
L 599.500804 336.158378 
L 594.021346 309.547637 
L 588.541887 327.62701 
L 583.062428 322.774375 
L 577.582969 324.989858 
L 572.103511 314.333664 
L 566.624052 329.824902 
L 561.144593 311.110991 
L 555.665135 324.189796 
L 550.185676 321.101008 
L 544.706217 311.945009 
L 539.226759 316.484762 
L 533.7473 298.034829 
L 528.267841 302.337399 
L 522.788382 281.573854 
L 517.308924 305.414916 
L 511.829465 282.045183 
L 506.350006 299.089767 
L 500.870548 274.334244 
L 495.391089 299.748618 
L 489.91163 275.636727 
L 484.432172 281.923547 
L 478.952713 277.813199 
L 473.473254 279.768522 
L 467.993795 311.026531 
L 462.514337 317.941257 
L 457.034878 301.521106 
L 451.555419 284.903034 
L 446.075961 283.781295 
L 440.596502 308.060082 
L 435.117043 313.14251 
L 429.637585 295.311314 
L 424.158126 275.771509 
L 418.678667 279.923364 
L 413.199208 285.346259 
L 407.71975 254.665681 
L 402.240291 315.92189 
L 396.760832 274.737335 
L 391.281374 245.902924 
L 385.801915 289.853686 
L 380.322456 294.838321 
L 374.842998 252.989312 
L 363.88408 298.127974 
L 369.363539 262.627818 
L 358.404622 277.905077 
L 352.925163 313.475335 
L 347.445704 291.06715 
L 341.966245 280.429469 
L 336.486787 284.713718 
L 331.007328 235.964888 
L 325.527869 286.487419 
L 320.048411 290.6214 
L 314.568952 294.544305 
L 309.089493 280.544725 
L 303.610035 276.623314 
L 292.651117 289.652208 
L 298.130576 287.649801 
L 287.171658 236.660619 
L 281.6922 310.879666 
L 276.212741 292.393357 
L 270.733282 291.744574 
L 265.253824 249.328382 
L 259.774365 274.858254 
L 254.294906 300.342035 
L 248.815448 278.458232 
L 243.335989 278.178534 
L 237.85653 283.953975 
L 226.897613 271.164358 
L 232.377071 314.454946 
L 221.418154 261.706015 
L 215.938695 285.921996 
L 210.459237 291.627164 
L 204.979778 302.561498 
L 199.500319 273.565725 
L 194.020861 276.324919 
L 188.541402 272.912718 
L 183.061943 258.357825 
L 177.582484 235.781993 
L 172.103026 277.286568 
L 155.66465 306.105845 
L 166.623567 293.861529 
L 161.144108 223.569697 
L 150.185191 244.360697 
L 144.705732 288.449877 
L 139.226274 261.271219 
L 133.746815 242.3009 
L 128.267356 268.866285 
L 122.787898 251.849788 
L 117.308439 261.844399 
L 111.82898 270.571991 
L 106.349521 286.064391 
L 100.870063 262.755887 
L 95.413435 217.330868 
" clip-path="url(#p04d7b1d1dc)" style="fill: none; stroke-dasharray: 5.55,2.4; stroke-dashoffset: 0; stroke: #ffffff; stroke-opacity: 0; stroke-width: 1.5"/>
   </g>
   <g id="patch_3">
    <path d="M 65.326641 398.592 
L 65.326641 7.2 
" style="fill: none; stroke: #0000ff; stroke-width: 2; stroke-linejoin: miter; stroke-linecap: square"/>
   </g>
   <g id="patch_4">
    <path d="M 667.966641 398.592 
L 667.966641 7.2 
" style="fill: none; stroke: #cccccc; stroke-width: 1.25; stroke-linejoin: miter; stroke-linecap: square"/>
   </g>
   <g id="patch_5">
    <path d="M 65.326641 398.592 
L 667.966641 398.592 
" style="fill: none; stroke: #cccccc; stroke-width: 1.25; stroke-linejoin: miter; stroke-linecap: square"/>
   </g>
   <g id="patch_6">
    <path d="M 65.326641 7.2 
L 667.966641 7.2 
" style="fill: none; stroke: #cccccc; stroke-width: 1.25; stroke-linejoin: miter; stroke-linecap: square"/>
   </g>
   <g id="axes_2">
    <g id="patch_7">
     <path d="M 459.380334 218.55168 
L 635.496947 218.55168 
L 635.496947 42.42528 
L 459.380334 42.42528 
z
" style="fill: #ffffff"/>
    </g>
    <g id="matplotlib.axis_3"/>
    <g id="matplotlib.axis_4"/>
    <g id="PathCollection_2">
     <defs>
      <path id="mba7b5021a8" d="M 0 3 
C 0.795609 3 1.55874 2.683901 2.12132 2.12132 
C 2.683901 1.55874 3 0.795609 3 0 
C 3 -0.795609 2.683901 -1.55874 2.12132 -2.12132 
C 1.55874 -2.683901 0.795609 -3 0 -3 
C -0.795609 -3 -1.55874 -2.683901 -2.12132 -2.12132 
C -2.683901 -1.55874 -3 -0.795609 -3 0 
C -3 0.795609 -2.683901 1.55874 -2.12132 2.12132 
C -1.55874 2.683901 -0.795609 3 0 3 
z
" style="stroke: #0000ff"/>
     </defs>
     <g clip-path="url(#p1a9f88f36f)">
      <use xlink:href="#mba7b5021a8" x="596.038244" y="173.608526" style="fill: #0000ff; stroke: #0000ff"/>
      <use xlink:href="#mba7b5021a8" x="603.145891" y="74.289734" style="fill: #0000ff; stroke: #0000ff"/>
      <use xlink:href="#mba7b5021a8" x="540.931834" y="51.733949" style="fill: #0000ff; stroke: #0000ff"/>
      <use xlink:href="#mba7b5021a8" x="539.919533" y="139.322837" style="fill: #0000ff; stroke: #0000ff"/>
      <use xlink:href="#mba7b5021a8" x="517.759688" y="200.205039" style="fill: #0000ff; stroke: #0000ff"/>
      <use xlink:href="#mba7b5021a8" x="472.242975" y="138.85283" style="fill: #0000ff; stroke: #0000ff"/>
      <use xlink:href="#mba7b5021a8" x="473.41784" y="100.755717" style="fill: #0000ff; stroke: #0000ff"/>
      <use xlink:href="#mba7b5021a8" x="603.128284" y="128.404135" style="fill: #0000ff; stroke: #0000ff"/>
      <use xlink:href="#mba7b5021a8" x="576.671719" y="65.355992" style="fill: #0000ff; stroke: #0000ff"/>
      <use xlink:href="#mba7b5021a8" x="509.075926" y="62.038422" style="fill: #0000ff; stroke: #0000ff"/>
      <use xlink:href="#mba7b5021a8" x="562.263686" y="206.396817" style="fill: #0000ff; stroke: #0000ff"/>
      <use xlink:href="#mba7b5021a8" x="498.384736" y="176.475934" style="fill: #0000ff; stroke: #0000ff"/>
     </g>
    </g>
    <g id="line2d_21">
     <path d="M 627.491646 130.48848 
L 627.420473 127.113348 
L 627.207079 123.744216 
L 626.851843 120.387076 
L 626.355398 117.047896 
L 625.718626 113.732612 
L 624.94266 110.44712 
L 624.028878 107.197261 
L 622.978906 103.988812 
L 621.79461 100.827479 
L 620.478096 97.718882 
L 619.031705 94.668549 
L 617.458008 91.681902 
L 615.759803 88.764251 
L 613.94011 85.920785 
L 612.002164 83.156558 
L 609.949411 80.476486 
L 607.7855 77.885333 
L 605.514278 75.387707 
L 603.139785 72.988048 
L 600.666241 70.690623 
L 598.098044 68.499516 
L 595.439761 66.418623 
L 592.696118 64.451644 
L 589.871993 62.602076 
L 586.972407 60.873208 
L 584.002516 59.268113 
L 580.9676 57.789645 
L 577.873055 56.440434 
L 574.724382 55.222877 
L 571.527181 54.139139 
L 568.287135 53.191148 
L 565.010006 52.380588 
L 561.701619 51.708902 
L 558.367858 51.177283 
L 555.014649 50.786676 
L 551.647955 50.537776 
L 548.27376 50.431025 
L 544.898065 50.466614 
L 541.526872 50.644479 
L 538.166173 50.964303 
L 534.821945 51.425519 
L 531.500133 52.027305 
L 528.206643 52.768593 
L 524.947331 53.648064 
L 521.727992 54.664154 
L 518.554349 55.815057 
L 515.432047 57.098727 
L 512.366634 58.512881 
L 509.363563 60.055005 
L 506.428172 61.722358 
L 503.565681 63.511973 
L 500.781178 65.420671 
L 498.079614 67.445057 
L 495.465794 69.581532 
L 492.944363 71.826297 
L 490.519805 74.175361 
L 488.196431 76.624548 
L 485.978372 79.169503 
L 483.869571 81.805701 
L 481.873778 84.528456 
L 479.99454 87.332926 
L 478.235201 90.214125 
L 476.598886 93.16693 
L 475.088506 96.186091 
L 473.706747 99.266241 
L 472.456064 102.401903 
L 471.338681 105.587502 
L 470.356586 108.817373 
L 469.511524 112.085776 
L 468.804998 115.386897 
L 468.238263 118.714869 
L 467.812328 122.063774 
L 467.52795 125.427657 
L 467.385635 128.800539 
L 467.385635 132.176421 
L 467.52795 135.549303 
L 467.812328 138.913186 
L 468.238263 142.262091 
L 468.804998 145.590063 
L 469.511524 148.891184 
L 470.356586 152.159587 
L 471.338681 155.389458 
L 472.456064 158.575057 
L 473.706747 161.710719 
L 475.088506 164.790869 
L 476.598886 167.81003 
L 478.235201 170.762835 
L 479.99454 173.644034 
L 481.873778 176.448504 
L 483.869571 179.171259 
L 485.978372 181.807457 
L 488.196431 184.352412 
L 490.519805 186.801599 
L 492.944363 189.150663 
L 495.465794 191.395428 
L 498.079614 193.531903 
L 500.781178 195.556289 
L 503.565681 197.464987 
L 506.428172 199.254602 
L 509.363563 200.921955 
L 512.366634 202.464079 
L 515.432047 203.878233 
L 518.554349 205.161903 
L 521.727992 206.312806 
L 524.947331 207.328896 
L 528.206643 208.208367 
L 531.500133 208.949655 
L 534.821945 209.551441 
L 538.166173 210.012657 
L 541.526872 210.332481 
L 544.898065 210.510346 
L 548.27376 210.545935 
L 551.647955 210.439184 
L 555.014649 210.190284 
L 558.367858 209.799677 
L 561.701619 209.268058 
L 565.010006 208.596372 
L 568.287135 207.785812 
L 571.527181 206.837821 
L 574.724382 205.754083 
L 577.873055 204.536526 
L 580.9676 203.187315 
L 584.002516 201.708847 
L 586.972407 200.103752 
L 589.871993 198.374884 
L 592.696118 196.525316 
L 595.439761 194.558337 
L 598.098044 192.477444 
L 600.666241 190.286337 
L 603.139785 187.988912 
L 605.514278 185.589253 
L 607.7855 183.091627 
L 609.949411 180.500474 
L 612.002164 177.820402 
L 613.94011 175.056175 
L 615.759803 172.212709 
L 617.458008 169.295058 
L 619.031705 166.308411 
L 620.478096 163.258078 
L 621.79461 160.149481 
L 622.978906 156.988148 
L 624.028878 153.779699 
L 624.94266 150.52984 
L 625.718626 147.244348 
L 626.355398 143.929064 
L 626.851843 140.589884 
L 627.207079 137.232744 
L 627.420473 133.863612 
L 627.491646 130.48848 
L 627.491646 130.48848 
" clip-path="url(#p1a9f88f36f)" style="fill: none; stroke: #000000; stroke-width: 1.5; stroke-linecap: round"/>
    </g>
    <g id="line2d_22">
     <path d="M 468.186165 130.48848 
L 626.691116 130.48848 
" clip-path="url(#p1a9f88f36f)" style="fill: none; stroke: #000000; stroke-width: 1.5; stroke-linecap: round"/>
    </g>
    <g id="line2d_23">
     <path d="M 547.429743 209.74536 
L 547.429743 51.2316 
" clip-path="url(#p1a9f88f36f)" style="fill: none; stroke: #000000; stroke-width: 1.5; stroke-linecap: round"/>
    </g>
    <g id="patch_8">
     <path d="M 459.380334 218.55168 
L 459.380334 42.42528 
" style="fill: none; stroke: #262626; stroke-width: 1.25; stroke-linejoin: miter; stroke-linecap: square"/>
    </g>
    <g id="patch_9">
     <path d="M 635.496947 218.55168 
L 635.496947 42.42528 
" style="fill: none; stroke: #262626; stroke-width: 1.25; stroke-linejoin: miter; stroke-linecap: square"/>
    </g>
    <g id="patch_10">
     <path d="M 459.380334 218.55168 
L 635.496947 218.55168 
" style="fill: none; stroke: #262626; stroke-width: 1.25; stroke-linejoin: miter; stroke-linecap: square"/>
    </g>
    <g id="patch_11">
     <path d="M 459.380334 42.42528 
L 635.496947 42.42528 
" style="fill: none; stroke: #262626; stroke-width: 1.25; stroke-linejoin: miter; stroke-linecap: square"/>
    </g>
   </g>
   <g id="legend_1">
    <g id="patch_12">
     <path d="M 282.033047 97.777812 
L 451.260234 97.777812 
Q 454.060234 97.777812 454.060234 94.977812 
L 454.060234 17 
Q 454.060234 14.2 451.260234 14.2 
L 282.033047 14.2 
Q 279.233047 14.2 279.233047 17 
L 279.233047 94.977812 
Q 279.233047 97.777812 282.033047 97.777812 
z
" style="fill: #ffffff; stroke: #000000; stroke-linejoin: miter"/>
    </g>
    <g id="line2d_24">
     <path d="M 284.833047 24.920937 
L 298.833047 24.920937 
L 312.833047 24.920937 
" style="fill: none; stroke: #0000ff; stroke-width: 1.5; stroke-linecap: round"/>
    </g>
    <g id="text_14">
     <!-- Mean Energy -->
     <g style="fill: #262626" transform="translate(324.033047 29.820937)scale(0.14 -0.14)">
      <defs>
       <path id="ArialMT-4d" d="M 475 0 
L 475 4581 
L 1388 4581 
L 2472 1338 
Q 2622 884 2691 659 
Q 2769 909 2934 1394 
L 4031 4581 
L 4847 4581 
L 4847 0 
L 4263 0 
L 4263 3834 
L 2931 0 
L 2384 0 
L 1059 3900 
L 1059 0 
L 475 0 
z
" transform="scale(0.015625)"/>
      </defs>
      <use xlink:href="#ArialMT-4d"/>
      <use xlink:href="#ArialMT-65" x="83.300781"/>
      <use xlink:href="#ArialMT-61" x="138.916016"/>
      <use xlink:href="#ArialMT-6e" x="194.53125"/>
      <use xlink:href="#ArialMT-20" x="250.146484"/>
      <use xlink:href="#ArialMT-45" x="277.929688"/>
      <use xlink:href="#ArialMT-6e" x="344.628906"/>
      <use xlink:href="#ArialMT-65" x="400.244141"/>
      <use xlink:href="#ArialMT-72" x="455.859375"/>
      <use xlink:href="#ArialMT-67" x="489.160156"/>
      <use xlink:href="#ArialMT-79" x="544.775391"/>
     </g>
    </g>
    <g id="line2d_25">
     <path d="M 284.833047 44.888437 
L 298.833047 44.888437 
L 312.833047 44.888437 
" style="fill: none; stroke-dasharray: 5.55,2.4; stroke-dashoffset: 0; stroke: #6495ed; stroke-width: 1.5"/>
    </g>
    <g id="text_15">
     <!-- 95% CI -->
     <g style="fill: #262626" transform="translate(324.033047 49.788437)scale(0.14 -0.14)">
      <defs>
       <path id="ArialMT-39" d="M 350 1059 
L 891 1109 
Q 959 728 1153 556 
Q 1347 384 1650 384 
Q 1909 384 2104 503 
Q 2300 622 2425 820 
Q 2550 1019 2634 1356 
Q 2719 1694 2719 2044 
Q 2719 2081 2716 2156 
Q 2547 1888 2255 1720 
Q 1963 1553 1622 1553 
Q 1053 1553 659 1965 
Q 266 2378 266 3053 
Q 266 3750 677 4175 
Q 1088 4600 1706 4600 
Q 2153 4600 2523 4359 
Q 2894 4119 3086 3673 
Q 3278 3228 3278 2384 
Q 3278 1506 3087 986 
Q 2897 466 2520 194 
Q 2144 -78 1638 -78 
Q 1100 -78 759 220 
Q 419 519 350 1059 
z
M 2653 3081 
Q 2653 3566 2395 3850 
Q 2138 4134 1775 4134 
Q 1400 4134 1122 3828 
Q 844 3522 844 3034 
Q 844 2597 1108 2323 
Q 1372 2050 1759 2050 
Q 2150 2050 2401 2323 
Q 2653 2597 2653 3081 
z
" transform="scale(0.015625)"/>
       <path id="ArialMT-35" d="M 266 1200 
L 856 1250 
Q 922 819 1161 601 
Q 1400 384 1738 384 
Q 2144 384 2425 690 
Q 2706 997 2706 1503 
Q 2706 1984 2436 2262 
Q 2166 2541 1728 2541 
Q 1456 2541 1237 2417 
Q 1019 2294 894 2097 
L 366 2166 
L 809 4519 
L 3088 4519 
L 3088 3981 
L 1259 3981 
L 1013 2750 
Q 1425 3038 1878 3038 
Q 2478 3038 2890 2622 
Q 3303 2206 3303 1553 
Q 3303 931 2941 478 
Q 2500 -78 1738 -78 
Q 1113 -78 717 272 
Q 322 622 266 1200 
z
" transform="scale(0.015625)"/>
       <path id="ArialMT-25" d="M 372 3481 
Q 372 3972 619 4315 
Q 866 4659 1334 4659 
Q 1766 4659 2048 4351 
Q 2331 4044 2331 3447 
Q 2331 2866 2045 2552 
Q 1759 2238 1341 2238 
Q 925 2238 648 2547 
Q 372 2856 372 3481 
z
M 1350 4272 
Q 1141 4272 1002 4090 
Q 863 3909 863 3425 
Q 863 2984 1003 2804 
Q 1144 2625 1350 2625 
Q 1563 2625 1702 2806 
Q 1841 2988 1841 3469 
Q 1841 3913 1700 4092 
Q 1559 4272 1350 4272 
z
M 1353 -169 
L 3859 4659 
L 4316 4659 
L 1819 -169 
L 1353 -169 
z
M 3334 1075 
Q 3334 1569 3581 1911 
Q 3828 2253 4300 2253 
Q 4731 2253 5014 1945 
Q 5297 1638 5297 1041 
Q 5297 459 5011 145 
Q 4725 -169 4303 -169 
Q 3888 -169 3611 142 
Q 3334 453 3334 1075 
z
M 4316 1866 
Q 4103 1866 3964 1684 
Q 3825 1503 3825 1019 
Q 3825 581 3965 400 
Q 4106 219 4313 219 
Q 4528 219 4667 400 
Q 4806 581 4806 1063 
Q 4806 1506 4665 1686 
Q 4525 1866 4316 1866 
z
" transform="scale(0.015625)"/>
       <path id="ArialMT-43" d="M 3763 1606 
L 4369 1453 
Q 4178 706 3683 314 
Q 3188 -78 2472 -78 
Q 1731 -78 1267 223 
Q 803 525 561 1097 
Q 319 1669 319 2325 
Q 319 3041 592 3573 
Q 866 4106 1370 4382 
Q 1875 4659 2481 4659 
Q 3169 4659 3637 4309 
Q 4106 3959 4291 3325 
L 3694 3184 
Q 3534 3684 3231 3912 
Q 2928 4141 2469 4141 
Q 1941 4141 1586 3887 
Q 1231 3634 1087 3207 
Q 944 2781 944 2328 
Q 944 1744 1114 1308 
Q 1284 872 1643 656 
Q 2003 441 2422 441 
Q 2931 441 3284 734 
Q 3638 1028 3763 1606 
z
" transform="scale(0.015625)"/>
       <path id="ArialMT-49" d="M 597 0 
L 597 4581 
L 1203 4581 
L 1203 0 
L 597 0 
z
" transform="scale(0.015625)"/>
      </defs>
      <use xlink:href="#ArialMT-39"/>
      <use xlink:href="#ArialMT-35" x="55.615234"/>
      <use xlink:href="#ArialMT-25" x="111.230469"/>
      <use xlink:href="#ArialMT-20" x="200.146484"/>
      <use xlink:href="#ArialMT-43" x="227.929688"/>
      <use xlink:href="#ArialMT-49" x="300.146484"/>
     </g>
    </g>
    <g id="patch_13">
     <path d="M 284.833047 69.591875 
L 312.833047 69.591875 
L 312.833047 59.791875 
L 284.833047 59.791875 
z
" style="fill-opacity: 0.15; stroke: #000000; stroke-opacity: 0.15; stroke-linejoin: miter"/>
    </g>
    <g id="text_16">
     <!-- Standard deviation -->
     <g style="fill: #262626" transform="translate(324.033047 69.591875)scale(0.14 -0.14)">
      <defs>
       <path id="ArialMT-b1" d="M 1491 813 
L 1491 2072 
L 244 2072 
L 244 2594 
L 1491 2594 
L 1491 3841 
L 2022 3841 
L 2022 2594 
L 3269 2594 
L 3269 2072 
L 2022 2072 
L 2022 813 
L 1491 813 
z
M 3269 0 
L 244 0 
L 244 525 
L 3269 525 
L 3269 0 
z
" transform="scale(0.015625)"/>
       <path id="ArialMT-53" d="M 288 1472 
L 859 1522 
Q 900 1178 1048 958 
Q 1197 738 1509 602 
Q 1822 466 2213 466 
Q 2559 466 2825 569 
Q 3091 672 3220 851 
Q 3350 1031 3350 1244 
Q 3350 1459 3225 1620 
Q 3100 1781 2813 1891 
Q 2628 1963 1997 2114 
Q 1366 2266 1113 2400 
Q 784 2572 623 2826 
Q 463 3081 463 3397 
Q 463 3744 659 4045 
Q 856 4347 1234 4503 
Q 1613 4659 2075 4659 
Q 2584 4659 2973 4495 
Q 3363 4331 3572 4012 
Q 3781 3694 3797 3291 
L 3216 3247 
Q 3169 3681 2898 3903 
Q 2628 4125 2100 4125 
Q 1550 4125 1298 3923 
Q 1047 3722 1047 3438 
Q 1047 3191 1225 3031 
Q 1400 2872 2139 2705 
Q 2878 2538 3153 2413 
Q 3553 2228 3743 1945 
Q 3934 1663 3934 1294 
Q 3934 928 3725 604 
Q 3516 281 3123 101 
Q 2731 -78 2241 -78 
Q 1619 -78 1198 103 
Q 778 284 539 648 
Q 300 1013 288 1472 
z
" transform="scale(0.015625)"/>
       <path id="ArialMT-64" d="M 2575 0 
L 2575 419 
Q 2259 -75 1647 -75 
Q 1250 -75 917 144 
Q 584 363 401 755 
Q 219 1147 219 1656 
Q 219 2153 384 2558 
Q 550 2963 881 3178 
Q 1213 3394 1622 3394 
Q 1922 3394 2156 3267 
Q 2391 3141 2538 2938 
L 2538 4581 
L 3097 4581 
L 3097 0 
L 2575 0 
z
M 797 1656 
Q 797 1019 1065 703 
Q 1334 388 1700 388 
Q 2069 388 2326 689 
Q 2584 991 2584 1609 
Q 2584 2291 2321 2609 
Q 2059 2928 1675 2928 
Q 1300 2928 1048 2622 
Q 797 2316 797 1656 
z
" transform="scale(0.015625)"/>
      </defs>
      <use xlink:href="#ArialMT-b1"/>
      <use xlink:href="#ArialMT-53" x="54.882812"/>
      <use xlink:href="#ArialMT-74" x="121.582031"/>
      <use xlink:href="#ArialMT-61" x="149.365234"/>
      <use xlink:href="#ArialMT-6e" x="204.980469"/>
      <use xlink:href="#ArialMT-64" x="260.595703"/>
      <use xlink:href="#ArialMT-61" x="316.210938"/>
      <use xlink:href="#ArialMT-72" x="371.826172"/>
      <use xlink:href="#ArialMT-64" x="405.126953"/>
      <use xlink:href="#ArialMT-20" x="460.742188"/>
      <use xlink:href="#ArialMT-64" x="488.525391"/>
      <use xlink:href="#ArialMT-65" x="544.140625"/>
      <use xlink:href="#ArialMT-76" x="599.755859"/>
      <use xlink:href="#ArialMT-69" x="649.755859"/>
      <use xlink:href="#ArialMT-61" x="671.972656"/>
      <use xlink:href="#ArialMT-74" x="727.587891"/>
      <use xlink:href="#ArialMT-69" x="755.371094"/>
      <use xlink:href="#ArialMT-6f" x="777.587891"/>
      <use xlink:href="#ArialMT-6e" x="833.203125"/>
     </g>
    </g>
    <g id="line2d_26">
     <path d="M 284.833047 84.495312 
L 298.833047 84.495312 
L 312.833047 84.495312 
" style="fill: none; stroke: #ff0000; stroke-width: 1.5; stroke-linecap: round"/>
    </g>
    <g id="text_17">
     <!-- Temperature -->
     <g style="fill: #262626" transform="translate(324.033047 89.395312)scale(0.14 -0.14)">
      <defs>
       <path id="ArialMT-54" d="M 1659 0 
L 1659 4041 
L 150 4041 
L 150 4581 
L 3781 4581 
L 3781 4041 
L 2266 4041 
L 2266 0 
L 1659 0 
z
" transform="scale(0.015625)"/>
       <path id="ArialMT-6d" d="M 422 0 
L 422 3319 
L 925 3319 
L 925 2853 
Q 1081 3097 1340 3245 
Q 1600 3394 1931 3394 
Q 2300 3394 2536 3241 
Q 2772 3088 2869 2813 
Q 3263 3394 3894 3394 
Q 4388 3394 4653 3120 
Q 4919 2847 4919 2278 
L 4919 0 
L 4359 0 
L 4359 2091 
Q 4359 2428 4304 2576 
Q 4250 2725 4106 2815 
Q 3963 2906 3769 2906 
Q 3419 2906 3187 2673 
Q 2956 2441 2956 1928 
L 2956 0 
L 2394 0 
L 2394 2156 
Q 2394 2531 2256 2718 
Q 2119 2906 1806 2906 
Q 1569 2906 1367 2781 
Q 1166 2656 1075 2415 
Q 984 2175 984 1722 
L 984 0 
L 422 0 
z
" transform="scale(0.015625)"/>
       <path id="ArialMT-70" d="M 422 -1272 
L 422 3319 
L 934 3319 
L 934 2888 
Q 1116 3141 1344 3267 
Q 1572 3394 1897 3394 
Q 2322 3394 2647 3175 
Q 2972 2956 3137 2557 
Q 3303 2159 3303 1684 
Q 3303 1175 3120 767 
Q 2938 359 2589 142 
Q 2241 -75 1856 -75 
Q 1575 -75 1351 44 
Q 1128 163 984 344 
L 984 -1272 
L 422 -1272 
z
M 931 1641 
Q 931 1000 1190 694 
Q 1450 388 1819 388 
Q 2194 388 2461 705 
Q 2728 1022 2728 1688 
Q 2728 2322 2467 2637 
Q 2206 2953 1844 2953 
Q 1484 2953 1207 2617 
Q 931 2281 931 1641 
z
" transform="scale(0.015625)"/>
      </defs>
      <use xlink:href="#ArialMT-54"/>
      <use xlink:href="#ArialMT-65" x="49.958984"/>
      <use xlink:href="#ArialMT-6d" x="105.574219"/>
      <use xlink:href="#ArialMT-70" x="188.875"/>
      <use xlink:href="#ArialMT-65" x="244.490234"/>
      <use xlink:href="#ArialMT-72" x="300.105469"/>
      <use xlink:href="#ArialMT-61" x="333.40625"/>
      <use xlink:href="#ArialMT-74" x="389.021484"/>
      <use xlink:href="#ArialMT-75" x="416.804688"/>
      <use xlink:href="#ArialMT-72" x="472.419922"/>
      <use xlink:href="#ArialMT-65" x="505.720703"/>
     </g>
    </g>
   </g>
  </g>
  <g id="axes_3">
   <g id="matplotlib.axis_5">
    <g id="ytick_5">
     <g id="line2d_27">
      <defs>
       <path id="mc8b4db927b" d="M 0 0 
L 6 0 
" style="stroke: #262626; stroke-width: 1.25"/>
      </defs>
      <g>
       <use xlink:href="#mc8b4db927b" x="667.966641" y="381.510583" style="fill: #262626; stroke: #262626; stroke-width: 1.25"/>
      </g>
     </g>
     <g id="text_18">
      <!-- 0 -->
      <g style="fill: #262626" transform="translate(677.466641 385.44738)scale(0.11 -0.11)">
       <use xlink:href="#ArialMT-30"/>
      </g>
     </g>
    </g>
    <g id="ytick_6">
     <g id="line2d_28">
      <g>
       <use xlink:href="#mc8b4db927b" x="667.966641" y="310.597769" style="fill: #262626; stroke: #262626; stroke-width: 1.25"/>
      </g>
     </g>
     <g id="text_19">
      <!-- 10 -->
      <g style="fill: #262626" transform="translate(677.466641 314.534566)scale(0.11 -0.11)">
       <use xlink:href="#ArialMT-31"/>
       <use xlink:href="#ArialMT-30" x="55.615234"/>
      </g>
     </g>
    </g>
    <g id="ytick_7">
     <g id="line2d_29">
      <g>
       <use xlink:href="#mc8b4db927b" x="667.966641" y="239.684955" style="fill: #262626; stroke: #262626; stroke-width: 1.25"/>
      </g>
     </g>
     <g id="text_20">
      <!-- 20 -->
      <g style="fill: #262626" transform="translate(677.466641 243.621752)scale(0.11 -0.11)">
       <use xlink:href="#ArialMT-32"/>
       <use xlink:href="#ArialMT-30" x="55.615234"/>
      </g>
     </g>
    </g>
    <g id="ytick_8">
     <g id="line2d_30">
      <g>
       <use xlink:href="#mc8b4db927b" x="667.966641" y="168.772141" style="fill: #262626; stroke: #262626; stroke-width: 1.25"/>
      </g>
     </g>
     <g id="text_21">
      <!-- 30 -->
      <g style="fill: #262626" transform="translate(677.466641 172.708938)scale(0.11 -0.11)">
       <defs>
        <path id="ArialMT-33" d="M 269 1209 
L 831 1284 
Q 928 806 1161 595 
Q 1394 384 1728 384 
Q 2125 384 2398 659 
Q 2672 934 2672 1341 
Q 2672 1728 2419 1979 
Q 2166 2231 1775 2231 
Q 1616 2231 1378 2169 
L 1441 2663 
Q 1497 2656 1531 2656 
Q 1891 2656 2178 2843 
Q 2466 3031 2466 3422 
Q 2466 3731 2256 3934 
Q 2047 4138 1716 4138 
Q 1388 4138 1169 3931 
Q 950 3725 888 3313 
L 325 3413 
Q 428 3978 793 4289 
Q 1159 4600 1703 4600 
Q 2078 4600 2393 4439 
Q 2709 4278 2876 4000 
Q 3044 3722 3044 3409 
Q 3044 3113 2884 2869 
Q 2725 2625 2413 2481 
Q 2819 2388 3044 2092 
Q 3269 1797 3269 1353 
Q 3269 753 2831 336 
Q 2394 -81 1725 -81 
Q 1122 -81 723 278 
Q 325 638 269 1209 
z
" transform="scale(0.015625)"/>
       </defs>
       <use xlink:href="#ArialMT-33"/>
       <use xlink:href="#ArialMT-30" x="55.615234"/>
      </g>
     </g>
    </g>
    <g id="ytick_9">
     <g id="line2d_31">
      <g>
       <use xlink:href="#mc8b4db927b" x="667.966641" y="97.859327" style="fill: #262626; stroke: #262626; stroke-width: 1.25"/>
      </g>
     </g>
     <g id="text_22">
      <!-- 40 -->
      <g style="fill: #262626" transform="translate(677.466641 101.796124)scale(0.11 -0.11)">
       <use xlink:href="#ArialMT-34"/>
       <use xlink:href="#ArialMT-30" x="55.615234"/>
      </g>
     </g>
    </g>
    <g id="ytick_10">
     <g id="line2d_32">
      <g>
       <use xlink:href="#mc8b4db927b" x="667.966641" y="26.946513" style="fill: #262626; stroke: #262626; stroke-width: 1.25"/>
      </g>
     </g>
     <g id="text_23">
      <!-- 50 -->
      <g style="fill: #262626" transform="translate(677.466641 30.88331)scale(0.11 -0.11)">
       <use xlink:href="#ArialMT-35"/>
       <use xlink:href="#ArialMT-30" x="55.615234"/>
      </g>
     </g>
    </g>
    <g id="text_24">
     <!-- Temperature -->
     <g style="fill: #262626" transform="translate(706.584766 253.411312)rotate(-90)scale(0.18 -0.18)">
      <use xlink:href="#ArialMT-54"/>
      <use xlink:href="#ArialMT-65" x="49.958984"/>
      <use xlink:href="#ArialMT-6d" x="105.574219"/>
      <use xlink:href="#ArialMT-70" x="188.875"/>
      <use xlink:href="#ArialMT-65" x="244.490234"/>
      <use xlink:href="#ArialMT-72" x="300.105469"/>
      <use xlink:href="#ArialMT-61" x="333.40625"/>
      <use xlink:href="#ArialMT-74" x="389.021484"/>
      <use xlink:href="#ArialMT-75" x="416.804688"/>
      <use xlink:href="#ArialMT-72" x="472.419922"/>
      <use xlink:href="#ArialMT-65" x="505.720703"/>
     </g>
    </g>
   </g>
   <g id="PolyCollection_10"/>
   <g id="line2d_33">
    <path d="M 92.719368 24.990545 
L 98.107502 24.990545 
L 98.244489 25.336383 
L 103.586961 25.336383 
L 103.723947 26.974312 
L 109.06642 26.974312 
L 109.203406 30.384407 
L 114.545878 30.384407 
L 114.682865 35.605701 
L 120.025337 35.605701 
L 120.162324 42.226929 
L 125.504796 42.226929 
L 125.641782 49.489215 
L 130.984254 49.489215 
L 131.121241 56.475087 
L 136.463713 56.475087 
L 136.6007 62.336709 
L 141.943172 62.336709 
L 142.080158 66.506588 
L 147.422631 66.506588 
L 147.559617 68.838367 
L 152.902089 68.838367 
L 153.039076 69.642784 
L 169.340465 69.637475 
L 169.477452 70.606977 
L 174.819924 70.606977 
L 174.956911 73.165068 
L 180.299383 73.165068 
L 180.436369 77.562773 
L 185.778841 77.562773 
L 185.915828 83.59354 
L 191.2583 83.59354 
L 191.395287 90.645048 
L 196.737759 90.645048 
L 196.874745 97.851839 
L 202.217218 97.851839 
L 202.354204 104.310724 
L 207.696676 104.310724 
L 207.833663 109.305351 
L 213.176135 109.305351 
L 213.313121 112.484103 
L 218.655594 112.484103 
L 218.79258 113.947141 
L 224.135052 113.947141 
L 224.272039 114.221046 
L 235.09397 114.127489 
L 235.230956 114.57866 
L 240.573428 114.57866 
L 240.710415 116.350412 
L 246.052887 116.350412 
L 246.189874 119.889524 
L 251.532346 119.889524 
L 251.669332 125.202961 
L 257.011805 125.202961 
L 257.148791 131.856586 
L 262.491263 131.856586 
L 262.62825 139.083532 
L 267.970722 139.083532 
L 268.107708 145.975179 
L 273.450181 145.975179 
L 273.587167 151.707176 
L 278.929639 151.707176 
L 279.066626 155.744289 
L 284.409098 155.744289 
L 284.546084 157.97317 
L 289.888557 157.97317 
L 290.025543 158.730107 
L 306.326933 158.826374 
L 306.463919 159.919549 
L 311.806391 159.919549 
L 311.943378 162.612311 
L 317.28585 162.612311 
L 317.422837 167.122193 
L 322.765309 167.122193 
L 322.902295 173.21478 
L 328.244768 173.21478 
L 328.381754 180.262432 
L 333.724226 180.262432 
L 333.861213 187.400717 
L 339.203685 187.400717 
L 339.340671 193.743541 
L 344.683144 193.743541 
L 344.82013 198.603453 
L 350.162602 198.603453 
L 350.299589 201.662344 
L 355.642061 201.662344 
L 355.779048 203.050157 
L 361.12152 203.050157 
L 361.258506 203.312131 
L 372.080437 203.272836 
L 372.217424 203.830908 
L 377.559896 203.830908 
L 377.696882 205.735572 
L 383.039355 205.735572 
L 383.176341 209.400538 
L 388.518813 209.400538 
L 388.6558 214.80149 
L 393.998272 214.80149 
L 394.135258 221.482576 
L 399.477731 221.482576 
L 399.614717 228.670162 
L 404.957189 228.670162 
L 405.094176 235.465479 
L 410.436648 235.465479 
L 410.573635 241.068181 
L 415.916107 241.068181 
L 416.053093 244.975211 
L 421.395565 244.975211 
L 421.532552 247.10556 
L 426.875024 247.10556 
L 427.012011 247.819979 
L 437.833942 247.830854 
L 437.970928 248.024754 
L 443.3134 248.024754 
L 443.450387 249.241854 
L 448.792859 249.241854 
L 448.929845 252.067117 
L 454.272318 252.067117 
L 454.409304 256.685129 
L 459.751776 256.685129 
L 459.888763 262.834619 
L 465.231235 262.834619 
L 465.368221 269.873852 
L 470.710694 269.873852 
L 470.84768 276.940555 
L 476.190152 276.940555 
L 476.327139 283.166492 
L 481.669611 283.166492 
L 481.806598 287.893316 
L 487.14907 287.893316 
L 487.286056 290.836021 
L 492.628529 290.836021 
L 492.765515 292.153415 
L 498.107987 292.153415 
L 498.244974 292.408198 
L 509.066905 292.426663 
L 509.203891 293.093022 
L 514.546363 293.093022 
L 514.68335 295.129529 
L 520.025822 295.129529 
L 520.162808 298.917094 
L 525.505281 298.917094 
L 525.642267 304.400934 
L 530.984739 304.400934 
L 531.121726 311.104629 
L 536.464198 311.104629 
L 536.601185 318.248986 
L 541.943657 318.248986 
L 542.080643 324.94605 
L 547.423115 324.94605 
L 547.560102 330.419955 
L 552.902574 330.419955 
L 553.039561 334.199693 
L 558.382033 334.199693 
L 558.519019 336.235899 
L 563.861492 336.235899 
L 563.998478 336.912693 
L 574.820409 336.95176 
L 574.957395 337.232593 
L 580.299868 337.232593 
L 580.436854 338.573695 
L 585.779326 338.573695 
L 585.916313 341.529167 
L 591.258785 341.529167 
L 591.395772 346.251218 
L 596.738244 346.251218 
L 596.87523 352.452739 
L 602.217702 352.452739 
L 602.354689 359.479115 
L 607.697161 359.479115 
L 607.834148 366.471331 
L 613.17662 366.471331 
L 613.313606 372.579733 
L 618.656079 372.579733 
L 618.793065 377.175236 
L 624.135537 377.175236 
L 624.272524 380.005493 
L 629.614996 380.005493 
L 629.751982 380.801455 
L 640.573913 380.801455 
L 640.573913 380.801455 
" clip-path="url(#p04d7b1d1dc)" style="fill: none; stroke: #ff0000; stroke-width: 1.5; stroke-linecap: round"/>
   </g>
   <g id="patch_14">
    <path d="M 65.326641 398.592 
L 65.326641 7.2 
" style="fill: none; stroke: #262626; stroke-width: 1.25; stroke-linejoin: miter; stroke-linecap: square"/>
   </g>
   <g id="patch_15">
    <path d="M 667.966641 398.592 
L 667.966641 7.2 
" style="fill: none; stroke: #ff0000; stroke-width: 2; stroke-linejoin: miter; stroke-linecap: square"/>
   </g>
   <g id="patch_16">
    <path d="M 65.326641 398.592 
L 667.966641 398.592 
" style="fill: none; stroke: #262626; stroke-width: 1.25; stroke-linejoin: miter; stroke-linecap: square"/>
   </g>
   <g id="patch_17">
    <path d="M 65.326641 7.2 
L 667.966641 7.2 
" style="fill: none; stroke: #262626; stroke-width: 1.25; stroke-linejoin: miter; stroke-linecap: square"/>
   </g>
   <g id="legend_2"/>
  </g>
 </g>
 <defs>
  <clipPath id="p04d7b1d1dc">
   <rect x="65.326641" y="7.2" width="602.64" height="391.392"/>
  </clipPath>
  <clipPath id="p1a9f88f36f">
   <rect x="459.380334" y="42.42528" width="176.116613" height="176.1264"/>
  </clipPath>
 </defs>
</svg>
