<?xml version="1.0" encoding="utf-8" standalone="no"?>
<!DOCTYPE svg PUBLIC "-//W3C//DTD SVG 1.1//EN"
  "http://www.w3.org/Graphics/SVG/1.1/DTD/svg11.dtd">
<svg xmlns:xlink="http://www.w3.org/1999/xlink" width="717.362266pt" height="450.843328pt" viewBox="0 0 717.362266 450.843328" xmlns="http://www.w3.org/2000/svg" version="1.1">
 <metadata>
  <rdf:RDF xmlns:dc="http://purl.org/dc/elements/1.1/" xmlns:cc="http://creativecommons.org/ns#" xmlns:rdf="http://www.w3.org/1999/02/22-rdf-syntax-ns#">
   <cc:Work>
    <dc:type rdf:resource="http://purl.org/dc/dcmitype/StillImage"/>
    <dc:date>2022-12-22T21:08:07.952465</dc:date>
    <dc:format>image/svg+xml</dc:format>
    <dc:creator>
     <cc:Agent>
      <dc:title>Matplotlib v3.5.2, https://matplotlib.org/</dc:title>
     </cc:Agent>
    </dc:creator>
   </cc:Work>
  </rdf:RDF>
 </metadata>
 <defs>
  <style type="text/css">*{stroke-linejoin: round; stroke-linecap: butt}</style>
 </defs>
 <g id="figure_1">
  <g id="patch_1">
   <path d="M -0 450.843328 
L 717.362266 450.843328 
L 717.362266 0 
L -0 0 
z
" style="fill: #ffffff"/>
  </g>
  <g id="axes_1">
   <g id="patch_2">
    <path d="M 65.326641 398.592 
L 667.966641 398.592 
L 667.966641 7.2 
L 65.326641 7.2 
z
" style="fill: #ffffff"/>
   </g>
   <g id="matplotlib.axis_1">
    <g id="xtick_1">
     <g id="line2d_1">
      <path d="M 92.673706 398.592 
L 92.673706 7.2 
" clip-path="url(#p8e9e171370)" style="fill: none; stroke: #cccccc; stroke-linecap: round"/>
     </g>
     <g id="text_1">
      <!-- 0 -->
      <g style="fill: #262626" transform="translate(88.085932 419.902391)scale(0.165 -0.165)">
       <defs>
        <path id="ArialMT-30" d="M 266 2259 
Q 266 3072 433 3567 
Q 600 4063 929 4331 
Q 1259 4600 1759 4600 
Q 2128 4600 2406 4451 
Q 2684 4303 2865 4023 
Q 3047 3744 3150 3342 
Q 3253 2941 3253 2259 
Q 3253 1453 3087 958 
Q 2922 463 2592 192 
Q 2263 -78 1759 -78 
Q 1097 -78 719 397 
Q 266 969 266 2259 
z
M 844 2259 
Q 844 1131 1108 757 
Q 1372 384 1759 384 
Q 2147 384 2411 759 
Q 2675 1134 2675 2259 
Q 2675 3391 2411 3762 
Q 2147 4134 1753 4134 
Q 1366 4134 1134 3806 
Q 844 3388 844 2259 
z
" transform="scale(0.015625)"/>
       </defs>
       <use xlink:href="#ArialMT-30"/>
      </g>
     </g>
    </g>
    <g id="xtick_2">
     <g id="line2d_2">
      <path d="M 183.998017 398.592 
L 183.998017 7.2 
" clip-path="url(#p8e9e171370)" style="fill: none; stroke: #cccccc; stroke-linecap: round"/>
     </g>
     <g id="text_2">
      <!-- 2000 -->
      <g style="fill: #262626" transform="translate(165.646924 419.902391)scale(0.165 -0.165)">
       <defs>
        <path id="ArialMT-32" d="M 3222 541 
L 3222 0 
L 194 0 
Q 188 203 259 391 
Q 375 700 629 1000 
Q 884 1300 1366 1694 
Q 2113 2306 2375 2664 
Q 2638 3022 2638 3341 
Q 2638 3675 2398 3904 
Q 2159 4134 1775 4134 
Q 1369 4134 1125 3890 
Q 881 3647 878 3216 
L 300 3275 
Q 359 3922 746 4261 
Q 1134 4600 1788 4600 
Q 2447 4600 2831 4234 
Q 3216 3869 3216 3328 
Q 3216 3053 3103 2787 
Q 2991 2522 2730 2228 
Q 2469 1934 1863 1422 
Q 1356 997 1212 845 
Q 1069 694 975 541 
L 3222 541 
z
" transform="scale(0.015625)"/>
       </defs>
       <use xlink:href="#ArialMT-32"/>
       <use xlink:href="#ArialMT-30" x="55.615234"/>
       <use xlink:href="#ArialMT-30" x="111.230469"/>
       <use xlink:href="#ArialMT-30" x="166.845703"/>
      </g>
     </g>
    </g>
    <g id="xtick_3">
     <g id="line2d_3">
      <path d="M 275.322329 398.592 
L 275.322329 7.2 
" clip-path="url(#p8e9e171370)" style="fill: none; stroke: #cccccc; stroke-linecap: round"/>
     </g>
     <g id="text_3">
      <!-- 4000 -->
      <g style="fill: #262626" transform="translate(256.971235 419.902391)scale(0.165 -0.165)">
       <defs>
        <path id="ArialMT-34" d="M 2069 0 
L 2069 1097 
L 81 1097 
L 81 1613 
L 2172 4581 
L 2631 4581 
L 2631 1613 
L 3250 1613 
L 3250 1097 
L 2631 1097 
L 2631 0 
L 2069 0 
z
M 2069 1613 
L 2069 3678 
L 634 1613 
L 2069 1613 
z
" transform="scale(0.015625)"/>
       </defs>
       <use xlink:href="#ArialMT-34"/>
       <use xlink:href="#ArialMT-30" x="55.615234"/>
       <use xlink:href="#ArialMT-30" x="111.230469"/>
       <use xlink:href="#ArialMT-30" x="166.845703"/>
      </g>
     </g>
    </g>
    <g id="xtick_4">
     <g id="line2d_4">
      <path d="M 366.646641 398.592 
L 366.646641 7.2 
" clip-path="url(#p8e9e171370)" style="fill: none; stroke: #cccccc; stroke-linecap: round"/>
     </g>
     <g id="text_4">
      <!-- 6000 -->
      <g style="fill: #262626" transform="translate(348.295547 419.902391)scale(0.165 -0.165)">
       <defs>
        <path id="ArialMT-36" d="M 3184 3459 
L 2625 3416 
Q 2550 3747 2413 3897 
Q 2184 4138 1850 4138 
Q 1581 4138 1378 3988 
Q 1113 3794 959 3422 
Q 806 3050 800 2363 
Q 1003 2672 1297 2822 
Q 1591 2972 1913 2972 
Q 2475 2972 2870 2558 
Q 3266 2144 3266 1488 
Q 3266 1056 3080 686 
Q 2894 316 2569 119 
Q 2244 -78 1831 -78 
Q 1128 -78 684 439 
Q 241 956 241 2144 
Q 241 3472 731 4075 
Q 1159 4600 1884 4600 
Q 2425 4600 2770 4297 
Q 3116 3994 3184 3459 
z
M 888 1484 
Q 888 1194 1011 928 
Q 1134 663 1356 523 
Q 1578 384 1822 384 
Q 2178 384 2434 671 
Q 2691 959 2691 1453 
Q 2691 1928 2437 2201 
Q 2184 2475 1800 2475 
Q 1419 2475 1153 2201 
Q 888 1928 888 1484 
z
" transform="scale(0.015625)"/>
       </defs>
       <use xlink:href="#ArialMT-36"/>
       <use xlink:href="#ArialMT-30" x="55.615234"/>
       <use xlink:href="#ArialMT-30" x="111.230469"/>
       <use xlink:href="#ArialMT-30" x="166.845703"/>
      </g>
     </g>
    </g>
    <g id="xtick_5">
     <g id="line2d_5">
      <path d="M 457.970952 398.592 
L 457.970952 7.2 
" clip-path="url(#p8e9e171370)" style="fill: none; stroke: #cccccc; stroke-linecap: round"/>
     </g>
     <g id="text_5">
      <!-- 8000 -->
      <g style="fill: #262626" transform="translate(439.619859 419.902391)scale(0.165 -0.165)">
       <defs>
        <path id="ArialMT-38" d="M 1131 2484 
Q 781 2613 612 2850 
Q 444 3088 444 3419 
Q 444 3919 803 4259 
Q 1163 4600 1759 4600 
Q 2359 4600 2725 4251 
Q 3091 3903 3091 3403 
Q 3091 3084 2923 2848 
Q 2756 2613 2416 2484 
Q 2838 2347 3058 2040 
Q 3278 1734 3278 1309 
Q 3278 722 2862 322 
Q 2447 -78 1769 -78 
Q 1091 -78 675 323 
Q 259 725 259 1325 
Q 259 1772 486 2073 
Q 713 2375 1131 2484 
z
M 1019 3438 
Q 1019 3113 1228 2906 
Q 1438 2700 1772 2700 
Q 2097 2700 2305 2904 
Q 2513 3109 2513 3406 
Q 2513 3716 2298 3927 
Q 2084 4138 1766 4138 
Q 1444 4138 1231 3931 
Q 1019 3725 1019 3438 
z
M 838 1322 
Q 838 1081 952 856 
Q 1066 631 1291 507 
Q 1516 384 1775 384 
Q 2178 384 2440 643 
Q 2703 903 2703 1303 
Q 2703 1709 2433 1975 
Q 2163 2241 1756 2241 
Q 1359 2241 1098 1978 
Q 838 1716 838 1322 
z
" transform="scale(0.015625)"/>
       </defs>
       <use xlink:href="#ArialMT-38"/>
       <use xlink:href="#ArialMT-30" x="55.615234"/>
       <use xlink:href="#ArialMT-30" x="111.230469"/>
       <use xlink:href="#ArialMT-30" x="166.845703"/>
      </g>
     </g>
    </g>
    <g id="xtick_6">
     <g id="line2d_6">
      <path d="M 549.295264 398.592 
L 549.295264 7.2 
" clip-path="url(#p8e9e171370)" style="fill: none; stroke: #cccccc; stroke-linecap: round"/>
     </g>
     <g id="text_6">
      <!-- 10000 -->
      <g style="fill: #262626" transform="translate(526.356397 419.902391)scale(0.165 -0.165)">
       <defs>
        <path id="ArialMT-31" d="M 2384 0 
L 1822 0 
L 1822 3584 
Q 1619 3391 1289 3197 
Q 959 3003 697 2906 
L 697 3450 
Q 1169 3672 1522 3987 
Q 1875 4303 2022 4600 
L 2384 4600 
L 2384 0 
z
" transform="scale(0.015625)"/>
       </defs>
       <use xlink:href="#ArialMT-31"/>
       <use xlink:href="#ArialMT-30" x="55.615234"/>
       <use xlink:href="#ArialMT-30" x="111.230469"/>
       <use xlink:href="#ArialMT-30" x="166.845703"/>
       <use xlink:href="#ArialMT-30" x="222.460938"/>
      </g>
     </g>
    </g>
    <g id="xtick_7">
     <g id="line2d_7">
      <path d="M 640.619576 398.592 
L 640.619576 7.2 
" clip-path="url(#p8e9e171370)" style="fill: none; stroke: #cccccc; stroke-linecap: round"/>
     </g>
     <g id="text_7">
      <!-- 12000 -->
      <g style="fill: #262626" transform="translate(617.680708 419.902391)scale(0.165 -0.165)">
       <use xlink:href="#ArialMT-31"/>
       <use xlink:href="#ArialMT-32" x="55.615234"/>
       <use xlink:href="#ArialMT-30" x="111.230469"/>
       <use xlink:href="#ArialMT-30" x="166.845703"/>
       <use xlink:href="#ArialMT-30" x="222.460938"/>
      </g>
     </g>
    </g>
    <g id="text_8">
     <!-- Evaluations -->
     <g style="fill: #262626" transform="translate(320.119453 440.065828)scale(0.18 -0.18)">
      <defs>
       <path id="ArialMT-45" d="M 506 0 
L 506 4581 
L 3819 4581 
L 3819 4041 
L 1113 4041 
L 1113 2638 
L 3647 2638 
L 3647 2100 
L 1113 2100 
L 1113 541 
L 3925 541 
L 3925 0 
L 506 0 
z
" transform="scale(0.015625)"/>
       <path id="ArialMT-76" d="M 1344 0 
L 81 3319 
L 675 3319 
L 1388 1331 
Q 1503 1009 1600 663 
Q 1675 925 1809 1294 
L 2547 3319 
L 3125 3319 
L 1869 0 
L 1344 0 
z
" transform="scale(0.015625)"/>
       <path id="ArialMT-61" d="M 2588 409 
Q 2275 144 1986 34 
Q 1697 -75 1366 -75 
Q 819 -75 525 192 
Q 231 459 231 875 
Q 231 1119 342 1320 
Q 453 1522 633 1644 
Q 813 1766 1038 1828 
Q 1203 1872 1538 1913 
Q 2219 1994 2541 2106 
Q 2544 2222 2544 2253 
Q 2544 2597 2384 2738 
Q 2169 2928 1744 2928 
Q 1347 2928 1158 2789 
Q 969 2650 878 2297 
L 328 2372 
Q 403 2725 575 2942 
Q 747 3159 1072 3276 
Q 1397 3394 1825 3394 
Q 2250 3394 2515 3294 
Q 2781 3194 2906 3042 
Q 3031 2891 3081 2659 
Q 3109 2516 3109 2141 
L 3109 1391 
Q 3109 606 3145 398 
Q 3181 191 3288 0 
L 2700 0 
Q 2613 175 2588 409 
z
M 2541 1666 
Q 2234 1541 1622 1453 
Q 1275 1403 1131 1340 
Q 988 1278 909 1158 
Q 831 1038 831 891 
Q 831 666 1001 516 
Q 1172 366 1500 366 
Q 1825 366 2078 508 
Q 2331 650 2450 897 
Q 2541 1088 2541 1459 
L 2541 1666 
z
" transform="scale(0.015625)"/>
       <path id="ArialMT-6c" d="M 409 0 
L 409 4581 
L 972 4581 
L 972 0 
L 409 0 
z
" transform="scale(0.015625)"/>
       <path id="ArialMT-75" d="M 2597 0 
L 2597 488 
Q 2209 -75 1544 -75 
Q 1250 -75 995 37 
Q 741 150 617 320 
Q 494 491 444 738 
Q 409 903 409 1263 
L 409 3319 
L 972 3319 
L 972 1478 
Q 972 1038 1006 884 
Q 1059 663 1231 536 
Q 1403 409 1656 409 
Q 1909 409 2131 539 
Q 2353 669 2445 892 
Q 2538 1116 2538 1541 
L 2538 3319 
L 3100 3319 
L 3100 0 
L 2597 0 
z
" transform="scale(0.015625)"/>
       <path id="ArialMT-74" d="M 1650 503 
L 1731 6 
Q 1494 -44 1306 -44 
Q 1000 -44 831 53 
Q 663 150 594 308 
Q 525 466 525 972 
L 525 2881 
L 113 2881 
L 113 3319 
L 525 3319 
L 525 4141 
L 1084 4478 
L 1084 3319 
L 1650 3319 
L 1650 2881 
L 1084 2881 
L 1084 941 
Q 1084 700 1114 631 
Q 1144 563 1211 522 
Q 1278 481 1403 481 
Q 1497 481 1650 503 
z
" transform="scale(0.015625)"/>
       <path id="ArialMT-69" d="M 425 3934 
L 425 4581 
L 988 4581 
L 988 3934 
L 425 3934 
z
M 425 0 
L 425 3319 
L 988 3319 
L 988 0 
L 425 0 
z
" transform="scale(0.015625)"/>
       <path id="ArialMT-6f" d="M 213 1659 
Q 213 2581 725 3025 
Q 1153 3394 1769 3394 
Q 2453 3394 2887 2945 
Q 3322 2497 3322 1706 
Q 3322 1066 3130 698 
Q 2938 331 2570 128 
Q 2203 -75 1769 -75 
Q 1072 -75 642 372 
Q 213 819 213 1659 
z
M 791 1659 
Q 791 1022 1069 705 
Q 1347 388 1769 388 
Q 2188 388 2466 706 
Q 2744 1025 2744 1678 
Q 2744 2294 2464 2611 
Q 2184 2928 1769 2928 
Q 1347 2928 1069 2612 
Q 791 2297 791 1659 
z
" transform="scale(0.015625)"/>
       <path id="ArialMT-6e" d="M 422 0 
L 422 3319 
L 928 3319 
L 928 2847 
Q 1294 3394 1984 3394 
Q 2284 3394 2536 3286 
Q 2788 3178 2913 3003 
Q 3038 2828 3088 2588 
Q 3119 2431 3119 2041 
L 3119 0 
L 2556 0 
L 2556 2019 
Q 2556 2363 2490 2533 
Q 2425 2703 2258 2804 
Q 2091 2906 1866 2906 
Q 1506 2906 1245 2678 
Q 984 2450 984 1813 
L 984 0 
L 422 0 
z
" transform="scale(0.015625)"/>
       <path id="ArialMT-73" d="M 197 991 
L 753 1078 
Q 800 744 1014 566 
Q 1228 388 1613 388 
Q 2000 388 2187 545 
Q 2375 703 2375 916 
Q 2375 1106 2209 1216 
Q 2094 1291 1634 1406 
Q 1016 1563 777 1677 
Q 538 1791 414 1992 
Q 291 2194 291 2438 
Q 291 2659 392 2848 
Q 494 3038 669 3163 
Q 800 3259 1026 3326 
Q 1253 3394 1513 3394 
Q 1903 3394 2198 3281 
Q 2494 3169 2634 2976 
Q 2775 2784 2828 2463 
L 2278 2388 
Q 2241 2644 2061 2787 
Q 1881 2931 1553 2931 
Q 1166 2931 1000 2803 
Q 834 2675 834 2503 
Q 834 2394 903 2306 
Q 972 2216 1119 2156 
Q 1203 2125 1616 2013 
Q 2213 1853 2448 1751 
Q 2684 1650 2818 1456 
Q 2953 1263 2953 975 
Q 2953 694 2789 445 
Q 2625 197 2315 61 
Q 2006 -75 1616 -75 
Q 969 -75 630 194 
Q 291 463 197 991 
z
" transform="scale(0.015625)"/>
      </defs>
      <use xlink:href="#ArialMT-45"/>
      <use xlink:href="#ArialMT-76" x="66.699219"/>
      <use xlink:href="#ArialMT-61" x="116.699219"/>
      <use xlink:href="#ArialMT-6c" x="172.314453"/>
      <use xlink:href="#ArialMT-75" x="194.53125"/>
      <use xlink:href="#ArialMT-61" x="250.146484"/>
      <use xlink:href="#ArialMT-74" x="305.761719"/>
      <use xlink:href="#ArialMT-69" x="333.544922"/>
      <use xlink:href="#ArialMT-6f" x="355.761719"/>
      <use xlink:href="#ArialMT-6e" x="411.376953"/>
      <use xlink:href="#ArialMT-73" x="466.992188"/>
     </g>
    </g>
   </g>
   <g id="matplotlib.axis_2">
    <g id="ytick_1">
     <g id="line2d_8">
      <path d="M 65.326641 389.057007 
L 667.966641 389.057007 
" clip-path="url(#p8e9e171370)" style="fill: none; stroke: #cccccc; stroke-linecap: round"/>
     </g>
     <g id="line2d_9">
      <defs>
       <path id="m00da7d6510" d="M 0 0 
L -6 0 
" style="stroke: #262626; stroke-width: 1.25"/>
      </defs>
      <g>
       <use xlink:href="#m00da7d6510" x="65.326641" y="389.057007" style="fill: #262626; stroke: #262626; stroke-width: 1.25"/>
      </g>
     </g>
     <g id="text_9">
      <!-- 60 -->
      <g style="fill: #262626" transform="translate(37.475547 394.962203)scale(0.165 -0.165)">
       <use xlink:href="#ArialMT-36"/>
       <use xlink:href="#ArialMT-30" x="55.615234"/>
      </g>
     </g>
    </g>
    <g id="ytick_2">
     <g id="line2d_10">
      <path d="M 65.326641 336.784033 
L 667.966641 336.784033 
" clip-path="url(#p8e9e171370)" style="fill: none; stroke: #cccccc; stroke-linecap: round"/>
     </g>
     <g id="line2d_11">
      <g>
       <use xlink:href="#m00da7d6510" x="65.326641" y="336.784033" style="fill: #262626; stroke: #262626; stroke-width: 1.25"/>
      </g>
     </g>
     <g id="text_10">
      <!-- 70 -->
      <g style="fill: #262626" transform="translate(37.475547 342.689228)scale(0.165 -0.165)">
       <defs>
        <path id="ArialMT-37" d="M 303 3981 
L 303 4522 
L 3269 4522 
L 3269 4084 
Q 2831 3619 2401 2847 
Q 1972 2075 1738 1259 
Q 1569 684 1522 0 
L 944 0 
Q 953 541 1156 1306 
Q 1359 2072 1739 2783 
Q 2119 3494 2547 3981 
L 303 3981 
z
" transform="scale(0.015625)"/>
       </defs>
       <use xlink:href="#ArialMT-37"/>
       <use xlink:href="#ArialMT-30" x="55.615234"/>
      </g>
     </g>
    </g>
    <g id="ytick_3">
     <g id="line2d_12">
      <path d="M 65.326641 284.511058 
L 667.966641 284.511058 
" clip-path="url(#p8e9e171370)" style="fill: none; stroke: #cccccc; stroke-linecap: round"/>
     </g>
     <g id="line2d_13">
      <g>
       <use xlink:href="#m00da7d6510" x="65.326641" y="284.511058" style="fill: #262626; stroke: #262626; stroke-width: 1.25"/>
      </g>
     </g>
     <g id="text_11">
      <!-- 80 -->
      <g style="fill: #262626" transform="translate(37.475547 290.416254)scale(0.165 -0.165)">
       <use xlink:href="#ArialMT-38"/>
       <use xlink:href="#ArialMT-30" x="55.615234"/>
      </g>
     </g>
    </g>
    <g id="ytick_4">
     <g id="line2d_14">
      <path d="M 65.326641 232.238084 
L 667.966641 232.238084 
" clip-path="url(#p8e9e171370)" style="fill: none; stroke: #cccccc; stroke-linecap: round"/>
     </g>
     <g id="line2d_15">
      <g>
       <use xlink:href="#m00da7d6510" x="65.326641" y="232.238084" style="fill: #262626; stroke: #262626; stroke-width: 1.25"/>
      </g>
     </g>
     <g id="text_12">
      <!-- 90 -->
      <g style="fill: #262626" transform="translate(37.475547 238.143279)scale(0.165 -0.165)">
       <defs>
        <path id="ArialMT-39" d="M 350 1059 
L 891 1109 
Q 959 728 1153 556 
Q 1347 384 1650 384 
Q 1909 384 2104 503 
Q 2300 622 2425 820 
Q 2550 1019 2634 1356 
Q 2719 1694 2719 2044 
Q 2719 2081 2716 2156 
Q 2547 1888 2255 1720 
Q 1963 1553 1622 1553 
Q 1053 1553 659 1965 
Q 266 2378 266 3053 
Q 266 3750 677 4175 
Q 1088 4600 1706 4600 
Q 2153 4600 2523 4359 
Q 2894 4119 3086 3673 
Q 3278 3228 3278 2384 
Q 3278 1506 3087 986 
Q 2897 466 2520 194 
Q 2144 -78 1638 -78 
Q 1100 -78 759 220 
Q 419 519 350 1059 
z
M 2653 3081 
Q 2653 3566 2395 3850 
Q 2138 4134 1775 4134 
Q 1400 4134 1122 3828 
Q 844 3522 844 3034 
Q 844 2597 1108 2323 
Q 1372 2050 1759 2050 
Q 2150 2050 2401 2323 
Q 2653 2597 2653 3081 
z
" transform="scale(0.015625)"/>
       </defs>
       <use xlink:href="#ArialMT-39"/>
       <use xlink:href="#ArialMT-30" x="55.615234"/>
      </g>
     </g>
    </g>
    <g id="ytick_5">
     <g id="line2d_16">
      <path d="M 65.326641 179.965109 
L 667.966641 179.965109 
" clip-path="url(#p8e9e171370)" style="fill: none; stroke: #cccccc; stroke-linecap: round"/>
     </g>
     <g id="line2d_17">
      <g>
       <use xlink:href="#m00da7d6510" x="65.326641" y="179.965109" style="fill: #262626; stroke: #262626; stroke-width: 1.25"/>
      </g>
     </g>
     <g id="text_13">
      <!-- 100 -->
      <g style="fill: #262626" transform="translate(28.3 185.870304)scale(0.165 -0.165)">
       <use xlink:href="#ArialMT-31"/>
       <use xlink:href="#ArialMT-30" x="55.615234"/>
       <use xlink:href="#ArialMT-30" x="111.230469"/>
      </g>
     </g>
    </g>
    <g id="ytick_6">
     <g id="line2d_18">
      <path d="M 65.326641 127.692135 
L 667.966641 127.692135 
" clip-path="url(#p8e9e171370)" style="fill: none; stroke: #cccccc; stroke-linecap: round"/>
     </g>
     <g id="line2d_19">
      <g>
       <use xlink:href="#m00da7d6510" x="65.326641" y="127.692135" style="fill: #262626; stroke: #262626; stroke-width: 1.25"/>
      </g>
     </g>
     <g id="text_14">
      <!-- 110 -->
      <g style="fill: #262626" transform="translate(29.516875 133.59733)scale(0.165 -0.165)">
       <use xlink:href="#ArialMT-31"/>
       <use xlink:href="#ArialMT-31" x="48.240234"/>
       <use xlink:href="#ArialMT-30" x="103.855469"/>
      </g>
     </g>
    </g>
    <g id="ytick_7">
     <g id="line2d_20">
      <path d="M 65.326641 75.41916 
L 667.966641 75.41916 
" clip-path="url(#p8e9e171370)" style="fill: none; stroke: #cccccc; stroke-linecap: round"/>
     </g>
     <g id="line2d_21">
      <g>
       <use xlink:href="#m00da7d6510" x="65.326641" y="75.41916" style="fill: #262626; stroke: #262626; stroke-width: 1.25"/>
      </g>
     </g>
     <g id="text_15">
      <!-- 120 -->
      <g style="fill: #262626" transform="translate(28.3 81.324355)scale(0.165 -0.165)">
       <use xlink:href="#ArialMT-31"/>
       <use xlink:href="#ArialMT-32" x="55.615234"/>
       <use xlink:href="#ArialMT-30" x="111.230469"/>
      </g>
     </g>
    </g>
    <g id="ytick_8">
     <g id="line2d_22">
      <path d="M 65.326641 23.146185 
L 667.966641 23.146185 
" clip-path="url(#p8e9e171370)" style="fill: none; stroke: #cccccc; stroke-linecap: round"/>
     </g>
     <g id="line2d_23">
      <g>
       <use xlink:href="#m00da7d6510" x="65.326641" y="23.146185" style="fill: #262626; stroke: #262626; stroke-width: 1.25"/>
      </g>
     </g>
     <g id="text_16">
      <!-- 130 -->
      <g style="fill: #262626" transform="translate(28.3 29.051381)scale(0.165 -0.165)">
       <defs>
        <path id="ArialMT-33" d="M 269 1209 
L 831 1284 
Q 928 806 1161 595 
Q 1394 384 1728 384 
Q 2125 384 2398 659 
Q 2672 934 2672 1341 
Q 2672 1728 2419 1979 
Q 2166 2231 1775 2231 
Q 1616 2231 1378 2169 
L 1441 2663 
Q 1497 2656 1531 2656 
Q 1891 2656 2178 2843 
Q 2466 3031 2466 3422 
Q 2466 3731 2256 3934 
Q 2047 4138 1716 4138 
Q 1388 4138 1169 3931 
Q 950 3725 888 3313 
L 325 3413 
Q 428 3978 793 4289 
Q 1159 4600 1703 4600 
Q 2078 4600 2393 4439 
Q 2709 4278 2876 4000 
Q 3044 3722 3044 3409 
Q 3044 3113 2884 2869 
Q 2725 2625 2413 2481 
Q 2819 2388 3044 2092 
Q 3269 1797 3269 1353 
Q 3269 753 2831 336 
Q 2394 -81 1725 -81 
Q 1122 -81 723 278 
Q 325 638 269 1209 
z
" transform="scale(0.015625)"/>
       </defs>
       <use xlink:href="#ArialMT-31"/>
       <use xlink:href="#ArialMT-33" x="55.615234"/>
       <use xlink:href="#ArialMT-30" x="111.230469"/>
      </g>
     </g>
    </g>
    <g id="text_17">
     <!-- Potential Energy, $E$ -->
     <g style="fill: #262626" transform="translate(20.34 279.666)rotate(-90)scale(0.18 -0.18)">
      <defs>
       <path id="ArialMT-50" d="M 494 0 
L 494 4581 
L 2222 4581 
Q 2678 4581 2919 4538 
Q 3256 4481 3484 4323 
Q 3713 4166 3852 3881 
Q 3991 3597 3991 3256 
Q 3991 2672 3619 2267 
Q 3247 1863 2275 1863 
L 1100 1863 
L 1100 0 
L 494 0 
z
M 1100 2403 
L 2284 2403 
Q 2872 2403 3119 2622 
Q 3366 2841 3366 3238 
Q 3366 3525 3220 3729 
Q 3075 3934 2838 4000 
Q 2684 4041 2272 4041 
L 1100 4041 
L 1100 2403 
z
" transform="scale(0.015625)"/>
       <path id="ArialMT-65" d="M 2694 1069 
L 3275 997 
Q 3138 488 2766 206 
Q 2394 -75 1816 -75 
Q 1088 -75 661 373 
Q 234 822 234 1631 
Q 234 2469 665 2931 
Q 1097 3394 1784 3394 
Q 2450 3394 2872 2941 
Q 3294 2488 3294 1666 
Q 3294 1616 3291 1516 
L 816 1516 
Q 847 969 1125 678 
Q 1403 388 1819 388 
Q 2128 388 2347 550 
Q 2566 713 2694 1069 
z
M 847 1978 
L 2700 1978 
Q 2663 2397 2488 2606 
Q 2219 2931 1791 2931 
Q 1403 2931 1139 2672 
Q 875 2413 847 1978 
z
" transform="scale(0.015625)"/>
       <path id="ArialMT-20" transform="scale(0.015625)"/>
       <path id="ArialMT-72" d="M 416 0 
L 416 3319 
L 922 3319 
L 922 2816 
Q 1116 3169 1280 3281 
Q 1444 3394 1641 3394 
Q 1925 3394 2219 3213 
L 2025 2691 
Q 1819 2813 1613 2813 
Q 1428 2813 1281 2702 
Q 1134 2591 1072 2394 
Q 978 2094 978 1738 
L 978 0 
L 416 0 
z
" transform="scale(0.015625)"/>
       <path id="ArialMT-67" d="M 319 -275 
L 866 -356 
Q 900 -609 1056 -725 
Q 1266 -881 1628 -881 
Q 2019 -881 2231 -725 
Q 2444 -569 2519 -288 
Q 2563 -116 2559 434 
Q 2191 0 1641 0 
Q 956 0 581 494 
Q 206 988 206 1678 
Q 206 2153 378 2554 
Q 550 2956 876 3175 
Q 1203 3394 1644 3394 
Q 2231 3394 2613 2919 
L 2613 3319 
L 3131 3319 
L 3131 450 
Q 3131 -325 2973 -648 
Q 2816 -972 2473 -1159 
Q 2131 -1347 1631 -1347 
Q 1038 -1347 672 -1080 
Q 306 -813 319 -275 
z
M 784 1719 
Q 784 1066 1043 766 
Q 1303 466 1694 466 
Q 2081 466 2343 764 
Q 2606 1063 2606 1700 
Q 2606 2309 2336 2618 
Q 2066 2928 1684 2928 
Q 1309 2928 1046 2623 
Q 784 2319 784 1719 
z
" transform="scale(0.015625)"/>
       <path id="ArialMT-79" d="M 397 -1278 
L 334 -750 
Q 519 -800 656 -800 
Q 844 -800 956 -737 
Q 1069 -675 1141 -563 
Q 1194 -478 1313 -144 
Q 1328 -97 1363 -6 
L 103 3319 
L 709 3319 
L 1400 1397 
Q 1534 1031 1641 628 
Q 1738 1016 1872 1384 
L 2581 3319 
L 3144 3319 
L 1881 -56 
Q 1678 -603 1566 -809 
Q 1416 -1088 1222 -1217 
Q 1028 -1347 759 -1347 
Q 597 -1347 397 -1278 
z
" transform="scale(0.015625)"/>
       <path id="ArialMT-2c" d="M 569 0 
L 569 641 
L 1209 641 
L 1209 0 
Q 1209 -353 1084 -570 
Q 959 -788 688 -906 
L 531 -666 
Q 709 -588 793 -436 
Q 878 -284 888 0 
L 569 0 
z
" transform="scale(0.015625)"/>
       <path id="DejaVuSans-Oblique-45" d="M 1081 4666 
L 4031 4666 
L 3928 4134 
L 1606 4134 
L 1338 2753 
L 3566 2753 
L 3463 2222 
L 1234 2222 
L 909 531 
L 3284 531 
L 3181 0 
L 172 0 
L 1081 4666 
z
" transform="scale(0.015625)"/>
      </defs>
      <use xlink:href="#ArialMT-50" transform="translate(0 0.09375)"/>
      <use xlink:href="#ArialMT-6f" transform="translate(66.699219 0.09375)"/>
      <use xlink:href="#ArialMT-74" transform="translate(122.314453 0.09375)"/>
      <use xlink:href="#ArialMT-65" transform="translate(150.097656 0.09375)"/>
      <use xlink:href="#ArialMT-6e" transform="translate(205.712891 0.09375)"/>
      <use xlink:href="#ArialMT-74" transform="translate(261.328125 0.09375)"/>
      <use xlink:href="#ArialMT-69" transform="translate(289.111328 0.09375)"/>
      <use xlink:href="#ArialMT-61" transform="translate(311.328125 0.09375)"/>
      <use xlink:href="#ArialMT-6c" transform="translate(366.943359 0.09375)"/>
      <use xlink:href="#ArialMT-20" transform="translate(389.160156 0.09375)"/>
      <use xlink:href="#ArialMT-45" transform="translate(416.943359 0.09375)"/>
      <use xlink:href="#ArialMT-6e" transform="translate(483.642578 0.09375)"/>
      <use xlink:href="#ArialMT-65" transform="translate(539.257812 0.09375)"/>
      <use xlink:href="#ArialMT-72" transform="translate(594.873047 0.09375)"/>
      <use xlink:href="#ArialMT-67" transform="translate(628.173828 0.09375)"/>
      <use xlink:href="#ArialMT-79" transform="translate(683.789062 0.09375)"/>
      <use xlink:href="#ArialMT-2c" transform="translate(733.789062 0.09375)"/>
      <use xlink:href="#ArialMT-20" transform="translate(761.572266 0.09375)"/>
      <use xlink:href="#DejaVuSans-Oblique-45" transform="translate(789.355469 0.09375)"/>
     </g>
    </g>
   </g>
   <g id="PolyCollection_1"/>
   <g id="PolyCollection_2"/>
   <g id="PolyCollection_3"/>
   <g id="PolyCollection_4"/>
   <g id="PolyCollection_5"/>
   <g id="PolyCollection_6">
    <defs>
     <path id="mb7f80324db" d="M 95.413435 -425.852783 
L 95.413435 -327.617179 
L 100.870063 -305.534668 
L 106.349521 -319.39929 
L 111.82898 -265.827847 
L 117.308439 -254.083593 
L 122.787898 -275.785977 
L 128.267356 -257.918077 
L 133.746815 -201.996471 
L 139.226274 -177.065862 
L 144.705732 -182.975331 
L 150.185191 -148.063649 
L 155.66465 -104.398375 
L 161.144108 -105.82842 
L 166.623567 -101.137883 
L 404.98002 -75.389025 
L 404.98002 -80.736177 
L 404.98002 -80.736177 
L 166.623567 -104.87371 
L 161.144108 -107.361402 
L 155.66465 -111.79477 
L 150.185191 -176.321511 
L 144.705732 -198.997618 
L 139.226274 -200.322758 
L 133.746815 -236.453928 
L 128.267356 -289.764927 
L 122.787898 -361.393274 
L 117.308439 -302.949383 
L 111.82898 -317.397335 
L 106.349521 -381.705982 
L 100.870063 -365.424798 
L 95.413435 -425.852783 
z
" style="stroke: #000000; stroke-opacity: 0.15"/>
    </defs>
    <g clip-path="url(#p8e9e171370)">
     <use xlink:href="#mb7f80324db" x="0" y="450.843328" style="fill-opacity: 0.15; stroke: #000000; stroke-opacity: 0.15"/>
    </g>
   </g>
   <g id="PolyCollection_7">
    <defs>
     <path id="m395945e9c1" d="M 95.413435 -229.381575 
L 95.413435 -327.617179 
L 100.870063 -305.534668 
L 106.349521 -319.39929 
L 111.82898 -265.827847 
L 117.308439 -254.083593 
L 122.787898 -275.785977 
L 128.267356 -257.918077 
L 133.746815 -201.996471 
L 139.226274 -177.065862 
L 144.705732 -182.975331 
L 150.185191 -148.063649 
L 155.66465 -104.398375 
L 161.144108 -105.82842 
L 166.623567 -101.137883 
L 404.98002 -75.389025 
L 404.98002 -70.041874 
L 404.98002 -70.041874 
L 166.623567 -97.402057 
L 161.144108 -104.295438 
L 155.66465 -97.001979 
L 150.185191 -119.805787 
L 144.705732 -166.953043 
L 139.226274 -153.808967 
L 133.746815 -167.539013 
L 128.267356 -226.071227 
L 122.787898 -190.178679 
L 117.308439 -205.217804 
L 111.82898 -214.258359 
L 106.349521 -257.092598 
L 100.870063 -245.644538 
L 95.413435 -229.381575 
z
" style="stroke: #000000; stroke-opacity: 0.15"/>
    </defs>
    <g clip-path="url(#p8e9e171370)">
     <use xlink:href="#m395945e9c1" x="0" y="450.843328" style="fill-opacity: 0.15; stroke: #000000; stroke-opacity: 0.15"/>
    </g>
   </g>
   <g id="PolyCollection_8">
    <defs>
     <path id="mc84bece34e" d="M 95.413435 -345.267455 
L 95.413435 -327.617179 
L 100.870063 -305.534668 
L 106.349521 -319.39929 
L 111.82898 -265.827847 
L 117.308439 -254.083593 
L 122.787898 -275.785977 
L 128.267356 -257.918077 
L 133.746815 -201.996471 
L 139.226274 -177.065862 
L 144.705732 -182.975331 
L 150.185191 -148.063649 
L 155.66465 -104.398375 
L 161.144108 -105.82842 
L 166.623567 -101.137883 
L 404.98002 -75.389025 
L 404.98002 -75.492192 
L 404.98002 -75.492192 
L 166.623567 -101.806307 
L 161.144108 -106.102705 
L 155.66465 -105.721758 
L 150.185191 -153.119622 
L 144.705732 -185.842082 
L 139.226274 -181.227049 
L 133.746815 -208.161692 
L 128.267356 -263.616201 
L 122.787898 -291.103066 
L 117.308439 -262.826793 
L 111.82898 -275.054799 
L 106.349521 -330.547372 
L 100.870063 -316.250372 
L 95.413435 -345.267455 
z
" style="stroke: #6495ed; stroke-opacity: 0.5"/>
    </defs>
    <g clip-path="url(#p8e9e171370)">
     <use xlink:href="#mc84bece34e" x="0" y="450.843328" style="fill: #6495ed; fill-opacity: 0.5; stroke: #6495ed; stroke-opacity: 0.5"/>
    </g>
   </g>
   <g id="PolyCollection_9">
    <defs>
     <path id="m095e9de5bb" d="M 95.413435 -309.966902 
L 95.413435 -327.617179 
L 100.870063 -305.534668 
L 106.349521 -319.39929 
L 111.82898 -265.827847 
L 117.308439 -254.083593 
L 122.787898 -275.785977 
L 128.267356 -257.918077 
L 133.746815 -201.996471 
L 139.226274 -177.065862 
L 144.705732 -182.975331 
L 150.185191 -148.063649 
L 155.66465 -104.398375 
L 161.144108 -105.82842 
L 166.623567 -101.137883 
L 404.98002 -75.389025 
L 404.98002 -75.285859 
L 404.98002 -75.285859 
L 166.623567 -100.469459 
L 161.144108 -105.554135 
L 155.66465 -103.074992 
L 150.185191 -143.007676 
L 144.705732 -180.10858 
L 139.226274 -172.904675 
L 133.746815 -195.831249 
L 128.267356 -252.219953 
L 122.787898 -260.468888 
L 117.308439 -245.340394 
L 111.82898 -256.600895 
L 106.349521 -308.251208 
L 100.870063 -294.818964 
L 95.413435 -309.966902 
z
" style="stroke: #6495ed; stroke-opacity: 0.5"/>
    </defs>
    <g clip-path="url(#p8e9e171370)">
     <use xlink:href="#m095e9de5bb" x="0" y="450.843328" style="fill: #6495ed; fill-opacity: 0.5; stroke: #6495ed; stroke-opacity: 0.5"/>
    </g>
   </g>
   <g id="PathCollection_1">
    <defs>
     <path id="m1cf9c1d85a" d="M 0 2.236068 
C 0.593012 2.236068 1.161816 2.000462 1.581139 1.581139 
C 2.000462 1.161816 2.236068 0.593012 2.236068 0 
C 2.236068 -0.593012 2.000462 -1.161816 1.581139 -1.581139 
C 1.161816 -2.000462 0.593012 -2.236068 0 -2.236068 
C -0.593012 -2.236068 -1.161816 -2.000462 -1.581139 -1.581139 
C -2.000462 -1.161816 -2.236068 -0.593012 -2.236068 0 
C -2.236068 0.593012 -2.000462 1.161816 -1.581139 1.581139 
C -1.161816 2.000462 -0.593012 2.236068 0 2.236068 
z
" style="stroke: #000000"/>
    </defs>
    <g clip-path="url(#p8e9e171370)">
     <use xlink:href="#m1cf9c1d85a" x="95.413435" y="123.226149" style="stroke: #000000"/>
     <use xlink:href="#m1cf9c1d85a" x="100.870063" y="145.30866" style="stroke: #000000"/>
     <use xlink:href="#m1cf9c1d85a" x="106.349521" y="131.444038" style="stroke: #000000"/>
     <use xlink:href="#m1cf9c1d85a" x="111.82898" y="185.015481" style="stroke: #000000"/>
     <use xlink:href="#m1cf9c1d85a" x="117.308439" y="196.759735" style="stroke: #000000"/>
     <use xlink:href="#m1cf9c1d85a" x="122.787898" y="175.057351" style="stroke: #000000"/>
     <use xlink:href="#m1cf9c1d85a" x="128.267356" y="192.925251" style="stroke: #000000"/>
     <use xlink:href="#m1cf9c1d85a" x="133.746815" y="248.846857" style="stroke: #000000"/>
     <use xlink:href="#m1cf9c1d85a" x="139.226274" y="273.777466" style="stroke: #000000"/>
     <use xlink:href="#m1cf9c1d85a" x="144.705732" y="267.867997" style="stroke: #000000"/>
     <use xlink:href="#m1cf9c1d85a" x="150.185191" y="302.779679" style="stroke: #000000"/>
     <use xlink:href="#m1cf9c1d85a" x="155.66465" y="346.444953" style="stroke: #000000"/>
     <use xlink:href="#m1cf9c1d85a" x="161.144108" y="345.014908" style="stroke: #000000"/>
     <use xlink:href="#m1cf9c1d85a" x="166.623567" y="349.705445" style="stroke: #000000"/>
     <use xlink:href="#m1cf9c1d85a" x="404.98002" y="375.454303" style="stroke: #000000"/>
    </g>
   </g>
   <g id="line2d_24">
    <path d="M 404.98002 375.454303 
L 166.623567 349.705445 
L 161.144108 345.014908 
L 155.66465 346.444953 
L 150.185191 302.779679 
L 144.705732 267.867997 
L 139.226274 273.777466 
L 133.746815 248.846857 
L 128.267356 192.925251 
L 122.787898 175.057351 
L 117.308439 196.759735 
L 111.82898 185.015481 
L 106.349521 131.444038 
L 100.870063 145.30866 
L 95.413435 123.226149 
" clip-path="url(#p8e9e171370)" style="fill: none; stroke: #0000ff; stroke-width: 1.5; stroke-linecap: round"/>
   </g>
   <g id="line2d_25">
    <path d="M 404.98002 375.351136 
L 166.623567 349.037021 
L 161.144108 344.740623 
L 155.66465 345.12157 
L 150.185191 297.723706 
L 144.705732 265.001246 
L 139.226274 269.616279 
L 133.746815 242.681636 
L 128.267356 187.227127 
L 122.787898 159.740262 
L 117.308439 188.016536 
L 111.82898 175.788529 
L 106.349521 120.295956 
L 100.870063 134.592956 
L 95.413435 105.575873 
" clip-path="url(#p8e9e171370)" style="fill: none; stroke-dasharray: 5.55,2.4; stroke-dashoffset: 0; stroke: #6495ed; stroke-width: 1.5"/>
   </g>
   <g id="line2d_26">
    <path d="M 404.98002 375.557469 
L 166.623567 350.373869 
L 161.144108 345.289194 
L 155.66465 347.768337 
L 150.185191 307.835653 
L 144.705732 270.734748 
L 139.226274 277.938653 
L 133.746815 255.012079 
L 128.267356 198.623376 
L 122.787898 190.37444 
L 117.308439 205.502934 
L 111.82898 194.242434 
L 106.349521 142.59212 
L 100.870063 156.024364 
L 95.413435 140.876426 
" clip-path="url(#p8e9e171370)" style="fill: none; stroke-dasharray: 5.55,2.4; stroke-dashoffset: 0; stroke: #6495ed; stroke-width: 1.5"/>
   </g>
   <g id="line2d_27">
    <path d="M 404.98002 370.107151 
L 166.623567 345.969618 
L 161.144108 343.481926 
L 155.66465 339.048558 
L 150.185191 274.521817 
L 144.705732 251.84571 
L 139.226274 250.520571 
L 133.746815 214.3894 
L 128.267356 161.078401 
L 122.787898 89.450054 
L 117.308439 147.893945 
L 111.82898 133.445994 
L 106.349521 69.137346 
L 100.870063 85.41853 
L 95.413435 24.990545 
" clip-path="url(#p8e9e171370)" style="fill: none; stroke-dasharray: 5.55,2.4; stroke-dashoffset: 0; stroke: #ffffff; stroke-opacity: 0; stroke-width: 1.5"/>
   </g>
   <g id="line2d_28">
    <path d="M 404.98002 380.801455 
L 166.623567 353.441271 
L 161.144108 346.54789 
L 155.66465 353.841349 
L 150.185191 331.037542 
L 144.705732 283.890285 
L 139.226274 297.034362 
L 133.746815 283.304315 
L 128.267356 224.772101 
L 122.787898 260.664649 
L 117.308439 245.625524 
L 111.82898 236.584969 
L 106.349521 193.75073 
L 100.870063 205.19879 
L 95.413435 221.461753 
" clip-path="url(#p8e9e171370)" style="fill: none; stroke-dasharray: 5.55,2.4; stroke-dashoffset: 0; stroke: #ffffff; stroke-opacity: 0; stroke-width: 1.5"/>
   </g>
   <g id="patch_3">
    <path d="M 65.326641 398.592 
L 65.326641 7.2 
" style="fill: none; stroke: #0000ff; stroke-width: 2; stroke-linejoin: miter; stroke-linecap: square"/>
   </g>
   <g id="patch_4">
    <path d="M 667.966641 398.592 
L 667.966641 7.2 
" style="fill: none; stroke: #cccccc; stroke-width: 1.25; stroke-linejoin: miter; stroke-linecap: square"/>
   </g>
   <g id="patch_5">
    <path d="M 65.326641 398.592 
L 667.966641 398.592 
" style="fill: none; stroke: #cccccc; stroke-width: 1.25; stroke-linejoin: miter; stroke-linecap: square"/>
   </g>
   <g id="patch_6">
    <path d="M 65.326641 7.2 
L 667.966641 7.2 
" style="fill: none; stroke: #cccccc; stroke-width: 1.25; stroke-linejoin: miter; stroke-linecap: square"/>
   </g>
   <g id="axes_2">
    <g id="patch_7">
     <path d="M 459.380334 218.55168 
L 635.496947 218.55168 
L 635.496947 42.42528 
L 459.380334 42.42528 
z
" style="fill: #ffffff"/>
    </g>
    <g id="matplotlib.axis_3"/>
    <g id="matplotlib.axis_4"/>
    <g id="PathCollection_2">
     <defs>
      <path id="mb9b6ec93cf" d="M 0 3 
C 0.795609 3 1.55874 2.683901 2.12132 2.12132 
C 2.683901 1.55874 3 0.795609 3 0 
C 3 -0.795609 2.683901 -1.55874 2.12132 -2.12132 
C 1.55874 -2.683901 0.795609 -3 0 -3 
C -0.795609 -3 -1.55874 -2.683901 -2.12132 -2.12132 
C -2.683901 -1.55874 -3 -0.795609 -3 0 
C -3 0.795609 -2.683901 1.55874 -2.12132 2.12132 
C -1.55874 2.683901 -0.795609 3 0 3 
z
" style="stroke: #0000ff"/>
     </defs>
     <g clip-path="url(#pf51ecc71f1)">
      <use xlink:href="#mb9b6ec93cf" x="573.356162" y="58.850136" style="fill: #0000ff; stroke: #0000ff"/>
      <use xlink:href="#mb9b6ec93cf" x="618.198927" y="159.745764" style="fill: #0000ff; stroke: #0000ff"/>
      <use xlink:href="#mb9b6ec93cf" x="528.939033" y="207.795302" style="fill: #0000ff; stroke: #0000ff"/>
      <use xlink:href="#mb9b6ec93cf" x="472.970653" y="106.351148" style="fill: #0000ff; stroke: #0000ff"/>
      <use xlink:href="#mb9b6ec93cf" x="575.737943" y="201.19897" style="fill: #0000ff; stroke: #0000ff"/>
      <use xlink:href="#mb9b6ec93cf" x="609.662024" y="81.464459" style="fill: #0000ff; stroke: #0000ff"/>
      <use xlink:href="#mb9b6ec93cf" x="495.647529" y="190.870785" style="fill: #0000ff; stroke: #0000ff"/>
      <use xlink:href="#mb9b6ec93cf" x="474.136995" y="153.14809" style="fill: #0000ff; stroke: #0000ff"/>
      <use xlink:href="#mb9b6ec93cf" x="531.064676" y="53.452898" style="fill: #0000ff; stroke: #0000ff"/>
      <use xlink:href="#mb9b6ec93cf" x="626.470396" y="118.653101" style="fill: #0000ff; stroke: #0000ff"/>
      <use xlink:href="#mb9b6ec93cf" x="492.882397" y="71.885195" style="fill: #0000ff; stroke: #0000ff"/>
      <use xlink:href="#mb9b6ec93cf" x="550.16142" y="132.354366" style="fill: #0000ff; stroke: #0000ff"/>
     </g>
    </g>
    <g id="line2d_29">
     <path d="M 627.491646 130.48848 
L 627.420473 127.113348 
L 627.207079 123.744216 
L 626.851843 120.387076 
L 626.355398 117.047896 
L 625.718626 113.732612 
L 624.94266 110.44712 
L 624.028878 107.197261 
L 622.978906 103.988812 
L 621.79461 100.827479 
L 620.478096 97.718882 
L 619.031705 94.668549 
L 617.458008 91.681902 
L 615.759803 88.764251 
L 613.94011 85.920785 
L 612.002164 83.156558 
L 609.949411 80.476486 
L 607.7855 77.885333 
L 605.514278 75.387707 
L 603.139785 72.988048 
L 600.666241 70.690623 
L 598.098044 68.499516 
L 595.439761 66.418623 
L 592.696118 64.451644 
L 589.871993 62.602076 
L 586.972407 60.873208 
L 584.002516 59.268113 
L 580.9676 57.789645 
L 577.873055 56.440434 
L 574.724382 55.222877 
L 571.527181 54.139139 
L 568.287135 53.191148 
L 565.010006 52.380588 
L 561.701619 51.708902 
L 558.367858 51.177283 
L 555.014649 50.786676 
L 551.647955 50.537776 
L 548.27376 50.431025 
L 544.898065 50.466614 
L 541.526872 50.644479 
L 538.166173 50.964303 
L 534.821945 51.425519 
L 531.500133 52.027305 
L 528.206643 52.768593 
L 524.947331 53.648064 
L 521.727992 54.664154 
L 518.554349 55.815057 
L 515.432047 57.098727 
L 512.366634 58.512881 
L 509.363563 60.055005 
L 506.428172 61.722358 
L 503.565681 63.511973 
L 500.781178 65.420671 
L 498.079614 67.445057 
L 495.465794 69.581532 
L 492.944363 71.826297 
L 490.519805 74.175361 
L 488.196431 76.624548 
L 485.978372 79.169503 
L 483.869571 81.805701 
L 481.873778 84.528456 
L 479.99454 87.332926 
L 478.235201 90.214125 
L 476.598886 93.16693 
L 475.088506 96.186091 
L 473.706747 99.266241 
L 472.456064 102.401903 
L 471.338681 105.587502 
L 470.356586 108.817373 
L 469.511524 112.085776 
L 468.804998 115.386897 
L 468.238263 118.714869 
L 467.812328 122.063774 
L 467.52795 125.427657 
L 467.385635 128.800539 
L 467.385635 132.176421 
L 467.52795 135.549303 
L 467.812328 138.913186 
L 468.238263 142.262091 
L 468.804998 145.590063 
L 469.511524 148.891184 
L 470.356586 152.159587 
L 471.338681 155.389458 
L 472.456064 158.575057 
L 473.706747 161.710719 
L 475.088506 164.790869 
L 476.598886 167.81003 
L 478.235201 170.762835 
L 479.99454 173.644034 
L 481.873778 176.448504 
L 483.869571 179.171259 
L 485.978372 181.807457 
L 488.196431 184.352412 
L 490.519805 186.801599 
L 492.944363 189.150663 
L 495.465794 191.395428 
L 498.079614 193.531903 
L 500.781178 195.556289 
L 503.565681 197.464987 
L 506.428172 199.254602 
L 509.363563 200.921955 
L 512.366634 202.464079 
L 515.432047 203.878233 
L 518.554349 205.161903 
L 521.727992 206.312806 
L 524.947331 207.328896 
L 528.206643 208.208367 
L 531.500133 208.949655 
L 534.821945 209.551441 
L 538.166173 210.012657 
L 541.526872 210.332481 
L 544.898065 210.510346 
L 548.27376 210.545935 
L 551.647955 210.439184 
L 555.014649 210.190284 
L 558.367858 209.799677 
L 561.701619 209.268058 
L 565.010006 208.596372 
L 568.287135 207.785812 
L 571.527181 206.837821 
L 574.724382 205.754083 
L 577.873055 204.536526 
L 580.9676 203.187315 
L 584.002516 201.708847 
L 586.972407 200.103752 
L 589.871993 198.374884 
L 592.696118 196.525316 
L 595.439761 194.558337 
L 598.098044 192.477444 
L 600.666241 190.286337 
L 603.139785 187.988912 
L 605.514278 185.589253 
L 607.7855 183.091627 
L 609.949411 180.500474 
L 612.002164 177.820402 
L 613.94011 175.056175 
L 615.759803 172.212709 
L 617.458008 169.295058 
L 619.031705 166.308411 
L 620.478096 163.258078 
L 621.79461 160.149481 
L 622.978906 156.988148 
L 624.028878 153.779699 
L 624.94266 150.52984 
L 625.718626 147.244348 
L 626.355398 143.929064 
L 626.851843 140.589884 
L 627.207079 137.232744 
L 627.420473 133.863612 
L 627.491646 130.48848 
L 627.491646 130.48848 
" clip-path="url(#pf51ecc71f1)" style="fill: none; stroke: #000000; stroke-width: 1.5; stroke-linecap: round"/>
    </g>
    <g id="line2d_30">
     <path d="M 468.186165 130.48848 
L 626.691116 130.48848 
" clip-path="url(#pf51ecc71f1)" style="fill: none; stroke: #000000; stroke-width: 1.5; stroke-linecap: round"/>
    </g>
    <g id="line2d_31">
     <path d="M 547.429743 209.74536 
L 547.429743 51.2316 
" clip-path="url(#pf51ecc71f1)" style="fill: none; stroke: #000000; stroke-width: 1.5; stroke-linecap: round"/>
    </g>
    <g id="patch_8">
     <path d="M 459.380334 218.55168 
L 459.380334 42.42528 
" style="fill: none; stroke: #262626; stroke-width: 1.25; stroke-linejoin: miter; stroke-linecap: square"/>
    </g>
    <g id="patch_9">
     <path d="M 635.496947 218.55168 
L 635.496947 42.42528 
" style="fill: none; stroke: #262626; stroke-width: 1.25; stroke-linejoin: miter; stroke-linecap: square"/>
    </g>
    <g id="patch_10">
     <path d="M 459.380334 218.55168 
L 635.496947 218.55168 
" style="fill: none; stroke: #262626; stroke-width: 1.25; stroke-linejoin: miter; stroke-linecap: square"/>
    </g>
    <g id="patch_11">
     <path d="M 459.380334 42.42528 
L 635.496947 42.42528 
" style="fill: none; stroke: #262626; stroke-width: 1.25; stroke-linejoin: miter; stroke-linecap: square"/>
    </g>
   </g>
   <g id="legend_1">
    <g id="patch_12">
     <path d="M 282.033047 97.777813 
L 451.260234 97.777813 
Q 454.060234 97.777813 454.060234 94.977813 
L 454.060234 17 
Q 454.060234 14.2 451.260234 14.2 
L 282.033047 14.2 
Q 279.233047 14.2 279.233047 17 
L 279.233047 94.977813 
Q 279.233047 97.777813 282.033047 97.777813 
z
" style="fill: #ffffff; stroke: #000000; stroke-linejoin: miter"/>
    </g>
    <g id="line2d_32">
     <path d="M 284.833047 24.920938 
L 298.833047 24.920938 
L 312.833047 24.920938 
" style="fill: none; stroke: #0000ff; stroke-width: 1.5; stroke-linecap: round"/>
    </g>
    <g id="text_18">
     <!-- Mean Energy -->
     <g style="fill: #262626" transform="translate(324.033047 29.820938)scale(0.14 -0.14)">
      <defs>
       <path id="ArialMT-4d" d="M 475 0 
L 475 4581 
L 1388 4581 
L 2472 1338 
Q 2622 884 2691 659 
Q 2769 909 2934 1394 
L 4031 4581 
L 4847 4581 
L 4847 0 
L 4263 0 
L 4263 3834 
L 2931 0 
L 2384 0 
L 1059 3900 
L 1059 0 
L 475 0 
z
" transform="scale(0.015625)"/>
      </defs>
      <use xlink:href="#ArialMT-4d"/>
      <use xlink:href="#ArialMT-65" x="83.300781"/>
      <use xlink:href="#ArialMT-61" x="138.916016"/>
      <use xlink:href="#ArialMT-6e" x="194.53125"/>
      <use xlink:href="#ArialMT-20" x="250.146484"/>
      <use xlink:href="#ArialMT-45" x="277.929688"/>
      <use xlink:href="#ArialMT-6e" x="344.628906"/>
      <use xlink:href="#ArialMT-65" x="400.244141"/>
      <use xlink:href="#ArialMT-72" x="455.859375"/>
      <use xlink:href="#ArialMT-67" x="489.160156"/>
      <use xlink:href="#ArialMT-79" x="544.775391"/>
     </g>
    </g>
    <g id="line2d_33">
     <path d="M 284.833047 44.888438 
L 298.833047 44.888438 
L 312.833047 44.888438 
" style="fill: none; stroke-dasharray: 5.55,2.4; stroke-dashoffset: 0; stroke: #6495ed; stroke-width: 1.5"/>
    </g>
    <g id="text_19">
     <!-- 95% CI -->
     <g style="fill: #262626" transform="translate(324.033047 49.788438)scale(0.14 -0.14)">
      <defs>
       <path id="ArialMT-35" d="M 266 1200 
L 856 1250 
Q 922 819 1161 601 
Q 1400 384 1738 384 
Q 2144 384 2425 690 
Q 2706 997 2706 1503 
Q 2706 1984 2436 2262 
Q 2166 2541 1728 2541 
Q 1456 2541 1237 2417 
Q 1019 2294 894 2097 
L 366 2166 
L 809 4519 
L 3088 4519 
L 3088 3981 
L 1259 3981 
L 1013 2750 
Q 1425 3038 1878 3038 
Q 2478 3038 2890 2622 
Q 3303 2206 3303 1553 
Q 3303 931 2941 478 
Q 2500 -78 1738 -78 
Q 1113 -78 717 272 
Q 322 622 266 1200 
z
" transform="scale(0.015625)"/>
       <path id="ArialMT-25" d="M 372 3481 
Q 372 3972 619 4315 
Q 866 4659 1334 4659 
Q 1766 4659 2048 4351 
Q 2331 4044 2331 3447 
Q 2331 2866 2045 2552 
Q 1759 2238 1341 2238 
Q 925 2238 648 2547 
Q 372 2856 372 3481 
z
M 1350 4272 
Q 1141 4272 1002 4090 
Q 863 3909 863 3425 
Q 863 2984 1003 2804 
Q 1144 2625 1350 2625 
Q 1563 2625 1702 2806 
Q 1841 2988 1841 3469 
Q 1841 3913 1700 4092 
Q 1559 4272 1350 4272 
z
M 1353 -169 
L 3859 4659 
L 4316 4659 
L 1819 -169 
L 1353 -169 
z
M 3334 1075 
Q 3334 1569 3581 1911 
Q 3828 2253 4300 2253 
Q 4731 2253 5014 1945 
Q 5297 1638 5297 1041 
Q 5297 459 5011 145 
Q 4725 -169 4303 -169 
Q 3888 -169 3611 142 
Q 3334 453 3334 1075 
z
M 4316 1866 
Q 4103 1866 3964 1684 
Q 3825 1503 3825 1019 
Q 3825 581 3965 400 
Q 4106 219 4313 219 
Q 4528 219 4667 400 
Q 4806 581 4806 1063 
Q 4806 1506 4665 1686 
Q 4525 1866 4316 1866 
z
" transform="scale(0.015625)"/>
       <path id="ArialMT-43" d="M 3763 1606 
L 4369 1453 
Q 4178 706 3683 314 
Q 3188 -78 2472 -78 
Q 1731 -78 1267 223 
Q 803 525 561 1097 
Q 319 1669 319 2325 
Q 319 3041 592 3573 
Q 866 4106 1370 4382 
Q 1875 4659 2481 4659 
Q 3169 4659 3637 4309 
Q 4106 3959 4291 3325 
L 3694 3184 
Q 3534 3684 3231 3912 
Q 2928 4141 2469 4141 
Q 1941 4141 1586 3887 
Q 1231 3634 1087 3207 
Q 944 2781 944 2328 
Q 944 1744 1114 1308 
Q 1284 872 1643 656 
Q 2003 441 2422 441 
Q 2931 441 3284 734 
Q 3638 1028 3763 1606 
z
" transform="scale(0.015625)"/>
       <path id="ArialMT-49" d="M 597 0 
L 597 4581 
L 1203 4581 
L 1203 0 
L 597 0 
z
" transform="scale(0.015625)"/>
      </defs>
      <use xlink:href="#ArialMT-39"/>
      <use xlink:href="#ArialMT-35" x="55.615234"/>
      <use xlink:href="#ArialMT-25" x="111.230469"/>
      <use xlink:href="#ArialMT-20" x="200.146484"/>
      <use xlink:href="#ArialMT-43" x="227.929688"/>
      <use xlink:href="#ArialMT-49" x="300.146484"/>
     </g>
    </g>
    <g id="patch_13">
     <path d="M 284.833047 69.591875 
L 312.833047 69.591875 
L 312.833047 59.791875 
L 284.833047 59.791875 
z
" style="fill-opacity: 0.15; stroke: #000000; stroke-opacity: 0.15; stroke-linejoin: miter"/>
    </g>
    <g id="text_20">
     <!-- ±Standard deviation -->
     <g style="fill: #262626" transform="translate(324.033047 69.591875)scale(0.14 -0.14)">
      <defs>
       <path id="ArialMT-b1" d="M 1491 813 
L 1491 2072 
L 244 2072 
L 244 2594 
L 1491 2594 
L 1491 3841 
L 2022 3841 
L 2022 2594 
L 3269 2594 
L 3269 2072 
L 2022 2072 
L 2022 813 
L 1491 813 
z
M 3269 0 
L 244 0 
L 244 525 
L 3269 525 
L 3269 0 
z
" transform="scale(0.015625)"/>
       <path id="ArialMT-53" d="M 288 1472 
L 859 1522 
Q 900 1178 1048 958 
Q 1197 738 1509 602 
Q 1822 466 2213 466 
Q 2559 466 2825 569 
Q 3091 672 3220 851 
Q 3350 1031 3350 1244 
Q 3350 1459 3225 1620 
Q 3100 1781 2813 1891 
Q 2628 1963 1997 2114 
Q 1366 2266 1113 2400 
Q 784 2572 623 2826 
Q 463 3081 463 3397 
Q 463 3744 659 4045 
Q 856 4347 1234 4503 
Q 1613 4659 2075 4659 
Q 2584 4659 2973 4495 
Q 3363 4331 3572 4012 
Q 3781 3694 3797 3291 
L 3216 3247 
Q 3169 3681 2898 3903 
Q 2628 4125 2100 4125 
Q 1550 4125 1298 3923 
Q 1047 3722 1047 3438 
Q 1047 3191 1225 3031 
Q 1400 2872 2139 2705 
Q 2878 2538 3153 2413 
Q 3553 2228 3743 1945 
Q 3934 1663 3934 1294 
Q 3934 928 3725 604 
Q 3516 281 3123 101 
Q 2731 -78 2241 -78 
Q 1619 -78 1198 103 
Q 778 284 539 648 
Q 300 1013 288 1472 
z
" transform="scale(0.015625)"/>
       <path id="ArialMT-64" d="M 2575 0 
L 2575 419 
Q 2259 -75 1647 -75 
Q 1250 -75 917 144 
Q 584 363 401 755 
Q 219 1147 219 1656 
Q 219 2153 384 2558 
Q 550 2963 881 3178 
Q 1213 3394 1622 3394 
Q 1922 3394 2156 3267 
Q 2391 3141 2538 2938 
L 2538 4581 
L 3097 4581 
L 3097 0 
L 2575 0 
z
M 797 1656 
Q 797 1019 1065 703 
Q 1334 388 1700 388 
Q 2069 388 2326 689 
Q 2584 991 2584 1609 
Q 2584 2291 2321 2609 
Q 2059 2928 1675 2928 
Q 1300 2928 1048 2622 
Q 797 2316 797 1656 
z
" transform="scale(0.015625)"/>
      </defs>
      <use xlink:href="#ArialMT-b1"/>
      <use xlink:href="#ArialMT-53" x="54.882812"/>
      <use xlink:href="#ArialMT-74" x="121.582031"/>
      <use xlink:href="#ArialMT-61" x="149.365234"/>
      <use xlink:href="#ArialMT-6e" x="204.980469"/>
      <use xlink:href="#ArialMT-64" x="260.595703"/>
      <use xlink:href="#ArialMT-61" x="316.210938"/>
      <use xlink:href="#ArialMT-72" x="371.826172"/>
      <use xlink:href="#ArialMT-64" x="405.126953"/>
      <use xlink:href="#ArialMT-20" x="460.742188"/>
      <use xlink:href="#ArialMT-64" x="488.525391"/>
      <use xlink:href="#ArialMT-65" x="544.140625"/>
      <use xlink:href="#ArialMT-76" x="599.755859"/>
      <use xlink:href="#ArialMT-69" x="649.755859"/>
      <use xlink:href="#ArialMT-61" x="671.972656"/>
      <use xlink:href="#ArialMT-74" x="727.587891"/>
      <use xlink:href="#ArialMT-69" x="755.371094"/>
      <use xlink:href="#ArialMT-6f" x="777.587891"/>
      <use xlink:href="#ArialMT-6e" x="833.203125"/>
     </g>
    </g>
    <g id="line2d_34">
     <path d="M 284.833047 84.495313 
L 298.833047 84.495313 
L 312.833047 84.495313 
" style="fill: none; stroke: #ff0000; stroke-width: 1.5; stroke-linecap: round"/>
    </g>
    <g id="text_21">
     <!-- Temperature -->
     <g style="fill: #262626" transform="translate(324.033047 89.395313)scale(0.14 -0.14)">
      <defs>
       <path id="ArialMT-54" d="M 1659 0 
L 1659 4041 
L 150 4041 
L 150 4581 
L 3781 4581 
L 3781 4041 
L 2266 4041 
L 2266 0 
L 1659 0 
z
" transform="scale(0.015625)"/>
       <path id="ArialMT-6d" d="M 422 0 
L 422 3319 
L 925 3319 
L 925 2853 
Q 1081 3097 1340 3245 
Q 1600 3394 1931 3394 
Q 2300 3394 2536 3241 
Q 2772 3088 2869 2813 
Q 3263 3394 3894 3394 
Q 4388 3394 4653 3120 
Q 4919 2847 4919 2278 
L 4919 0 
L 4359 0 
L 4359 2091 
Q 4359 2428 4304 2576 
Q 4250 2725 4106 2815 
Q 3963 2906 3769 2906 
Q 3419 2906 3187 2673 
Q 2956 2441 2956 1928 
L 2956 0 
L 2394 0 
L 2394 2156 
Q 2394 2531 2256 2718 
Q 2119 2906 1806 2906 
Q 1569 2906 1367 2781 
Q 1166 2656 1075 2415 
Q 984 2175 984 1722 
L 984 0 
L 422 0 
z
" transform="scale(0.015625)"/>
       <path id="ArialMT-70" d="M 422 -1272 
L 422 3319 
L 934 3319 
L 934 2888 
Q 1116 3141 1344 3267 
Q 1572 3394 1897 3394 
Q 2322 3394 2647 3175 
Q 2972 2956 3137 2557 
Q 3303 2159 3303 1684 
Q 3303 1175 3120 767 
Q 2938 359 2589 142 
Q 2241 -75 1856 -75 
Q 1575 -75 1351 44 
Q 1128 163 984 344 
L 984 -1272 
L 422 -1272 
z
M 931 1641 
Q 931 1000 1190 694 
Q 1450 388 1819 388 
Q 2194 388 2461 705 
Q 2728 1022 2728 1688 
Q 2728 2322 2467 2637 
Q 2206 2953 1844 2953 
Q 1484 2953 1207 2617 
Q 931 2281 931 1641 
z
" transform="scale(0.015625)"/>
      </defs>
      <use xlink:href="#ArialMT-54"/>
      <use xlink:href="#ArialMT-65" x="49.958984"/>
      <use xlink:href="#ArialMT-6d" x="105.574219"/>
      <use xlink:href="#ArialMT-70" x="188.875"/>
      <use xlink:href="#ArialMT-65" x="244.490234"/>
      <use xlink:href="#ArialMT-72" x="300.105469"/>
      <use xlink:href="#ArialMT-61" x="333.40625"/>
      <use xlink:href="#ArialMT-74" x="389.021484"/>
      <use xlink:href="#ArialMT-75" x="416.804688"/>
      <use xlink:href="#ArialMT-72" x="472.419922"/>
      <use xlink:href="#ArialMT-65" x="505.720703"/>
     </g>
    </g>
   </g>
  </g>
  <g id="axes_3">
   <g id="matplotlib.axis_5">
    <g id="ytick_9">
     <g id="line2d_35">
      <defs>
       <path id="m7268f583ad" d="M 0 0 
L 6 0 
" style="stroke: #262626; stroke-width: 1.25"/>
      </defs>
      <g>
       <use xlink:href="#m7268f583ad" x="667.966641" y="381.510583" style="fill: #262626; stroke: #262626; stroke-width: 1.25"/>
      </g>
     </g>
     <g id="text_22">
      <!-- 0 -->
      <g style="fill: #262626" transform="translate(677.466641 385.44738)scale(0.11 -0.11)">
       <use xlink:href="#ArialMT-30"/>
      </g>
     </g>
    </g>
    <g id="ytick_10">
     <g id="line2d_36">
      <g>
       <use xlink:href="#m7268f583ad" x="667.966641" y="310.597769" style="fill: #262626; stroke: #262626; stroke-width: 1.25"/>
      </g>
     </g>
     <g id="text_23">
      <!-- 10 -->
      <g style="fill: #262626" transform="translate(677.466641 314.534566)scale(0.11 -0.11)">
       <use xlink:href="#ArialMT-31"/>
       <use xlink:href="#ArialMT-30" x="55.615234"/>
      </g>
     </g>
    </g>
    <g id="ytick_11">
     <g id="line2d_37">
      <g>
       <use xlink:href="#m7268f583ad" x="667.966641" y="239.684955" style="fill: #262626; stroke: #262626; stroke-width: 1.25"/>
      </g>
     </g>
     <g id="text_24">
      <!-- 20 -->
      <g style="fill: #262626" transform="translate(677.466641 243.621752)scale(0.11 -0.11)">
       <use xlink:href="#ArialMT-32"/>
       <use xlink:href="#ArialMT-30" x="55.615234"/>
      </g>
     </g>
    </g>
    <g id="ytick_12">
     <g id="line2d_38">
      <g>
       <use xlink:href="#m7268f583ad" x="667.966641" y="168.772141" style="fill: #262626; stroke: #262626; stroke-width: 1.25"/>
      </g>
     </g>
     <g id="text_25">
      <!-- 30 -->
      <g style="fill: #262626" transform="translate(677.466641 172.708938)scale(0.11 -0.11)">
       <use xlink:href="#ArialMT-33"/>
       <use xlink:href="#ArialMT-30" x="55.615234"/>
      </g>
     </g>
    </g>
    <g id="ytick_13">
     <g id="line2d_39">
      <g>
       <use xlink:href="#m7268f583ad" x="667.966641" y="97.859327" style="fill: #262626; stroke: #262626; stroke-width: 1.25"/>
      </g>
     </g>
     <g id="text_26">
      <!-- 40 -->
      <g style="fill: #262626" transform="translate(677.466641 101.796124)scale(0.11 -0.11)">
       <use xlink:href="#ArialMT-34"/>
       <use xlink:href="#ArialMT-30" x="55.615234"/>
      </g>
     </g>
    </g>
    <g id="ytick_14">
     <g id="line2d_40">
      <g>
       <use xlink:href="#m7268f583ad" x="667.966641" y="26.946513" style="fill: #262626; stroke: #262626; stroke-width: 1.25"/>
      </g>
     </g>
     <g id="text_27">
      <!-- 50 -->
      <g style="fill: #262626" transform="translate(677.466641 30.88331)scale(0.11 -0.11)">
       <use xlink:href="#ArialMT-35"/>
       <use xlink:href="#ArialMT-30" x="55.615234"/>
      </g>
     </g>
    </g>
    <g id="text_28">
     <!-- Temperature -->
     <g style="fill: #262626" transform="translate(706.584766 253.411313)rotate(-90)scale(0.18 -0.18)">
      <use xlink:href="#ArialMT-54"/>
      <use xlink:href="#ArialMT-65" x="49.958984"/>
      <use xlink:href="#ArialMT-6d" x="105.574219"/>
      <use xlink:href="#ArialMT-70" x="188.875"/>
      <use xlink:href="#ArialMT-65" x="244.490234"/>
      <use xlink:href="#ArialMT-72" x="300.105469"/>
      <use xlink:href="#ArialMT-61" x="333.40625"/>
      <use xlink:href="#ArialMT-74" x="389.021484"/>
      <use xlink:href="#ArialMT-75" x="416.804688"/>
      <use xlink:href="#ArialMT-72" x="472.419922"/>
      <use xlink:href="#ArialMT-65" x="505.720703"/>
     </g>
    </g>
   </g>
   <g id="PolyCollection_10"/>
   <g id="line2d_41">
    <path d="M 92.719368 24.990545 
L 98.107502 24.990545 
L 98.244489 114.341676 
L 103.586961 114.341676 
L 103.723947 192.318574 
L 109.06642 192.318574 
L 109.203406 244.561983 
L 114.545878 244.561983 
L 114.682865 279.064582 
L 120.025337 279.064582 
L 120.162324 295.318468 
L 125.504796 295.318468 
L 125.641782 329.456325 
L 130.984254 329.456325 
L 131.121241 336.952661 
L 136.463713 336.952661 
L 136.6007 342.332394 
L 141.943172 342.332394 
L 142.080158 356.138332 
L 147.422631 356.138332 
L 147.559617 368.172782 
L 152.902089 368.172782 
L 153.039076 375.273713 
L 158.381548 375.273713 
L 158.518534 378.775424 
L 163.861007 378.775424 
L 163.997993 380.35263 
L 169.340465 380.35263 
L 169.477452 380.801455 
L 640.573913 380.801455 
L 640.573913 380.801455 
" clip-path="url(#p8e9e171370)" style="fill: none; stroke: #ff0000; stroke-width: 1.5; stroke-linecap: round"/>
   </g>
   <g id="patch_14">
    <path d="M 65.326641 398.592 
L 65.326641 7.2 
" style="fill: none; stroke: #262626; stroke-width: 1.25; stroke-linejoin: miter; stroke-linecap: square"/>
   </g>
   <g id="patch_15">
    <path d="M 667.966641 398.592 
L 667.966641 7.2 
" style="fill: none; stroke: #ff0000; stroke-width: 2; stroke-linejoin: miter; stroke-linecap: square"/>
   </g>
   <g id="patch_16">
    <path d="M 65.326641 398.592 
L 667.966641 398.592 
" style="fill: none; stroke: #262626; stroke-width: 1.25; stroke-linejoin: miter; stroke-linecap: square"/>
   </g>
   <g id="patch_17">
    <path d="M 65.326641 7.2 
L 667.966641 7.2 
" style="fill: none; stroke: #262626; stroke-width: 1.25; stroke-linejoin: miter; stroke-linecap: square"/>
   </g>
   <g id="legend_2"/>
  </g>
 </g>
 <defs>
  <clipPath id="p8e9e171370">
   <rect x="65.326641" y="7.2" width="602.64" height="391.392"/>
  </clipPath>
  <clipPath id="pf51ecc71f1">
   <rect x="459.380334" y="42.42528" width="176.116613" height="176.1264"/>
  </clipPath>
 </defs>
</svg>
