<?xml version="1.0" encoding="utf-8" standalone="no"?>
<!DOCTYPE svg PUBLIC "-//W3C//DTD SVG 1.1//EN"
  "http://www.w3.org/Graphics/SVG/1.1/DTD/svg11.dtd">
<svg xmlns:xlink="http://www.w3.org/1999/xlink" width="717.362266pt" height="450.843328pt" viewBox="0 0 717.362266 450.843328" xmlns="http://www.w3.org/2000/svg" version="1.1">
 <metadata>
  <rdf:RDF xmlns:dc="http://purl.org/dc/elements/1.1/" xmlns:cc="http://creativecommons.org/ns#" xmlns:rdf="http://www.w3.org/1999/02/22-rdf-syntax-ns#">
   <cc:Work>
    <dc:type rdf:resource="http://purl.org/dc/dcmitype/StillImage"/>
    <dc:date>2022-12-22T21:08:03.971058</dc:date>
    <dc:format>image/svg+xml</dc:format>
    <dc:creator>
     <cc:Agent>
      <dc:title>Matplotlib v3.5.2, https://matplotlib.org/</dc:title>
     </cc:Agent>
    </dc:creator>
   </cc:Work>
  </rdf:RDF>
 </metadata>
 <defs>
  <style type="text/css">*{stroke-linejoin: round; stroke-linecap: butt}</style>
 </defs>
 <g id="figure_1">
  <g id="patch_1">
   <path d="M -0 450.843328 
L 717.362266 450.843328 
L 717.362266 0 
L -0 0 
z
" style="fill: #ffffff"/>
  </g>
  <g id="axes_1">
   <g id="patch_2">
    <path d="M 65.326641 398.592 
L 667.966641 398.592 
L 667.966641 7.2 
L 65.326641 7.2 
z
" style="fill: #ffffff"/>
   </g>
   <g id="matplotlib.axis_1">
    <g id="xtick_1">
     <g id="line2d_1">
      <path d="M 92.673706 398.592 
L 92.673706 7.2 
" clip-path="url(#p8983586a7d)" style="fill: none; stroke: #cccccc; stroke-linecap: round"/>
     </g>
     <g id="text_1">
      <!-- 0 -->
      <g style="fill: #262626" transform="translate(88.085932 419.902391)scale(0.165 -0.165)">
       <defs>
        <path id="ArialMT-30" d="M 266 2259 
Q 266 3072 433 3567 
Q 600 4063 929 4331 
Q 1259 4600 1759 4600 
Q 2128 4600 2406 4451 
Q 2684 4303 2865 4023 
Q 3047 3744 3150 3342 
Q 3253 2941 3253 2259 
Q 3253 1453 3087 958 
Q 2922 463 2592 192 
Q 2263 -78 1759 -78 
Q 1097 -78 719 397 
Q 266 969 266 2259 
z
M 844 2259 
Q 844 1131 1108 757 
Q 1372 384 1759 384 
Q 2147 384 2411 759 
Q 2675 1134 2675 2259 
Q 2675 3391 2411 3762 
Q 2147 4134 1753 4134 
Q 1366 4134 1134 3806 
Q 844 3388 844 2259 
z
" transform="scale(0.015625)"/>
       </defs>
       <use xlink:href="#ArialMT-30"/>
      </g>
     </g>
    </g>
    <g id="xtick_2">
     <g id="line2d_2">
      <path d="M 183.998017 398.592 
L 183.998017 7.2 
" clip-path="url(#p8983586a7d)" style="fill: none; stroke: #cccccc; stroke-linecap: round"/>
     </g>
     <g id="text_2">
      <!-- 2000 -->
      <g style="fill: #262626" transform="translate(165.646924 419.902391)scale(0.165 -0.165)">
       <defs>
        <path id="ArialMT-32" d="M 3222 541 
L 3222 0 
L 194 0 
Q 188 203 259 391 
Q 375 700 629 1000 
Q 884 1300 1366 1694 
Q 2113 2306 2375 2664 
Q 2638 3022 2638 3341 
Q 2638 3675 2398 3904 
Q 2159 4134 1775 4134 
Q 1369 4134 1125 3890 
Q 881 3647 878 3216 
L 300 3275 
Q 359 3922 746 4261 
Q 1134 4600 1788 4600 
Q 2447 4600 2831 4234 
Q 3216 3869 3216 3328 
Q 3216 3053 3103 2787 
Q 2991 2522 2730 2228 
Q 2469 1934 1863 1422 
Q 1356 997 1212 845 
Q 1069 694 975 541 
L 3222 541 
z
" transform="scale(0.015625)"/>
       </defs>
       <use xlink:href="#ArialMT-32"/>
       <use xlink:href="#ArialMT-30" x="55.615234"/>
       <use xlink:href="#ArialMT-30" x="111.230469"/>
       <use xlink:href="#ArialMT-30" x="166.845703"/>
      </g>
     </g>
    </g>
    <g id="xtick_3">
     <g id="line2d_3">
      <path d="M 275.322329 398.592 
L 275.322329 7.2 
" clip-path="url(#p8983586a7d)" style="fill: none; stroke: #cccccc; stroke-linecap: round"/>
     </g>
     <g id="text_3">
      <!-- 4000 -->
      <g style="fill: #262626" transform="translate(256.971235 419.902391)scale(0.165 -0.165)">
       <defs>
        <path id="ArialMT-34" d="M 2069 0 
L 2069 1097 
L 81 1097 
L 81 1613 
L 2172 4581 
L 2631 4581 
L 2631 1613 
L 3250 1613 
L 3250 1097 
L 2631 1097 
L 2631 0 
L 2069 0 
z
M 2069 1613 
L 2069 3678 
L 634 1613 
L 2069 1613 
z
" transform="scale(0.015625)"/>
       </defs>
       <use xlink:href="#ArialMT-34"/>
       <use xlink:href="#ArialMT-30" x="55.615234"/>
       <use xlink:href="#ArialMT-30" x="111.230469"/>
       <use xlink:href="#ArialMT-30" x="166.845703"/>
      </g>
     </g>
    </g>
    <g id="xtick_4">
     <g id="line2d_4">
      <path d="M 366.646641 398.592 
L 366.646641 7.2 
" clip-path="url(#p8983586a7d)" style="fill: none; stroke: #cccccc; stroke-linecap: round"/>
     </g>
     <g id="text_4">
      <!-- 6000 -->
      <g style="fill: #262626" transform="translate(348.295547 419.902391)scale(0.165 -0.165)">
       <defs>
        <path id="ArialMT-36" d="M 3184 3459 
L 2625 3416 
Q 2550 3747 2413 3897 
Q 2184 4138 1850 4138 
Q 1581 4138 1378 3988 
Q 1113 3794 959 3422 
Q 806 3050 800 2363 
Q 1003 2672 1297 2822 
Q 1591 2972 1913 2972 
Q 2475 2972 2870 2558 
Q 3266 2144 3266 1488 
Q 3266 1056 3080 686 
Q 2894 316 2569 119 
Q 2244 -78 1831 -78 
Q 1128 -78 684 439 
Q 241 956 241 2144 
Q 241 3472 731 4075 
Q 1159 4600 1884 4600 
Q 2425 4600 2770 4297 
Q 3116 3994 3184 3459 
z
M 888 1484 
Q 888 1194 1011 928 
Q 1134 663 1356 523 
Q 1578 384 1822 384 
Q 2178 384 2434 671 
Q 2691 959 2691 1453 
Q 2691 1928 2437 2201 
Q 2184 2475 1800 2475 
Q 1419 2475 1153 2201 
Q 888 1928 888 1484 
z
" transform="scale(0.015625)"/>
       </defs>
       <use xlink:href="#ArialMT-36"/>
       <use xlink:href="#ArialMT-30" x="55.615234"/>
       <use xlink:href="#ArialMT-30" x="111.230469"/>
       <use xlink:href="#ArialMT-30" x="166.845703"/>
      </g>
     </g>
    </g>
    <g id="xtick_5">
     <g id="line2d_5">
      <path d="M 457.970952 398.592 
L 457.970952 7.2 
" clip-path="url(#p8983586a7d)" style="fill: none; stroke: #cccccc; stroke-linecap: round"/>
     </g>
     <g id="text_5">
      <!-- 8000 -->
      <g style="fill: #262626" transform="translate(439.619859 419.902391)scale(0.165 -0.165)">
       <defs>
        <path id="ArialMT-38" d="M 1131 2484 
Q 781 2613 612 2850 
Q 444 3088 444 3419 
Q 444 3919 803 4259 
Q 1163 4600 1759 4600 
Q 2359 4600 2725 4251 
Q 3091 3903 3091 3403 
Q 3091 3084 2923 2848 
Q 2756 2613 2416 2484 
Q 2838 2347 3058 2040 
Q 3278 1734 3278 1309 
Q 3278 722 2862 322 
Q 2447 -78 1769 -78 
Q 1091 -78 675 323 
Q 259 725 259 1325 
Q 259 1772 486 2073 
Q 713 2375 1131 2484 
z
M 1019 3438 
Q 1019 3113 1228 2906 
Q 1438 2700 1772 2700 
Q 2097 2700 2305 2904 
Q 2513 3109 2513 3406 
Q 2513 3716 2298 3927 
Q 2084 4138 1766 4138 
Q 1444 4138 1231 3931 
Q 1019 3725 1019 3438 
z
M 838 1322 
Q 838 1081 952 856 
Q 1066 631 1291 507 
Q 1516 384 1775 384 
Q 2178 384 2440 643 
Q 2703 903 2703 1303 
Q 2703 1709 2433 1975 
Q 2163 2241 1756 2241 
Q 1359 2241 1098 1978 
Q 838 1716 838 1322 
z
" transform="scale(0.015625)"/>
       </defs>
       <use xlink:href="#ArialMT-38"/>
       <use xlink:href="#ArialMT-30" x="55.615234"/>
       <use xlink:href="#ArialMT-30" x="111.230469"/>
       <use xlink:href="#ArialMT-30" x="166.845703"/>
      </g>
     </g>
    </g>
    <g id="xtick_6">
     <g id="line2d_6">
      <path d="M 549.295264 398.592 
L 549.295264 7.2 
" clip-path="url(#p8983586a7d)" style="fill: none; stroke: #cccccc; stroke-linecap: round"/>
     </g>
     <g id="text_6">
      <!-- 10000 -->
      <g style="fill: #262626" transform="translate(526.356397 419.902391)scale(0.165 -0.165)">
       <defs>
        <path id="ArialMT-31" d="M 2384 0 
L 1822 0 
L 1822 3584 
Q 1619 3391 1289 3197 
Q 959 3003 697 2906 
L 697 3450 
Q 1169 3672 1522 3987 
Q 1875 4303 2022 4600 
L 2384 4600 
L 2384 0 
z
" transform="scale(0.015625)"/>
       </defs>
       <use xlink:href="#ArialMT-31"/>
       <use xlink:href="#ArialMT-30" x="55.615234"/>
       <use xlink:href="#ArialMT-30" x="111.230469"/>
       <use xlink:href="#ArialMT-30" x="166.845703"/>
       <use xlink:href="#ArialMT-30" x="222.460938"/>
      </g>
     </g>
    </g>
    <g id="xtick_7">
     <g id="line2d_7">
      <path d="M 640.619576 398.592 
L 640.619576 7.2 
" clip-path="url(#p8983586a7d)" style="fill: none; stroke: #cccccc; stroke-linecap: round"/>
     </g>
     <g id="text_7">
      <!-- 12000 -->
      <g style="fill: #262626" transform="translate(617.680708 419.902391)scale(0.165 -0.165)">
       <use xlink:href="#ArialMT-31"/>
       <use xlink:href="#ArialMT-32" x="55.615234"/>
       <use xlink:href="#ArialMT-30" x="111.230469"/>
       <use xlink:href="#ArialMT-30" x="166.845703"/>
       <use xlink:href="#ArialMT-30" x="222.460938"/>
      </g>
     </g>
    </g>
    <g id="text_8">
     <!-- Evaluations -->
     <g style="fill: #262626" transform="translate(320.119453 440.065828)scale(0.18 -0.18)">
      <defs>
       <path id="ArialMT-45" d="M 506 0 
L 506 4581 
L 3819 4581 
L 3819 4041 
L 1113 4041 
L 1113 2638 
L 3647 2638 
L 3647 2100 
L 1113 2100 
L 1113 541 
L 3925 541 
L 3925 0 
L 506 0 
z
" transform="scale(0.015625)"/>
       <path id="ArialMT-76" d="M 1344 0 
L 81 3319 
L 675 3319 
L 1388 1331 
Q 1503 1009 1600 663 
Q 1675 925 1809 1294 
L 2547 3319 
L 3125 3319 
L 1869 0 
L 1344 0 
z
" transform="scale(0.015625)"/>
       <path id="ArialMT-61" d="M 2588 409 
Q 2275 144 1986 34 
Q 1697 -75 1366 -75 
Q 819 -75 525 192 
Q 231 459 231 875 
Q 231 1119 342 1320 
Q 453 1522 633 1644 
Q 813 1766 1038 1828 
Q 1203 1872 1538 1913 
Q 2219 1994 2541 2106 
Q 2544 2222 2544 2253 
Q 2544 2597 2384 2738 
Q 2169 2928 1744 2928 
Q 1347 2928 1158 2789 
Q 969 2650 878 2297 
L 328 2372 
Q 403 2725 575 2942 
Q 747 3159 1072 3276 
Q 1397 3394 1825 3394 
Q 2250 3394 2515 3294 
Q 2781 3194 2906 3042 
Q 3031 2891 3081 2659 
Q 3109 2516 3109 2141 
L 3109 1391 
Q 3109 606 3145 398 
Q 3181 191 3288 0 
L 2700 0 
Q 2613 175 2588 409 
z
M 2541 1666 
Q 2234 1541 1622 1453 
Q 1275 1403 1131 1340 
Q 988 1278 909 1158 
Q 831 1038 831 891 
Q 831 666 1001 516 
Q 1172 366 1500 366 
Q 1825 366 2078 508 
Q 2331 650 2450 897 
Q 2541 1088 2541 1459 
L 2541 1666 
z
" transform="scale(0.015625)"/>
       <path id="ArialMT-6c" d="M 409 0 
L 409 4581 
L 972 4581 
L 972 0 
L 409 0 
z
" transform="scale(0.015625)"/>
       <path id="ArialMT-75" d="M 2597 0 
L 2597 488 
Q 2209 -75 1544 -75 
Q 1250 -75 995 37 
Q 741 150 617 320 
Q 494 491 444 738 
Q 409 903 409 1263 
L 409 3319 
L 972 3319 
L 972 1478 
Q 972 1038 1006 884 
Q 1059 663 1231 536 
Q 1403 409 1656 409 
Q 1909 409 2131 539 
Q 2353 669 2445 892 
Q 2538 1116 2538 1541 
L 2538 3319 
L 3100 3319 
L 3100 0 
L 2597 0 
z
" transform="scale(0.015625)"/>
       <path id="ArialMT-74" d="M 1650 503 
L 1731 6 
Q 1494 -44 1306 -44 
Q 1000 -44 831 53 
Q 663 150 594 308 
Q 525 466 525 972 
L 525 2881 
L 113 2881 
L 113 3319 
L 525 3319 
L 525 4141 
L 1084 4478 
L 1084 3319 
L 1650 3319 
L 1650 2881 
L 1084 2881 
L 1084 941 
Q 1084 700 1114 631 
Q 1144 563 1211 522 
Q 1278 481 1403 481 
Q 1497 481 1650 503 
z
" transform="scale(0.015625)"/>
       <path id="ArialMT-69" d="M 425 3934 
L 425 4581 
L 988 4581 
L 988 3934 
L 425 3934 
z
M 425 0 
L 425 3319 
L 988 3319 
L 988 0 
L 425 0 
z
" transform="scale(0.015625)"/>
       <path id="ArialMT-6f" d="M 213 1659 
Q 213 2581 725 3025 
Q 1153 3394 1769 3394 
Q 2453 3394 2887 2945 
Q 3322 2497 3322 1706 
Q 3322 1066 3130 698 
Q 2938 331 2570 128 
Q 2203 -75 1769 -75 
Q 1072 -75 642 372 
Q 213 819 213 1659 
z
M 791 1659 
Q 791 1022 1069 705 
Q 1347 388 1769 388 
Q 2188 388 2466 706 
Q 2744 1025 2744 1678 
Q 2744 2294 2464 2611 
Q 2184 2928 1769 2928 
Q 1347 2928 1069 2612 
Q 791 2297 791 1659 
z
" transform="scale(0.015625)"/>
       <path id="ArialMT-6e" d="M 422 0 
L 422 3319 
L 928 3319 
L 928 2847 
Q 1294 3394 1984 3394 
Q 2284 3394 2536 3286 
Q 2788 3178 2913 3003 
Q 3038 2828 3088 2588 
Q 3119 2431 3119 2041 
L 3119 0 
L 2556 0 
L 2556 2019 
Q 2556 2363 2490 2533 
Q 2425 2703 2258 2804 
Q 2091 2906 1866 2906 
Q 1506 2906 1245 2678 
Q 984 2450 984 1813 
L 984 0 
L 422 0 
z
" transform="scale(0.015625)"/>
       <path id="ArialMT-73" d="M 197 991 
L 753 1078 
Q 800 744 1014 566 
Q 1228 388 1613 388 
Q 2000 388 2187 545 
Q 2375 703 2375 916 
Q 2375 1106 2209 1216 
Q 2094 1291 1634 1406 
Q 1016 1563 777 1677 
Q 538 1791 414 1992 
Q 291 2194 291 2438 
Q 291 2659 392 2848 
Q 494 3038 669 3163 
Q 800 3259 1026 3326 
Q 1253 3394 1513 3394 
Q 1903 3394 2198 3281 
Q 2494 3169 2634 2976 
Q 2775 2784 2828 2463 
L 2278 2388 
Q 2241 2644 2061 2787 
Q 1881 2931 1553 2931 
Q 1166 2931 1000 2803 
Q 834 2675 834 2503 
Q 834 2394 903 2306 
Q 972 2216 1119 2156 
Q 1203 2125 1616 2013 
Q 2213 1853 2448 1751 
Q 2684 1650 2818 1456 
Q 2953 1263 2953 975 
Q 2953 694 2789 445 
Q 2625 197 2315 61 
Q 2006 -75 1616 -75 
Q 969 -75 630 194 
Q 291 463 197 991 
z
" transform="scale(0.015625)"/>
      </defs>
      <use xlink:href="#ArialMT-45"/>
      <use xlink:href="#ArialMT-76" x="66.699219"/>
      <use xlink:href="#ArialMT-61" x="116.699219"/>
      <use xlink:href="#ArialMT-6c" x="172.314453"/>
      <use xlink:href="#ArialMT-75" x="194.53125"/>
      <use xlink:href="#ArialMT-61" x="250.146484"/>
      <use xlink:href="#ArialMT-74" x="305.761719"/>
      <use xlink:href="#ArialMT-69" x="333.544922"/>
      <use xlink:href="#ArialMT-6f" x="355.761719"/>
      <use xlink:href="#ArialMT-6e" x="411.376953"/>
      <use xlink:href="#ArialMT-73" x="466.992188"/>
     </g>
    </g>
   </g>
   <g id="matplotlib.axis_2">
    <g id="ytick_1">
     <g id="line2d_8">
      <path d="M 65.326641 387.98555 
L 667.966641 387.98555 
" clip-path="url(#p8983586a7d)" style="fill: none; stroke: #cccccc; stroke-linecap: round"/>
     </g>
     <g id="line2d_9">
      <defs>
       <path id="md494b7cdd3" d="M 0 0 
L -6 0 
" style="stroke: #262626; stroke-width: 1.25"/>
      </defs>
      <g>
       <use xlink:href="#md494b7cdd3" x="65.326641" y="387.98555" style="fill: #262626; stroke: #262626; stroke-width: 1.25"/>
      </g>
     </g>
     <g id="text_9">
      <!-- 60 -->
      <g style="fill: #262626" transform="translate(37.475547 393.890745)scale(0.165 -0.165)">
       <use xlink:href="#ArialMT-36"/>
       <use xlink:href="#ArialMT-30" x="55.615234"/>
      </g>
     </g>
    </g>
    <g id="ytick_2">
     <g id="line2d_10">
      <path d="M 65.326641 337.994629 
L 667.966641 337.994629 
" clip-path="url(#p8983586a7d)" style="fill: none; stroke: #cccccc; stroke-linecap: round"/>
     </g>
     <g id="line2d_11">
      <g>
       <use xlink:href="#md494b7cdd3" x="65.326641" y="337.994629" style="fill: #262626; stroke: #262626; stroke-width: 1.25"/>
      </g>
     </g>
     <g id="text_10">
      <!-- 70 -->
      <g style="fill: #262626" transform="translate(37.475547 343.899824)scale(0.165 -0.165)">
       <defs>
        <path id="ArialMT-37" d="M 303 3981 
L 303 4522 
L 3269 4522 
L 3269 4084 
Q 2831 3619 2401 2847 
Q 1972 2075 1738 1259 
Q 1569 684 1522 0 
L 944 0 
Q 953 541 1156 1306 
Q 1359 2072 1739 2783 
Q 2119 3494 2547 3981 
L 303 3981 
z
" transform="scale(0.015625)"/>
       </defs>
       <use xlink:href="#ArialMT-37"/>
       <use xlink:href="#ArialMT-30" x="55.615234"/>
      </g>
     </g>
    </g>
    <g id="ytick_3">
     <g id="line2d_12">
      <path d="M 65.326641 288.003707 
L 667.966641 288.003707 
" clip-path="url(#p8983586a7d)" style="fill: none; stroke: #cccccc; stroke-linecap: round"/>
     </g>
     <g id="line2d_13">
      <g>
       <use xlink:href="#md494b7cdd3" x="65.326641" y="288.003707" style="fill: #262626; stroke: #262626; stroke-width: 1.25"/>
      </g>
     </g>
     <g id="text_11">
      <!-- 80 -->
      <g style="fill: #262626" transform="translate(37.475547 293.908903)scale(0.165 -0.165)">
       <use xlink:href="#ArialMT-38"/>
       <use xlink:href="#ArialMT-30" x="55.615234"/>
      </g>
     </g>
    </g>
    <g id="ytick_4">
     <g id="line2d_14">
      <path d="M 65.326641 238.012786 
L 667.966641 238.012786 
" clip-path="url(#p8983586a7d)" style="fill: none; stroke: #cccccc; stroke-linecap: round"/>
     </g>
     <g id="line2d_15">
      <g>
       <use xlink:href="#md494b7cdd3" x="65.326641" y="238.012786" style="fill: #262626; stroke: #262626; stroke-width: 1.25"/>
      </g>
     </g>
     <g id="text_12">
      <!-- 90 -->
      <g style="fill: #262626" transform="translate(37.475547 243.917982)scale(0.165 -0.165)">
       <defs>
        <path id="ArialMT-39" d="M 350 1059 
L 891 1109 
Q 959 728 1153 556 
Q 1347 384 1650 384 
Q 1909 384 2104 503 
Q 2300 622 2425 820 
Q 2550 1019 2634 1356 
Q 2719 1694 2719 2044 
Q 2719 2081 2716 2156 
Q 2547 1888 2255 1720 
Q 1963 1553 1622 1553 
Q 1053 1553 659 1965 
Q 266 2378 266 3053 
Q 266 3750 677 4175 
Q 1088 4600 1706 4600 
Q 2153 4600 2523 4359 
Q 2894 4119 3086 3673 
Q 3278 3228 3278 2384 
Q 3278 1506 3087 986 
Q 2897 466 2520 194 
Q 2144 -78 1638 -78 
Q 1100 -78 759 220 
Q 419 519 350 1059 
z
M 2653 3081 
Q 2653 3566 2395 3850 
Q 2138 4134 1775 4134 
Q 1400 4134 1122 3828 
Q 844 3522 844 3034 
Q 844 2597 1108 2323 
Q 1372 2050 1759 2050 
Q 2150 2050 2401 2323 
Q 2653 2597 2653 3081 
z
" transform="scale(0.015625)"/>
       </defs>
       <use xlink:href="#ArialMT-39"/>
       <use xlink:href="#ArialMT-30" x="55.615234"/>
      </g>
     </g>
    </g>
    <g id="ytick_5">
     <g id="line2d_16">
      <path d="M 65.326641 188.021865 
L 667.966641 188.021865 
" clip-path="url(#p8983586a7d)" style="fill: none; stroke: #cccccc; stroke-linecap: round"/>
     </g>
     <g id="line2d_17">
      <g>
       <use xlink:href="#md494b7cdd3" x="65.326641" y="188.021865" style="fill: #262626; stroke: #262626; stroke-width: 1.25"/>
      </g>
     </g>
     <g id="text_13">
      <!-- 100 -->
      <g style="fill: #262626" transform="translate(28.3 193.92706)scale(0.165 -0.165)">
       <use xlink:href="#ArialMT-31"/>
       <use xlink:href="#ArialMT-30" x="55.615234"/>
       <use xlink:href="#ArialMT-30" x="111.230469"/>
      </g>
     </g>
    </g>
    <g id="ytick_6">
     <g id="line2d_18">
      <path d="M 65.326641 138.030944 
L 667.966641 138.030944 
" clip-path="url(#p8983586a7d)" style="fill: none; stroke: #cccccc; stroke-linecap: round"/>
     </g>
     <g id="line2d_19">
      <g>
       <use xlink:href="#md494b7cdd3" x="65.326641" y="138.030944" style="fill: #262626; stroke: #262626; stroke-width: 1.25"/>
      </g>
     </g>
     <g id="text_14">
      <!-- 110 -->
      <g style="fill: #262626" transform="translate(29.516875 143.936139)scale(0.165 -0.165)">
       <use xlink:href="#ArialMT-31"/>
       <use xlink:href="#ArialMT-31" x="48.240234"/>
       <use xlink:href="#ArialMT-30" x="103.855469"/>
      </g>
     </g>
    </g>
    <g id="ytick_7">
     <g id="line2d_20">
      <path d="M 65.326641 88.040023 
L 667.966641 88.040023 
" clip-path="url(#p8983586a7d)" style="fill: none; stroke: #cccccc; stroke-linecap: round"/>
     </g>
     <g id="line2d_21">
      <g>
       <use xlink:href="#md494b7cdd3" x="65.326641" y="88.040023" style="fill: #262626; stroke: #262626; stroke-width: 1.25"/>
      </g>
     </g>
     <g id="text_15">
      <!-- 120 -->
      <g style="fill: #262626" transform="translate(28.3 93.945218)scale(0.165 -0.165)">
       <use xlink:href="#ArialMT-31"/>
       <use xlink:href="#ArialMT-32" x="55.615234"/>
       <use xlink:href="#ArialMT-30" x="111.230469"/>
      </g>
     </g>
    </g>
    <g id="ytick_8">
     <g id="line2d_22">
      <path d="M 65.326641 38.049102 
L 667.966641 38.049102 
" clip-path="url(#p8983586a7d)" style="fill: none; stroke: #cccccc; stroke-linecap: round"/>
     </g>
     <g id="line2d_23">
      <g>
       <use xlink:href="#md494b7cdd3" x="65.326641" y="38.049102" style="fill: #262626; stroke: #262626; stroke-width: 1.25"/>
      </g>
     </g>
     <g id="text_16">
      <!-- 130 -->
      <g style="fill: #262626" transform="translate(28.3 43.954297)scale(0.165 -0.165)">
       <defs>
        <path id="ArialMT-33" d="M 269 1209 
L 831 1284 
Q 928 806 1161 595 
Q 1394 384 1728 384 
Q 2125 384 2398 659 
Q 2672 934 2672 1341 
Q 2672 1728 2419 1979 
Q 2166 2231 1775 2231 
Q 1616 2231 1378 2169 
L 1441 2663 
Q 1497 2656 1531 2656 
Q 1891 2656 2178 2843 
Q 2466 3031 2466 3422 
Q 2466 3731 2256 3934 
Q 2047 4138 1716 4138 
Q 1388 4138 1169 3931 
Q 950 3725 888 3313 
L 325 3413 
Q 428 3978 793 4289 
Q 1159 4600 1703 4600 
Q 2078 4600 2393 4439 
Q 2709 4278 2876 4000 
Q 3044 3722 3044 3409 
Q 3044 3113 2884 2869 
Q 2725 2625 2413 2481 
Q 2819 2388 3044 2092 
Q 3269 1797 3269 1353 
Q 3269 753 2831 336 
Q 2394 -81 1725 -81 
Q 1122 -81 723 278 
Q 325 638 269 1209 
z
" transform="scale(0.015625)"/>
       </defs>
       <use xlink:href="#ArialMT-31"/>
       <use xlink:href="#ArialMT-33" x="55.615234"/>
       <use xlink:href="#ArialMT-30" x="111.230469"/>
      </g>
     </g>
    </g>
    <g id="text_17">
     <!-- Potential Energy, $E$ -->
     <g style="fill: #262626" transform="translate(20.34 279.666)rotate(-90)scale(0.18 -0.18)">
      <defs>
       <path id="ArialMT-50" d="M 494 0 
L 494 4581 
L 2222 4581 
Q 2678 4581 2919 4538 
Q 3256 4481 3484 4323 
Q 3713 4166 3852 3881 
Q 3991 3597 3991 3256 
Q 3991 2672 3619 2267 
Q 3247 1863 2275 1863 
L 1100 1863 
L 1100 0 
L 494 0 
z
M 1100 2403 
L 2284 2403 
Q 2872 2403 3119 2622 
Q 3366 2841 3366 3238 
Q 3366 3525 3220 3729 
Q 3075 3934 2838 4000 
Q 2684 4041 2272 4041 
L 1100 4041 
L 1100 2403 
z
" transform="scale(0.015625)"/>
       <path id="ArialMT-65" d="M 2694 1069 
L 3275 997 
Q 3138 488 2766 206 
Q 2394 -75 1816 -75 
Q 1088 -75 661 373 
Q 234 822 234 1631 
Q 234 2469 665 2931 
Q 1097 3394 1784 3394 
Q 2450 3394 2872 2941 
Q 3294 2488 3294 1666 
Q 3294 1616 3291 1516 
L 816 1516 
Q 847 969 1125 678 
Q 1403 388 1819 388 
Q 2128 388 2347 550 
Q 2566 713 2694 1069 
z
M 847 1978 
L 2700 1978 
Q 2663 2397 2488 2606 
Q 2219 2931 1791 2931 
Q 1403 2931 1139 2672 
Q 875 2413 847 1978 
z
" transform="scale(0.015625)"/>
       <path id="ArialMT-20" transform="scale(0.015625)"/>
       <path id="ArialMT-72" d="M 416 0 
L 416 3319 
L 922 3319 
L 922 2816 
Q 1116 3169 1280 3281 
Q 1444 3394 1641 3394 
Q 1925 3394 2219 3213 
L 2025 2691 
Q 1819 2813 1613 2813 
Q 1428 2813 1281 2702 
Q 1134 2591 1072 2394 
Q 978 2094 978 1738 
L 978 0 
L 416 0 
z
" transform="scale(0.015625)"/>
       <path id="ArialMT-67" d="M 319 -275 
L 866 -356 
Q 900 -609 1056 -725 
Q 1266 -881 1628 -881 
Q 2019 -881 2231 -725 
Q 2444 -569 2519 -288 
Q 2563 -116 2559 434 
Q 2191 0 1641 0 
Q 956 0 581 494 
Q 206 988 206 1678 
Q 206 2153 378 2554 
Q 550 2956 876 3175 
Q 1203 3394 1644 3394 
Q 2231 3394 2613 2919 
L 2613 3319 
L 3131 3319 
L 3131 450 
Q 3131 -325 2973 -648 
Q 2816 -972 2473 -1159 
Q 2131 -1347 1631 -1347 
Q 1038 -1347 672 -1080 
Q 306 -813 319 -275 
z
M 784 1719 
Q 784 1066 1043 766 
Q 1303 466 1694 466 
Q 2081 466 2343 764 
Q 2606 1063 2606 1700 
Q 2606 2309 2336 2618 
Q 2066 2928 1684 2928 
Q 1309 2928 1046 2623 
Q 784 2319 784 1719 
z
" transform="scale(0.015625)"/>
       <path id="ArialMT-79" d="M 397 -1278 
L 334 -750 
Q 519 -800 656 -800 
Q 844 -800 956 -737 
Q 1069 -675 1141 -563 
Q 1194 -478 1313 -144 
Q 1328 -97 1363 -6 
L 103 3319 
L 709 3319 
L 1400 1397 
Q 1534 1031 1641 628 
Q 1738 1016 1872 1384 
L 2581 3319 
L 3144 3319 
L 1881 -56 
Q 1678 -603 1566 -809 
Q 1416 -1088 1222 -1217 
Q 1028 -1347 759 -1347 
Q 597 -1347 397 -1278 
z
" transform="scale(0.015625)"/>
       <path id="ArialMT-2c" d="M 569 0 
L 569 641 
L 1209 641 
L 1209 0 
Q 1209 -353 1084 -570 
Q 959 -788 688 -906 
L 531 -666 
Q 709 -588 793 -436 
Q 878 -284 888 0 
L 569 0 
z
" transform="scale(0.015625)"/>
       <path id="DejaVuSans-Oblique-45" d="M 1081 4666 
L 4031 4666 
L 3928 4134 
L 1606 4134 
L 1338 2753 
L 3566 2753 
L 3463 2222 
L 1234 2222 
L 909 531 
L 3284 531 
L 3181 0 
L 172 0 
L 1081 4666 
z
" transform="scale(0.015625)"/>
      </defs>
      <use xlink:href="#ArialMT-50" transform="translate(0 0.09375)"/>
      <use xlink:href="#ArialMT-6f" transform="translate(66.699219 0.09375)"/>
      <use xlink:href="#ArialMT-74" transform="translate(122.314453 0.09375)"/>
      <use xlink:href="#ArialMT-65" transform="translate(150.097656 0.09375)"/>
      <use xlink:href="#ArialMT-6e" transform="translate(205.712891 0.09375)"/>
      <use xlink:href="#ArialMT-74" transform="translate(261.328125 0.09375)"/>
      <use xlink:href="#ArialMT-69" transform="translate(289.111328 0.09375)"/>
      <use xlink:href="#ArialMT-61" transform="translate(311.328125 0.09375)"/>
      <use xlink:href="#ArialMT-6c" transform="translate(366.943359 0.09375)"/>
      <use xlink:href="#ArialMT-20" transform="translate(389.160156 0.09375)"/>
      <use xlink:href="#ArialMT-45" transform="translate(416.943359 0.09375)"/>
      <use xlink:href="#ArialMT-6e" transform="translate(483.642578 0.09375)"/>
      <use xlink:href="#ArialMT-65" transform="translate(539.257812 0.09375)"/>
      <use xlink:href="#ArialMT-72" transform="translate(594.873047 0.09375)"/>
      <use xlink:href="#ArialMT-67" transform="translate(628.173828 0.09375)"/>
      <use xlink:href="#ArialMT-79" transform="translate(683.789062 0.09375)"/>
      <use xlink:href="#ArialMT-2c" transform="translate(733.789062 0.09375)"/>
      <use xlink:href="#ArialMT-20" transform="translate(761.572266 0.09375)"/>
      <use xlink:href="#DejaVuSans-Oblique-45" transform="translate(789.355469 0.09375)"/>
     </g>
    </g>
   </g>
   <g id="PolyCollection_1"/>
   <g id="PolyCollection_2"/>
   <g id="PolyCollection_3"/>
   <g id="PolyCollection_4"/>
   <g id="PolyCollection_5"/>
   <g id="PolyCollection_6">
    <defs>
     <path id="m5e968d89d8" d="M 95.413435 -324.263474 
L 95.413435 -268.335244 
L 100.870063 -304.405472 
L 106.349521 -304.400929 
L 111.82898 -248.686919 
L 117.308439 -308.953458 
L 122.787898 -277.632484 
L 128.267356 -279.257213 
L 133.746815 -239.864755 
L 139.226274 -316.271196 
L 144.705732 -257.613857 
L 150.185191 -328.025927 
L 155.66465 -257.283749 
L 161.144108 -252.25342 
L 166.623567 -296.182092 
L 172.103026 -324.420411 
L 177.582484 -293.141145 
L 183.061943 -287.233224 
L 188.541402 -274.110461 
L 194.020861 -289.262595 
L 199.500319 -234.662378 
L 204.979778 -210.304718 
L 210.459237 -220.813894 
L 215.938695 -247.909893 
L 221.418154 -240.640033 
L 226.897613 -187.99873 
L 232.377071 -248.477301 
L 237.85653 -198.968455 
L 243.335989 -228.847855 
L 248.815448 -216.695969 
L 254.294906 -238.18344 
L 259.774365 -217.629179 
L 265.253824 -192.201959 
L 270.733282 -200.909653 
L 276.212741 -214.075809 
L 281.6922 -211.828411 
L 287.171658 -217.166982 
L 292.651117 -219.098028 
L 298.130576 -168.298575 
L 303.610035 -187.096302 
L 309.089493 -175.3422 
L 314.568952 -158.614876 
L 320.048411 -198.167948 
L 325.527869 -193.70608 
L 331.007328 -209.685913 
L 336.486787 -177.47039 
L 341.966245 -195.946721 
L 347.445704 -172.163895 
L 352.925163 -166.144828 
L 358.404622 -156.156807 
L 363.88408 -132.874902 
L 369.363539 -137.029146 
L 374.842998 -132.887842 
L 380.322456 -124.438308 
L 385.801915 -121.488285 
L 391.281374 -114.654413 
L 396.760832 -103.002914 
L 402.240291 -91.287418 
L 407.71975 -103.751127 
L 413.199208 -104.011401 
L 418.678667 -100.534764 
L 424.158126 -99.437258 
L 429.637585 -94.665988 
L 435.117043 -94.152872 
L 440.596502 -86.883982 
L 446.075961 -84.553771 
L 544.706217 -73.809637 
L 544.706217 -77.5774 
L 544.706217 -77.5774 
L 446.075961 -84.822468 
L 440.596502 -88.791226 
L 435.117043 -94.549159 
L 429.637585 -95.042002 
L 424.158126 -100.883531 
L 418.678667 -101.472971 
L 413.199208 -106.398519 
L 407.71975 -109.82982 
L 402.240291 -92.480032 
L 396.760832 -112.002379 
L 391.281374 -120.260263 
L 385.801915 -127.308588 
L 380.322456 -129.82464 
L 374.842998 -138.486376 
L 369.363539 -143.529486 
L 363.88408 -153.220727 
L 358.404622 -170.622762 
L 352.925163 -175.919414 
L 347.445704 -195.357392 
L 341.966245 -227.789246 
L 336.486787 -192.48692 
L 331.007328 -233.856519 
L 325.527869 -207.753702 
L 320.048411 -228.894109 
L 314.568952 -175.5724 
L 309.089493 -202.602834 
L 303.610035 -225.799565 
L 298.130576 -198.859841 
L 292.651117 -258.334905 
L 287.171658 -249.636483 
L 281.6922 -243.57405 
L 276.212741 -248.422424 
L 270.733282 -246.1869 
L 265.253824 -213.216313 
L 259.774365 -242.682419 
L 254.294906 -268.544033 
L 248.815448 -248.085694 
L 243.335989 -267.229568 
L 237.85653 -235.233174 
L 232.377071 -299.904525 
L 226.897613 -206.634741 
L 221.418154 -301.091165 
L 215.938695 -304.370439 
L 210.459237 -249.967193 
L 204.979778 -238.111957 
L 199.500319 -267.877734 
L 194.020861 -340.973719 
L 188.541402 -327.375893 
L 183.061943 -355.392528 
L 177.582484 -342.480193 
L 172.103026 -425.852783 
L 166.623567 -336.73394 
L 161.144108 -281.687591 
L 155.66465 -308.371167 
L 150.185191 -393.648287 
L 144.705732 -345.678648 
L 139.226274 -393.911701 
L 133.746815 -275.399429 
L 128.267356 -352.903483 
L 122.787898 -341.643499 
L 117.308439 -380.122055 
L 111.82898 -291.805889 
L 106.349521 -369.873483 
L 100.870063 -380.100759 
L 95.413435 -324.263474 
z
" style="stroke: #000000; stroke-opacity: 0.15"/>
    </defs>
    <g clip-path="url(#p8983586a7d)">
     <use xlink:href="#m5e968d89d8" x="0" y="450.843328" style="fill-opacity: 0.15; stroke: #000000; stroke-opacity: 0.15"/>
    </g>
   </g>
   <g id="PolyCollection_7">
    <defs>
     <path id="m482f254060" d="M 95.413435 -212.407014 
L 95.413435 -268.335244 
L 100.870063 -304.405472 
L 106.349521 -304.400929 
L 111.82898 -248.686919 
L 117.308439 -308.953458 
L 122.787898 -277.632484 
L 128.267356 -279.257213 
L 133.746815 -239.864755 
L 139.226274 -316.271196 
L 144.705732 -257.613857 
L 150.185191 -328.025927 
L 155.66465 -257.283749 
L 161.144108 -252.25342 
L 166.623567 -296.182092 
L 172.103026 -324.420411 
L 177.582484 -293.141145 
L 183.061943 -287.233224 
L 188.541402 -274.110461 
L 194.020861 -289.262595 
L 199.500319 -234.662378 
L 204.979778 -210.304718 
L 210.459237 -220.813894 
L 215.938695 -247.909893 
L 221.418154 -240.640033 
L 226.897613 -187.99873 
L 232.377071 -248.477301 
L 237.85653 -198.968455 
L 243.335989 -228.847855 
L 248.815448 -216.695969 
L 254.294906 -238.18344 
L 259.774365 -217.629179 
L 265.253824 -192.201959 
L 270.733282 -200.909653 
L 276.212741 -214.075809 
L 281.6922 -211.828411 
L 287.171658 -217.166982 
L 292.651117 -219.098028 
L 298.130576 -168.298575 
L 303.610035 -187.096302 
L 309.089493 -175.3422 
L 314.568952 -158.614876 
L 320.048411 -198.167948 
L 325.527869 -193.70608 
L 331.007328 -209.685913 
L 336.486787 -177.47039 
L 341.966245 -195.946721 
L 347.445704 -172.163895 
L 352.925163 -166.144828 
L 358.404622 -156.156807 
L 363.88408 -132.874902 
L 369.363539 -137.029146 
L 374.842998 -132.887842 
L 380.322456 -124.438308 
L 385.801915 -121.488285 
L 391.281374 -114.654413 
L 396.760832 -103.002914 
L 402.240291 -91.287418 
L 407.71975 -103.751127 
L 413.199208 -104.011401 
L 418.678667 -100.534764 
L 424.158126 -99.437258 
L 429.637585 -94.665988 
L 435.117043 -94.152872 
L 440.596502 -86.883982 
L 446.075961 -84.553771 
L 544.706217 -73.809637 
L 544.706217 -70.041874 
L 544.706217 -70.041874 
L 446.075961 -84.285074 
L 440.596502 -84.976737 
L 435.117043 -93.756586 
L 429.637585 -94.289975 
L 424.158126 -97.990986 
L 418.678667 -99.596556 
L 413.199208 -101.624283 
L 407.71975 -97.672433 
L 402.240291 -90.094805 
L 396.760832 -94.00345 
L 391.281374 -109.048562 
L 385.801915 -115.667983 
L 380.322456 -119.051977 
L 374.842998 -127.289309 
L 369.363539 -130.528806 
L 363.88408 -112.529076 
L 358.404622 -141.690852 
L 352.925163 -156.370243 
L 347.445704 -148.970397 
L 341.966245 -164.104195 
L 336.486787 -162.453861 
L 331.007328 -185.515306 
L 325.527869 -179.658458 
L 320.048411 -167.441788 
L 314.568952 -141.657351 
L 309.089493 -148.081565 
L 303.610035 -148.393039 
L 298.130576 -137.737308 
L 292.651117 -179.861152 
L 287.171658 -184.697482 
L 281.6922 -180.082772 
L 276.212741 -179.729193 
L 270.733282 -155.632406 
L 265.253824 -171.187605 
L 259.774365 -192.575939 
L 254.294906 -207.822847 
L 248.815448 -185.306243 
L 243.335989 -190.466141 
L 237.85653 -162.703737 
L 232.377071 -197.050077 
L 226.897613 -169.362719 
L 221.418154 -180.188902 
L 215.938695 -191.449348 
L 210.459237 -191.660594 
L 204.979778 -182.497479 
L 199.500319 -201.447022 
L 194.020861 -237.55147 
L 188.541402 -220.84503 
L 183.061943 -219.07392 
L 177.582484 -243.802097 
L 172.103026 -222.98804 
L 166.623567 -255.630244 
L 161.144108 -222.819248 
L 155.66465 -206.196331 
L 150.185191 -262.403567 
L 144.705732 -169.549066 
L 139.226274 -238.630691 
L 133.746815 -204.330081 
L 128.267356 -205.610944 
L 122.787898 -213.62147 
L 117.308439 -237.784861 
L 111.82898 -205.567949 
L 106.349521 -238.928375 
L 100.870063 -228.710186 
L 95.413435 -212.407014 
z
" style="stroke: #000000; stroke-opacity: 0.15"/>
    </defs>
    <g clip-path="url(#p8983586a7d)">
     <use xlink:href="#m482f254060" x="0" y="450.843328" style="fill-opacity: 0.15; stroke: #000000; stroke-opacity: 0.15"/>
    </g>
   </g>
   <g id="PolyCollection_8">
    <defs>
     <path id="mded32a1fab" d="M 95.413435 -278.384032 
L 95.413435 -268.335244 
L 100.870063 -304.405472 
L 106.349521 -304.400929 
L 111.82898 -248.686919 
L 117.308439 -308.953458 
L 122.787898 -277.632484 
L 128.267356 -279.257213 
L 133.746815 -239.864755 
L 139.226274 -316.271196 
L 144.705732 -257.613857 
L 150.185191 -328.025927 
L 155.66465 -257.283749 
L 161.144108 -252.25342 
L 166.623567 -296.182092 
L 172.103026 -324.420411 
L 177.582484 -293.141145 
L 183.061943 -287.233224 
L 188.541402 -274.110461 
L 194.020861 -289.262595 
L 199.500319 -234.662378 
L 204.979778 -210.304718 
L 210.459237 -220.813894 
L 215.938695 -247.909893 
L 221.418154 -240.640033 
L 226.897613 -187.99873 
L 232.377071 -248.477301 
L 237.85653 -198.968455 
L 243.335989 -228.847855 
L 248.815448 -216.695969 
L 254.294906 -238.18344 
L 259.774365 -217.629179 
L 265.253824 -192.201959 
L 270.733282 -200.909653 
L 276.212741 -214.075809 
L 281.6922 -211.828411 
L 287.171658 -217.166982 
L 292.651117 -219.098028 
L 298.130576 -168.298575 
L 303.610035 -187.096302 
L 309.089493 -175.3422 
L 314.568952 -158.614876 
L 320.048411 -198.167948 
L 325.527869 -193.70608 
L 331.007328 -209.685913 
L 336.486787 -177.47039 
L 341.966245 -195.946721 
L 347.445704 -172.163895 
L 352.925163 -166.144828 
L 358.404622 -156.156807 
L 363.88408 -132.874902 
L 369.363539 -137.029146 
L 374.842998 -132.887842 
L 380.322456 -124.438308 
L 385.801915 -121.488285 
L 391.281374 -114.654413 
L 396.760832 -103.002914 
L 402.240291 -91.287418 
L 407.71975 -103.751127 
L 413.199208 -104.011401 
L 418.678667 -100.534764 
L 424.158126 -99.437258 
L 429.637585 -94.665988 
L 435.117043 -94.152872 
L 440.596502 -86.883982 
L 446.075961 -84.553771 
L 544.706217 -73.809637 
L 544.706217 -73.923587 
L 544.706217 -73.923587 
L 446.075961 -84.601847 
L 440.596502 -87.225231 
L 435.117043 -94.223777 
L 429.637585 -94.733266 
L 424.158126 -99.696029 
L 418.678667 -100.70263 
L 413.199208 -104.438511 
L 407.71975 -104.838743 
L 402.240291 -91.500804 
L 396.760832 -104.613123 
L 391.281374 -115.657427 
L 385.801915 -122.529669 
L 380.322456 -125.402045 
L 374.842998 -133.889547 
L 369.363539 -138.192204 
L 363.88408 -136.515232 
L 358.404622 -158.745095 
L 352.925163 -167.893724 
L 347.445704 -176.313738 
L 341.966245 -201.644071 
L 336.486787 -180.157188 
L 331.007328 -214.010583 
L 325.527869 -196.219518 
L 320.048411 -203.665556 
L 314.568952 -161.648962 
L 309.089493 -180.219746 
L 303.610035 -194.021194 
L 298.130576 -173.766679 
L 292.651117 -226.118396 
L 287.171658 -222.976513 
L 281.6922 -217.508426 
L 276.212741 -220.221198 
L 270.733282 -209.01078 
L 265.253824 -195.961904 
L 259.774365 -222.111772 
L 254.294906 -243.615639 
L 248.815448 -222.312303 
L 243.335989 -235.715214 
L 237.85653 -205.457037 
L 232.377071 -257.678799 
L 226.897613 -191.333135 
L 221.418154 -251.456113 
L 215.938695 -258.011967 
L 210.459237 -226.030081 
L 204.979778 -215.280064 
L 199.500319 -240.605359 
L 194.020861 -298.514889 
L 188.541402 -283.640856 
L 183.061943 -299.428471 
L 177.582484 -301.969021 
L 172.103026 -342.568965 
L 166.623567 -303.437738 
L 161.144108 -257.519861 
L 155.66465 -266.424448 
L 150.185191 -339.767256 
L 144.705732 -273.370647 
L 139.226274 -330.162845 
L 133.746815 -246.222715 
L 128.267356 -292.434203 
L 122.787898 -289.085508 
L 117.308439 -321.687135 
L 111.82898 -256.401882 
L 106.349521 -316.115455 
L 100.870063 -317.949078 
L 95.413435 -278.384032 
z
" style="stroke: #6495ed; stroke-opacity: 0.5"/>
    </defs>
    <g clip-path="url(#p8983586a7d)">
     <use xlink:href="#mded32a1fab" x="0" y="450.843328" style="fill: #6495ed; fill-opacity: 0.5; stroke: #6495ed; stroke-opacity: 0.5"/>
    </g>
   </g>
   <g id="PolyCollection_9">
    <defs>
     <path id="maa126b5792" d="M 95.413435 -258.286456 
L 95.413435 -268.335244 
L 100.870063 -304.405472 
L 106.349521 -304.400929 
L 111.82898 -248.686919 
L 117.308439 -308.953458 
L 122.787898 -277.632484 
L 128.267356 -279.257213 
L 133.746815 -239.864755 
L 139.226274 -316.271196 
L 144.705732 -257.613857 
L 150.185191 -328.025927 
L 155.66465 -257.283749 
L 161.144108 -252.25342 
L 166.623567 -296.182092 
L 172.103026 -324.420411 
L 177.582484 -293.141145 
L 183.061943 -287.233224 
L 188.541402 -274.110461 
L 194.020861 -289.262595 
L 199.500319 -234.662378 
L 204.979778 -210.304718 
L 210.459237 -220.813894 
L 215.938695 -247.909893 
L 221.418154 -240.640033 
L 226.897613 -187.99873 
L 232.377071 -248.477301 
L 237.85653 -198.968455 
L 243.335989 -228.847855 
L 248.815448 -216.695969 
L 254.294906 -238.18344 
L 259.774365 -217.629179 
L 265.253824 -192.201959 
L 270.733282 -200.909653 
L 276.212741 -214.075809 
L 281.6922 -211.828411 
L 287.171658 -217.166982 
L 292.651117 -219.098028 
L 298.130576 -168.298575 
L 303.610035 -187.096302 
L 309.089493 -175.3422 
L 314.568952 -158.614876 
L 320.048411 -198.167948 
L 325.527869 -193.70608 
L 331.007328 -209.685913 
L 336.486787 -177.47039 
L 341.966245 -195.946721 
L 347.445704 -172.163895 
L 352.925163 -166.144828 
L 358.404622 -156.156807 
L 363.88408 -132.874902 
L 369.363539 -137.029146 
L 374.842998 -132.887842 
L 380.322456 -124.438308 
L 385.801915 -121.488285 
L 391.281374 -114.654413 
L 396.760832 -103.002914 
L 402.240291 -91.287418 
L 407.71975 -103.751127 
L 413.199208 -104.011401 
L 418.678667 -100.534764 
L 424.158126 -99.437258 
L 429.637585 -94.665988 
L 435.117043 -94.152872 
L 440.596502 -86.883982 
L 446.075961 -84.553771 
L 544.706217 -73.809637 
L 544.706217 -73.695687 
L 544.706217 -73.695687 
L 446.075961 -84.505695 
L 440.596502 -86.542732 
L 435.117043 -94.081968 
L 429.637585 -94.598711 
L 424.158126 -99.178487 
L 418.678667 -100.366897 
L 413.199208 -103.584292 
L 407.71975 -102.66351 
L 402.240291 -91.074033 
L 396.760832 -101.392706 
L 391.281374 -113.651399 
L 385.801915 -120.446901 
L 380.322456 -123.474571 
L 374.842998 -131.886137 
L 369.363539 -135.866088 
L 363.88408 -129.234572 
L 358.404622 -153.56852 
L 352.925163 -164.395933 
L 347.445704 -168.014051 
L 341.966245 -190.24937 
L 336.486787 -174.783592 
L 331.007328 -205.361242 
L 325.527869 -191.192641 
L 320.048411 -192.670341 
L 314.568952 -155.58079 
L 309.089493 -170.464653 
L 303.610035 -180.171409 
L 298.130576 -162.83047 
L 292.651117 -212.07766 
L 287.171658 -211.357451 
L 281.6922 -206.148395 
L 276.212741 -207.930419 
L 270.733282 -192.808526 
L 265.253824 -188.442014 
L 259.774365 -213.146585 
L 254.294906 -232.75124 
L 248.815448 -211.079634 
L 243.335989 -221.980495 
L 237.85653 -192.479874 
L 232.377071 -239.275803 
L 226.897613 -184.664324 
L 221.418154 -229.823954 
L 215.938695 -237.80782 
L 210.459237 -215.597707 
L 204.979778 -205.329371 
L 199.500319 -228.719397 
L 194.020861 -280.0103 
L 188.541402 -264.580066 
L 183.061943 -275.037977 
L 177.582484 -284.313269 
L 172.103026 -306.271857 
L 166.623567 -288.926445 
L 161.144108 -246.986978 
L 155.66465 -248.14305 
L 150.185191 -316.284597 
L 144.705732 -241.857067 
L 139.226274 -302.379547 
L 133.746815 -233.506795 
L 128.267356 -266.080224 
L 122.787898 -266.179461 
L 117.308439 -296.21978 
L 111.82898 -240.971957 
L 106.349521 -292.686403 
L 100.870063 -290.861867 
L 95.413435 -258.286456 
z
" style="stroke: #6495ed; stroke-opacity: 0.5"/>
    </defs>
    <g clip-path="url(#p8983586a7d)">
     <use xlink:href="#maa126b5792" x="0" y="450.843328" style="fill: #6495ed; fill-opacity: 0.5; stroke: #6495ed; stroke-opacity: 0.5"/>
    </g>
   </g>
   <g id="PathCollection_1">
    <defs>
     <path id="m8d8a2f02e5" d="M 0 2.236068 
C 0.593012 2.236068 1.161816 2.000462 1.581139 1.581139 
C 2.000462 1.161816 2.236068 0.593012 2.236068 0 
C 2.236068 -0.593012 2.000462 -1.161816 1.581139 -1.581139 
C 1.161816 -2.000462 0.593012 -2.236068 0 -2.236068 
C -0.593012 -2.236068 -1.161816 -2.000462 -1.581139 -1.581139 
C -2.000462 -1.161816 -2.236068 -0.593012 -2.236068 0 
C -2.236068 0.593012 -2.000462 1.161816 -1.581139 1.581139 
C -1.161816 2.000462 -0.593012 2.236068 0 2.236068 
z
" style="stroke: #000000"/>
    </defs>
    <g clip-path="url(#p8983586a7d)">
     <use xlink:href="#m8d8a2f02e5" x="95.413435" y="182.508084" style="stroke: #000000"/>
     <use xlink:href="#m8d8a2f02e5" x="100.870063" y="146.437856" style="stroke: #000000"/>
     <use xlink:href="#m8d8a2f02e5" x="106.349521" y="146.442399" style="stroke: #000000"/>
     <use xlink:href="#m8d8a2f02e5" x="111.82898" y="202.156409" style="stroke: #000000"/>
     <use xlink:href="#m8d8a2f02e5" x="117.308439" y="141.88987" style="stroke: #000000"/>
     <use xlink:href="#m8d8a2f02e5" x="122.787898" y="173.210844" style="stroke: #000000"/>
     <use xlink:href="#m8d8a2f02e5" x="128.267356" y="171.586115" style="stroke: #000000"/>
     <use xlink:href="#m8d8a2f02e5" x="133.746815" y="210.978573" style="stroke: #000000"/>
     <use xlink:href="#m8d8a2f02e5" x="139.226274" y="134.572132" style="stroke: #000000"/>
     <use xlink:href="#m8d8a2f02e5" x="144.705732" y="193.229471" style="stroke: #000000"/>
     <use xlink:href="#m8d8a2f02e5" x="150.185191" y="122.817402" style="stroke: #000000"/>
     <use xlink:href="#m8d8a2f02e5" x="155.66465" y="193.559579" style="stroke: #000000"/>
     <use xlink:href="#m8d8a2f02e5" x="161.144108" y="198.589908" style="stroke: #000000"/>
     <use xlink:href="#m8d8a2f02e5" x="166.623567" y="154.661236" style="stroke: #000000"/>
     <use xlink:href="#m8d8a2f02e5" x="172.103026" y="126.422917" style="stroke: #000000"/>
     <use xlink:href="#m8d8a2f02e5" x="177.582484" y="157.702183" style="stroke: #000000"/>
     <use xlink:href="#m8d8a2f02e5" x="183.061943" y="163.610104" style="stroke: #000000"/>
     <use xlink:href="#m8d8a2f02e5" x="188.541402" y="176.732867" style="stroke: #000000"/>
     <use xlink:href="#m8d8a2f02e5" x="194.020861" y="161.580734" style="stroke: #000000"/>
     <use xlink:href="#m8d8a2f02e5" x="199.500319" y="216.18095" style="stroke: #000000"/>
     <use xlink:href="#m8d8a2f02e5" x="204.979778" y="240.53861" style="stroke: #000000"/>
     <use xlink:href="#m8d8a2f02e5" x="210.459237" y="230.029434" style="stroke: #000000"/>
     <use xlink:href="#m8d8a2f02e5" x="215.938695" y="202.933435" style="stroke: #000000"/>
     <use xlink:href="#m8d8a2f02e5" x="221.418154" y="210.203295" style="stroke: #000000"/>
     <use xlink:href="#m8d8a2f02e5" x="226.897613" y="262.844598" style="stroke: #000000"/>
     <use xlink:href="#m8d8a2f02e5" x="232.377071" y="202.366027" style="stroke: #000000"/>
     <use xlink:href="#m8d8a2f02e5" x="237.85653" y="251.874873" style="stroke: #000000"/>
     <use xlink:href="#m8d8a2f02e5" x="243.335989" y="221.995474" style="stroke: #000000"/>
     <use xlink:href="#m8d8a2f02e5" x="248.815448" y="234.14736" style="stroke: #000000"/>
     <use xlink:href="#m8d8a2f02e5" x="254.294906" y="212.659888" style="stroke: #000000"/>
     <use xlink:href="#m8d8a2f02e5" x="259.774365" y="233.214149" style="stroke: #000000"/>
     <use xlink:href="#m8d8a2f02e5" x="265.253824" y="258.641369" style="stroke: #000000"/>
     <use xlink:href="#m8d8a2f02e5" x="270.733282" y="249.933675" style="stroke: #000000"/>
     <use xlink:href="#m8d8a2f02e5" x="276.212741" y="236.76752" style="stroke: #000000"/>
     <use xlink:href="#m8d8a2f02e5" x="281.6922" y="239.014917" style="stroke: #000000"/>
     <use xlink:href="#m8d8a2f02e5" x="287.171658" y="233.676346" style="stroke: #000000"/>
     <use xlink:href="#m8d8a2f02e5" x="292.651117" y="231.7453" style="stroke: #000000"/>
     <use xlink:href="#m8d8a2f02e5" x="298.130576" y="282.544754" style="stroke: #000000"/>
     <use xlink:href="#m8d8a2f02e5" x="303.610035" y="263.747026" style="stroke: #000000"/>
     <use xlink:href="#m8d8a2f02e5" x="309.089493" y="275.501129" style="stroke: #000000"/>
     <use xlink:href="#m8d8a2f02e5" x="314.568952" y="292.228453" style="stroke: #000000"/>
     <use xlink:href="#m8d8a2f02e5" x="320.048411" y="252.67538" style="stroke: #000000"/>
     <use xlink:href="#m8d8a2f02e5" x="325.527869" y="257.137248" style="stroke: #000000"/>
     <use xlink:href="#m8d8a2f02e5" x="331.007328" y="241.157415" style="stroke: #000000"/>
     <use xlink:href="#m8d8a2f02e5" x="336.486787" y="273.372938" style="stroke: #000000"/>
     <use xlink:href="#m8d8a2f02e5" x="341.966245" y="254.896607" style="stroke: #000000"/>
     <use xlink:href="#m8d8a2f02e5" x="347.445704" y="278.679434" style="stroke: #000000"/>
     <use xlink:href="#m8d8a2f02e5" x="352.925163" y="284.6985" style="stroke: #000000"/>
     <use xlink:href="#m8d8a2f02e5" x="358.404622" y="294.686521" style="stroke: #000000"/>
     <use xlink:href="#m8d8a2f02e5" x="363.88408" y="317.968426" style="stroke: #000000"/>
     <use xlink:href="#m8d8a2f02e5" x="369.363539" y="313.814182" style="stroke: #000000"/>
     <use xlink:href="#m8d8a2f02e5" x="374.842998" y="317.955486" style="stroke: #000000"/>
     <use xlink:href="#m8d8a2f02e5" x="380.322456" y="326.40502" style="stroke: #000000"/>
     <use xlink:href="#m8d8a2f02e5" x="385.801915" y="329.355043" style="stroke: #000000"/>
     <use xlink:href="#m8d8a2f02e5" x="391.281374" y="336.188915" style="stroke: #000000"/>
     <use xlink:href="#m8d8a2f02e5" x="396.760832" y="347.840414" style="stroke: #000000"/>
     <use xlink:href="#m8d8a2f02e5" x="402.240291" y="359.55591" style="stroke: #000000"/>
     <use xlink:href="#m8d8a2f02e5" x="407.71975" y="347.092202" style="stroke: #000000"/>
     <use xlink:href="#m8d8a2f02e5" x="413.199208" y="346.831927" style="stroke: #000000"/>
     <use xlink:href="#m8d8a2f02e5" x="418.678667" y="350.308565" style="stroke: #000000"/>
     <use xlink:href="#m8d8a2f02e5" x="424.158126" y="351.40607" style="stroke: #000000"/>
     <use xlink:href="#m8d8a2f02e5" x="429.637585" y="356.17734" style="stroke: #000000"/>
     <use xlink:href="#m8d8a2f02e5" x="435.117043" y="356.690456" style="stroke: #000000"/>
     <use xlink:href="#m8d8a2f02e5" x="440.596502" y="363.959347" style="stroke: #000000"/>
     <use xlink:href="#m8d8a2f02e5" x="446.075961" y="366.289557" style="stroke: #000000"/>
     <use xlink:href="#m8d8a2f02e5" x="544.706217" y="377.033691" style="stroke: #000000"/>
    </g>
   </g>
   <g id="line2d_24">
    <path d="M 544.706217 377.033691 
L 446.075961 366.289557 
L 440.596502 363.959347 
L 435.117043 356.690456 
L 429.637585 356.17734 
L 424.158126 351.40607 
L 418.678667 350.308565 
L 413.199208 346.831927 
L 407.71975 347.092202 
L 402.240291 359.55591 
L 396.760832 347.840414 
L 391.281374 336.188915 
L 385.801915 329.355043 
L 380.322456 326.40502 
L 374.842998 317.955486 
L 369.363539 313.814182 
L 363.88408 317.968426 
L 358.404622 294.686521 
L 352.925163 284.6985 
L 347.445704 278.679434 
L 341.966245 254.896607 
L 336.486787 273.372938 
L 331.007328 241.157415 
L 325.527869 257.137248 
L 320.048411 252.67538 
L 314.568952 292.228453 
L 309.089493 275.501129 
L 303.610035 263.747026 
L 298.130576 282.544754 
L 292.651117 231.7453 
L 287.171658 233.676346 
L 281.6922 239.014917 
L 276.212741 236.76752 
L 270.733282 249.933675 
L 265.253824 258.641369 
L 259.774365 233.214149 
L 254.294906 212.659888 
L 248.815448 234.14736 
L 243.335989 221.995474 
L 237.85653 251.874873 
L 232.377071 202.366027 
L 226.897613 262.844598 
L 221.418154 210.203295 
L 215.938695 202.933435 
L 210.459237 230.029434 
L 204.979778 240.53861 
L 199.500319 216.18095 
L 194.020861 161.580734 
L 188.541402 176.732867 
L 183.061943 163.610104 
L 177.582484 157.702183 
L 172.103026 126.422917 
L 166.623567 154.661236 
L 161.144108 198.589908 
L 155.66465 193.559579 
L 150.185191 122.817402 
L 144.705732 193.229471 
L 139.226274 134.572132 
L 133.746815 210.978573 
L 128.267356 171.586115 
L 122.787898 173.210844 
L 117.308439 141.88987 
L 111.82898 202.156409 
L 106.349521 146.442399 
L 100.870063 146.437856 
L 95.413435 182.508084 
" clip-path="url(#p8983586a7d)" style="fill: none; stroke: #0000ff; stroke-width: 1.5; stroke-linecap: round"/>
   </g>
   <g id="line2d_25">
    <path d="M 544.706217 376.919741 
L 446.075961 366.241481 
L 440.596502 363.618097 
L 435.117043 356.619551 
L 429.637585 356.110062 
L 424.158126 351.147299 
L 418.678667 350.140698 
L 413.199208 346.404817 
L 407.71975 346.004585 
L 402.240291 359.342524 
L 396.760832 346.230205 
L 391.281374 335.185901 
L 385.801915 328.313659 
L 380.322456 325.441283 
L 374.842998 316.953781 
L 369.363539 312.651124 
L 363.88408 314.328096 
L 358.404622 292.098233 
L 352.925163 282.949605 
L 347.445704 274.52959 
L 341.966245 249.199257 
L 336.486787 270.68614 
L 331.007328 236.832745 
L 325.527869 254.62381 
L 320.048411 247.177772 
L 314.568952 289.194366 
L 309.089493 270.623582 
L 303.610035 256.822134 
L 298.130576 277.076649 
L 292.651117 224.724932 
L 287.171658 227.866815 
L 281.6922 233.334902 
L 276.212741 230.62213 
L 270.733282 241.832548 
L 265.253824 254.881424 
L 259.774365 228.731556 
L 254.294906 207.227689 
L 248.815448 228.531025 
L 243.335989 215.128114 
L 237.85653 245.386291 
L 232.377071 193.164529 
L 226.897613 259.510193 
L 221.418154 199.387215 
L 215.938695 192.831361 
L 210.459237 224.813247 
L 204.979778 235.563264 
L 199.500319 210.237969 
L 194.020861 152.328439 
L 188.541402 167.202472 
L 183.061943 151.414857 
L 177.582484 148.874307 
L 172.103026 108.274363 
L 166.623567 147.40559 
L 161.144108 193.323467 
L 155.66465 184.41888 
L 150.185191 111.076072 
L 144.705732 177.472681 
L 139.226274 120.680483 
L 133.746815 204.620613 
L 128.267356 158.409125 
L 122.787898 161.75782 
L 117.308439 129.156193 
L 111.82898 194.441446 
L 106.349521 134.727873 
L 100.870063 132.89425 
L 95.413435 172.459297 
" clip-path="url(#p8983586a7d)" style="fill: none; stroke-dasharray: 5.55,2.4; stroke-dashoffset: 0; stroke: #6495ed; stroke-width: 1.5"/>
   </g>
   <g id="line2d_26">
    <path d="M 544.706217 377.147641 
L 446.075961 366.337633 
L 440.596502 364.300596 
L 435.117043 356.76136 
L 429.637585 356.244617 
L 424.158126 351.664841 
L 418.678667 350.476431 
L 413.199208 347.259037 
L 407.71975 348.179818 
L 402.240291 359.769295 
L 396.760832 349.450622 
L 391.281374 337.191929 
L 385.801915 330.396427 
L 380.322456 327.368757 
L 374.842998 318.957191 
L 369.363539 314.977241 
L 363.88408 321.608756 
L 358.404622 297.274808 
L 352.925163 286.447395 
L 347.445704 282.829277 
L 341.966245 260.593958 
L 336.486787 276.059736 
L 331.007328 245.482086 
L 325.527869 259.650687 
L 320.048411 258.172988 
L 314.568952 295.262539 
L 309.089493 280.378675 
L 303.610035 270.671919 
L 298.130576 288.012858 
L 292.651117 238.765668 
L 287.171658 239.485877 
L 281.6922 244.694933 
L 276.212741 242.912909 
L 270.733282 258.034802 
L 265.253824 262.401314 
L 259.774365 237.696743 
L 254.294906 218.092088 
L 248.815448 239.763694 
L 243.335989 228.862833 
L 237.85653 258.363454 
L 232.377071 211.567525 
L 226.897613 266.179004 
L 221.418154 221.019375 
L 215.938695 213.035508 
L 210.459237 235.245622 
L 204.979778 245.513957 
L 199.500319 222.123932 
L 194.020861 170.833028 
L 188.541402 186.263262 
L 183.061943 175.805351 
L 177.582484 166.530059 
L 172.103026 144.571471 
L 166.623567 161.916883 
L 161.144108 203.85635 
L 155.66465 202.700278 
L 150.185191 134.558732 
L 144.705732 208.986261 
L 139.226274 148.463781 
L 133.746815 217.336533 
L 128.267356 184.763104 
L 122.787898 184.663867 
L 117.308439 154.623548 
L 111.82898 209.871371 
L 106.349521 158.156926 
L 100.870063 159.981461 
L 95.413435 192.556872 
" clip-path="url(#p8983586a7d)" style="fill: none; stroke-dasharray: 5.55,2.4; stroke-dashoffset: 0; stroke: #6495ed; stroke-width: 1.5"/>
   </g>
   <g id="line2d_27">
    <path d="M 544.706217 373.265928 
L 446.075961 366.02086 
L 440.596502 362.052102 
L 435.117043 356.294169 
L 429.637585 355.801326 
L 424.158126 349.959797 
L 418.678667 349.370358 
L 413.199208 344.444809 
L 407.71975 341.013508 
L 402.240291 358.363296 
L 396.760832 338.840949 
L 391.281374 330.583065 
L 385.801915 323.534741 
L 380.322456 321.018688 
L 374.842998 312.356952 
L 369.363539 307.313842 
L 363.88408 297.622601 
L 358.404622 280.220566 
L 352.925163 274.923914 
L 347.445704 255.485936 
L 341.966245 223.054082 
L 336.486787 258.356408 
L 331.007328 216.986809 
L 325.527869 243.089626 
L 320.048411 221.949219 
L 314.568952 275.270928 
L 309.089493 248.240494 
L 303.610035 225.043764 
L 298.130576 251.983487 
L 292.651117 192.508423 
L 287.171658 201.206846 
L 281.6922 207.269278 
L 276.212741 202.420904 
L 270.733282 204.656428 
L 265.253824 237.627015 
L 259.774365 208.160909 
L 254.294906 182.299295 
L 248.815448 202.757634 
L 243.335989 183.613761 
L 237.85653 215.610154 
L 232.377071 150.938804 
L 226.897613 244.208588 
L 221.418154 149.752163 
L 215.938695 146.47289 
L 210.459237 200.876135 
L 204.979778 212.731371 
L 199.500319 182.965594 
L 194.020861 109.869609 
L 188.541402 123.467435 
L 183.061943 95.4508 
L 177.582484 108.363135 
L 172.103026 24.990545 
L 166.623567 114.109388 
L 161.144108 169.155737 
L 155.66465 142.472161 
L 150.185191 57.195042 
L 144.705732 105.16468 
L 139.226274 56.931627 
L 133.746815 175.443899 
L 128.267356 97.939845 
L 122.787898 109.199829 
L 117.308439 70.721274 
L 111.82898 159.037439 
L 106.349521 80.969845 
L 100.870063 70.742569 
L 95.413435 126.579854 
" clip-path="url(#p8983586a7d)" style="fill: none; stroke-dasharray: 5.55,2.4; stroke-dashoffset: 0; stroke: #ffffff; stroke-opacity: 0; stroke-width: 1.5"/>
   </g>
   <g id="line2d_28">
    <path d="M 544.706217 380.801455 
L 446.075961 366.558254 
L 440.596502 365.866591 
L 435.117043 357.086742 
L 429.637585 356.553354 
L 424.158126 352.852343 
L 418.678667 351.246772 
L 413.199208 349.219045 
L 407.71975 353.170895 
L 402.240291 360.748523 
L 396.760832 356.839878 
L 391.281374 341.794766 
L 385.801915 335.175346 
L 380.322456 331.791352 
L 374.842998 323.554019 
L 369.363539 320.314522 
L 363.88408 338.314252 
L 358.404622 309.152476 
L 352.925163 294.473085 
L 347.445704 301.872931 
L 341.966245 286.739133 
L 336.486787 288.389467 
L 331.007328 265.328022 
L 325.527869 271.18487 
L 320.048411 283.40154 
L 314.568952 309.185977 
L 309.089493 302.761763 
L 303.610035 302.450289 
L 298.130576 313.10602 
L 292.651117 270.982176 
L 287.171658 266.145846 
L 281.6922 270.760557 
L 276.212741 271.114135 
L 270.733282 295.210922 
L 265.253824 279.655724 
L 259.774365 258.26739 
L 254.294906 243.020482 
L 248.815448 265.537085 
L 243.335989 260.377187 
L 237.85653 288.139591 
L 232.377071 253.793251 
L 226.897613 281.480609 
L 221.418154 270.654426 
L 215.938695 259.39398 
L 210.459237 259.182734 
L 204.979778 268.34585 
L 199.500319 249.396306 
L 194.020861 213.291858 
L 188.541402 229.998298 
L 183.061943 231.769408 
L 177.582484 207.041232 
L 172.103026 227.855288 
L 166.623567 195.213084 
L 161.144108 228.02408 
L 155.66465 244.646997 
L 150.185191 188.439762 
L 144.705732 281.294262 
L 139.226274 212.212637 
L 133.746815 246.513248 
L 128.267356 245.232384 
L 122.787898 237.221859 
L 117.308439 213.058467 
L 111.82898 245.275379 
L 106.349521 211.914953 
L 100.870063 222.133143 
L 95.413435 238.436314 
" clip-path="url(#p8983586a7d)" style="fill: none; stroke-dasharray: 5.55,2.4; stroke-dashoffset: 0; stroke: #ffffff; stroke-opacity: 0; stroke-width: 1.5"/>
   </g>
   <g id="patch_3">
    <path d="M 65.326641 398.592 
L 65.326641 7.2 
" style="fill: none; stroke: #0000ff; stroke-width: 2; stroke-linejoin: miter; stroke-linecap: square"/>
   </g>
   <g id="patch_4">
    <path d="M 667.966641 398.592 
L 667.966641 7.2 
" style="fill: none; stroke: #cccccc; stroke-width: 1.25; stroke-linejoin: miter; stroke-linecap: square"/>
   </g>
   <g id="patch_5">
    <path d="M 65.326641 398.592 
L 667.966641 398.592 
" style="fill: none; stroke: #cccccc; stroke-width: 1.25; stroke-linejoin: miter; stroke-linecap: square"/>
   </g>
   <g id="patch_6">
    <path d="M 65.326641 7.2 
L 667.966641 7.2 
" style="fill: none; stroke: #cccccc; stroke-width: 1.25; stroke-linejoin: miter; stroke-linecap: square"/>
   </g>
   <g id="axes_2">
    <g id="patch_7">
     <path d="M 459.380334 218.55168 
L 635.496947 218.55168 
L 635.496947 42.42528 
L 459.380334 42.42528 
z
" style="fill: #ffffff"/>
    </g>
    <g id="matplotlib.axis_3"/>
    <g id="matplotlib.axis_4"/>
    <g id="PathCollection_2">
     <defs>
      <path id="m006268458a" d="M 0 3 
C 0.795609 3 1.55874 2.683901 2.12132 2.12132 
C 2.683901 1.55874 3 0.795609 3 0 
C 3 -0.795609 2.683901 -1.55874 2.12132 -2.12132 
C 1.55874 -2.683901 0.795609 -3 0 -3 
C -0.795609 -3 -1.55874 -2.683901 -2.12132 -2.12132 
C -2.683901 -1.55874 -3 -0.795609 -3 0 
C -3 0.795609 -2.683901 1.55874 -2.12132 2.12132 
C -1.55874 2.683901 -0.795609 3 0 3 
z
" style="stroke: #0000ff"/>
     </defs>
     <g clip-path="url(#p4367350d15)">
      <use xlink:href="#m006268458a" x="595.757861" y="66.886403" style="fill: #0000ff; stroke: #0000ff"/>
      <use xlink:href="#m006268458a" x="619.774786" y="99.229491" style="fill: #0000ff; stroke: #0000ff"/>
      <use xlink:href="#m006268458a" x="483.008506" y="171.577056" style="fill: #0000ff; stroke: #0000ff"/>
      <use xlink:href="#m006268458a" x="511.733868" y="60.836637" style="fill: #0000ff; stroke: #0000ff"/>
      <use xlink:href="#m006268458a" x="473.179233" y="140.305439" style="fill: #0000ff; stroke: #0000ff"/>
      <use xlink:href="#m006268458a" x="545.711095" y="53.641585" style="fill: #0000ff; stroke: #0000ff"/>
      <use xlink:href="#m006268458a" x="603.102236" y="187.818885" style="fill: #0000ff; stroke: #0000ff"/>
      <use xlink:href="#m006268458a" x="560.262859" y="206.404232" style="fill: #0000ff; stroke: #0000ff"/>
      <use xlink:href="#m006268458a" x="625.392219" y="137.742878" style="fill: #0000ff; stroke: #0000ff"/>
      <use xlink:href="#m006268458a" x="540.992549" y="127.075365" style="fill: #0000ff; stroke: #0000ff"/>
      <use xlink:href="#m006268458a" x="479.735212" y="89.532437" style="fill: #0000ff; stroke: #0000ff"/>
      <use xlink:href="#m006268458a" x="517.571908" y="200.229073" style="fill: #0000ff; stroke: #0000ff"/>
     </g>
    </g>
    <g id="line2d_29">
     <path d="M 627.491646 130.48848 
L 627.420473 127.113348 
L 627.207079 123.744216 
L 626.851843 120.387076 
L 626.355398 117.047896 
L 625.718626 113.732612 
L 624.94266 110.44712 
L 624.028878 107.197261 
L 622.978906 103.988812 
L 621.79461 100.827479 
L 620.478096 97.718882 
L 619.031705 94.668549 
L 617.458008 91.681902 
L 615.759803 88.764251 
L 613.94011 85.920785 
L 612.002164 83.156558 
L 609.949411 80.476486 
L 607.7855 77.885333 
L 605.514278 75.387707 
L 603.139785 72.988048 
L 600.666241 70.690623 
L 598.098044 68.499516 
L 595.439761 66.418623 
L 592.696118 64.451644 
L 589.871993 62.602076 
L 586.972407 60.873208 
L 584.002516 59.268113 
L 580.9676 57.789645 
L 577.873055 56.440434 
L 574.724382 55.222877 
L 571.527181 54.139139 
L 568.287135 53.191148 
L 565.010006 52.380588 
L 561.701619 51.708902 
L 558.367858 51.177283 
L 555.014649 50.786676 
L 551.647955 50.537776 
L 548.27376 50.431025 
L 544.898065 50.466614 
L 541.526872 50.644479 
L 538.166173 50.964303 
L 534.821945 51.425519 
L 531.500133 52.027305 
L 528.206643 52.768593 
L 524.947331 53.648064 
L 521.727992 54.664154 
L 518.554349 55.815057 
L 515.432047 57.098727 
L 512.366634 58.512881 
L 509.363563 60.055005 
L 506.428172 61.722358 
L 503.565681 63.511973 
L 500.781178 65.420671 
L 498.079614 67.445057 
L 495.465794 69.581532 
L 492.944363 71.826297 
L 490.519805 74.175361 
L 488.196431 76.624548 
L 485.978372 79.169503 
L 483.869571 81.805701 
L 481.873778 84.528456 
L 479.99454 87.332926 
L 478.235201 90.214125 
L 476.598886 93.16693 
L 475.088506 96.186091 
L 473.706747 99.266241 
L 472.456064 102.401903 
L 471.338681 105.587502 
L 470.356586 108.817373 
L 469.511524 112.085776 
L 468.804998 115.386897 
L 468.238263 118.714869 
L 467.812328 122.063774 
L 467.52795 125.427657 
L 467.385635 128.800539 
L 467.385635 132.176421 
L 467.52795 135.549303 
L 467.812328 138.913186 
L 468.238263 142.262091 
L 468.804998 145.590063 
L 469.511524 148.891184 
L 470.356586 152.159587 
L 471.338681 155.389458 
L 472.456064 158.575057 
L 473.706747 161.710719 
L 475.088506 164.790869 
L 476.598886 167.81003 
L 478.235201 170.762835 
L 479.99454 173.644034 
L 481.873778 176.448504 
L 483.869571 179.171259 
L 485.978372 181.807457 
L 488.196431 184.352412 
L 490.519805 186.801599 
L 492.944363 189.150663 
L 495.465794 191.395428 
L 498.079614 193.531903 
L 500.781178 195.556289 
L 503.565681 197.464987 
L 506.428172 199.254602 
L 509.363563 200.921955 
L 512.366634 202.464079 
L 515.432047 203.878233 
L 518.554349 205.161903 
L 521.727992 206.312806 
L 524.947331 207.328896 
L 528.206643 208.208367 
L 531.500133 208.949655 
L 534.821945 209.551441 
L 538.166173 210.012657 
L 541.526872 210.332481 
L 544.898065 210.510346 
L 548.27376 210.545935 
L 551.647955 210.439184 
L 555.014649 210.190284 
L 558.367858 209.799677 
L 561.701619 209.268058 
L 565.010006 208.596372 
L 568.287135 207.785812 
L 571.527181 206.837821 
L 574.724382 205.754083 
L 577.873055 204.536526 
L 580.9676 203.187315 
L 584.002516 201.708847 
L 586.972407 200.103752 
L 589.871993 198.374884 
L 592.696118 196.525316 
L 595.439761 194.558337 
L 598.098044 192.477444 
L 600.666241 190.286337 
L 603.139785 187.988912 
L 605.514278 185.589253 
L 607.7855 183.091627 
L 609.949411 180.500474 
L 612.002164 177.820402 
L 613.94011 175.056175 
L 615.759803 172.212709 
L 617.458008 169.295058 
L 619.031705 166.308411 
L 620.478096 163.258078 
L 621.79461 160.149481 
L 622.978906 156.988148 
L 624.028878 153.779699 
L 624.94266 150.52984 
L 625.718626 147.244348 
L 626.355398 143.929064 
L 626.851843 140.589884 
L 627.207079 137.232744 
L 627.420473 133.863612 
L 627.491646 130.48848 
L 627.491646 130.48848 
" clip-path="url(#p4367350d15)" style="fill: none; stroke: #000000; stroke-width: 1.5; stroke-linecap: round"/>
    </g>
    <g id="line2d_30">
     <path d="M 468.186165 130.48848 
L 626.691116 130.48848 
" clip-path="url(#p4367350d15)" style="fill: none; stroke: #000000; stroke-width: 1.5; stroke-linecap: round"/>
    </g>
    <g id="line2d_31">
     <path d="M 547.429743 209.74536 
L 547.429743 51.2316 
" clip-path="url(#p4367350d15)" style="fill: none; stroke: #000000; stroke-width: 1.5; stroke-linecap: round"/>
    </g>
    <g id="patch_8">
     <path d="M 459.380334 218.55168 
L 459.380334 42.42528 
" style="fill: none; stroke: #262626; stroke-width: 1.25; stroke-linejoin: miter; stroke-linecap: square"/>
    </g>
    <g id="patch_9">
     <path d="M 635.496947 218.55168 
L 635.496947 42.42528 
" style="fill: none; stroke: #262626; stroke-width: 1.25; stroke-linejoin: miter; stroke-linecap: square"/>
    </g>
    <g id="patch_10">
     <path d="M 459.380334 218.55168 
L 635.496947 218.55168 
" style="fill: none; stroke: #262626; stroke-width: 1.25; stroke-linejoin: miter; stroke-linecap: square"/>
    </g>
    <g id="patch_11">
     <path d="M 459.380334 42.42528 
L 635.496947 42.42528 
" style="fill: none; stroke: #262626; stroke-width: 1.25; stroke-linejoin: miter; stroke-linecap: square"/>
    </g>
   </g>
   <g id="legend_1">
    <g id="patch_12">
     <path d="M 282.033047 97.777812 
L 451.260234 97.777812 
Q 454.060234 97.777812 454.060234 94.977812 
L 454.060234 17 
Q 454.060234 14.2 451.260234 14.2 
L 282.033047 14.2 
Q 279.233047 14.2 279.233047 17 
L 279.233047 94.977812 
Q 279.233047 97.777812 282.033047 97.777812 
z
" style="fill: #ffffff; stroke: #000000; stroke-linejoin: miter"/>
    </g>
    <g id="line2d_32">
     <path d="M 284.833047 24.920937 
L 298.833047 24.920937 
L 312.833047 24.920937 
" style="fill: none; stroke: #0000ff; stroke-width: 1.5; stroke-linecap: round"/>
    </g>
    <g id="text_18">
     <!-- Mean Energy -->
     <g style="fill: #262626" transform="translate(324.033047 29.820937)scale(0.14 -0.14)">
      <defs>
       <path id="ArialMT-4d" d="M 475 0 
L 475 4581 
L 1388 4581 
L 2472 1338 
Q 2622 884 2691 659 
Q 2769 909 2934 1394 
L 4031 4581 
L 4847 4581 
L 4847 0 
L 4263 0 
L 4263 3834 
L 2931 0 
L 2384 0 
L 1059 3900 
L 1059 0 
L 475 0 
z
" transform="scale(0.015625)"/>
      </defs>
      <use xlink:href="#ArialMT-4d"/>
      <use xlink:href="#ArialMT-65" x="83.300781"/>
      <use xlink:href="#ArialMT-61" x="138.916016"/>
      <use xlink:href="#ArialMT-6e" x="194.53125"/>
      <use xlink:href="#ArialMT-20" x="250.146484"/>
      <use xlink:href="#ArialMT-45" x="277.929688"/>
      <use xlink:href="#ArialMT-6e" x="344.628906"/>
      <use xlink:href="#ArialMT-65" x="400.244141"/>
      <use xlink:href="#ArialMT-72" x="455.859375"/>
      <use xlink:href="#ArialMT-67" x="489.160156"/>
      <use xlink:href="#ArialMT-79" x="544.775391"/>
     </g>
    </g>
    <g id="line2d_33">
     <path d="M 284.833047 44.888437 
L 298.833047 44.888437 
L 312.833047 44.888437 
" style="fill: none; stroke-dasharray: 5.55,2.4; stroke-dashoffset: 0; stroke: #6495ed; stroke-width: 1.5"/>
    </g>
    <g id="text_19">
     <!-- 95% CI -->
     <g style="fill: #262626" transform="translate(324.033047 49.788437)scale(0.14 -0.14)">
      <defs>
       <path id="ArialMT-35" d="M 266 1200 
L 856 1250 
Q 922 819 1161 601 
Q 1400 384 1738 384 
Q 2144 384 2425 690 
Q 2706 997 2706 1503 
Q 2706 1984 2436 2262 
Q 2166 2541 1728 2541 
Q 1456 2541 1237 2417 
Q 1019 2294 894 2097 
L 366 2166 
L 809 4519 
L 3088 4519 
L 3088 3981 
L 1259 3981 
L 1013 2750 
Q 1425 3038 1878 3038 
Q 2478 3038 2890 2622 
Q 3303 2206 3303 1553 
Q 3303 931 2941 478 
Q 2500 -78 1738 -78 
Q 1113 -78 717 272 
Q 322 622 266 1200 
z
" transform="scale(0.015625)"/>
       <path id="ArialMT-25" d="M 372 3481 
Q 372 3972 619 4315 
Q 866 4659 1334 4659 
Q 1766 4659 2048 4351 
Q 2331 4044 2331 3447 
Q 2331 2866 2045 2552 
Q 1759 2238 1341 2238 
Q 925 2238 648 2547 
Q 372 2856 372 3481 
z
M 1350 4272 
Q 1141 4272 1002 4090 
Q 863 3909 863 3425 
Q 863 2984 1003 2804 
Q 1144 2625 1350 2625 
Q 1563 2625 1702 2806 
Q 1841 2988 1841 3469 
Q 1841 3913 1700 4092 
Q 1559 4272 1350 4272 
z
M 1353 -169 
L 3859 4659 
L 4316 4659 
L 1819 -169 
L 1353 -169 
z
M 3334 1075 
Q 3334 1569 3581 1911 
Q 3828 2253 4300 2253 
Q 4731 2253 5014 1945 
Q 5297 1638 5297 1041 
Q 5297 459 5011 145 
Q 4725 -169 4303 -169 
Q 3888 -169 3611 142 
Q 3334 453 3334 1075 
z
M 4316 1866 
Q 4103 1866 3964 1684 
Q 3825 1503 3825 1019 
Q 3825 581 3965 400 
Q 4106 219 4313 219 
Q 4528 219 4667 400 
Q 4806 581 4806 1063 
Q 4806 1506 4665 1686 
Q 4525 1866 4316 1866 
z
" transform="scale(0.015625)"/>
       <path id="ArialMT-43" d="M 3763 1606 
L 4369 1453 
Q 4178 706 3683 314 
Q 3188 -78 2472 -78 
Q 1731 -78 1267 223 
Q 803 525 561 1097 
Q 319 1669 319 2325 
Q 319 3041 592 3573 
Q 866 4106 1370 4382 
Q 1875 4659 2481 4659 
Q 3169 4659 3637 4309 
Q 4106 3959 4291 3325 
L 3694 3184 
Q 3534 3684 3231 3912 
Q 2928 4141 2469 4141 
Q 1941 4141 1586 3887 
Q 1231 3634 1087 3207 
Q 944 2781 944 2328 
Q 944 1744 1114 1308 
Q 1284 872 1643 656 
Q 2003 441 2422 441 
Q 2931 441 3284 734 
Q 3638 1028 3763 1606 
z
" transform="scale(0.015625)"/>
       <path id="ArialMT-49" d="M 597 0 
L 597 4581 
L 1203 4581 
L 1203 0 
L 597 0 
z
" transform="scale(0.015625)"/>
      </defs>
      <use xlink:href="#ArialMT-39"/>
      <use xlink:href="#ArialMT-35" x="55.615234"/>
      <use xlink:href="#ArialMT-25" x="111.230469"/>
      <use xlink:href="#ArialMT-20" x="200.146484"/>
      <use xlink:href="#ArialMT-43" x="227.929688"/>
      <use xlink:href="#ArialMT-49" x="300.146484"/>
     </g>
    </g>
    <g id="patch_13">
     <path d="M 284.833047 69.591875 
L 312.833047 69.591875 
L 312.833047 59.791875 
L 284.833047 59.791875 
z
" style="fill-opacity: 0.15; stroke: #000000; stroke-opacity: 0.15; stroke-linejoin: miter"/>
    </g>
    <g id="text_20">
     <!-- Standard deviation -->
     <g style="fill: #262626" transform="translate(324.033047 69.591875)scale(0.14 -0.14)">
      <defs>
       <path id="ArialMT-b1" d="M 1491 813 
L 1491 2072 
L 244 2072 
L 244 2594 
L 1491 2594 
L 1491 3841 
L 2022 3841 
L 2022 2594 
L 3269 2594 
L 3269 2072 
L 2022 2072 
L 2022 813 
L 1491 813 
z
M 3269 0 
L 244 0 
L 244 525 
L 3269 525 
L 3269 0 
z
" transform="scale(0.015625)"/>
       <path id="ArialMT-53" d="M 288 1472 
L 859 1522 
Q 900 1178 1048 958 
Q 1197 738 1509 602 
Q 1822 466 2213 466 
Q 2559 466 2825 569 
Q 3091 672 3220 851 
Q 3350 1031 3350 1244 
Q 3350 1459 3225 1620 
Q 3100 1781 2813 1891 
Q 2628 1963 1997 2114 
Q 1366 2266 1113 2400 
Q 784 2572 623 2826 
Q 463 3081 463 3397 
Q 463 3744 659 4045 
Q 856 4347 1234 4503 
Q 1613 4659 2075 4659 
Q 2584 4659 2973 4495 
Q 3363 4331 3572 4012 
Q 3781 3694 3797 3291 
L 3216 3247 
Q 3169 3681 2898 3903 
Q 2628 4125 2100 4125 
Q 1550 4125 1298 3923 
Q 1047 3722 1047 3438 
Q 1047 3191 1225 3031 
Q 1400 2872 2139 2705 
Q 2878 2538 3153 2413 
Q 3553 2228 3743 1945 
Q 3934 1663 3934 1294 
Q 3934 928 3725 604 
Q 3516 281 3123 101 
Q 2731 -78 2241 -78 
Q 1619 -78 1198 103 
Q 778 284 539 648 
Q 300 1013 288 1472 
z
" transform="scale(0.015625)"/>
       <path id="ArialMT-64" d="M 2575 0 
L 2575 419 
Q 2259 -75 1647 -75 
Q 1250 -75 917 144 
Q 584 363 401 755 
Q 219 1147 219 1656 
Q 219 2153 384 2558 
Q 550 2963 881 3178 
Q 1213 3394 1622 3394 
Q 1922 3394 2156 3267 
Q 2391 3141 2538 2938 
L 2538 4581 
L 3097 4581 
L 3097 0 
L 2575 0 
z
M 797 1656 
Q 797 1019 1065 703 
Q 1334 388 1700 388 
Q 2069 388 2326 689 
Q 2584 991 2584 1609 
Q 2584 2291 2321 2609 
Q 2059 2928 1675 2928 
Q 1300 2928 1048 2622 
Q 797 2316 797 1656 
z
" transform="scale(0.015625)"/>
      </defs>
      <use xlink:href="#ArialMT-b1"/>
      <use xlink:href="#ArialMT-53" x="54.882812"/>
      <use xlink:href="#ArialMT-74" x="121.582031"/>
      <use xlink:href="#ArialMT-61" x="149.365234"/>
      <use xlink:href="#ArialMT-6e" x="204.980469"/>
      <use xlink:href="#ArialMT-64" x="260.595703"/>
      <use xlink:href="#ArialMT-61" x="316.210938"/>
      <use xlink:href="#ArialMT-72" x="371.826172"/>
      <use xlink:href="#ArialMT-64" x="405.126953"/>
      <use xlink:href="#ArialMT-20" x="460.742188"/>
      <use xlink:href="#ArialMT-64" x="488.525391"/>
      <use xlink:href="#ArialMT-65" x="544.140625"/>
      <use xlink:href="#ArialMT-76" x="599.755859"/>
      <use xlink:href="#ArialMT-69" x="649.755859"/>
      <use xlink:href="#ArialMT-61" x="671.972656"/>
      <use xlink:href="#ArialMT-74" x="727.587891"/>
      <use xlink:href="#ArialMT-69" x="755.371094"/>
      <use xlink:href="#ArialMT-6f" x="777.587891"/>
      <use xlink:href="#ArialMT-6e" x="833.203125"/>
     </g>
    </g>
    <g id="line2d_34">
     <path d="M 284.833047 84.495312 
L 298.833047 84.495312 
L 312.833047 84.495312 
" style="fill: none; stroke: #ff0000; stroke-width: 1.5; stroke-linecap: round"/>
    </g>
    <g id="text_21">
     <!-- Temperature -->
     <g style="fill: #262626" transform="translate(324.033047 89.395312)scale(0.14 -0.14)">
      <defs>
       <path id="ArialMT-54" d="M 1659 0 
L 1659 4041 
L 150 4041 
L 150 4581 
L 3781 4581 
L 3781 4041 
L 2266 4041 
L 2266 0 
L 1659 0 
z
" transform="scale(0.015625)"/>
       <path id="ArialMT-6d" d="M 422 0 
L 422 3319 
L 925 3319 
L 925 2853 
Q 1081 3097 1340 3245 
Q 1600 3394 1931 3394 
Q 2300 3394 2536 3241 
Q 2772 3088 2869 2813 
Q 3263 3394 3894 3394 
Q 4388 3394 4653 3120 
Q 4919 2847 4919 2278 
L 4919 0 
L 4359 0 
L 4359 2091 
Q 4359 2428 4304 2576 
Q 4250 2725 4106 2815 
Q 3963 2906 3769 2906 
Q 3419 2906 3187 2673 
Q 2956 2441 2956 1928 
L 2956 0 
L 2394 0 
L 2394 2156 
Q 2394 2531 2256 2718 
Q 2119 2906 1806 2906 
Q 1569 2906 1367 2781 
Q 1166 2656 1075 2415 
Q 984 2175 984 1722 
L 984 0 
L 422 0 
z
" transform="scale(0.015625)"/>
       <path id="ArialMT-70" d="M 422 -1272 
L 422 3319 
L 934 3319 
L 934 2888 
Q 1116 3141 1344 3267 
Q 1572 3394 1897 3394 
Q 2322 3394 2647 3175 
Q 2972 2956 3137 2557 
Q 3303 2159 3303 1684 
Q 3303 1175 3120 767 
Q 2938 359 2589 142 
Q 2241 -75 1856 -75 
Q 1575 -75 1351 44 
Q 1128 163 984 344 
L 984 -1272 
L 422 -1272 
z
M 931 1641 
Q 931 1000 1190 694 
Q 1450 388 1819 388 
Q 2194 388 2461 705 
Q 2728 1022 2728 1688 
Q 2728 2322 2467 2637 
Q 2206 2953 1844 2953 
Q 1484 2953 1207 2617 
Q 931 2281 931 1641 
z
" transform="scale(0.015625)"/>
      </defs>
      <use xlink:href="#ArialMT-54"/>
      <use xlink:href="#ArialMT-65" x="49.958984"/>
      <use xlink:href="#ArialMT-6d" x="105.574219"/>
      <use xlink:href="#ArialMT-70" x="188.875"/>
      <use xlink:href="#ArialMT-65" x="244.490234"/>
      <use xlink:href="#ArialMT-72" x="300.105469"/>
      <use xlink:href="#ArialMT-61" x="333.40625"/>
      <use xlink:href="#ArialMT-74" x="389.021484"/>
      <use xlink:href="#ArialMT-75" x="416.804688"/>
      <use xlink:href="#ArialMT-72" x="472.419922"/>
      <use xlink:href="#ArialMT-65" x="505.720703"/>
     </g>
    </g>
   </g>
  </g>
  <g id="axes_3">
   <g id="matplotlib.axis_5">
    <g id="ytick_9">
     <g id="line2d_35">
      <defs>
       <path id="md12eb6a3fc" d="M 0 0 
L 6 0 
" style="stroke: #262626; stroke-width: 1.25"/>
      </defs>
      <g>
       <use xlink:href="#md12eb6a3fc" x="667.966641" y="381.510583" style="fill: #262626; stroke: #262626; stroke-width: 1.25"/>
      </g>
     </g>
     <g id="text_22">
      <!-- 0 -->
      <g style="fill: #262626" transform="translate(677.466641 385.44738)scale(0.11 -0.11)">
       <use xlink:href="#ArialMT-30"/>
      </g>
     </g>
    </g>
    <g id="ytick_10">
     <g id="line2d_36">
      <g>
       <use xlink:href="#md12eb6a3fc" x="667.966641" y="310.597769" style="fill: #262626; stroke: #262626; stroke-width: 1.25"/>
      </g>
     </g>
     <g id="text_23">
      <!-- 10 -->
      <g style="fill: #262626" transform="translate(677.466641 314.534566)scale(0.11 -0.11)">
       <use xlink:href="#ArialMT-31"/>
       <use xlink:href="#ArialMT-30" x="55.615234"/>
      </g>
     </g>
    </g>
    <g id="ytick_11">
     <g id="line2d_37">
      <g>
       <use xlink:href="#md12eb6a3fc" x="667.966641" y="239.684955" style="fill: #262626; stroke: #262626; stroke-width: 1.25"/>
      </g>
     </g>
     <g id="text_24">
      <!-- 20 -->
      <g style="fill: #262626" transform="translate(677.466641 243.621752)scale(0.11 -0.11)">
       <use xlink:href="#ArialMT-32"/>
       <use xlink:href="#ArialMT-30" x="55.615234"/>
      </g>
     </g>
    </g>
    <g id="ytick_12">
     <g id="line2d_38">
      <g>
       <use xlink:href="#md12eb6a3fc" x="667.966641" y="168.772141" style="fill: #262626; stroke: #262626; stroke-width: 1.25"/>
      </g>
     </g>
     <g id="text_25">
      <!-- 30 -->
      <g style="fill: #262626" transform="translate(677.466641 172.708938)scale(0.11 -0.11)">
       <use xlink:href="#ArialMT-33"/>
       <use xlink:href="#ArialMT-30" x="55.615234"/>
      </g>
     </g>
    </g>
    <g id="ytick_13">
     <g id="line2d_39">
      <g>
       <use xlink:href="#md12eb6a3fc" x="667.966641" y="97.859327" style="fill: #262626; stroke: #262626; stroke-width: 1.25"/>
      </g>
     </g>
     <g id="text_26">
      <!-- 40 -->
      <g style="fill: #262626" transform="translate(677.466641 101.796124)scale(0.11 -0.11)">
       <use xlink:href="#ArialMT-34"/>
       <use xlink:href="#ArialMT-30" x="55.615234"/>
      </g>
     </g>
    </g>
    <g id="ytick_14">
     <g id="line2d_40">
      <g>
       <use xlink:href="#md12eb6a3fc" x="667.966641" y="26.946513" style="fill: #262626; stroke: #262626; stroke-width: 1.25"/>
      </g>
     </g>
     <g id="text_27">
      <!-- 50 -->
      <g style="fill: #262626" transform="translate(677.466641 30.88331)scale(0.11 -0.11)">
       <use xlink:href="#ArialMT-35"/>
       <use xlink:href="#ArialMT-30" x="55.615234"/>
      </g>
     </g>
    </g>
    <g id="text_28">
     <!-- Temperature -->
     <g style="fill: #262626" transform="translate(706.584766 253.411312)rotate(-90)scale(0.18 -0.18)">
      <use xlink:href="#ArialMT-54"/>
      <use xlink:href="#ArialMT-65" x="49.958984"/>
      <use xlink:href="#ArialMT-6d" x="105.574219"/>
      <use xlink:href="#ArialMT-70" x="188.875"/>
      <use xlink:href="#ArialMT-65" x="244.490234"/>
      <use xlink:href="#ArialMT-72" x="300.105469"/>
      <use xlink:href="#ArialMT-61" x="333.40625"/>
      <use xlink:href="#ArialMT-74" x="389.021484"/>
      <use xlink:href="#ArialMT-75" x="416.804688"/>
      <use xlink:href="#ArialMT-72" x="472.419922"/>
      <use xlink:href="#ArialMT-65" x="505.720703"/>
     </g>
    </g>
   </g>
   <g id="PolyCollection_10"/>
   <g id="line2d_41">
    <path d="M 92.719368 24.990545 
L 98.107502 24.990545 
L 98.244489 49.748451 
L 103.586961 49.748451 
L 103.723947 69.655542 
L 109.06642 69.655542 
L 109.203406 83.777813 
L 114.545878 83.777813 
L 114.682865 112.54504 
L 120.025337 112.54504 
L 120.162324 115.693304 
L 125.504796 115.693304 
L 125.641782 140.034383 
L 130.984254 140.034383 
L 131.121241 158.30256 
L 136.463713 158.30256 
L 136.6007 160.238586 
L 141.943172 160.238586 
L 142.080158 178.93141 
L 147.422631 178.93141 
L 147.559617 199.527485 
L 152.902089 199.527485 
L 153.039076 203.275584 
L 158.381548 203.275584 
L 158.518534 207.317216 
L 163.861007 207.317216 
L 163.997993 223.883783 
L 169.340465 223.883783 
L 169.477452 241.090132 
L 174.819924 241.090132 
L 174.956911 247.609172 
L 180.299383 247.609172 
L 180.436369 247.95554 
L 185.778841 247.95554 
L 185.915828 252.354048 
L 191.2583 252.354048 
L 191.395287 263.865203 
L 196.737759 263.865203 
L 196.874745 277.624741 
L 202.217218 277.624741 
L 202.354204 287.630759 
L 207.696676 287.630759 
L 207.833663 291.852157 
L 213.176135 291.852157 
L 213.313121 292.398884 
L 218.655594 292.398884 
L 218.79258 292.854254 
L 224.135052 292.854254 
L 224.272039 295.772192 
L 229.614511 295.772192 
L 229.751497 301.728951 
L 235.09397 301.728951 
L 235.230956 309.726131 
L 240.573428 309.726131 
L 240.710415 318.133746 
L 246.052887 318.133746 
L 246.189874 325.510348 
L 251.532346 325.510348 
L 251.669332 331.025026 
L 257.011805 331.025026 
L 257.148791 334.506365 
L 262.491263 334.506365 
L 262.62825 336.270996 
L 267.970722 336.270996 
L 268.107708 336.884781 
L 278.929639 336.955478 
L 279.112288 336.997624 
L 284.409098 336.997624 
L 284.546084 337.370493 
L 289.888557 337.370493 
L 290.025543 338.270832 
L 295.368015 338.270832 
L 295.505002 339.757812 
L 300.847474 339.757812 
L 300.984461 341.791274 
L 306.326933 341.791274 
L 306.463919 344.270587 
L 311.806391 344.270587 
L 311.943378 347.067297 
L 317.28585 347.067297 
L 317.422837 350.04906 
L 322.765309 350.04906 
L 322.902295 353.09502 
L 328.244768 353.09502 
L 328.381754 356.104087 
L 333.724226 356.104087 
L 333.861213 358.997987 
L 339.203685 358.997987 
L 339.340671 361.720857 
L 344.683144 361.720857 
L 344.82013 364.236841 
L 350.162602 364.236841 
L 350.299589 366.526744 
L 355.642061 366.526744 
L 355.779048 368.584461 
L 361.12152 368.584461 
L 361.258506 370.413616 
L 366.600978 370.413616 
L 366.737965 372.024631 
L 372.080437 372.024631 
L 372.217424 373.432308 
L 377.559896 373.432308 
L 377.696882 374.653937 
L 383.039355 374.653937 
L 383.176341 375.707864 
L 388.518813 375.707864 
L 388.6558 376.612471 
L 393.998272 376.612471 
L 394.135258 377.385468 
L 399.477731 377.385468 
L 399.614717 378.043452 
L 404.957189 378.043452 
L 405.094176 378.601648 
L 410.436648 378.601648 
L 410.573635 379.073794 
L 415.916107 379.073794 
L 416.053093 379.472127 
L 421.395565 379.472127 
L 421.532552 379.807428 
L 426.875024 379.807428 
L 427.012011 380.089113 
L 432.354483 380.089113 
L 432.491469 380.325342 
L 437.833942 380.325342 
L 437.970928 380.52315 
L 443.3134 380.52315 
L 443.450387 380.688562 
L 448.792859 380.688562 
L 448.929845 380.801455 
L 640.573913 380.801455 
L 640.573913 380.801455 
" clip-path="url(#p8983586a7d)" style="fill: none; stroke: #ff0000; stroke-width: 1.5; stroke-linecap: round"/>
   </g>
   <g id="patch_14">
    <path d="M 65.326641 398.592 
L 65.326641 7.2 
" style="fill: none; stroke: #262626; stroke-width: 1.25; stroke-linejoin: miter; stroke-linecap: square"/>
   </g>
   <g id="patch_15">
    <path d="M 667.966641 398.592 
L 667.966641 7.2 
" style="fill: none; stroke: #ff0000; stroke-width: 2; stroke-linejoin: miter; stroke-linecap: square"/>
   </g>
   <g id="patch_16">
    <path d="M 65.326641 398.592 
L 667.966641 398.592 
" style="fill: none; stroke: #262626; stroke-width: 1.25; stroke-linejoin: miter; stroke-linecap: square"/>
   </g>
   <g id="patch_17">
    <path d="M 65.326641 7.2 
L 667.966641 7.2 
" style="fill: none; stroke: #262626; stroke-width: 1.25; stroke-linejoin: miter; stroke-linecap: square"/>
   </g>
   <g id="legend_2"/>
  </g>
 </g>
 <defs>
  <clipPath id="p8983586a7d">
   <rect x="65.326641" y="7.2" width="602.64" height="391.392"/>
  </clipPath>
  <clipPath id="p4367350d15">
   <rect x="459.380334" y="42.42528" width="176.116613" height="176.1264"/>
  </clipPath>
 </defs>
</svg>
